solid Untitled
facet normal 0.38620666554318195 0.9224122784796487 0.0
  outer loop
    vertex 19.848288584359494 -0.34257836690227844 6.299999999999998
    vertex 20.51529883587251 -0.621850240369262 1.999999999999998
    vertex 19.848288584359494 -0.34257836690227844 1.999999999999998
  endloop
endfacet
facet normal 0.38620666554318195 0.9224122784796487 0.0
  outer loop
    vertex 20.51529883587251 -0.621850240369262 1.999999999999998
    vertex 19.848288584359494 -0.34257836690227844 6.299999999999998
    vertex 20.51529883587251 -0.621850240369262 6.299999999999998
  endloop
endfacet
facet normal 0.6057291331544671 -0.795670922711103 0.0
  outer loop
    vertex 21.072349591726663 -4.981584149421127 6.299999999999998
    vertex 20.496987928985263 -5.419596035082558 1.999999999999998
    vertex 21.072349591726663 -4.981584149421127 1.999999999999998
  endloop
endfacet
facet normal 0.6057291331544671 -0.795670922711103 0.0
  outer loop
    vertex 20.496987928985263 -5.419596035082558 1.999999999999998
    vertex 21.072349591726663 -4.981584149421127 6.299999999999998
    vertex 20.496987928985263 -5.419596035082558 6.299999999999998
  endloop
endfacet
facet normal -0.6087614290087231 0.7933533402912333 -4.971141695280729e-16
  outer loop
    vertex 10.860926152550968 2.791669546970866 1.9999999999999998
    vertex 11.068032933737513 2.950588169568756 0.8918706648697856
    vertex 10.860926152550968 2.791669546970866 0.8918706648697856
  endloop
endfacet
facet normal -0.6087614290087231 0.7933533402912333 -4.971141695280729e-16
  outer loop
    vertex 11.068032933737513 2.950588169568756 0.8918706648697856
    vertex 10.860926152550968 2.791669546970866 1.9999999999999998
    vertex 11.068032933737513 2.950588169568756 1.9999999999999998
  endloop
endfacet
facet normal -1.0 0.0 0.0
  outer loop
    vertex 19.679272933737504 -3.6038622342156814 6.299999999999998
    vertex 19.679272933737504 -5.109222234215688 1.999999999999998
    vertex 19.679272933737504 -5.109222234215688 6.299999999999998
  endloop
endfacet
facet normal -1.0 0.0 0.0
  outer loop
    vertex 19.679272933737504 -5.109222234215688 1.999999999999998
    vertex 19.679272933737504 -3.6038622342156814 6.299999999999998
    vertex 19.679272933737504 -3.6038622342156814 1.999999999999998
  endloop
endfacet
facet normal 0.0 -1.0 0.0
  outer loop
    vertex 18.50779293373752 -2.4270122342156775 6.299999999999998
    vertex 17.086892933737516 -2.4270122342156775 1.999999999999998
    vertex 18.50779293373752 -2.4270122342156775 1.999999999999998
  endloop
endfacet
facet normal 0.0 -1.0 0.0
  outer loop
    vertex 17.086892933737516 -2.4270122342156775 1.999999999999998
    vertex 18.50779293373752 -2.4270122342156775 6.299999999999998
    vertex 17.086892933737516 -2.4270122342156775 6.299999999999998
  endloop
endfacet
facet normal 0.0 1.0 0.0
  outer loop
    vertex 18.50779293373752 -5.109222234215688 6.299999999999998
    vertex 19.679272933737504 -5.109222234215688 1.999999999999998
    vertex 18.50779293373752 -5.109222234215688 1.999999999999998
  endloop
endfacet
facet normal 0.0 1.0 0.0
  outer loop
    vertex 19.679272933737504 -5.109222234215688 1.999999999999998
    vertex 18.50779293373752 -5.109222234215688 6.299999999999998
    vertex 19.679272933737504 -5.109222234215688 6.299999999999998
  endloop
endfacet
facet normal -1.0 0.0 0.0
  outer loop
    vertex 21.107202933737508 -2.4270122342156775 6.299999999999998
    vertex 21.107202933737508 -3.6038622342156814 1.999999999999998
    vertex 21.107202933737508 -3.6038622342156814 6.299999999999998
  endloop
endfacet
facet normal -1.0 0.0 0.0
  outer loop
    vertex 21.107202933737508 -3.6038622342156814 1.999999999999998
    vertex 21.107202933737508 -2.4270122342156775 6.299999999999998
    vertex 21.107202933737508 -2.4270122342156775 1.999999999999998
  endloop
endfacet
facet normal -0.3862066655431959 -0.9224122784796428 0.0
  outer loop
    vertex 18.394018354417167 -5.6882961015290805 6.299999999999998
    vertex 17.727008102904183 -5.409024228062097 1.999999999999998
    vertex 18.394018354417167 -5.6882961015290805 1.999999999999998
  endloop
endfacet
facet normal -0.3862066655431959 -0.9224122784796428 0.0
  outer loop
    vertex 17.727008102904183 -5.409024228062097 1.999999999999998
    vertex 18.394018354417167 -5.6882961015290805 6.299999999999998
    vertex 17.727008102904183 -5.409024228062097 6.299999999999998
  endloop
endfacet
facet normal 0.0 -1.0 0.0
  outer loop
    vertex 19.679272933737504 -0.9350122342156927 6.299999999999998
    vertex 18.50779293373752 -0.9350122342156927 1.999999999999998
    vertex 19.679272933737504 -0.9350122342156927 1.999999999999998
  endloop
endfacet
facet normal 0.0 -1.0 0.0
  outer loop
    vertex 18.50779293373752 -0.9350122342156927 1.999999999999998
    vertex 19.679272933737504 -0.9350122342156927 6.299999999999998
    vertex 18.50779293373752 -0.9350122342156927 6.299999999999998
  endloop
endfacet
facet normal 1.0 0.0 0.0
  outer loop
    vertex 18.50779293373752 -0.9350122342156927 1.999999999999998
    vertex 18.50779293373752 -2.4270122342156775 6.299999999999998
    vertex 18.50779293373752 -2.4270122342156775 1.999999999999998
  endloop
endfacet
facet normal 1.0 0.0 0.0
  outer loop
    vertex 18.50779293373752 -2.4270122342156775 6.299999999999998
    vertex 18.50779293373752 -0.9350122342156927 1.999999999999998
    vertex 18.50779293373752 -0.9350122342156927 6.299999999999998
  endloop
endfacet
facet normal -0.38268343236508506 0.9238795325112888 -1.2212472855925079e-15
  outer loop
    vertex 11.068032933737513 2.950588169568756 1.9999999999999998
    vertex 11.309213888634996 3.0504885920733846 0.8918706648697856
    vertex 11.068032933737513 2.950588169568756 0.8918706648697856
  endloop
endfacet
facet normal -0.38268343236508506 0.9238795325112888 -1.2212472855925079e-15
  outer loop
    vertex 11.309213888634996 3.0504885920733846 0.8918706648697856
    vertex 11.068032933737513 2.950588169568756 1.9999999999999998
    vertex 11.309213888634995 3.050488592073386 1.9999999999999998
  endloop
endfacet
facet normal 1.0 0.0 0.0
  outer loop
    vertex 17.086892933737516 -2.4270122342156775 1.999999999999998
    vertex 17.086892933737516 -3.6038622342156814 6.299999999999998
    vertex 17.086892933737516 -3.6038622342156814 1.999999999999998
  endloop
endfacet
facet normal 1.0 0.0 0.0
  outer loop
    vertex 17.086892933737516 -3.6038622342156814 6.299999999999998
    vertex 17.086892933737516 -2.4270122342156775 1.999999999999998
    vertex 17.086892933737516 -2.4270122342156775 6.299999999999998
  endloop
endfacet
facet normal 0.6087614290087164 0.7933533402912385 -9.776443013111104e-16
  outer loop
    vertex 27.11903293373751 2.9505881695687575 1.9999999999999998
    vertex 27.326139714924057 2.791669546970869 0.8918706648697856
    vertex 27.119032933737518 2.950588169568749 0.8918706648697856
  endloop
endfacet
facet normal 0.6087614290087164 0.7933533402912385 -9.776443013111104e-16
  outer loop
    vertex 27.326139714924057 2.791669546970869 0.8918706648697856
    vertex 27.11903293373751 2.9505881695687575 1.9999999999999998
    vertex 27.326139714924057 2.7916695469708674 1.9999999999999998
  endloop
endfacet
facet normal 0.0 1.0 0.0
  outer loop
    vertex 19.679272933737504 -3.6038622342156814 6.299999999999998
    vertex 21.107202933737508 -3.6038622342156814 1.999999999999998
    vertex 19.679272933737504 -3.6038622342156814 1.999999999999998
  endloop
endfacet
facet normal 0.0 1.0 0.0
  outer loop
    vertex 21.107202933737508 -3.6038622342156814 1.999999999999998
    vertex 19.679272933737504 -3.6038622342156814 6.299999999999998
    vertex 21.107202933737508 -3.6038622342156814 6.299999999999998
  endloop
endfacet
facet normal 0.382683432365086 0.9238795325112884 -5.493815122610871e-15
  outer loop
    vertex 26.87785197884003 3.0504885920733877 1.9999999999999998
    vertex 27.119032933737518 2.950588169568749 0.8918706648697856
    vertex 26.87785197884003 3.0504885920733806 0.8918706648697856
  endloop
endfacet
facet normal 0.382683432365086 0.9238795325112884 -5.493815122610871e-15
  outer loop
    vertex 27.119032933737518 2.950588169568749 0.8918706648697856
    vertex 26.87785197884003 3.0504885920733877 1.9999999999999998
    vertex 27.11903293373751 2.9505881695687575 1.9999999999999998
  endloop
endfacet
facet normal -0.6087614290087054 -0.7933533402912468 1.395644804894377e-15
  outer loop
    vertex 11.068032933737513 -8.98146263800013 1.9999999999999998
    vertex 10.86092615255096 -8.822544015402242 0.8918706648697856
    vertex 11.068032933737513 -8.98146263800013 0.8918706648697856
  endloop
endfacet
facet normal -0.6087614290087054 -0.7933533402912468 1.395644804894377e-15
  outer loop
    vertex 10.86092615255096 -8.822544015402242 0.8918706648697856
    vertex 11.068032933737513 -8.98146263800013 1.9999999999999998
    vertex 10.860926152550961 -8.822544015402238 1.9999999999999998
  endloop
endfacet
facet normal -0.9909394826577479 0.1343091274262293 0.0
  outer loop
    vertex 16.448294602074938 -2.288302119244501 6.299999999999998
    vertex 16.351173643307217 -3.0048654271952184 1.999999999999998
    vertex 16.351173643307217 -3.0048654271952184 6.299999999999998
  endloop
endfacet
facet normal -0.9909394826577479 0.1343091274262293 0.0
  outer loop
    vertex 16.351173643307217 -3.0048654271952184 1.999999999999998
    vertex 16.448294602074938 -2.288302119244501 6.299999999999998
    vertex 16.448294602074938 -2.288302119244501 1.999999999999998
  endloop
endfacet
facet normal -0.38268343236508817 -0.9238795325112875 1.0045251103708085e-16
  outer loop
    vertex 11.30921388863499 -9.081363060504756 1.9999999999999998
    vertex 11.068032933737513 -8.98146263800013 0.8918706648697856
    vertex 11.30921388863499 -9.081363060504758 0.8918706648697856
  endloop
endfacet
facet normal -0.38268343236508817 -0.9238795325112875 1.0045251103708085e-16
  outer loop
    vertex 11.068032933737513 -8.98146263800013 0.8918706648697856
    vertex 11.30921388863499 -9.081363060504756 1.9999999999999998
    vertex 11.068032933737513 -8.98146263800013 1.9999999999999998
  endloop
endfacet
facet normal 0.38268343236508207 -0.92387953251129 -1.3757188564486758e-15
  outer loop
    vertex 27.11903293373751 -8.981462638000123 1.9999999999999998
    vertex 26.877851978840035 -9.081363060504748 0.8918706648697856
    vertex 27.11903293373751 -8.98146263800012 0.8918706648697856
  endloop
endfacet
facet normal 0.38268343236508207 -0.92387953251129 -1.3757188564486758e-15
  outer loop
    vertex 26.877851978840035 -9.081363060504748 0.8918706648697856
    vertex 27.11903293373751 -8.981462638000123 1.9999999999999998
    vertex 26.87785197884003 -9.081363060504751 1.9999999999999998
  endloop
endfacet
facet normal 0.6087614290087129 -0.7933533402912412 1.0055263883636118e-15
  outer loop
    vertex 27.326139714924057 -8.822544015402233 1.9999999999999998
    vertex 27.11903293373751 -8.98146263800012 0.8918706648697856
    vertex 27.326139714924057 -8.822544015402238 0.8918706648697856
  endloop
endfacet
facet normal 0.6087614290087129 -0.7933533402912412 1.0055263883636118e-15
  outer loop
    vertex 27.11903293373751 -8.98146263800012 0.8918706648697856
    vertex 27.326139714924057 -8.822544015402233 1.9999999999999998
    vertex 27.11903293373751 -8.981462638000123 1.9999999999999998
  endloop
endfacet
facet normal 0.0 0.0 1.0
  outer loop
    vertex 10.602107107448445 -8.374256279318207 1.9999999999999998
    vertex 10.568032933737513 2.084562765784317 1.9999999999999998
    vertex 10.568032933737513 -8.11543723421569 1.9999999999999998
  endloop
endfacet
facet normal 0.0 0.0 1.0
  outer loop
    vertex 10.568032933737513 2.084562765784317 1.9999999999999998
    vertex 10.602107107448445 -8.374256279318207 1.9999999999999998
    vertex 10.602107107448445 2.34338181088684 1.9999999999999998
  endloop
endfacet
facet normal 0.0 0.0 1.0
  outer loop
    vertex 10.602107107448445 2.34338181088684 1.9999999999999998
    vertex 10.602107107448445 -8.374256279318207 1.9999999999999998
    vertex 10.702007529953072 -8.615437234215689 1.9999999999999998
  endloop
endfacet
facet normal 0.0 0.0 1.0
  outer loop
    vertex 10.602107107448445 2.34338181088684 1.9999999999999998
    vertex 10.702007529953072 -8.615437234215689 1.9999999999999998
    vertex 10.702007529953075 2.5845627657843186 1.9999999999999998
  endloop
endfacet
facet normal 0.0 0.0 1.0
  outer loop
    vertex 10.702007529953075 2.5845627657843186 1.9999999999999998
    vertex 10.702007529953072 -8.615437234215689 1.9999999999999998
    vertex 10.860926152550961 -8.822544015402238 1.9999999999999998
  endloop
endfacet
facet normal 0.0 0.0 1.0
  outer loop
    vertex 10.702007529953075 2.5845627657843186 1.9999999999999998
    vertex 10.860926152550961 -8.822544015402238 1.9999999999999998
    vertex 10.860926152550968 2.791669546970866 1.9999999999999998
  endloop
endfacet
facet normal 0.0 0.0 1.0
  outer loop
    vertex 10.860926152550968 2.791669546970866 1.9999999999999998
    vertex 10.860926152550961 -8.822544015402238 1.9999999999999998
    vertex 11.068032933737513 -8.98146263800013 1.9999999999999998
  endloop
endfacet
facet normal 0.0 0.0 1.0
  outer loop
    vertex 10.860926152550968 2.791669546970866 1.9999999999999998
    vertex 11.068032933737513 -8.98146263800013 1.9999999999999998
    vertex 11.068032933737513 2.950588169568756 1.9999999999999998
  endloop
endfacet
facet normal 0.0 0.0 1.0
  outer loop
    vertex 11.068032933737513 2.950588169568756 1.9999999999999998
    vertex 11.068032933737513 -8.98146263800013 1.9999999999999998
    vertex 11.30921388863499 -9.081363060504756 1.9999999999999998
  endloop
endfacet
facet normal 0.0 0.0 1.0
  outer loop
    vertex 11.068032933737513 2.950588169568756 1.9999999999999998
    vertex 11.30921388863499 -9.081363060504756 1.9999999999999998
    vertex 11.309213888634995 3.050488592073386 1.9999999999999998
  endloop
endfacet
facet normal 0.0 0.0 1.0
  outer loop
    vertex 11.309213888634995 3.050488592073386 1.9999999999999998
    vertex 11.30921388863499 -9.081363060504756 1.9999999999999998
    vertex 11.568032933737511 -9.115437234215689 1.9999999999999998
  endloop
endfacet
facet normal 0.0 0.0 1.0
  outer loop
    vertex 11.309213888634995 3.050488592073386 1.9999999999999998
    vertex 11.568032933737511 -9.115437234215689 1.9999999999999998
    vertex 11.568032933737515 3.0845627657843178 1.9999999999999998
  endloop
endfacet
facet normal 0.0 0.0 1.0
  outer loop
    vertex 11.568032933737515 3.0845627657843178 1.9999999999999998
    vertex 11.568032933737511 -9.115437234215689 1.9999999999999998
    vertex 16.71699466852144 -4.3912716938125955 1.999999999999998
  endloop
endfacet
facet normal 0.0 0.0 1.0
  outer loop
    vertex 16.71699466852144 -4.3912716938125955 1.999999999999998
    vertex 11.568032933737511 -9.115437234215689 1.9999999999999998
    vertex 17.155006554182894 -4.966633356553996 1.999999999999998
  endloop
endfacet
facet normal 0.0 0.0 1.0
  outer loop
    vertex 17.155006554182894 -4.966633356553996 1.999999999999998
    vertex 11.568032933737511 -9.115437234215689 1.9999999999999998
    vertex 17.727008102904183 -5.409024228062097 1.999999999999998
  endloop
endfacet
facet normal 0.0 0.0 1.0
  outer loop
    vertex 17.727008102904183 -5.409024228062097 1.999999999999998
    vertex 11.568032933737511 -9.115437234215689 1.9999999999999998
    vertex 18.394018354417167 -5.6882961015290805 1.999999999999998
  endloop
endfacet
facet normal 0.0 0.0 1.0
  outer loop
    vertex 18.394018354417167 -5.6882961015290805 1.999999999999998
    vertex 11.568032933737511 -9.115437234215689 1.9999999999999998
    vertex 26.619032933737515 -9.115437234215682 1.9999999999999998
  endloop
endfacet
facet normal 0.0 0.0 1.0
  outer loop
    vertex 11.568032933737515 3.0845627657843178 1.9999999999999998
    vertex 16.71699466852144 -4.3912716938125955 1.999999999999998
    vertex 16.442822232078846 -3.7221491863236333 1.999999999999998
  endloop
endfacet
facet normal 0.0 0.0 1.0
  outer loop
    vertex 11.568032933737515 3.0845627657843178 1.9999999999999998
    vertex 16.442822232078846 -3.7221491863236333 1.999999999999998
    vertex 16.351173643307217 -3.0048654271952184 1.999999999999998
  endloop
endfacet
facet normal 0.0 0.0 1.0
  outer loop
    vertex 18.394018354417167 -5.6882961015290805 1.999999999999998
    vertex 26.619032933737515 -9.115437234215682 1.9999999999999998
    vertex 19.110581662367885 -5.7854170602967825 1.999999999999998
  endloop
endfacet
facet normal 0.0 0.0 1.0
  outer loop
    vertex 19.110581662367885 -5.7854170602967825 1.999999999999998
    vertex 26.619032933737515 -9.115437234215682 1.9999999999999998
    vertex 19.827865421496274 -5.693768471525174 1.999999999999998
  endloop
endfacet
facet normal 0.0 0.0 1.0
  outer loop
    vertex 19.827865421496274 -5.693768471525174 1.999999999999998
    vertex 26.619032933737515 -9.115437234215682 1.9999999999999998
    vertex 20.496987928985263 -5.419596035082558 1.999999999999998
  endloop
endfacet
facet normal 0.0 0.0 1.0
  outer loop
    vertex 20.496987928985263 -5.419596035082558 1.999999999999998
    vertex 26.619032933737515 -9.115437234215682 1.9999999999999998
    vertex 21.072349591726663 -4.981584149421127 1.999999999999998
  endloop
endfacet
facet normal 0.0 0.0 1.0
  outer loop
    vertex 21.072349591726663 -4.981584149421127 1.999999999999998
    vertex 26.619032933737515 -9.115437234215682 1.9999999999999998
    vertex 21.51474046323474 -4.409582600699866 1.999999999999998
  endloop
endfacet
facet normal 0.0 0.0 1.0
  outer loop
    vertex 21.51474046323474 -4.409582600699866 1.999999999999998
    vertex 26.619032933737515 -9.115437234215682 1.9999999999999998
    vertex 21.794012336701737 -3.742572349186857 1.999999999999998
  endloop
endfacet
facet normal 0.0 0.0 1.0
  outer loop
    vertex 21.794012336701737 -3.742572349186857 1.999999999999998
    vertex 26.619032933737515 -9.115437234215682 1.9999999999999998
    vertex 21.891133295469448 -3.0260090412361405 1.999999999999998
  endloop
endfacet
facet normal 0.0 0.0 1.0
  outer loop
    vertex 11.568032933737515 3.0845627657843178 1.9999999999999998
    vertex 17.74531900979141 -0.6112784333488009 1.999999999999998
    vertex 26.619032933737515 3.084562765784319 1.9999999999999998
  endloop
endfacet
facet normal 0.0 0.0 1.0
  outer loop
    vertex 17.74531900979141 -0.6112784333488009 1.999999999999998
    vertex 11.568032933737515 3.0845627657843178 1.9999999999999998
    vertex 17.169957347050023 -1.0492903190102323 1.999999999999998
  endloop
endfacet
facet normal 0.0 0.0 1.0
  outer loop
    vertex 17.169957347050023 -1.0492903190102323 1.999999999999998
    vertex 11.568032933737515 3.0845627657843178 1.9999999999999998
    vertex 16.727566475541902 -1.621291867731493 1.999999999999998
  endloop
endfacet
facet normal 0.0 0.0 1.0
  outer loop
    vertex 16.727566475541902 -1.621291867731493 1.999999999999998
    vertex 11.568032933737515 3.0845627657843178 1.9999999999999998
    vertex 16.448294602074938 -2.288302119244501 1.999999999999998
  endloop
endfacet
facet normal 0.0 0.0 1.0
  outer loop
    vertex 16.448294602074938 -2.288302119244501 1.999999999999998
    vertex 11.568032933737515 3.0845627657843178 1.9999999999999998
    vertex 16.351173643307217 -3.0048654271952184 1.999999999999998
  endloop
endfacet
facet normal 0.0 0.0 1.0
  outer loop
    vertex 26.619032933737515 3.084562765784319 1.9999999999999998
    vertex 17.74531900979141 -0.6112784333488009 1.999999999999998
    vertex 18.41444151728037 -0.337105996906185 1.999999999999998
  endloop
endfacet
facet normal 0.0 0.0 1.0
  outer loop
    vertex 26.619032933737515 3.084562765784319 1.9999999999999998
    vertex 18.41444151728037 -0.337105996906185 1.999999999999998
    vertex 19.131725276408808 -0.24545740813457662 1.999999999999998
  endloop
endfacet
facet normal 0.0 0.0 1.0
  outer loop
    vertex 26.619032933737515 3.084562765784319 1.9999999999999998
    vertex 19.131725276408808 -0.24545740813457662 1.999999999999998
    vertex 19.848288584359494 -0.34257836690227844 1.999999999999998
  endloop
endfacet
facet normal 0.0 0.0 1.0
  outer loop
    vertex 26.619032933737515 3.084562765784319 1.9999999999999998
    vertex 19.848288584359494 -0.34257836690227844 1.999999999999998
    vertex 20.51529883587251 -0.621850240369262 1.999999999999998
  endloop
endfacet
facet normal 0.0 0.0 1.0
  outer loop
    vertex 26.619032933737515 3.084562765784319 1.9999999999999998
    vertex 20.51529883587251 -0.621850240369262 1.999999999999998
    vertex 21.087300384593792 -1.064241111877363 1.999999999999998
  endloop
endfacet
facet normal 0.0 0.0 1.0
  outer loop
    vertex 26.619032933737515 3.084562765784319 1.9999999999999998
    vertex 21.087300384593792 -1.064241111877363 1.999999999999998
    vertex 21.525312270255203 -1.6396027746187631 1.999999999999998
  endloop
endfacet
facet normal 0.0 0.0 1.0
  outer loop
    vertex 26.619032933737515 3.084562765784319 1.9999999999999998
    vertex 21.525312270255203 -1.6396027746187631 1.999999999999998
    vertex 21.799484706697818 -2.3087252821077255 1.999999999999998
  endloop
endfacet
facet normal 0.0 0.0 1.0
  outer loop
    vertex 26.619032933737515 3.084562765784319 1.9999999999999998
    vertex 21.799484706697818 -2.3087252821077255 1.999999999999998
    vertex 21.891133295469448 -3.0260090412361405 1.999999999999998
  endloop
endfacet
facet normal 0.0 0.0 1.0
  outer loop
    vertex 26.619032933737515 3.084562765784319 1.9999999999999998
    vertex 21.891133295469448 -3.0260090412361405 1.999999999999998
    vertex 26.619032933737515 -9.115437234215682 1.9999999999999998
  endloop
endfacet
facet normal 0.0 0.0 1.0
  outer loop
    vertex 26.619032933737515 3.084562765784319 1.9999999999999998
    vertex 26.619032933737515 -9.115437234215682 1.9999999999999998
    vertex 26.87785197884003 -9.081363060504751 1.9999999999999998
  endloop
endfacet
facet normal 0.0 0.0 1.0
  outer loop
    vertex 26.619032933737515 3.084562765784319 1.9999999999999998
    vertex 26.87785197884003 -9.081363060504751 1.9999999999999998
    vertex 26.87785197884003 3.0504885920733877 1.9999999999999998
  endloop
endfacet
facet normal 0.0 0.0 1.0
  outer loop
    vertex 26.87785197884003 3.0504885920733877 1.9999999999999998
    vertex 26.87785197884003 -9.081363060504751 1.9999999999999998
    vertex 27.11903293373751 -8.981462638000123 1.9999999999999998
  endloop
endfacet
facet normal 0.0 0.0 1.0
  outer loop
    vertex 26.87785197884003 3.0504885920733877 1.9999999999999998
    vertex 27.11903293373751 -8.981462638000123 1.9999999999999998
    vertex 27.11903293373751 2.9505881695687575 1.9999999999999998
  endloop
endfacet
facet normal 0.0 0.0 1.0
  outer loop
    vertex 27.11903293373751 2.9505881695687575 1.9999999999999998
    vertex 27.11903293373751 -8.981462638000123 1.9999999999999998
    vertex 27.326139714924057 -8.822544015402233 1.9999999999999998
  endloop
endfacet
facet normal 0.0 0.0 1.0
  outer loop
    vertex 27.11903293373751 2.9505881695687575 1.9999999999999998
    vertex 27.326139714924057 -8.822544015402233 1.9999999999999998
    vertex 27.326139714924057 2.7916695469708674 1.9999999999999998
  endloop
endfacet
facet normal 0.0 0.0 1.0
  outer loop
    vertex 27.326139714924057 2.7916695469708674 1.9999999999999998
    vertex 27.326139714924057 -8.822544015402233 1.9999999999999998
    vertex 27.485058337521952 -8.615437234215683 1.9999999999999998
  endloop
endfacet
facet normal 0.0 0.0 1.0
  outer loop
    vertex 27.326139714924057 2.7916695469708674 1.9999999999999998
    vertex 27.485058337521952 -8.615437234215683 1.9999999999999998
    vertex 27.48505833752195 2.5845627657843173 1.9999999999999998
  endloop
endfacet
facet normal 0.0 0.0 1.0
  outer loop
    vertex 27.48505833752195 2.5845627657843173 1.9999999999999998
    vertex 27.485058337521952 -8.615437234215683 1.9999999999999998
    vertex 27.58495876002658 2.343381810886841 1.9999999999999998
  endloop
endfacet
facet normal 0.0 0.0 1.0
  outer loop
    vertex 27.58495876002658 2.343381810886841 1.9999999999999998
    vertex 27.485058337521952 -8.615437234215683 1.9999999999999998
    vertex 27.58495876002658 -8.374256279318207 1.9999999999999998
  endloop
endfacet
facet normal 0.0 0.0 1.0
  outer loop
    vertex 27.58495876002658 2.343381810886841 1.9999999999999998
    vertex 27.58495876002658 -8.374256279318207 1.9999999999999998
    vertex 27.61903293373751 -8.115437234215683 1.9999999999999998
  endloop
endfacet
facet normal 0.0 0.0 1.0
  outer loop
    vertex 27.58495876002658 2.343381810886841 1.9999999999999998
    vertex 27.61903293373751 -8.115437234215683 1.9999999999999998
    vertex 27.61903293373751 2.084562765784318 1.9999999999999998
  endloop
endfacet
facet normal -0.13052619222005077 -0.9914448613738105 1.0955265108238545e-15
  outer loop
    vertex 11.568032933737511 -9.115437234215689 1.9999999999999998
    vertex 11.30921388863499 -9.081363060504758 0.8918706648697856
    vertex 11.568032933737513 -9.115437234215689 0.8918706648697856
  endloop
endfacet
facet normal -0.13052619222005077 -0.9914448613738105 1.0955265108238545e-15
  outer loop
    vertex 11.30921388863499 -9.081363060504758 0.8918706648697856
    vertex 11.568032933737511 -9.115437234215689 1.9999999999999998
    vertex 11.30921388863499 -9.081363060504756 1.9999999999999998
  endloop
endfacet
facet normal 0.9238795325112809 0.38268343236510405 5.994723504992638e-17
  outer loop
    vertex 27.48505833752195 2.5845627657843173 0.8918706648697856
    vertex 27.58495876002658 2.343381810886841 1.9999999999999998
    vertex 27.58495876002658 2.343381810886841 0.8918706648697856
  endloop
endfacet
facet normal 0.9238795325112809 0.38268343236510405 5.994723504992638e-17
  outer loop
    vertex 27.58495876002658 2.343381810886841 1.9999999999999998
    vertex 27.48505833752195 2.5845627657843173 0.8918706648697856
    vertex 27.48505833752195 2.5845627657843173 1.9999999999999998
  endloop
endfacet
facet normal 1.0 0.0 0.0
  outer loop
    vertex 27.61903293373751 2.084562765784318 0.8918706648697856
    vertex 27.61903293373751 -8.115437234215683 1.9999999999999998
    vertex 27.61903293373751 -8.115437234215683 0.8918706648697856
  endloop
endfacet
facet normal 1.0 0.0 0.0
  outer loop
    vertex 27.61903293373751 -8.115437234215683 1.9999999999999998
    vertex 27.61903293373751 2.084562765784318 0.8918706648697856
    vertex 27.61903293373751 2.084562765784318 1.9999999999999998
  endloop
endfacet
facet normal -0.9238795325112865 0.38268343236509067 3.0518592389052357e-16
  outer loop
    vertex 10.702007529953075 2.5845627657843186 1.9999999999999998
    vertex 10.602107107448445 2.34338181088684 0.8918706648697856
    vertex 10.602107107448445 2.34338181088684 1.9999999999999998
  endloop
endfacet
facet normal -0.9238795325112865 0.38268343236509067 3.0518592389052357e-16
  outer loop
    vertex 10.602107107448445 2.34338181088684 0.8918706648697856
    vertex 10.702007529953075 2.5845627657843186 1.9999999999999998
    vertex 10.702007529953075 2.5845627657843204 0.8918706648697856
  endloop
endfacet
facet normal -0.7933533402912305 0.6087614290087267 1.9505920826538562e-16
  outer loop
    vertex 10.860926152550968 2.791669546970866 1.9999999999999998
    vertex 10.702007529953075 2.5845627657843204 0.8918706648697856
    vertex 10.702007529953075 2.5845627657843186 1.9999999999999998
  endloop
endfacet
facet normal -0.7933533402912305 0.6087614290087267 1.9505920826538562e-16
  outer loop
    vertex 10.702007529953075 2.5845627657843204 0.8918706648697856
    vertex 10.860926152550968 2.791669546970866 1.9999999999999998
    vertex 10.860926152550968 2.791669546970866 0.8918706648697856
  endloop
endfacet
facet normal 0.9914448613738105 0.13052619222005082 2.0446885502275983e-17
  outer loop
    vertex 27.58495876002658 2.343381810886841 0.8918706648697856
    vertex 27.61903293373751 2.084562765784318 1.9999999999999998
    vertex 27.61903293373751 2.084562765784318 0.8918706648697856
  endloop
endfacet
facet normal 0.9914448613738105 0.13052619222005082 2.0446885502275983e-17
  outer loop
    vertex 27.61903293373751 2.084562765784318 1.9999999999999998
    vertex 27.58495876002658 2.343381810886841 0.8918706648697856
    vertex 27.58495876002658 2.343381810886841 1.9999999999999998
  endloop
endfacet
facet normal -0.9914448613738088 -0.13052619222006415 -2.5228971725787955e-15
  outer loop
    vertex 10.568032933737513 -8.11543723421569 1.9999999999999998
    vertex 10.60210710744845 -8.374256279318207 0.8918706648697856
    vertex 10.602107107448445 -8.374256279318207 1.9999999999999998
  endloop
endfacet
facet normal -0.9914448613738088 -0.13052619222006415 -2.5228971725787955e-15
  outer loop
    vertex 10.60210710744845 -8.374256279318207 0.8918706648697856
    vertex 10.568032933737513 -8.11543723421569 1.9999999999999998
    vertex 10.568032933737513 -8.11543723421569 0.8918706648697856
  endloop
endfacet
facet normal 0.0 0.0 1.0
  outer loop
    vertex 19.110581662367885 -5.7854170602967825 6.299999999999998
    vertex 18.50779293373752 -5.109222234215688 6.299999999999998
    vertex 18.394018354417167 -5.6882961015290805 6.299999999999998
  endloop
endfacet
facet normal 0.0 0.0 1.0
  outer loop
    vertex 18.50779293373752 -5.109222234215688 6.299999999999998
    vertex 19.110581662367885 -5.7854170602967825 6.299999999999998
    vertex 19.679272933737504 -5.109222234215688 6.299999999999998
  endloop
endfacet
facet normal 0.0 0.0 1.0
  outer loop
    vertex 19.679272933737504 -5.109222234215688 6.299999999999998
    vertex 19.110581662367885 -5.7854170602967825 6.299999999999998
    vertex 19.827865421496274 -5.693768471525174 6.299999999999998
  endloop
endfacet
facet normal 0.0 0.0 1.0
  outer loop
    vertex 19.679272933737504 -5.109222234215688 6.299999999999998
    vertex 19.827865421496274 -5.693768471525174 6.299999999999998
    vertex 19.679272933737504 -3.6038622342156814 6.299999999999998
  endloop
endfacet
facet normal 0.0 0.0 1.0
  outer loop
    vertex 19.679272933737504 -3.6038622342156814 6.299999999999998
    vertex 19.827865421496274 -5.693768471525174 6.299999999999998
    vertex 21.107202933737508 -3.6038622342156814 6.299999999999998
  endloop
endfacet
facet normal 0.0 0.0 1.0
  outer loop
    vertex 21.107202933737508 -3.6038622342156814 6.299999999999998
    vertex 19.827865421496274 -5.693768471525174 6.299999999999998
    vertex 20.496987928985263 -5.419596035082558 6.299999999999998
  endloop
endfacet
facet normal 0.0 0.0 1.0
  outer loop
    vertex 21.107202933737508 -3.6038622342156814 6.299999999999998
    vertex 20.496987928985263 -5.419596035082558 6.299999999999998
    vertex 21.072349591726663 -4.981584149421127 6.299999999999998
  endloop
endfacet
facet normal 0.0 0.0 1.0
  outer loop
    vertex 21.107202933737508 -3.6038622342156814 6.299999999999998
    vertex 21.072349591726663 -4.981584149421127 6.299999999999998
    vertex 21.51474046323474 -4.409582600699866 6.299999999999998
  endloop
endfacet
facet normal 0.0 0.0 1.0
  outer loop
    vertex 21.107202933737508 -3.6038622342156814 6.299999999999998
    vertex 21.51474046323474 -4.409582600699866 6.299999999999998
    vertex 21.107202933737508 -2.4270122342156775 6.299999999999998
  endloop
endfacet
facet normal 0.0 0.0 1.0
  outer loop
    vertex 21.107202933737508 -2.4270122342156775 6.299999999999998
    vertex 19.679272933737504 -0.9350122342156927 6.299999999999998
    vertex 19.679272933737504 -2.4270122342156775 6.299999999999998
  endloop
endfacet
facet normal 0.0 0.0 1.0
  outer loop
    vertex 19.679272933737504 -0.9350122342156927 6.299999999999998
    vertex 21.107202933737508 -2.4270122342156775 6.299999999999998
    vertex 19.848288584359494 -0.34257836690227844 6.299999999999998
  endloop
endfacet
facet normal 0.0 0.0 1.0
  outer loop
    vertex 19.848288584359494 -0.34257836690227844 6.299999999999998
    vertex 21.107202933737508 -2.4270122342156775 6.299999999999998
    vertex 20.51529883587251 -0.621850240369262 6.299999999999998
  endloop
endfacet
facet normal 0.0 0.0 1.0
  outer loop
    vertex 20.51529883587251 -0.621850240369262 6.299999999999998
    vertex 21.107202933737508 -2.4270122342156775 6.299999999999998
    vertex 21.087300384593792 -1.064241111877363 6.299999999999998
  endloop
endfacet
facet normal 0.0 0.0 1.0
  outer loop
    vertex 21.087300384593792 -1.064241111877363 6.299999999999998
    vertex 21.107202933737508 -2.4270122342156775 6.299999999999998
    vertex 21.525312270255203 -1.6396027746187631 6.299999999999998
  endloop
endfacet
facet normal 0.0 0.0 1.0
  outer loop
    vertex 21.525312270255203 -1.6396027746187631 6.299999999999998
    vertex 21.107202933737508 -2.4270122342156775 6.299999999999998
    vertex 21.51474046323474 -4.409582600699866 6.299999999999998
  endloop
endfacet
facet normal 0.0 0.0 1.0
  outer loop
    vertex 21.525312270255203 -1.6396027746187631 6.299999999999998
    vertex 21.51474046323474 -4.409582600699866 6.299999999999998
    vertex 21.794012336701737 -3.742572349186857 6.299999999999998
  endloop
endfacet
facet normal 0.0 0.0 1.0
  outer loop
    vertex 21.525312270255203 -1.6396027746187631 6.299999999999998
    vertex 21.794012336701737 -3.742572349186857 6.299999999999998
    vertex 21.799484706697818 -2.3087252821077255 6.299999999999998
  endloop
endfacet
facet normal 0.0 0.0 1.0
  outer loop
    vertex 21.799484706697818 -2.3087252821077255 6.299999999999998
    vertex 21.794012336701737 -3.742572349186857 6.299999999999998
    vertex 21.891133295469448 -3.0260090412361405 6.299999999999998
  endloop
endfacet
facet normal 0.0 0.0 1.0
  outer loop
    vertex 16.727566475541902 -1.621291867731493 6.299999999999998
    vertex 17.086892933737516 -2.4270122342156775 6.299999999999998
    vertex 17.169957347050023 -1.0492903190102323 6.299999999999998
  endloop
endfacet
facet normal 0.0 0.0 1.0
  outer loop
    vertex 17.086892933737516 -2.4270122342156775 6.299999999999998
    vertex 16.727566475541902 -1.621291867731493 6.299999999999998
    vertex 17.086892933737516 -3.6038622342156814 6.299999999999998
  endloop
endfacet
facet normal 0.0 0.0 1.0
  outer loop
    vertex 17.169957347050023 -1.0492903190102323 6.299999999999998
    vertex 17.086892933737516 -2.4270122342156775 6.299999999999998
    vertex 18.50779293373752 -2.4270122342156775 6.299999999999998
  endloop
endfacet
facet normal 0.0 0.0 1.0
  outer loop
    vertex 17.169957347050023 -1.0492903190102323 6.299999999999998
    vertex 18.50779293373752 -2.4270122342156775 6.299999999999998
    vertex 17.74531900979141 -0.6112784333488009 6.299999999999998
  endloop
endfacet
facet normal 0.0 0.0 1.0
  outer loop
    vertex 17.74531900979141 -0.6112784333488009 6.299999999999998
    vertex 18.50779293373752 -2.4270122342156775 6.299999999999998
    vertex 18.41444151728037 -0.337105996906185 6.299999999999998
  endloop
endfacet
facet normal 0.0 0.0 1.0
  outer loop
    vertex 18.41444151728037 -0.337105996906185 6.299999999999998
    vertex 18.50779293373752 -2.4270122342156775 6.299999999999998
    vertex 18.50779293373752 -0.9350122342156927 6.299999999999998
  endloop
endfacet
facet normal 0.0 0.0 1.0
  outer loop
    vertex 18.41444151728037 -0.337105996906185 6.299999999999998
    vertex 18.50779293373752 -0.9350122342156927 6.299999999999998
    vertex 19.131725276408808 -0.24545740813457662 6.299999999999998
  endloop
endfacet
facet normal 0.0 0.0 1.0
  outer loop
    vertex 19.131725276408808 -0.24545740813457662 6.299999999999998
    vertex 18.50779293373752 -0.9350122342156927 6.299999999999998
    vertex 19.679272933737504 -0.9350122342156927 6.299999999999998
  endloop
endfacet
facet normal 0.0 0.0 1.0
  outer loop
    vertex 19.131725276408808 -0.24545740813457662 6.299999999999998
    vertex 19.679272933737504 -0.9350122342156927 6.299999999999998
    vertex 19.848288584359494 -0.34257836690227844 6.299999999999998
  endloop
endfacet
facet normal 0.0 0.0 1.0
  outer loop
    vertex 16.442822232078846 -3.7221491863236333 6.299999999999998
    vertex 16.448294602074938 -2.288302119244501 6.299999999999998
    vertex 16.351173643307217 -3.0048654271952184 6.299999999999998
  endloop
endfacet
facet normal 0.0 0.0 1.0
  outer loop
    vertex 16.448294602074938 -2.288302119244501 6.299999999999998
    vertex 16.442822232078846 -3.7221491863236333 6.299999999999998
    vertex 16.71699466852144 -4.3912716938125955 6.299999999999998
  endloop
endfacet
facet normal 0.0 0.0 1.0
  outer loop
    vertex 16.448294602074938 -2.288302119244501 6.299999999999998
    vertex 16.71699466852144 -4.3912716938125955 6.299999999999998
    vertex 16.727566475541902 -1.621291867731493 6.299999999999998
  endloop
endfacet
facet normal 0.0 0.0 1.0
  outer loop
    vertex 16.727566475541902 -1.621291867731493 6.299999999999998
    vertex 16.71699466852144 -4.3912716938125955 6.299999999999998
    vertex 17.155006554182894 -4.966633356553996 6.299999999999998
  endloop
endfacet
facet normal 0.0 0.0 1.0
  outer loop
    vertex 16.727566475541902 -1.621291867731493 6.299999999999998
    vertex 17.155006554182894 -4.966633356553996 6.299999999999998
    vertex 17.086892933737516 -3.6038622342156814 6.299999999999998
  endloop
endfacet
facet normal 0.0 0.0 1.0
  outer loop
    vertex 17.086892933737516 -3.6038622342156814 6.299999999999998
    vertex 17.155006554182894 -4.966633356553996 6.299999999999998
    vertex 18.50779293373752 -3.6038622342156814 6.299999999999998
  endloop
endfacet
facet normal 0.0 0.0 1.0
  outer loop
    vertex 18.50779293373752 -3.6038622342156814 6.299999999999998
    vertex 17.155006554182894 -4.966633356553996 6.299999999999998
    vertex 17.727008102904183 -5.409024228062097 6.299999999999998
  endloop
endfacet
facet normal 0.0 0.0 1.0
  outer loop
    vertex 18.50779293373752 -3.6038622342156814 6.299999999999998
    vertex 17.727008102904183 -5.409024228062097 6.299999999999998
    vertex 18.394018354417167 -5.6882961015290805 6.299999999999998
  endloop
endfacet
facet normal 0.0 0.0 1.0
  outer loop
    vertex 18.50779293373752 -3.6038622342156814 6.299999999999998
    vertex 18.394018354417167 -5.6882961015290805 6.299999999999998
    vertex 18.50779293373752 -5.109222234215688 6.299999999999998
  endloop
endfacet
facet normal -0.791024201881489 0.6117848576401292 0.0
  outer loop
    vertex 17.169957347050023 -1.0492903190102323 6.299999999999998
    vertex 16.727566475541902 -1.621291867731493 1.999999999999998
    vertex 16.727566475541902 -1.621291867731493 6.299999999999998
  endloop
endfacet
facet normal -0.791024201881489 0.6117848576401292 0.0
  outer loop
    vertex 16.727566475541902 -1.621291867731493 1.999999999999998
    vertex 17.169957347050023 -1.0492903190102323 6.299999999999998
    vertex 17.169957347050023 -1.0492903190102323 1.999999999999998
  endloop
endfacet
facet normal 1.0 0.0 0.0
  outer loop
    vertex 18.50779293373752 -3.6038622342156814 1.999999999999998
    vertex 18.50779293373752 -5.109222234215688 6.299999999999998
    vertex 18.50779293373752 -5.109222234215688 1.999999999999998
  endloop
endfacet
facet normal 1.0 0.0 0.0
  outer loop
    vertex 18.50779293373752 -5.109222234215688 6.299999999999998
    vertex 18.50779293373752 -3.6038622342156814 1.999999999999998
    vertex 18.50779293373752 -3.6038622342156814 6.299999999999998
  endloop
endfacet
facet normal 0.12674135576852844 -0.9919357986976554 0.0
  outer loop
    vertex 19.827865421496274 -5.693768471525174 6.299999999999998
    vertex 19.110581662367885 -5.7854170602967825 1.999999999999998
    vertex 19.827865421496274 -5.693768471525174 1.999999999999998
  endloop
endfacet
facet normal 0.12674135576852844 -0.9919357986976554 0.0
  outer loop
    vertex 19.110581662367885 -5.7854170602967825 1.999999999999998
    vertex 19.827865421496274 -5.693768471525174 6.299999999999998
    vertex 19.110581662367885 -5.7854170602967825 6.299999999999998
  endloop
endfacet
facet normal 0.9253333293077232 0.3791546250176631 0.0
  outer loop
    vertex 21.525312270255203 -1.6396027746187631 1.999999999999998
    vertex 21.799484706697818 -2.3087252821077255 6.299999999999998
    vertex 21.799484706697818 -2.3087252821077255 1.999999999999998
  endloop
endfacet
facet normal 0.9253333293077232 0.3791546250176631 0.0
  outer loop
    vertex 21.799484706697818 -2.3087252821077255 6.299999999999998
    vertex 21.525312270255203 -1.6396027746187631 1.999999999999998
    vertex 21.525312270255203 -1.6396027746187631 6.299999999999998
  endloop
endfacet
facet normal -0.9253333293077342 -0.37915462501763636 0.0
  outer loop
    vertex 16.442822232078846 -3.7221491863236333 6.299999999999998
    vertex 16.71699466852144 -4.3912716938125955 1.999999999999998
    vertex 16.71699466852144 -4.3912716938125955 6.299999999999998
  endloop
endfacet
facet normal -0.9253333293077342 -0.37915462501763636 0.0
  outer loop
    vertex 16.71699466852144 -4.3912716938125955 1.999999999999998
    vertex 16.442822232078846 -3.7221491863236333 6.299999999999998
    vertex 16.442822232078846 -3.7221491863236333 1.999999999999998
  endloop
endfacet
facet normal -0.12674135576851958 0.9919357986976565 0.0
  outer loop
    vertex 18.41444151728037 -0.337105996906185 6.299999999999998
    vertex 19.131725276408808 -0.24545740813457662 1.999999999999998
    vertex 18.41444151728037 -0.337105996906185 1.999999999999998
  endloop
endfacet
facet normal -0.12674135576851958 0.9919357986976565 0.0
  outer loop
    vertex 19.131725276408808 -0.24545740813457662 1.999999999999998
    vertex 18.41444151728037 -0.337105996906185 6.299999999999998
    vertex 19.131725276408808 -0.24545740813457662 6.299999999999998
  endloop
endfacet
facet normal 0.9909394826577499 -0.13430912742621398 0.0
  outer loop
    vertex 21.891133295469448 -3.0260090412361405 1.999999999999998
    vertex 21.794012336701737 -3.742572349186857 6.299999999999998
    vertex 21.794012336701737 -3.742572349186857 1.999999999999998
  endloop
endfacet
facet normal 0.9909394826577499 -0.13430912742621398 0.0
  outer loop
    vertex 21.794012336701737 -3.742572349186857 6.299999999999998
    vertex 21.891133295469448 -3.0260090412361405 1.999999999999998
    vertex 21.891133295469448 -3.0260090412361405 6.299999999999998
  endloop
endfacet
facet normal 0.0 1.0 0.0
  outer loop
    vertex 17.086892933737516 -3.6038622342156814 6.299999999999998
    vertex 18.50779293373752 -3.6038622342156814 1.999999999999998
    vertex 17.086892933737516 -3.6038622342156814 1.999999999999998
  endloop
endfacet
facet normal 0.0 1.0 0.0
  outer loop
    vertex 18.50779293373752 -3.6038622342156814 1.999999999999998
    vertex 17.086892933737516 -3.6038622342156814 6.299999999999998
    vertex 18.50779293373752 -3.6038622342156814 6.299999999999998
  endloop
endfacet
facet normal 0.0 -1.0 0.0
  outer loop
    vertex 21.107202933737508 -2.4270122342156775 6.299999999999998
    vertex 19.679272933737504 -2.4270122342156775 1.999999999999998
    vertex 21.107202933737508 -2.4270122342156775 1.999999999999998
  endloop
endfacet
facet normal 0.0 -1.0 0.0
  outer loop
    vertex 19.679272933737504 -2.4270122342156775 1.999999999999998
    vertex 21.107202933737508 -2.4270122342156775 6.299999999999998
    vertex 19.679272933737504 -2.4270122342156775 6.299999999999998
  endloop
endfacet
facet normal 0.13052619222006295 0.9914448613738089 -4.08300529097574e-15
  outer loop
    vertex 26.619032933737515 3.084562765784319 1.9999999999999998
    vertex 26.87785197884003 3.0504885920733806 0.8918706648697856
    vertex 26.619032933737518 3.0845627657843164 0.8918706648697856
  endloop
endfacet
facet normal 0.13052619222006295 0.9914448613738089 -4.08300529097574e-15
  outer loop
    vertex 26.87785197884003 3.0504885920733806 0.8918706648697856
    vertex 26.619032933737515 3.084562765784319 1.9999999999999998
    vertex 26.87785197884003 3.0504885920733877 1.9999999999999998
  endloop
endfacet
facet normal -0.9914448613738105 0.13052619222005077 4.182317489101904e-17
  outer loop
    vertex 10.602107107448445 2.34338181088684 1.9999999999999998
    vertex 10.568032933737513 2.084562765784317 0.8918706648697856
    vertex 10.568032933737513 2.084562765784317 1.9999999999999998
  endloop
endfacet
facet normal -0.9914448613738105 0.13052619222005077 4.182317489101904e-17
  outer loop
    vertex 10.568032933737513 2.084562765784317 0.8918706648697856
    vertex 10.602107107448445 2.34338181088684 1.9999999999999998
    vertex 10.602107107448445 2.34338181088684 0.8918706648697856
  endloop
endfacet
facet normal 0.9914448613738092 -0.13052619222006137 -2.523779613002924e-15
  outer loop
    vertex 27.61903293373751 -8.115437234215683 0.8918706648697856
    vertex 27.58495876002658 -8.374256279318207 1.9999999999999998
    vertex 27.584958760026574 -8.374256279318207 0.8918706648697856
  endloop
endfacet
facet normal 0.9914448613738092 -0.13052619222006137 -2.523779613002924e-15
  outer loop
    vertex 27.58495876002658 -8.374256279318207 1.9999999999999998
    vertex 27.61903293373751 -8.115437234215683 0.8918706648697856
    vertex 27.61903293373751 -8.115437234215683 1.9999999999999998
  endloop
endfacet
facet normal 0.7933533402912422 0.6087614290087118 4.811460470546063e-16
  outer loop
    vertex 27.326139714924057 2.791669546970869 0.8918706648697856
    vertex 27.48505833752195 2.5845627657843173 1.9999999999999998
    vertex 27.48505833752195 2.5845627657843173 0.8918706648697856
  endloop
endfacet
facet normal 0.7933533402912422 0.6087614290087118 4.811460470546063e-16
  outer loop
    vertex 27.48505833752195 2.5845627657843173 1.9999999999999998
    vertex 27.326139714924057 2.791669546970869 0.8918706648697856
    vertex 27.326139714924057 2.7916695469708674 1.9999999999999998
  endloop
endfacet
facet normal -0.9238795325112981 -0.3826834323650625 -6.892218653845986e-16
  outer loop
    vertex 10.702007529953072 -8.615437234215689 1.9999999999999998
    vertex 10.60210710744845 -8.374256279318207 0.8918706648697856
    vertex 10.70200752995307 -8.615437234215692 0.8918706648697856
  endloop
endfacet
facet normal -0.9238795325112981 -0.3826834323650625 -6.892218653845986e-16
  outer loop
    vertex 10.60210710744845 -8.374256279318207 0.8918706648697856
    vertex 10.702007529953072 -8.615437234215689 1.9999999999999998
    vertex 10.602107107448445 -8.374256279318207 1.9999999999999998
  endloop
endfacet
facet normal 0.9238795325112937 -0.38268343236507285 -1.3790080707188068e-15
  outer loop
    vertex 27.584958760026574 -8.374256279318207 0.8918706648697856
    vertex 27.485058337521952 -8.615437234215683 1.9999999999999998
    vertex 27.485058337521952 -8.615437234215689 0.8918706648697856
  endloop
endfacet
facet normal 0.9238795325112937 -0.38268343236507285 -1.3790080707188068e-15
  outer loop
    vertex 27.485058337521952 -8.615437234215683 1.9999999999999998
    vertex 27.584958760026574 -8.374256279318207 0.8918706648697856
    vertex 27.58495876002658 -8.374256279318207 1.9999999999999998
  endloop
endfacet
facet normal 0.793353340291231 -0.6087614290087264 3.1036087359559122e-15
  outer loop
    vertex 27.485058337521952 -8.615437234215689 0.8918706648697856
    vertex 27.326139714924057 -8.822544015402233 1.9999999999999998
    vertex 27.326139714924057 -8.822544015402238 0.8918706648697856
  endloop
endfacet
facet normal 0.793353340291231 -0.6087614290087264 3.1036087359559122e-15
  outer loop
    vertex 27.326139714924057 -8.822544015402233 1.9999999999999998
    vertex 27.485058337521952 -8.615437234215689 0.8918706648697856
    vertex 27.485058337521952 -8.615437234215683 1.9999999999999998
  endloop
endfacet
facet normal -0.13052619222005846 0.9914448613738096 2.229784218723548e-16
  outer loop
    vertex 11.309213888634995 3.050488592073386 1.9999999999999998
    vertex 11.568032933737516 3.084562765784321 0.8918706648697856
    vertex 11.309213888634996 3.0504885920733846 0.8918706648697856
  endloop
endfacet
facet normal -0.13052619222005846 0.9914448613738096 2.229784218723548e-16
  outer loop
    vertex 11.568032933737516 3.084562765784321 0.8918706648697856
    vertex 11.309213888634995 3.050488592073386 1.9999999999999998
    vertex 11.568032933737515 3.0845627657843178 1.9999999999999998
  endloop
endfacet
facet normal 0.13052619222005357 -0.9914448613738103 -1.8601852380654098e-15
  outer loop
    vertex 26.87785197884003 -9.081363060504751 1.9999999999999998
    vertex 26.619032933737518 -9.11543723421568 0.8918706648697856
    vertex 26.877851978840035 -9.081363060504748 0.8918706648697856
  endloop
endfacet
facet normal 0.13052619222005357 -0.9914448613738103 -1.8601852380654098e-15
  outer loop
    vertex 26.619032933737518 -9.11543723421568 0.8918706648697856
    vertex 26.87785197884003 -9.081363060504751 1.9999999999999998
    vertex 26.619032933737515 -9.115437234215682 1.9999999999999998
  endloop
endfacet
facet normal -0.7933533402912413 -0.6087614290087127 3.5541878465600165e-15
  outer loop
    vertex 10.860926152550961 -8.822544015402238 1.9999999999999998
    vertex 10.70200752995307 -8.615437234215692 0.8918706648697856
    vertex 10.86092615255096 -8.822544015402242 0.8918706648697856
  endloop
endfacet
facet normal -0.7933533402912413 -0.6087614290087127 3.5541878465600165e-15
  outer loop
    vertex 10.70200752995307 -8.615437234215692 0.8918706648697856
    vertex 10.860926152550961 -8.822544015402238 1.9999999999999998
    vertex 10.702007529953072 -8.615437234215689 1.9999999999999998
  endloop
endfacet
facet normal -1.0 0.0 0.0
  outer loop
    vertex 19.679272933737504 -0.9350122342156927 6.299999999999998
    vertex 19.679272933737504 -2.4270122342156775 1.999999999999998
    vertex 19.679272933737504 -2.4270122342156775 6.299999999999998
  endloop
endfacet
facet normal -1.0 0.0 0.0
  outer loop
    vertex 19.679272933737504 -2.4270122342156775 1.999999999999998
    vertex 19.679272933737504 -0.9350122342156927 6.299999999999998
    vertex 19.679272933737504 -0.9350122342156927 1.999999999999998
  endloop
endfacet
facet normal 0.795670922711118 0.6057291331544473 0.0
  outer loop
    vertex 21.087300384593792 -1.064241111877363 1.999999999999998
    vertex 21.525312270255203 -1.6396027746187631 6.299999999999998
    vertex 21.525312270255203 -1.6396027746187631 1.999999999999998
  endloop
endfacet
facet normal 0.795670922711118 0.6057291331544473 0.0
  outer loop
    vertex 21.525312270255203 -1.6396027746187631 6.299999999999998
    vertex 21.087300384593792 -1.064241111877363 1.999999999999998
    vertex 21.087300384593792 -1.064241111877363 6.299999999999998
  endloop
endfacet
facet normal -0.991935798697652 -0.12674135576855425 0.0
  outer loop
    vertex 16.351173643307217 -3.0048654271952184 6.299999999999998
    vertex 16.442822232078846 -3.7221491863236333 1.999999999999998
    vertex 16.442822232078846 -3.7221491863236333 6.299999999999998
  endloop
endfacet
facet normal -0.991935798697652 -0.12674135576855425 0.0
  outer loop
    vertex 16.442822232078846 -3.7221491863236333 1.999999999999998
    vertex 16.351173643307217 -3.0048654271952184 6.299999999999998
    vertex 16.351173643307217 -3.0048654271952184 1.999999999999998
  endloop
endfacet
facet normal 0.9224122784796419 -0.38620666554319794 0.0
  outer loop
    vertex 21.794012336701737 -3.742572349186857 1.999999999999998
    vertex 21.51474046323474 -4.409582600699866 6.299999999999998
    vertex 21.51474046323474 -4.409582600699866 1.999999999999998
  endloop
endfacet
facet normal 0.9224122784796419 -0.38620666554319794 0.0
  outer loop
    vertex 21.51474046323474 -4.409582600699866 6.299999999999998
    vertex 21.794012336701737 -3.742572349186857 1.999999999999998
    vertex 21.794012336701737 -3.742572349186857 6.299999999999998
  endloop
endfacet
facet normal 0.13430912742620388 0.9909394826577513 0.0
  outer loop
    vertex 19.131725276408808 -0.24545740813457662 6.299999999999998
    vertex 19.848288584359494 -0.34257836690227844 1.999999999999998
    vertex 19.131725276408808 -0.24545740813457662 1.999999999999998
  endloop
endfacet
facet normal 0.13430912742620388 0.9909394826577513 0.0
  outer loop
    vertex 19.848288584359494 -0.34257836690227844 1.999999999999998
    vertex 19.131725276408808 -0.24545740813457662 6.299999999999998
    vertex 19.848288584359494 -0.34257836690227844 6.299999999999998
  endloop
endfacet
facet normal -0.6117848576400908 -0.7910242018815188 0.0
  outer loop
    vertex 17.727008102904183 -5.409024228062097 6.299999999999998
    vertex 17.155006554182894 -4.966633356553996 1.999999999999998
    vertex 17.727008102904183 -5.409024228062097 1.999999999999998
  endloop
endfacet
facet normal -0.6117848576400908 -0.7910242018815188 0.0
  outer loop
    vertex 17.155006554182894 -4.966633356553996 1.999999999999998
    vertex 17.727008102904183 -5.409024228062097 6.299999999999998
    vertex 17.155006554182894 -4.966633356553996 6.299999999999998
  endloop
endfacet
facet normal -0.6057291331544783 0.7956709227110944 0.0
  outer loop
    vertex 17.169957347050023 -1.0492903190102323 6.299999999999998
    vertex 17.74531900979141 -0.6112784333488009 1.999999999999998
    vertex 17.169957347050023 -1.0492903190102323 1.999999999999998
  endloop
endfacet
facet normal -0.6057291331544783 0.7956709227110944 0.0
  outer loop
    vertex 17.74531900979141 -0.6112784333488009 1.999999999999998
    vertex 17.169957347050023 -1.0492903190102323 6.299999999999998
    vertex 17.74531900979141 -0.6112784333488009 6.299999999999998
  endloop
endfacet
facet normal -0.9224122784796587 0.3862066655431583 0.0
  outer loop
    vertex 16.727566475541902 -1.621291867731493 6.299999999999998
    vertex 16.448294602074938 -2.288302119244501 1.999999999999998
    vertex 16.448294602074938 -2.288302119244501 6.299999999999998
  endloop
endfacet
facet normal -0.9224122784796587 0.3862066655431583 0.0
  outer loop
    vertex 16.448294602074938 -2.288302119244501 1.999999999999998
    vertex 16.727566475541902 -1.621291867731493 6.299999999999998
    vertex 16.727566475541902 -1.621291867731493 1.999999999999998
  endloop
endfacet
facet normal 0.991935798697652 0.12674135576855425 0.0
  outer loop
    vertex 21.799484706697818 -2.3087252821077255 1.999999999999998
    vertex 21.891133295469448 -3.0260090412361405 6.299999999999998
    vertex 21.891133295469448 -3.0260090412361405 1.999999999999998
  endloop
endfacet
facet normal 0.991935798697652 0.12674135576855425 0.0
  outer loop
    vertex 21.891133295469448 -3.0260090412361405 6.299999999999998
    vertex 21.799484706697818 -2.3087252821077255 1.999999999999998
    vertex 21.799484706697818 -2.3087252821077255 6.299999999999998
  endloop
endfacet
facet normal 0.3791546250176494 -0.9253333293077288 0.0
  outer loop
    vertex 20.496987928985263 -5.419596035082558 6.299999999999998
    vertex 19.827865421496274 -5.693768471525174 1.999999999999998
    vertex 20.496987928985263 -5.419596035082558 1.999999999999998
  endloop
endfacet
facet normal 0.3791546250176494 -0.9253333293077288 0.0
  outer loop
    vertex 19.827865421496274 -5.693768471525174 1.999999999999998
    vertex 20.496987928985263 -5.419596035082558 6.299999999999998
    vertex 19.827865421496274 -5.693768471525174 6.299999999999998
  endloop
endfacet
facet normal -0.1343091274261987 -0.990939482657752 0.0
  outer loop
    vertex 19.110581662367885 -5.7854170602967825 6.299999999999998
    vertex 18.394018354417167 -5.6882961015290805 1.999999999999998
    vertex 19.110581662367885 -5.7854170602967825 1.999999999999998
  endloop
endfacet
facet normal -0.1343091274261987 -0.990939482657752 0.0
  outer loop
    vertex 18.394018354417167 -5.6882961015290805 1.999999999999998
    vertex 19.110581662367885 -5.7854170602967825 6.299999999999998
    vertex 18.394018354417167 -5.6882961015290805 6.299999999999998
  endloop
endfacet
facet normal -0.7956709227110881 -0.6057291331544868 0.0
  outer loop
    vertex 16.71699466852144 -4.3912716938125955 6.299999999999998
    vertex 17.155006554182894 -4.966633356553996 1.999999999999998
    vertex 17.155006554182894 -4.966633356553996 6.299999999999998
  endloop
endfacet
facet normal -0.7956709227110881 -0.6057291331544868 0.0
  outer loop
    vertex 17.155006554182894 -4.966633356553996 1.999999999999998
    vertex 16.71699466852144 -4.3912716938125955 6.299999999999998
    vertex 16.71699466852144 -4.3912716938125955 1.999999999999998
  endloop
endfacet
facet normal 0.0 0.0 1.0
  outer loop
    vertex 21.107202933737508 -3.6038622342156814 1.999999999999998
    vertex 19.679272933737504 -2.4270122342156775 1.999999999999998
    vertex 19.679272933737504 -3.6038622342156814 1.999999999999998
  endloop
endfacet
facet normal 0.0 0.0 1.0
  outer loop
    vertex 19.679272933737504 -2.4270122342156775 1.999999999999998
    vertex 21.107202933737508 -3.6038622342156814 1.999999999999998
    vertex 21.107202933737508 -2.4270122342156775 1.999999999999998
  endloop
endfacet
facet normal 0.0 0.0 1.0
  outer loop
    vertex 19.679272933737504 -5.109222234215688 1.999999999999998
    vertex 18.50779293373752 -3.6038622342156814 1.999999999999998
    vertex 18.50779293373752 -5.109222234215688 1.999999999999998
  endloop
endfacet
facet normal 0.0 0.0 1.0
  outer loop
    vertex 18.50779293373752 -3.6038622342156814 1.999999999999998
    vertex 19.679272933737504 -5.109222234215688 1.999999999999998
    vertex 18.50779293373752 -2.4270122342156775 1.999999999999998
  endloop
endfacet
facet normal 0.0 0.0 1.0
  outer loop
    vertex 18.50779293373752 -2.4270122342156775 1.999999999999998
    vertex 19.679272933737504 -5.109222234215688 1.999999999999998
    vertex 18.50779293373752 -0.9350122342156927 1.999999999999998
  endloop
endfacet
facet normal 0.0 0.0 1.0
  outer loop
    vertex 18.50779293373752 -0.9350122342156927 1.999999999999998
    vertex 19.679272933737504 -5.109222234215688 1.999999999999998
    vertex 19.679272933737504 -0.9350122342156927 1.999999999999998
  endloop
endfacet
facet normal 0.0 0.0 1.0
  outer loop
    vertex 19.679272933737504 -0.9350122342156927 1.999999999999998
    vertex 19.679272933737504 -5.109222234215688 1.999999999999998
    vertex 19.679272933737504 -3.6038622342156814 1.999999999999998
  endloop
endfacet
facet normal 0.0 0.0 1.0
  outer loop
    vertex 19.679272933737504 -0.9350122342156927 1.999999999999998
    vertex 19.679272933737504 -3.6038622342156814 1.999999999999998
    vertex 19.679272933737504 -2.4270122342156775 1.999999999999998
  endloop
endfacet
facet normal 0.0 0.0 1.0
  outer loop
    vertex 18.50779293373752 -3.6038622342156814 1.999999999999998
    vertex 17.086892933737516 -2.4270122342156775 1.999999999999998
    vertex 17.086892933737516 -3.6038622342156814 1.999999999999998
  endloop
endfacet
facet normal 0.0 0.0 1.0
  outer loop
    vertex 17.086892933737516 -2.4270122342156775 1.999999999999998
    vertex 18.50779293373752 -3.6038622342156814 1.999999999999998
    vertex 18.50779293373752 -2.4270122342156775 1.999999999999998
  endloop
endfacet
facet normal 0.7910242018815193 -0.6117848576400903 0.0
  outer loop
    vertex 21.51474046323474 -4.409582600699866 1.999999999999998
    vertex 21.072349591726663 -4.981584149421127 6.299999999999998
    vertex 21.072349591726663 -4.981584149421127 1.999999999999998
  endloop
endfacet
facet normal 0.7910242018815193 -0.6117848576400903 0.0
  outer loop
    vertex 21.072349591726663 -4.981584149421127 6.299999999999998
    vertex 21.51474046323474 -4.409582600699866 1.999999999999998
    vertex 21.51474046323474 -4.409582600699866 6.299999999999998
  endloop
endfacet
facet normal 0.6117848576400947 0.791024201881516 0.0
  outer loop
    vertex 20.51529883587251 -0.621850240369262 6.299999999999998
    vertex 21.087300384593792 -1.064241111877363 1.999999999999998
    vertex 20.51529883587251 -0.621850240369262 1.999999999999998
  endloop
endfacet
facet normal 0.6117848576400947 0.791024201881516 0.0
  outer loop
    vertex 21.087300384593792 -1.064241111877363 1.999999999999998
    vertex 20.51529883587251 -0.621850240369262 6.299999999999998
    vertex 21.087300384593792 -1.064241111877363 6.299999999999998
  endloop
endfacet
facet normal 5.152420322242189e-16 -1.0 -6.361997632290186e-16
  outer loop
    vertex 26.619032933737515 -9.115437234215682 1.9999999999999998
    vertex 11.568032933737513 -9.115437234215689 0.8918706648697856
    vertex 26.619032933737518 -9.11543723421568 0.8918706648697856
  endloop
endfacet
facet normal 5.152420322242189e-16 -1.0 -6.361997632290186e-16
  outer loop
    vertex 11.568032933737513 -9.115437234215689 0.8918706648697856
    vertex 26.619032933737515 -9.115437234215682 1.9999999999999998
    vertex 11.568032933737511 -9.115437234215689 1.9999999999999998
  endloop
endfacet
facet normal -1.0 0.0 0.0
  outer loop
    vertex 10.568032933737513 2.084562765784317 1.9999999999999998
    vertex 10.568032933737513 -8.11543723421569 0.8918706648697856
    vertex 10.568032933737513 -8.11543723421569 1.9999999999999998
  endloop
endfacet
facet normal -1.0 0.0 0.0
  outer loop
    vertex 10.568032933737513 -8.11543723421569 0.8918706648697856
    vertex 10.568032933737513 2.084562765784317 1.9999999999999998
    vertex 10.568032933737513 2.084562765784317 0.8918706648697856
  endloop
endfacet
facet normal 7.02602771214844e-17 1.0 -3.1809988161451005e-16
  outer loop
    vertex 11.568032933737515 3.0845627657843178 1.9999999999999998
    vertex 26.619032933737518 3.0845627657843164 0.8918706648697856
    vertex 11.568032933737516 3.084562765784321 0.8918706648697856
  endloop
endfacet
facet normal 7.02602771214844e-17 1.0 -3.1809988161451005e-16
  outer loop
    vertex 26.619032933737518 3.0845627657843164 0.8918706648697856
    vertex 11.568032933737515 3.0845627657843178 1.9999999999999998
    vertex 26.619032933737515 3.084562765784319 1.9999999999999998
  endloop
endfacet
facet normal -0.3791546250176631 0.9253333293077232 0.0
  outer loop
    vertex 17.74531900979141 -0.6112784333488009 6.299999999999998
    vertex 18.41444151728037 -0.337105996906185 1.999999999999998
    vertex 17.74531900979141 -0.6112784333488009 1.999999999999998
  endloop
endfacet
facet normal -0.3791546250176631 0.9253333293077232 0.0
  outer loop
    vertex 18.41444151728037 -0.337105996906185 1.999999999999998
    vertex 17.74531900979141 -0.6112784333488009 6.299999999999998
    vertex 18.41444151728037 -0.337105996906185 6.299999999999998
  endloop
endfacet
facet normal -9.493774958114984e-33 2.03109376476787e-33 -1.0
  outer loop
    vertex 10.602107107448445 2.34338181088684 0.8918706648697856
    vertex 10.568032933737513 -8.11543723421569 0.8918706648697856
    vertex 10.568032933737513 2.084562765784317 0.8918706648697856
  endloop
endfacet
facet normal -9.493774958114984e-33 2.03109376476787e-33 -1.0
  outer loop
    vertex 10.568032933737513 -8.11543723421569 0.8918706648697856
    vertex 10.602107107448445 2.34338181088684 0.8918706648697856
    vertex 10.60210710744845 -8.374256279318207 0.8918706648697856
  endloop
endfacet
facet normal -9.493774958114984e-33 2.03109376476787e-33 -1.0
  outer loop
    vertex 10.60210710744845 -8.374256279318207 0.8918706648697856
    vertex 10.602107107448445 2.34338181088684 0.8918706648697856
    vertex 10.702007529953075 2.5845627657843204 0.8918706648697856
  endloop
endfacet
facet normal -9.493774958114984e-33 2.03109376476787e-33 -1.0
  outer loop
    vertex 10.60210710744845 -8.374256279318207 0.8918706648697856
    vertex 10.702007529953075 2.5845627657843204 0.8918706648697856
    vertex 10.70200752995307 -8.615437234215692 0.8918706648697856
  endloop
endfacet
facet normal -9.493774958114984e-33 2.03109376476787e-33 -1.0
  outer loop
    vertex 10.70200752995307 -8.615437234215692 0.8918706648697856
    vertex 10.702007529953075 2.5845627657843204 0.8918706648697856
    vertex 10.86092615255096 -8.822544015402242 0.8918706648697856
  endloop
endfacet
facet normal -9.493774958114984e-33 2.03109376476787e-33 -1.0
  outer loop
    vertex 10.86092615255096 -8.822544015402242 0.8918706648697856
    vertex 10.702007529953075 2.5845627657843204 0.8918706648697856
    vertex 10.860926152550968 2.791669546970866 0.8918706648697856
  endloop
endfacet
facet normal -9.493774958114984e-33 2.03109376476787e-33 -1.0
  outer loop
    vertex 10.86092615255096 -8.822544015402242 0.8918706648697856
    vertex 10.860926152550968 2.791669546970866 0.8918706648697856
    vertex 11.068032933737513 -8.98146263800013 0.8918706648697856
  endloop
endfacet
facet normal -9.493774958114984e-33 2.03109376476787e-33 -1.0
  outer loop
    vertex 11.068032933737513 -8.98146263800013 0.8918706648697856
    vertex 10.860926152550968 2.791669546970866 0.8918706648697856
    vertex 11.068032933737513 2.950588169568756 0.8918706648697856
  endloop
endfacet
facet normal -9.493774958114984e-33 2.03109376476787e-33 -1.0
  outer loop
    vertex 11.068032933737513 -8.98146263800013 0.8918706648697856
    vertex 11.068032933737513 2.950588169568756 0.8918706648697856
    vertex 11.309213888634996 3.0504885920733846 0.8918706648697856
  endloop
endfacet
facet normal -9.493774958114984e-33 2.03109376476787e-33 -1.0
  outer loop
    vertex 11.068032933737513 -8.98146263800013 0.8918706648697856
    vertex 11.309213888634996 3.0504885920733846 0.8918706648697856
    vertex 11.30921388863499 -9.081363060504758 0.8918706648697856
  endloop
endfacet
facet normal -9.493774958114984e-33 2.03109376476787e-33 -1.0
  outer loop
    vertex 11.30921388863499 -9.081363060504758 0.8918706648697856
    vertex 11.309213888634996 3.0504885920733846 0.8918706648697856
    vertex 11.568032933737513 -9.115437234215689 0.8918706648697856
  endloop
endfacet
facet normal -9.493774958114984e-33 2.03109376476787e-33 -1.0
  outer loop
    vertex 11.568032933737513 -9.115437234215689 0.8918706648697856
    vertex 11.309213888634996 3.0504885920733846 0.8918706648697856
    vertex 11.568032933737516 3.084562765784321 0.8918706648697856
  endloop
endfacet
facet normal -9.493774958114984e-33 2.03109376476787e-33 -1.0
  outer loop
    vertex 11.568032933737513 -9.115437234215689 0.8918706648697856
    vertex 11.568032933737516 3.084562765784321 0.8918706648697856
    vertex 26.619032933737518 -9.11543723421568 0.8918706648697856
  endloop
endfacet
facet normal -9.493774958114984e-33 2.03109376476787e-33 -1.0
  outer loop
    vertex 26.619032933737518 -9.11543723421568 0.8918706648697856
    vertex 11.568032933737516 3.084562765784321 0.8918706648697856
    vertex 26.619032933737518 3.0845627657843164 0.8918706648697856
  endloop
endfacet
facet normal -9.493774958114984e-33 2.03109376476787e-33 -1.0
  outer loop
    vertex 26.619032933737518 -9.11543723421568 0.8918706648697856
    vertex 26.619032933737518 3.0845627657843164 0.8918706648697856
    vertex 26.87785197884003 3.0504885920733806 0.8918706648697856
  endloop
endfacet
facet normal -9.493774958114984e-33 2.03109376476787e-33 -1.0
  outer loop
    vertex 26.619032933737518 -9.11543723421568 0.8918706648697856
    vertex 26.87785197884003 3.0504885920733806 0.8918706648697856
    vertex 26.877851978840035 -9.081363060504748 0.8918706648697856
  endloop
endfacet
facet normal -9.493774958114984e-33 2.03109376476787e-33 -1.0
  outer loop
    vertex 26.877851978840035 -9.081363060504748 0.8918706648697856
    vertex 26.87785197884003 3.0504885920733806 0.8918706648697856
    vertex 27.119032933737518 2.950588169568749 0.8918706648697856
  endloop
endfacet
facet normal -9.493774958114984e-33 2.03109376476787e-33 -1.0
  outer loop
    vertex 26.877851978840035 -9.081363060504748 0.8918706648697856
    vertex 27.119032933737518 2.950588169568749 0.8918706648697856
    vertex 27.11903293373751 -8.98146263800012 0.8918706648697856
  endloop
endfacet
facet normal -9.493774958114984e-33 2.03109376476787e-33 -1.0
  outer loop
    vertex 27.11903293373751 -8.98146263800012 0.8918706648697856
    vertex 27.119032933737518 2.950588169568749 0.8918706648697856
    vertex 27.326139714924057 -8.822544015402238 0.8918706648697856
  endloop
endfacet
facet normal -9.493774958114984e-33 2.03109376476787e-33 -1.0
  outer loop
    vertex 27.326139714924057 -8.822544015402238 0.8918706648697856
    vertex 27.119032933737518 2.950588169568749 0.8918706648697856
    vertex 27.326139714924057 2.791669546970869 0.8918706648697856
  endloop
endfacet
facet normal -9.493774958114984e-33 2.03109376476787e-33 -1.0
  outer loop
    vertex 27.326139714924057 -8.822544015402238 0.8918706648697856
    vertex 27.326139714924057 2.791669546970869 0.8918706648697856
    vertex 27.48505833752195 2.5845627657843173 0.8918706648697856
  endloop
endfacet
facet normal -9.493774958114984e-33 2.03109376476787e-33 -1.0
  outer loop
    vertex 27.326139714924057 -8.822544015402238 0.8918706648697856
    vertex 27.48505833752195 2.5845627657843173 0.8918706648697856
    vertex 27.485058337521952 -8.615437234215689 0.8918706648697856
  endloop
endfacet
facet normal -9.493774958114984e-33 2.03109376476787e-33 -1.0
  outer loop
    vertex 27.485058337521952 -8.615437234215689 0.8918706648697856
    vertex 27.48505833752195 2.5845627657843173 0.8918706648697856
    vertex 27.58495876002658 2.343381810886841 0.8918706648697856
  endloop
endfacet
facet normal -9.493774958114984e-33 2.03109376476787e-33 -1.0
  outer loop
    vertex 27.485058337521952 -8.615437234215689 0.8918706648697856
    vertex 27.58495876002658 2.343381810886841 0.8918706648697856
    vertex 27.584958760026574 -8.374256279318207 0.8918706648697856
  endloop
endfacet
facet normal -9.493774958114984e-33 2.03109376476787e-33 -1.0
  outer loop
    vertex 27.584958760026574 -8.374256279318207 0.8918706648697856
    vertex 27.58495876002658 2.343381810886841 0.8918706648697856
    vertex 27.61903293373751 -8.115437234215683 0.8918706648697856
  endloop
endfacet
facet normal -9.493774958114984e-33 2.03109376476787e-33 -1.0
  outer loop
    vertex 27.61903293373751 -8.115437234215683 0.8918706648697856
    vertex 27.58495876002658 2.343381810886841 0.8918706648697856
    vertex 27.61903293373751 2.084562765784318 0.8918706648697856
  endloop
endfacet
endsolid Untitled
