solid Untitled
facet normal 0.38268343236508207 -0.92387953251129 0.0
  outer loop
    vertex 8.537181347847092 -6.315516969480851 2.0000000000000027
    vertex 8.29600039294961 -6.415417391985478 2.8199664825478975e-15
    vertex 8.537181347847092 -6.315516969480851 2.8199664825478975e-15
  endloop
endfacet
facet normal 0.38268343236508207 -0.92387953251129 0.0
  outer loop
    vertex 8.29600039294961 -6.415417391985478 2.8199664825478975e-15
    vertex 8.537181347847092 -6.315516969480851 2.0000000000000027
    vertex 8.29600039294961 -6.415417391985478 2.0000000000000027
  endloop
endfacet
facet normal -0.9909394826577479 0.1343091274262293 0.0
  outer loop
    vertex -2.13355698381548 0.37764354927477123 6.300000000000001
    vertex -2.2306779425832044 -0.33891975867594576 2.000000000000001
    vertex -2.2306779425832044 -0.33891975867594576 6.300000000000001
  endloop
endfacet
facet normal -0.9909394826577479 0.1343091274262293 0.0
  outer loop
    vertex -2.2306779425832044 -0.33891975867594576 2.000000000000001
    vertex -2.13355698381548 0.37764354927477123 6.300000000000001
    vertex -2.13355698381548 0.37764354927477123 2.000000000000001
  endloop
endfacet
facet normal -0.38268343236508595 -0.9238795325112884 -0.0
  outer loop
    vertex -7.2726376972554325 -6.415417391985484 2.0000000000000027
    vertex -7.513818652152909 -6.315516969480856 2.8199664825478975e-15
    vertex -7.2726376972554325 -6.415417391985484 2.8199664825478975e-15
  endloop
endfacet
facet normal -0.38268343236508595 -0.9238795325112884 -0.0
  outer loop
    vertex -7.513818652152909 -6.315516969480856 2.8199664825478975e-15
    vertex -7.2726376972554325 -6.415417391985484 2.0000000000000027
    vertex -7.513818652152909 -6.315516969480856 2.0000000000000027
  endloop
endfacet
facet normal -0.6087614290087128 -0.7933533402912413 -0.0
  outer loop
    vertex -7.513818652152909 -6.315516969480856 2.0000000000000027
    vertex -7.720925433339459 -6.156598346882967 2.8199664825478975e-15
    vertex -7.513818652152909 -6.315516969480856 2.8199664825478975e-15
  endloop
endfacet
facet normal -0.6087614290087128 -0.7933533402912413 -0.0
  outer loop
    vertex -7.720925433339459 -6.156598346882967 2.8199664825478975e-15
    vertex -7.513818652152909 -6.315516969480856 2.0000000000000027
    vertex -7.720925433339459 -6.156598346882967 2.0000000000000027
  endloop
endfacet
facet normal 0.6087614290087205 -0.7933533402912353 0.0
  outer loop
    vertex 8.744288129033636 -6.15659834688296 2.0000000000000027
    vertex 8.537181347847092 -6.315516969480851 2.8199664825478975e-15
    vertex 8.744288129033636 -6.15659834688296 2.8199664825478975e-15
  endloop
endfacet
facet normal 0.6087614290087205 -0.7933533402912353 0.0
  outer loop
    vertex 8.537181347847092 -6.315516969480851 2.8199664825478975e-15
    vertex 8.744288129033636 -6.15659834688296 2.0000000000000027
    vertex 8.537181347847092 -6.315516969480851 2.0000000000000027
  endloop
endfacet
facet normal 0.0 0.0 1.0
  outer loop
    vertex -7.979744478441976 -5.708310610798934 2.0000000000000027
    vertex -8.013818652152908 4.7505084343035895 2.0000000000000027
    vertex -8.013818652152908 -5.449491565696417 2.0000000000000027
  endloop
endfacet
facet normal 0.0 0.0 1.0
  outer loop
    vertex -8.013818652152908 4.7505084343035895 2.0000000000000027
    vertex -7.979744478441976 -5.708310610798934 2.0000000000000027
    vertex -7.979744478441976 5.009327479406112 2.0000000000000027
  endloop
endfacet
facet normal 0.0 0.0 1.0
  outer loop
    vertex -7.979744478441976 5.009327479406112 2.0000000000000027
    vertex -7.979744478441976 -5.708310610798934 2.0000000000000027
    vertex -7.879844055937349 -5.949491565696416 2.0000000000000027
  endloop
endfacet
facet normal 0.0 0.0 1.0
  outer loop
    vertex -7.979744478441976 5.009327479406112 2.0000000000000027
    vertex -7.879844055937349 -5.949491565696416 2.0000000000000027
    vertex -7.879844055937347 5.250508434303591 2.0000000000000027
  endloop
endfacet
facet normal 0.0 0.0 1.0
  outer loop
    vertex -7.879844055937347 5.250508434303591 2.0000000000000027
    vertex -7.879844055937349 -5.949491565696416 2.0000000000000027
    vertex -7.720925433339459 -6.156598346882967 2.0000000000000027
  endloop
endfacet
facet normal 0.0 0.0 1.0
  outer loop
    vertex -7.879844055937347 5.250508434303591 2.0000000000000027
    vertex -7.720925433339459 -6.156598346882967 2.0000000000000027
    vertex -7.7209254333394535 5.457615215490139 2.0000000000000027
  endloop
endfacet
facet normal 0.0 0.0 1.0
  outer loop
    vertex -7.7209254333394535 5.457615215490139 2.0000000000000027
    vertex -7.720925433339459 -6.156598346882967 2.0000000000000027
    vertex -7.513818652152909 -6.315516969480856 2.0000000000000027
  endloop
endfacet
facet normal 0.0 0.0 1.0
  outer loop
    vertex -7.7209254333394535 5.457615215490139 2.0000000000000027
    vertex -7.513818652152909 -6.315516969480856 2.0000000000000027
    vertex -7.513818652152909 5.616533838088029 2.0000000000000027
  endloop
endfacet
facet normal 0.0 0.0 1.0
  outer loop
    vertex -7.513818652152909 5.616533838088029 2.0000000000000027
    vertex -7.513818652152909 -6.315516969480856 2.0000000000000027
    vertex -7.2726376972554325 -6.415417391985484 2.0000000000000027
  endloop
endfacet
facet normal 0.0 0.0 1.0
  outer loop
    vertex -7.513818652152909 5.616533838088029 2.0000000000000027
    vertex -7.2726376972554325 -6.415417391985484 2.0000000000000027
    vertex -7.272637697255427 5.716434260592659 2.0000000000000027
  endloop
endfacet
facet normal 0.0 0.0 1.0
  outer loop
    vertex -7.272637697255427 5.716434260592659 2.0000000000000027
    vertex -7.2726376972554325 -6.415417391985484 2.0000000000000027
    vertex -7.01381865215291 -6.449491565696415 2.0000000000000027
  endloop
endfacet
facet normal 0.0 0.0 1.0
  outer loop
    vertex -7.272637697255427 5.716434260592659 2.0000000000000027
    vertex -7.01381865215291 -6.449491565696415 2.0000000000000027
    vertex -7.013818652152907 5.75050843430359 2.0000000000000027
  endloop
endfacet
facet normal 0.0 0.0 1.0
  outer loop
    vertex -7.013818652152907 5.75050843430359 2.0000000000000027
    vertex -7.01381865215291 -6.449491565696415 2.0000000000000027
    vertex -1.86485691736898 -1.725326025293323 2.000000000000001
  endloop
endfacet
facet normal 0.0 0.0 1.0
  outer loop
    vertex -1.86485691736898 -1.725326025293323 2.000000000000001
    vertex -7.01381865215291 -6.449491565696415 2.0000000000000027
    vertex -1.426845031707526 -2.3006876880347233 2.000000000000001
  endloop
endfacet
facet normal 0.0 0.0 1.0
  outer loop
    vertex -1.426845031707526 -2.3006876880347233 2.000000000000001
    vertex -7.01381865215291 -6.449491565696415 2.0000000000000027
    vertex -0.8548434829862374 -2.743078559542824 2.000000000000001
  endloop
endfacet
facet normal 0.0 0.0 1.0
  outer loop
    vertex -0.8548434829862374 -2.743078559542824 2.000000000000001
    vertex -7.01381865215291 -6.449491565696415 2.0000000000000027
    vertex -0.18783323147325134 -3.022350433009808 2.000000000000001
  endloop
endfacet
facet normal 0.0 0.0 1.0
  outer loop
    vertex -0.18783323147325134 -3.022350433009808 2.000000000000001
    vertex -7.01381865215291 -6.449491565696415 2.0000000000000027
    vertex 8.037181347847092 -6.44949156569641 2.0000000000000027
  endloop
endfacet
facet normal 0.0 0.0 1.0
  outer loop
    vertex -7.013818652152907 5.75050843430359 2.0000000000000027
    vertex -1.86485691736898 -1.725326025293323 2.000000000000001
    vertex -2.1390293538115737 -1.0562035178043605 2.000000000000001
  endloop
endfacet
facet normal 0.0 0.0 1.0
  outer loop
    vertex -7.013818652152907 5.75050843430359 2.0000000000000027
    vertex -2.1390293538115737 -1.0562035178043605 2.000000000000001
    vertex -2.2306779425832044 -0.33891975867594576 2.000000000000001
  endloop
endfacet
facet normal 0.0 0.0 1.0
  outer loop
    vertex -0.18783323147325134 -3.022350433009808 2.000000000000001
    vertex 8.037181347847092 -6.44949156569641 2.0000000000000027
    vertex 0.5287300764774656 -3.1194713917775094 2.000000000000001
  endloop
endfacet
facet normal 0.0 0.0 1.0
  outer loop
    vertex 0.5287300764774656 -3.1194713917775094 2.000000000000001
    vertex 8.037181347847092 -6.44949156569641 2.0000000000000027
    vertex 1.2460138356058523 -3.0278228030059013 2.000000000000001
  endloop
endfacet
facet normal 0.0 0.0 1.0
  outer loop
    vertex 1.2460138356058523 -3.0278228030059013 2.000000000000001
    vertex 8.037181347847092 -6.44949156569641 2.0000000000000027
    vertex 1.915136343094843 -2.753650366563285 2.000000000000001
  endloop
endfacet
facet normal 0.0 0.0 1.0
  outer loop
    vertex 1.915136343094843 -2.753650366563285 2.000000000000001
    vertex 8.037181347847092 -6.44949156569641 2.0000000000000027
    vertex 2.490498005836243 -2.3156384809018538 2.000000000000001
  endloop
endfacet
facet normal 0.0 0.0 1.0
  outer loop
    vertex 2.490498005836243 -2.3156384809018538 2.000000000000001
    vertex 8.037181347847092 -6.44949156569641 2.0000000000000027
    vertex 2.9328888773443214 -1.7436369321805933 2.000000000000001
  endloop
endfacet
facet normal 0.0 0.0 1.0
  outer loop
    vertex 2.9328888773443214 -1.7436369321805933 2.000000000000001
    vertex 8.037181347847092 -6.44949156569641 2.0000000000000027
    vertex 3.212160750811316 -1.0766266806675846 2.000000000000001
  endloop
endfacet
facet normal 0.0 0.0 1.0
  outer loop
    vertex 3.212160750811316 -1.0766266806675846 2.000000000000001
    vertex 8.037181347847092 -6.44949156569641 2.0000000000000027
    vertex 3.3092817095790292 -0.3600633727168677 2.000000000000001
  endloop
endfacet
facet normal 0.0 0.0 1.0
  outer loop
    vertex 3.3092817095790292 -0.3600633727168677 2.000000000000001
    vertex 8.037181347847092 -6.44949156569641 2.0000000000000027
    vertex 8.03718134784709 5.750508434303592 2.0000000000000027
  endloop
endfacet
facet normal 0.0 0.0 1.0
  outer loop
    vertex 8.03718134784709 5.750508434303592 2.0000000000000027
    vertex 8.037181347847092 -6.44949156569641 2.0000000000000027
    vertex 8.29600039294961 5.71643426059266 2.0000000000000027
  endloop
endfacet
facet normal 0.0 0.0 1.0
  outer loop
    vertex 8.29600039294961 5.71643426059266 2.0000000000000027
    vertex 8.037181347847092 -6.44949156569641 2.0000000000000027
    vertex 8.29600039294961 -6.415417391985478 2.0000000000000027
  endloop
endfacet
facet normal 0.0 0.0 1.0
  outer loop
    vertex 8.29600039294961 5.71643426059266 2.0000000000000027
    vertex 8.29600039294961 -6.415417391985478 2.0000000000000027
    vertex 8.537181347847092 -6.315516969480851 2.0000000000000027
  endloop
endfacet
facet normal 0.0 0.0 1.0
  outer loop
    vertex 8.29600039294961 5.71643426059266 2.0000000000000027
    vertex 8.537181347847092 -6.315516969480851 2.0000000000000027
    vertex 8.537181347847092 5.6165338380880305 2.0000000000000027
  endloop
endfacet
facet normal 0.0 0.0 1.0
  outer loop
    vertex 8.537181347847092 5.6165338380880305 2.0000000000000027
    vertex 8.537181347847092 -6.315516969480851 2.0000000000000027
    vertex 8.744288129033636 -6.15659834688296 2.0000000000000027
  endloop
endfacet
facet normal 0.0 0.0 1.0
  outer loop
    vertex 8.537181347847092 5.6165338380880305 2.0000000000000027
    vertex 8.744288129033636 -6.15659834688296 2.0000000000000027
    vertex 8.744288129033636 5.45761521549014 2.0000000000000027
  endloop
endfacet
facet normal 0.0 0.0 1.0
  outer loop
    vertex 8.744288129033636 5.45761521549014 2.0000000000000027
    vertex 8.744288129033636 -6.15659834688296 2.0000000000000027
    vertex 8.903206751631531 -5.949491565696411 2.0000000000000027
  endloop
endfacet
facet normal 0.0 0.0 1.0
  outer loop
    vertex 8.744288129033636 5.45761521549014 2.0000000000000027
    vertex 8.903206751631531 -5.949491565696411 2.0000000000000027
    vertex 8.903206751631526 5.25050843430359 2.0000000000000027
  endloop
endfacet
facet normal 0.0 0.0 1.0
  outer loop
    vertex 8.903206751631526 5.25050843430359 2.0000000000000027
    vertex 8.903206751631531 -5.949491565696411 2.0000000000000027
    vertex 9.00310717413616 5.009327479406114 2.0000000000000027
  endloop
endfacet
facet normal 0.0 0.0 1.0
  outer loop
    vertex 9.00310717413616 5.009327479406114 2.0000000000000027
    vertex 8.903206751631531 -5.949491565696411 2.0000000000000027
    vertex 9.00310717413616 -5.708310610798934 2.0000000000000027
  endloop
endfacet
facet normal 0.0 0.0 1.0
  outer loop
    vertex 9.00310717413616 5.009327479406114 2.0000000000000027
    vertex 9.00310717413616 -5.708310610798934 2.0000000000000027
    vertex 9.03718134784709 -5.449491565696412 2.0000000000000027
  endloop
endfacet
facet normal 0.0 0.0 1.0
  outer loop
    vertex 9.00310717413616 5.009327479406114 2.0000000000000027
    vertex 9.03718134784709 -5.449491565696412 2.0000000000000027
    vertex 9.03718134784709 4.750508434303591 2.0000000000000027
  endloop
endfacet
facet normal 0.0 0.0 1.0
  outer loop
    vertex -7.013818652152907 5.75050843430359 2.0000000000000027
    vertex -0.8365325760990122 2.054667235170472 2.000000000000001
    vertex 8.03718134784709 5.750508434303592 2.0000000000000027
  endloop
endfacet
facet normal 0.0 0.0 1.0
  outer loop
    vertex -0.8365325760990122 2.054667235170472 2.000000000000001
    vertex -7.013818652152907 5.75050843430359 2.0000000000000027
    vertex -1.4118942388403954 1.6166553495090403 2.000000000000001
  endloop
endfacet
facet normal 0.0 0.0 1.0
  outer loop
    vertex -1.4118942388403954 1.6166553495090403 2.000000000000001
    vertex -7.013818652152907 5.75050843430359 2.0000000000000027
    vertex -1.854285110348519 1.0446538007877797 2.000000000000001
  endloop
endfacet
facet normal 0.0 0.0 1.0
  outer loop
    vertex -1.854285110348519 1.0446538007877797 2.000000000000001
    vertex -7.013818652152907 5.75050843430359 2.0000000000000027
    vertex -2.13355698381548 0.37764354927477123 2.000000000000001
  endloop
endfacet
facet normal 0.0 0.0 1.0
  outer loop
    vertex -2.13355698381548 0.37764354927477123 2.000000000000001
    vertex -7.013818652152907 5.75050843430359 2.0000000000000027
    vertex -2.2306779425832044 -0.33891975867594576 2.000000000000001
  endloop
endfacet
facet normal 0.0 0.0 1.0
  outer loop
    vertex 8.03718134784709 5.750508434303592 2.0000000000000027
    vertex -0.8365325760990122 2.054667235170472 2.000000000000001
    vertex -0.16741006861004976 2.3288396716130877 2.000000000000001
  endloop
endfacet
facet normal 0.0 0.0 1.0
  outer loop
    vertex 8.03718134784709 5.750508434303592 2.0000000000000027
    vertex -0.16741006861004976 2.3288396716130877 2.000000000000001
    vertex 0.5498736905183875 2.420488260384696 2.000000000000001
  endloop
endfacet
facet normal 0.0 0.0 1.0
  outer loop
    vertex 8.03718134784709 5.750508434303592 2.0000000000000027
    vertex 0.5498736905183875 2.420488260384696 2.000000000000001
    vertex 1.2664369984690764 2.3233673016169942 2.000000000000001
  endloop
endfacet
facet normal 0.0 0.0 1.0
  outer loop
    vertex 8.03718134784709 5.750508434303592 2.0000000000000027
    vertex 1.2664369984690764 2.3233673016169942 2.000000000000001
    vertex 1.9334472499820905 2.0440954281500106 2.000000000000001
  endloop
endfacet
facet normal 0.0 0.0 1.0
  outer loop
    vertex 8.03718134784709 5.750508434303592 2.0000000000000027
    vertex 1.9334472499820905 2.0440954281500106 2.000000000000001
    vertex 2.5054487987033736 1.6017045566419097 2.000000000000001
  endloop
endfacet
facet normal 0.0 0.0 1.0
  outer loop
    vertex 8.03718134784709 5.750508434303592 2.0000000000000027
    vertex 2.5054487987033736 1.6017045566419097 2.000000000000001
    vertex 2.9434606843647826 1.0263428939005095 2.000000000000001
  endloop
endfacet
facet normal 0.0 0.0 1.0
  outer loop
    vertex 8.03718134784709 5.750508434303592 2.0000000000000027
    vertex 2.9434606843647826 1.0263428939005095 2.000000000000001
    vertex 3.2176331208073985 0.3572203864115471 2.000000000000001
  endloop
endfacet
facet normal 0.0 0.0 1.0
  outer loop
    vertex 8.03718134784709 5.750508434303592 2.0000000000000027
    vertex 3.2176331208073985 0.3572203864115471 2.000000000000001
    vertex 3.3092817095790292 -0.3600633727168677 2.000000000000001
  endloop
endfacet
facet normal -9.368036949531254e-17 1.0 0.0
  outer loop
    vertex -7.013818652152907 5.75050843430359 2.0000000000000027
    vertex 8.03718134784709 5.750508434303592 2.8199664825478975e-15
    vertex -7.013818652152907 5.75050843430359 2.8199664825478975e-15
  endloop
endfacet
facet normal -9.368036949531254e-17 1.0 0.0
  outer loop
    vertex 8.03718134784709 5.750508434303592 2.8199664825478975e-15
    vertex -7.013818652152907 5.75050843430359 2.0000000000000027
    vertex 8.03718134784709 5.750508434303592 2.0000000000000027
  endloop
endfacet
facet normal 3.7472147798125e-16 -1.0 0.0
  outer loop
    vertex 8.037181347847092 -6.44949156569641 2.0000000000000027
    vertex -7.01381865215291 -6.449491565696415 2.8199664825478975e-15
    vertex 8.037181347847092 -6.44949156569641 2.8199664825478975e-15
  endloop
endfacet
facet normal 3.7472147798125e-16 -1.0 0.0
  outer loop
    vertex -7.01381865215291 -6.449491565696415 2.8199664825478975e-15
    vertex 8.037181347847092 -6.44949156569641 2.0000000000000027
    vertex -7.01381865215291 -6.449491565696415 2.0000000000000027
  endloop
endfacet
facet normal -1.0 0.0 0.0
  outer loop
    vertex -8.013818652152908 4.7505084343035895 2.0000000000000027
    vertex -8.013818652152908 -5.449491565696417 2.8199664825478975e-15
    vertex -8.013818652152908 -5.449491565696417 2.0000000000000027
  endloop
endfacet
facet normal -1.0 0.0 0.0
  outer loop
    vertex -8.013818652152908 -5.449491565696417 2.8199664825478975e-15
    vertex -8.013818652152908 4.7505084343035895 2.0000000000000027
    vertex -8.013818652152908 4.7505084343035895 2.8199664825478975e-15
  endloop
endfacet
facet normal -0.13052619222005077 -0.9914448613738106 -0.0
  outer loop
    vertex -7.01381865215291 -6.449491565696415 2.0000000000000027
    vertex -7.2726376972554325 -6.415417391985484 2.8199664825478975e-15
    vertex -7.01381865215291 -6.449491565696415 2.8199664825478975e-15
  endloop
endfacet
facet normal -0.13052619222005077 -0.9914448613738106 -0.0
  outer loop
    vertex -7.2726376972554325 -6.415417391985484 2.8199664825478975e-15
    vertex -7.01381865215291 -6.449491565696415 2.0000000000000027
    vertex -7.2726376972554325 -6.415417391985484 2.0000000000000027
  endloop
endfacet
facet normal -0.7933533402912322 0.6087614290087248 0.0
  outer loop
    vertex -7.7209254333394535 5.457615215490139 2.0000000000000027
    vertex -7.879844055937347 5.250508434303591 2.8199664825478975e-15
    vertex -7.879844055937347 5.250508434303591 2.0000000000000027
  endloop
endfacet
facet normal -0.7933533402912322 0.6087614290087248 0.0
  outer loop
    vertex -7.879844055937347 5.250508434303591 2.8199664825478975e-15
    vertex -7.7209254333394535 5.457615215490139 2.0000000000000027
    vertex -7.7209254333394535 5.457615215490139 2.8199664825478975e-15
  endloop
endfacet
facet normal 0.9914448613738106 0.13052619222005077 0.0
  outer loop
    vertex 9.00310717413616 5.009327479406114 2.8199664825478975e-15
    vertex 9.03718134784709 4.750508434303591 2.0000000000000027
    vertex 9.03718134784709 4.750508434303591 2.8199664825478975e-15
  endloop
endfacet
facet normal 0.9914448613738106 0.13052619222005077 0.0
  outer loop
    vertex 9.03718134784709 4.750508434303591 2.0000000000000027
    vertex 9.00310717413616 5.009327479406114 2.8199664825478975e-15
    vertex 9.00310717413616 5.009327479406114 2.0000000000000027
  endloop
endfacet
facet normal 0.9238795325112807 0.3826834323651044 0.0
  outer loop
    vertex 8.903206751631526 5.25050843430359 2.8199664825478975e-15
    vertex 9.00310717413616 5.009327479406114 2.0000000000000027
    vertex 9.00310717413616 5.009327479406114 2.8199664825478975e-15
  endloop
endfacet
facet normal 0.9238795325112807 0.3826834323651044 0.0
  outer loop
    vertex 9.00310717413616 5.009327479406114 2.0000000000000027
    vertex 8.903206751631526 5.25050843430359 2.8199664825478975e-15
    vertex 8.903206751631526 5.25050843430359 2.0000000000000027
  endloop
endfacet
facet normal -0.9914448613738103 -0.13052619222005354 -0.0
  outer loop
    vertex -8.013818652152908 -5.449491565696417 2.0000000000000027
    vertex -7.979744478441976 -5.708310610798934 2.8199664825478975e-15
    vertex -7.979744478441976 -5.708310610798934 2.0000000000000027
  endloop
endfacet
facet normal -0.9914448613738103 -0.13052619222005354 -0.0
  outer loop
    vertex -7.979744478441976 -5.708310610798934 2.8199664825478975e-15
    vertex -8.013818652152908 -5.449491565696417 2.0000000000000027
    vertex -8.013818652152908 -5.449491565696417 2.8199664825478975e-15
  endloop
endfacet
facet normal 1.0 0.0 0.0
  outer loop
    vertex 9.03718134784709 4.750508434303591 2.8199664825478975e-15
    vertex 9.03718134784709 -5.449491565696412 2.0000000000000027
    vertex 9.03718134784709 -5.449491565696412 2.8199664825478975e-15
  endloop
endfacet
facet normal 1.0 0.0 0.0
  outer loop
    vertex 9.03718134784709 -5.449491565696412 2.0000000000000027
    vertex 9.03718134784709 4.750508434303591 2.8199664825478975e-15
    vertex 9.03718134784709 4.750508434303591 2.0000000000000027
  endloop
endfacet
facet normal -0.9238795325112861 0.3826834323650913 0.0
  outer loop
    vertex -7.879844055937347 5.250508434303591 2.0000000000000027
    vertex -7.979744478441976 5.009327479406112 2.8199664825478975e-15
    vertex -7.979744478441976 5.009327479406112 2.0000000000000027
  endloop
endfacet
facet normal -0.9238795325112861 0.3826834323650913 0.0
  outer loop
    vertex -7.979744478441976 5.009327479406112 2.8199664825478975e-15
    vertex -7.879844055937347 5.250508434303591 2.0000000000000027
    vertex -7.879844055937347 5.250508434303591 2.8199664825478975e-15
  endloop
endfacet
facet normal 0.7933533402912413 0.6087614290087128 0.0
  outer loop
    vertex 8.744288129033636 5.45761521549014 2.8199664825478975e-15
    vertex 8.903206751631526 5.25050843430359 2.0000000000000027
    vertex 8.903206751631526 5.25050843430359 2.8199664825478975e-15
  endloop
endfacet
facet normal 0.7933533402912413 0.6087614290087128 0.0
  outer loop
    vertex 8.903206751631526 5.25050843430359 2.0000000000000027
    vertex 8.744288129033636 5.45761521549014 2.8199664825478975e-15
    vertex 8.744288129033636 5.45761521549014 2.0000000000000027
  endloop
endfacet
facet normal 0.793353340291231 -0.6087614290087263 0.0
  outer loop
    vertex 8.903206751631531 -5.949491565696411 2.8199664825478975e-15
    vertex 8.744288129033636 -6.15659834688296 2.0000000000000027
    vertex 8.744288129033636 -6.15659834688296 2.8199664825478975e-15
  endloop
endfacet
facet normal 0.793353340291231 -0.6087614290087263 0.0
  outer loop
    vertex 8.744288129033636 -6.15659834688296 2.0000000000000027
    vertex 8.903206751631531 -5.949491565696411 2.8199664825478975e-15
    vertex 8.903206751631531 -5.949491565696411 2.0000000000000027
  endloop
endfacet
facet normal 0.9914448613738106 -0.13052619222005077 0.0
  outer loop
    vertex 9.03718134784709 -5.449491565696412 2.8199664825478975e-15
    vertex 9.00310717413616 -5.708310610798934 2.0000000000000027
    vertex 9.00310717413616 -5.708310610798934 2.8199664825478975e-15
  endloop
endfacet
facet normal 0.9914448613738106 -0.13052619222005077 0.0
  outer loop
    vertex 9.00310717413616 -5.708310610798934 2.0000000000000027
    vertex 9.03718134784709 -5.449491565696412 2.8199664825478975e-15
    vertex 9.03718134784709 -5.449491565696412 2.0000000000000027
  endloop
endfacet
facet normal -0.9238795325112916 -0.38268343236507835 -0.0
  outer loop
    vertex -7.979744478441976 -5.708310610798934 2.0000000000000027
    vertex -7.879844055937349 -5.949491565696416 2.8199664825478975e-15
    vertex -7.879844055937349 -5.949491565696416 2.0000000000000027
  endloop
endfacet
facet normal -0.9238795325112916 -0.38268343236507835 -0.0
  outer loop
    vertex -7.879844055937349 -5.949491565696416 2.8199664825478975e-15
    vertex -7.979744478441976 -5.708310610798934 2.0000000000000027
    vertex -7.979744478441976 -5.708310610798934 2.8199664825478975e-15
  endloop
endfacet
facet normal 0.9238795325112884 -0.38268343236508595 0.0
  outer loop
    vertex 9.00310717413616 -5.708310610798934 2.8199664825478975e-15
    vertex 8.903206751631531 -5.949491565696411 2.0000000000000027
    vertex 8.903206751631531 -5.949491565696411 2.8199664825478975e-15
  endloop
endfacet
facet normal 0.9238795325112884 -0.38268343236508595 0.0
  outer loop
    vertex 8.903206751631531 -5.949491565696411 2.0000000000000027
    vertex 9.00310717413616 -5.708310610798934 2.8199664825478975e-15
    vertex 9.00310717413616 -5.708310610798934 2.0000000000000027
  endloop
endfacet
facet normal -0.13052619222005216 0.9914448613738104 0.0
  outer loop
    vertex -7.272637697255427 5.716434260592659 2.0000000000000027
    vertex -7.013818652152907 5.75050843430359 2.8199664825478975e-15
    vertex -7.272637697255427 5.716434260592659 2.8199664825478975e-15
  endloop
endfacet
facet normal -0.13052619222005216 0.9914448613738104 0.0
  outer loop
    vertex -7.013818652152907 5.75050843430359 2.8199664825478975e-15
    vertex -7.272637697255427 5.716434260592659 2.0000000000000027
    vertex -7.013818652152907 5.75050843430359 2.0000000000000027
  endloop
endfacet
facet normal 0.13052619222005216 -0.9914448613738104 0.0
  outer loop
    vertex 8.29600039294961 -6.415417391985478 2.0000000000000027
    vertex 8.037181347847092 -6.44949156569641 2.8199664825478975e-15
    vertex 8.29600039294961 -6.415417391985478 2.8199664825478975e-15
  endloop
endfacet
facet normal 0.13052619222005216 -0.9914448613738104 0.0
  outer loop
    vertex 8.037181347847092 -6.44949156569641 2.8199664825478975e-15
    vertex 8.29600039294961 -6.415417391985478 2.0000000000000027
    vertex 8.037181347847092 -6.44949156569641 2.0000000000000027
  endloop
endfacet
facet normal -0.7933533402912413 -0.6087614290087128 -0.0
  outer loop
    vertex -7.879844055937349 -5.949491565696416 2.0000000000000027
    vertex -7.720925433339459 -6.156598346882967 2.8199664825478975e-15
    vertex -7.720925433339459 -6.156598346882967 2.0000000000000027
  endloop
endfacet
facet normal -0.7933533402912413 -0.6087614290087128 -0.0
  outer loop
    vertex -7.720925433339459 -6.156598346882967 2.8199664825478975e-15
    vertex -7.879844055937349 -5.949491565696416 2.0000000000000027
    vertex -7.879844055937349 -5.949491565696416 2.8199664825478975e-15
  endloop
endfacet
facet normal -0.9914448613738106 0.13052619222005077 0.0
  outer loop
    vertex -7.979744478441976 5.009327479406112 2.0000000000000027
    vertex -8.013818652152908 4.7505084343035895 2.8199664825478975e-15
    vertex -8.013818652152908 4.7505084343035895 2.0000000000000027
  endloop
endfacet
facet normal -0.9914448613738106 0.13052619222005077 0.0
  outer loop
    vertex -8.013818652152908 4.7505084343035895 2.8199664825478975e-15
    vertex -7.979744478441976 5.009327479406112 2.0000000000000027
    vertex -7.979744478441976 5.009327479406112 2.8199664825478975e-15
  endloop
endfacet
facet normal 0.13052619222005143 0.9914448613738105 0.0
  outer loop
    vertex 8.03718134784709 5.750508434303592 2.0000000000000027
    vertex 8.29600039294961 5.71643426059266 2.8199664825478975e-15
    vertex 8.03718134784709 5.750508434303592 2.8199664825478975e-15
  endloop
endfacet
facet normal 0.13052619222005143 0.9914448613738105 0.0
  outer loop
    vertex 8.29600039294961 5.71643426059266 2.8199664825478975e-15
    vertex 8.03718134784709 5.750508434303592 2.0000000000000027
    vertex 8.29600039294961 5.71643426059266 2.0000000000000027
  endloop
endfacet
facet normal 0.0 -1.0 0.0
  outer loop
    vertex 2.525351347847088 0.23893343430359532 6.300000000000001
    vertex 1.0974213478470858 0.23893343430359532 2.000000000000001
    vertex 2.525351347847088 0.23893343430359532 2.000000000000001
  endloop
endfacet
facet normal 0.0 -1.0 0.0
  outer loop
    vertex 1.0974213478470858 0.23893343430359532 2.000000000000001
    vertex 2.525351347847088 0.23893343430359532 6.300000000000001
    vertex 1.0974213478470858 0.23893343430359532 6.300000000000001
  endloop
endfacet
facet normal -0.3791546250176631 0.9253333293077232 0.0
  outer loop
    vertex -0.8365325760990122 2.054667235170472 6.300000000000001
    vertex -0.16741006861004976 2.3288396716130877 2.000000000000001
    vertex -0.8365325760990122 2.054667235170472 2.000000000000001
  endloop
endfacet
facet normal -0.3791546250176631 0.9253333293077232 0.0
  outer loop
    vertex -0.16741006861004976 2.3288396716130877 2.000000000000001
    vertex -0.8365325760990122 2.054667235170472 6.300000000000001
    vertex -0.16741006861004976 2.3288396716130877 6.300000000000001
  endloop
endfacet
facet normal 0.6057291331544671 -0.795670922711103 0.0
  outer loop
    vertex 2.490498005836243 -2.3156384809018538 6.300000000000001
    vertex 1.915136343094843 -2.753650366563285 2.000000000000001
    vertex 2.490498005836243 -2.3156384809018538 2.000000000000001
  endloop
endfacet
facet normal 0.6057291331544671 -0.795670922711103 0.0
  outer loop
    vertex 1.915136343094843 -2.753650366563285 2.000000000000001
    vertex 2.490498005836243 -2.3156384809018538 6.300000000000001
    vertex 1.915136343094843 -2.753650366563285 6.300000000000001
  endloop
endfacet
facet normal -0.38268343236508756 0.9238795325112878 0.0
  outer loop
    vertex -7.513818652152909 5.616533838088029 2.0000000000000027
    vertex -7.272637697255427 5.716434260592659 2.8199664825478975e-15
    vertex -7.513818652152909 5.616533838088029 2.8199664825478975e-15
  endloop
endfacet
facet normal -0.38268343236508756 0.9238795325112878 0.0
  outer loop
    vertex -7.272637697255427 5.716434260592659 2.8199664825478975e-15
    vertex -7.513818652152909 5.616533838088029 2.0000000000000027
    vertex -7.272637697255427 5.716434260592659 2.0000000000000027
  endloop
endfacet
facet normal -1.0 0.0 0.0
  outer loop
    vertex 2.525351347847088 0.23893343430359532 6.300000000000001
    vertex 2.525351347847088 -0.9379165656964088 2.000000000000001
    vertex 2.525351347847088 -0.9379165656964088 6.300000000000001
  endloop
endfacet
facet normal -1.0 0.0 0.0
  outer loop
    vertex 2.525351347847088 -0.9379165656964088 2.000000000000001
    vertex 2.525351347847088 0.23893343430359532 6.300000000000001
    vertex 2.525351347847088 0.23893343430359532 2.000000000000001
  endloop
endfacet
facet normal 0.6087614290087205 0.7933533402912353 0.0
  outer loop
    vertex 8.537181347847092 5.6165338380880305 2.0000000000000027
    vertex 8.744288129033636 5.45761521549014 2.8199664825478975e-15
    vertex 8.537181347847092 5.6165338380880305 2.8199664825478975e-15
  endloop
endfacet
facet normal 0.6087614290087205 0.7933533402912353 0.0
  outer loop
    vertex 8.744288129033636 5.45761521549014 2.8199664825478975e-15
    vertex 8.537181347847092 5.6165338380880305 2.0000000000000027
    vertex 8.744288129033636 5.45761521549014 2.0000000000000027
  endloop
endfacet
facet normal 0.0 1.0 0.0
  outer loop
    vertex -0.07405865215290029 -2.4432765656964155 6.300000000000001
    vertex 1.0974213478470858 -2.4432765656964155 2.000000000000001
    vertex -0.07405865215290029 -2.4432765656964155 2.000000000000001
  endloop
endfacet
facet normal 0.0 1.0 0.0
  outer loop
    vertex 1.0974213478470858 -2.4432765656964155 2.000000000000001
    vertex -0.07405865215290029 -2.4432765656964155 6.300000000000001
    vertex 1.0974213478470858 -2.4432765656964155 6.300000000000001
  endloop
endfacet
facet normal -0.6087614290087231 0.7933533402912333 0.0
  outer loop
    vertex -7.7209254333394535 5.457615215490139 2.0000000000000027
    vertex -7.513818652152909 5.616533838088029 2.8199664825478975e-15
    vertex -7.7209254333394535 5.457615215490139 2.8199664825478975e-15
  endloop
endfacet
facet normal -0.6087614290087231 0.7933533402912333 0.0
  outer loop
    vertex -7.513818652152909 5.616533838088029 2.8199664825478975e-15
    vertex -7.7209254333394535 5.457615215490139 2.0000000000000027
    vertex -7.513818652152909 5.616533838088029 2.0000000000000027
  endloop
endfacet
facet normal 0.3826834323650913 0.9238795325112861 0.0
  outer loop
    vertex 8.29600039294961 5.71643426059266 2.0000000000000027
    vertex 8.537181347847092 5.6165338380880305 2.8199664825478975e-15
    vertex 8.29600039294961 5.71643426059266 2.8199664825478975e-15
  endloop
endfacet
facet normal 0.3826834323650913 0.9238795325112861 0.0
  outer loop
    vertex 8.537181347847092 5.6165338380880305 2.8199664825478975e-15
    vertex 8.29600039294961 5.71643426059266 2.0000000000000027
    vertex 8.537181347847092 5.6165338380880305 2.0000000000000027
  endloop
endfacet
facet normal -0.3862066655431959 -0.9224122784796428 0.0
  outer loop
    vertex -0.18783323147325134 -3.022350433009808 6.300000000000001
    vertex -0.8548434829862374 -2.743078559542824 2.000000000000001
    vertex -0.18783323147325134 -3.022350433009808 2.000000000000001
  endloop
endfacet
facet normal -0.3862066655431959 -0.9224122784796428 0.0
  outer loop
    vertex -0.8548434829862374 -2.743078559542824 2.000000000000001
    vertex -0.18783323147325134 -3.022350433009808 6.300000000000001
    vertex -0.8548434829862374 -2.743078559542824 6.300000000000001
  endloop
endfacet
facet normal -1.0 0.0 0.0
  outer loop
    vertex 1.0974213478470858 -0.9379165656964088 6.300000000000001
    vertex 1.0974213478470858 -2.4432765656964155 2.000000000000001
    vertex 1.0974213478470858 -2.4432765656964155 6.300000000000001
  endloop
endfacet
facet normal -1.0 0.0 0.0
  outer loop
    vertex 1.0974213478470858 -2.4432765656964155 2.000000000000001
    vertex 1.0974213478470858 -0.9379165656964088 6.300000000000001
    vertex 1.0974213478470858 -0.9379165656964088 2.000000000000001
  endloop
endfacet
facet normal 1.0 0.0 0.0
  outer loop
    vertex -1.4949586521529048 0.23893343430359532 2.000000000000001
    vertex -1.4949586521529048 -0.9379165656964088 6.300000000000001
    vertex -1.4949586521529048 -0.9379165656964088 2.000000000000001
  endloop
endfacet
facet normal 1.0 0.0 0.0
  outer loop
    vertex -1.4949586521529048 -0.9379165656964088 6.300000000000001
    vertex -1.4949586521529048 0.23893343430359532 2.000000000000001
    vertex -1.4949586521529048 0.23893343430359532 6.300000000000001
  endloop
endfacet
facet normal 0.0 -1.0 0.0
  outer loop
    vertex -0.07405865215290029 0.23893343430359532 6.300000000000001
    vertex -1.4949586521529048 0.23893343430359532 2.000000000000001
    vertex -0.07405865215290029 0.23893343430359532 2.000000000000001
  endloop
endfacet
facet normal 0.0 -1.0 0.0
  outer loop
    vertex -1.4949586521529048 0.23893343430359532 2.000000000000001
    vertex -0.07405865215290029 0.23893343430359532 6.300000000000001
    vertex -1.4949586521529048 0.23893343430359532 6.300000000000001
  endloop
endfacet
facet normal 0.0 -1.0 0.0
  outer loop
    vertex 1.0974213478470858 1.73093343430358 6.300000000000001
    vertex -0.07405865215290029 1.73093343430358 2.000000000000001
    vertex 1.0974213478470858 1.73093343430358 2.000000000000001
  endloop
endfacet
facet normal 0.0 -1.0 0.0
  outer loop
    vertex -0.07405865215290029 1.73093343430358 2.000000000000001
    vertex 1.0974213478470858 1.73093343430358 6.300000000000001
    vertex -0.07405865215290029 1.73093343430358 6.300000000000001
  endloop
endfacet
facet normal 1.0 0.0 0.0
  outer loop
    vertex -0.07405865215290029 1.73093343430358 2.000000000000001
    vertex -0.07405865215290029 0.23893343430359532 6.300000000000001
    vertex -0.07405865215290029 0.23893343430359532 2.000000000000001
  endloop
endfacet
facet normal 1.0 0.0 0.0
  outer loop
    vertex -0.07405865215290029 0.23893343430359532 6.300000000000001
    vertex -0.07405865215290029 1.73093343430358 2.000000000000001
    vertex -0.07405865215290029 1.73093343430358 6.300000000000001
  endloop
endfacet
facet normal 0.0 1.0 0.0
  outer loop
    vertex 1.0974213478470858 -0.9379165656964088 6.300000000000001
    vertex 2.525351347847088 -0.9379165656964088 2.000000000000001
    vertex 1.0974213478470858 -0.9379165656964088 2.000000000000001
  endloop
endfacet
facet normal 0.0 1.0 0.0
  outer loop
    vertex 2.525351347847088 -0.9379165656964088 2.000000000000001
    vertex 1.0974213478470858 -0.9379165656964088 6.300000000000001
    vertex 2.525351347847088 -0.9379165656964088 6.300000000000001
  endloop
endfacet
facet normal -0.0 -0.0 -1.0
  outer loop
    vertex -7.979744478441976 5.009327479406112 2.8199664825478975e-15
    vertex -8.013818652152908 -5.449491565696417 2.8199664825478975e-15
    vertex -8.013818652152908 4.7505084343035895 2.8199664825478975e-15
  endloop
endfacet
facet normal -0.0 -0.0 -1.0
  outer loop
    vertex -8.013818652152908 -5.449491565696417 2.8199664825478975e-15
    vertex -7.979744478441976 5.009327479406112 2.8199664825478975e-15
    vertex -7.979744478441976 -5.708310610798934 2.8199664825478975e-15
  endloop
endfacet
facet normal -0.0 -0.0 -1.0
  outer loop
    vertex -7.979744478441976 -5.708310610798934 2.8199664825478975e-15
    vertex -7.979744478441976 5.009327479406112 2.8199664825478975e-15
    vertex -7.879844055937347 5.250508434303591 2.8199664825478975e-15
  endloop
endfacet
facet normal -0.0 -0.0 -1.0
  outer loop
    vertex -7.979744478441976 -5.708310610798934 2.8199664825478975e-15
    vertex -7.879844055937347 5.250508434303591 2.8199664825478975e-15
    vertex -7.879844055937349 -5.949491565696416 2.8199664825478975e-15
  endloop
endfacet
facet normal -0.0 -0.0 -1.0
  outer loop
    vertex -7.879844055937349 -5.949491565696416 2.8199664825478975e-15
    vertex -7.879844055937347 5.250508434303591 2.8199664825478975e-15
    vertex -7.720925433339459 -6.156598346882967 2.8199664825478975e-15
  endloop
endfacet
facet normal -0.0 -0.0 -1.0
  outer loop
    vertex -7.720925433339459 -6.156598346882967 2.8199664825478975e-15
    vertex -7.879844055937347 5.250508434303591 2.8199664825478975e-15
    vertex -7.7209254333394535 5.457615215490139 2.8199664825478975e-15
  endloop
endfacet
facet normal -0.0 -0.0 -1.0
  outer loop
    vertex -7.720925433339459 -6.156598346882967 2.8199664825478975e-15
    vertex -7.7209254333394535 5.457615215490139 2.8199664825478975e-15
    vertex -7.513818652152909 -6.315516969480856 2.8199664825478975e-15
  endloop
endfacet
facet normal -0.0 -0.0 -1.0
  outer loop
    vertex -7.513818652152909 -6.315516969480856 2.8199664825478975e-15
    vertex -7.7209254333394535 5.457615215490139 2.8199664825478975e-15
    vertex -7.513818652152909 5.616533838088029 2.8199664825478975e-15
  endloop
endfacet
facet normal -0.0 -0.0 -1.0
  outer loop
    vertex -7.513818652152909 -6.315516969480856 2.8199664825478975e-15
    vertex -7.513818652152909 5.616533838088029 2.8199664825478975e-15
    vertex -7.272637697255427 5.716434260592659 2.8199664825478975e-15
  endloop
endfacet
facet normal -0.0 -0.0 -1.0
  outer loop
    vertex -7.513818652152909 -6.315516969480856 2.8199664825478975e-15
    vertex -7.272637697255427 5.716434260592659 2.8199664825478975e-15
    vertex -7.2726376972554325 -6.415417391985484 2.8199664825478975e-15
  endloop
endfacet
facet normal -0.0 -0.0 -1.0
  outer loop
    vertex -7.2726376972554325 -6.415417391985484 2.8199664825478975e-15
    vertex -7.272637697255427 5.716434260592659 2.8199664825478975e-15
    vertex -7.01381865215291 -6.449491565696415 2.8199664825478975e-15
  endloop
endfacet
facet normal -0.0 -0.0 -1.0
  outer loop
    vertex -7.01381865215291 -6.449491565696415 2.8199664825478975e-15
    vertex -7.272637697255427 5.716434260592659 2.8199664825478975e-15
    vertex -7.013818652152907 5.75050843430359 2.8199664825478975e-15
  endloop
endfacet
facet normal -0.0 -0.0 -1.0
  outer loop
    vertex -7.01381865215291 -6.449491565696415 2.8199664825478975e-15
    vertex -7.013818652152907 5.75050843430359 2.8199664825478975e-15
    vertex 8.037181347847092 -6.44949156569641 2.8199664825478975e-15
  endloop
endfacet
facet normal -0.0 -0.0 -1.0
  outer loop
    vertex 8.037181347847092 -6.44949156569641 2.8199664825478975e-15
    vertex -7.013818652152907 5.75050843430359 2.8199664825478975e-15
    vertex 8.03718134784709 5.750508434303592 2.8199664825478975e-15
  endloop
endfacet
facet normal -0.0 -0.0 -1.0
  outer loop
    vertex 8.037181347847092 -6.44949156569641 2.8199664825478975e-15
    vertex 8.03718134784709 5.750508434303592 2.8199664825478975e-15
    vertex 8.29600039294961 5.71643426059266 2.8199664825478975e-15
  endloop
endfacet
facet normal -0.0 -0.0 -1.0
  outer loop
    vertex 8.037181347847092 -6.44949156569641 2.8199664825478975e-15
    vertex 8.29600039294961 5.71643426059266 2.8199664825478975e-15
    vertex 8.29600039294961 -6.415417391985478 2.8199664825478975e-15
  endloop
endfacet
facet normal -0.0 -0.0 -1.0
  outer loop
    vertex 8.29600039294961 -6.415417391985478 2.8199664825478975e-15
    vertex 8.29600039294961 5.71643426059266 2.8199664825478975e-15
    vertex 8.537181347847092 5.6165338380880305 2.8199664825478975e-15
  endloop
endfacet
facet normal -0.0 -0.0 -1.0
  outer loop
    vertex 8.29600039294961 -6.415417391985478 2.8199664825478975e-15
    vertex 8.537181347847092 5.6165338380880305 2.8199664825478975e-15
    vertex 8.537181347847092 -6.315516969480851 2.8199664825478975e-15
  endloop
endfacet
facet normal -0.0 -0.0 -1.0
  outer loop
    vertex 8.537181347847092 -6.315516969480851 2.8199664825478975e-15
    vertex 8.537181347847092 5.6165338380880305 2.8199664825478975e-15
    vertex 8.744288129033636 5.45761521549014 2.8199664825478975e-15
  endloop
endfacet
facet normal -0.0 -0.0 -1.0
  outer loop
    vertex 8.537181347847092 -6.315516969480851 2.8199664825478975e-15
    vertex 8.744288129033636 5.45761521549014 2.8199664825478975e-15
    vertex 8.744288129033636 -6.15659834688296 2.8199664825478975e-15
  endloop
endfacet
facet normal -0.0 -0.0 -1.0
  outer loop
    vertex 8.744288129033636 -6.15659834688296 2.8199664825478975e-15
    vertex 8.744288129033636 5.45761521549014 2.8199664825478975e-15
    vertex 8.903206751631526 5.25050843430359 2.8199664825478975e-15
  endloop
endfacet
facet normal -0.0 -0.0 -1.0
  outer loop
    vertex 8.744288129033636 -6.15659834688296 2.8199664825478975e-15
    vertex 8.903206751631526 5.25050843430359 2.8199664825478975e-15
    vertex 8.903206751631531 -5.949491565696411 2.8199664825478975e-15
  endloop
endfacet
facet normal -0.0 -0.0 -1.0
  outer loop
    vertex 8.903206751631531 -5.949491565696411 2.8199664825478975e-15
    vertex 8.903206751631526 5.25050843430359 2.8199664825478975e-15
    vertex 9.00310717413616 5.009327479406114 2.8199664825478975e-15
  endloop
endfacet
facet normal -0.0 -0.0 -1.0
  outer loop
    vertex 8.903206751631531 -5.949491565696411 2.8199664825478975e-15
    vertex 9.00310717413616 5.009327479406114 2.8199664825478975e-15
    vertex 9.00310717413616 -5.708310610798934 2.8199664825478975e-15
  endloop
endfacet
facet normal -0.0 -0.0 -1.0
  outer loop
    vertex 9.00310717413616 -5.708310610798934 2.8199664825478975e-15
    vertex 9.00310717413616 5.009327479406114 2.8199664825478975e-15
    vertex 9.03718134784709 4.750508434303591 2.8199664825478975e-15
  endloop
endfacet
facet normal -0.0 -0.0 -1.0
  outer loop
    vertex 9.00310717413616 -5.708310610798934 2.8199664825478975e-15
    vertex 9.03718134784709 4.750508434303591 2.8199664825478975e-15
    vertex 9.03718134784709 -5.449491565696412 2.8199664825478975e-15
  endloop
endfacet
facet normal 0.38620666554318195 0.9224122784796487 0.0
  outer loop
    vertex 1.2664369984690764 2.3233673016169942 6.300000000000001
    vertex 1.9334472499820905 2.0440954281500106 2.000000000000001
    vertex 1.2664369984690764 2.3233673016169942 2.000000000000001
  endloop
endfacet
facet normal 0.38620666554318195 0.9224122784796487 0.0
  outer loop
    vertex 1.9334472499820905 2.0440954281500106 2.000000000000001
    vertex 1.2664369984690764 2.3233673016169942 6.300000000000001
    vertex 1.9334472499820905 2.0440954281500106 6.300000000000001
  endloop
endfacet
facet normal -0.12674135576851958 0.9919357986976565 0.0
  outer loop
    vertex -0.16741006861004976 2.3288396716130877 6.300000000000001
    vertex 0.5498736905183875 2.420488260384696 2.000000000000001
    vertex -0.16741006861004976 2.3288396716130877 2.000000000000001
  endloop
endfacet
facet normal -0.12674135576851958 0.9919357986976565 0.0
  outer loop
    vertex 0.5498736905183875 2.420488260384696 2.000000000000001
    vertex -0.16741006861004976 2.3288396716130877 6.300000000000001
    vertex 0.5498736905183875 2.420488260384696 6.300000000000001
  endloop
endfacet
facet normal 0.9909394826577499 -0.13430912742621398 0.0
  outer loop
    vertex 3.3092817095790292 -0.3600633727168677 2.000000000000001
    vertex 3.212160750811316 -1.0766266806675846 6.300000000000001
    vertex 3.212160750811316 -1.0766266806675846 2.000000000000001
  endloop
endfacet
facet normal 0.9909394826577499 -0.13430912742621398 0.0
  outer loop
    vertex 3.212160750811316 -1.0766266806675846 6.300000000000001
    vertex 3.3092817095790292 -0.3600633727168677 2.000000000000001
    vertex 3.3092817095790292 -0.3600633727168677 6.300000000000001
  endloop
endfacet
facet normal 0.0 1.0 0.0
  outer loop
    vertex -1.4949586521529048 -0.9379165656964088 6.300000000000001
    vertex -0.07405865215290029 -0.9379165656964088 2.000000000000001
    vertex -1.4949586521529048 -0.9379165656964088 2.000000000000001
  endloop
endfacet
facet normal 0.0 1.0 0.0
  outer loop
    vertex -0.07405865215290029 -0.9379165656964088 2.000000000000001
    vertex -1.4949586521529048 -0.9379165656964088 6.300000000000001
    vertex -0.07405865215290029 -0.9379165656964088 6.300000000000001
  endloop
endfacet
facet normal 1.0 0.0 0.0
  outer loop
    vertex -0.07405865215290029 -0.9379165656964088 2.000000000000001
    vertex -0.07405865215290029 -2.4432765656964155 6.300000000000001
    vertex -0.07405865215290029 -2.4432765656964155 2.000000000000001
  endloop
endfacet
facet normal 1.0 0.0 0.0
  outer loop
    vertex -0.07405865215290029 -2.4432765656964155 6.300000000000001
    vertex -0.07405865215290029 -0.9379165656964088 2.000000000000001
    vertex -0.07405865215290029 -0.9379165656964088 6.300000000000001
  endloop
endfacet
facet normal 0.0 0.0 1.0
  outer loop
    vertex 0.5287300764774656 -3.1194713917775094 6.300000000000001
    vertex -0.07405865215290029 -2.4432765656964155 6.300000000000001
    vertex -0.18783323147325134 -3.022350433009808 6.300000000000001
  endloop
endfacet
facet normal 0.0 0.0 1.0
  outer loop
    vertex -0.07405865215290029 -2.4432765656964155 6.300000000000001
    vertex 0.5287300764774656 -3.1194713917775094 6.300000000000001
    vertex 1.0974213478470858 -2.4432765656964155 6.300000000000001
  endloop
endfacet
facet normal 0.0 0.0 1.0
  outer loop
    vertex 1.0974213478470858 -2.4432765656964155 6.300000000000001
    vertex 0.5287300764774656 -3.1194713917775094 6.300000000000001
    vertex 1.2460138356058523 -3.0278228030059013 6.300000000000001
  endloop
endfacet
facet normal 0.0 0.0 1.0
  outer loop
    vertex 1.0974213478470858 -2.4432765656964155 6.300000000000001
    vertex 1.2460138356058523 -3.0278228030059013 6.300000000000001
    vertex 1.0974213478470858 -0.9379165656964088 6.300000000000001
  endloop
endfacet
facet normal 0.0 0.0 1.0
  outer loop
    vertex 1.0974213478470858 -0.9379165656964088 6.300000000000001
    vertex 1.2460138356058523 -3.0278228030059013 6.300000000000001
    vertex 2.525351347847088 -0.9379165656964088 6.300000000000001
  endloop
endfacet
facet normal 0.0 0.0 1.0
  outer loop
    vertex 2.525351347847088 -0.9379165656964088 6.300000000000001
    vertex 1.2460138356058523 -3.0278228030059013 6.300000000000001
    vertex 1.915136343094843 -2.753650366563285 6.300000000000001
  endloop
endfacet
facet normal 0.0 0.0 1.0
  outer loop
    vertex 2.525351347847088 -0.9379165656964088 6.300000000000001
    vertex 1.915136343094843 -2.753650366563285 6.300000000000001
    vertex 2.490498005836243 -2.3156384809018538 6.300000000000001
  endloop
endfacet
facet normal 0.0 0.0 1.0
  outer loop
    vertex 2.525351347847088 -0.9379165656964088 6.300000000000001
    vertex 2.490498005836243 -2.3156384809018538 6.300000000000001
    vertex 2.9328888773443214 -1.7436369321805933 6.300000000000001
  endloop
endfacet
facet normal 0.0 0.0 1.0
  outer loop
    vertex 2.525351347847088 -0.9379165656964088 6.300000000000001
    vertex 2.9328888773443214 -1.7436369321805933 6.300000000000001
    vertex 2.525351347847088 0.23893343430359532 6.300000000000001
  endloop
endfacet
facet normal 0.0 0.0 1.0
  outer loop
    vertex 2.525351347847088 0.23893343430359532 6.300000000000001
    vertex 1.0974213478470858 1.73093343430358 6.300000000000001
    vertex 1.0974213478470858 0.23893343430359532 6.300000000000001
  endloop
endfacet
facet normal 0.0 0.0 1.0
  outer loop
    vertex 1.0974213478470858 1.73093343430358 6.300000000000001
    vertex 2.525351347847088 0.23893343430359532 6.300000000000001
    vertex 1.2664369984690764 2.3233673016169942 6.300000000000001
  endloop
endfacet
facet normal 0.0 0.0 1.0
  outer loop
    vertex 1.2664369984690764 2.3233673016169942 6.300000000000001
    vertex 2.525351347847088 0.23893343430359532 6.300000000000001
    vertex 1.9334472499820905 2.0440954281500106 6.300000000000001
  endloop
endfacet
facet normal 0.0 0.0 1.0
  outer loop
    vertex 1.9334472499820905 2.0440954281500106 6.300000000000001
    vertex 2.525351347847088 0.23893343430359532 6.300000000000001
    vertex 2.5054487987033736 1.6017045566419097 6.300000000000001
  endloop
endfacet
facet normal 0.0 0.0 1.0
  outer loop
    vertex 2.5054487987033736 1.6017045566419097 6.300000000000001
    vertex 2.525351347847088 0.23893343430359532 6.300000000000001
    vertex 2.9434606843647826 1.0263428939005095 6.300000000000001
  endloop
endfacet
facet normal 0.0 0.0 1.0
  outer loop
    vertex 2.9434606843647826 1.0263428939005095 6.300000000000001
    vertex 2.525351347847088 0.23893343430359532 6.300000000000001
    vertex 2.9328888773443214 -1.7436369321805933 6.300000000000001
  endloop
endfacet
facet normal 0.0 0.0 1.0
  outer loop
    vertex 2.9434606843647826 1.0263428939005095 6.300000000000001
    vertex 2.9328888773443214 -1.7436369321805933 6.300000000000001
    vertex 3.212160750811316 -1.0766266806675846 6.300000000000001
  endloop
endfacet
facet normal 0.0 0.0 1.0
  outer loop
    vertex 2.9434606843647826 1.0263428939005095 6.300000000000001
    vertex 3.212160750811316 -1.0766266806675846 6.300000000000001
    vertex 3.2176331208073985 0.3572203864115471 6.300000000000001
  endloop
endfacet
facet normal 0.0 0.0 1.0
  outer loop
    vertex 3.2176331208073985 0.3572203864115471 6.300000000000001
    vertex 3.212160750811316 -1.0766266806675846 6.300000000000001
    vertex 3.3092817095790292 -0.3600633727168677 6.300000000000001
  endloop
endfacet
facet normal 0.0 0.0 1.0
  outer loop
    vertex -1.854285110348519 1.0446538007877797 6.300000000000001
    vertex -1.4949586521529048 0.23893343430359532 6.300000000000001
    vertex -1.4118942388403954 1.6166553495090403 6.300000000000001
  endloop
endfacet
facet normal 0.0 0.0 1.0
  outer loop
    vertex -1.4949586521529048 0.23893343430359532 6.300000000000001
    vertex -1.854285110348519 1.0446538007877797 6.300000000000001
    vertex -1.4949586521529048 -0.9379165656964088 6.300000000000001
  endloop
endfacet
facet normal 0.0 0.0 1.0
  outer loop
    vertex -1.4118942388403954 1.6166553495090403 6.300000000000001
    vertex -1.4949586521529048 0.23893343430359532 6.300000000000001
    vertex -0.07405865215290029 0.23893343430359532 6.300000000000001
  endloop
endfacet
facet normal 0.0 0.0 1.0
  outer loop
    vertex -1.4118942388403954 1.6166553495090403 6.300000000000001
    vertex -0.07405865215290029 0.23893343430359532 6.300000000000001
    vertex -0.8365325760990122 2.054667235170472 6.300000000000001
  endloop
endfacet
facet normal 0.0 0.0 1.0
  outer loop
    vertex -0.8365325760990122 2.054667235170472 6.300000000000001
    vertex -0.07405865215290029 0.23893343430359532 6.300000000000001
    vertex -0.16741006861004976 2.3288396716130877 6.300000000000001
  endloop
endfacet
facet normal 0.0 0.0 1.0
  outer loop
    vertex -0.16741006861004976 2.3288396716130877 6.300000000000001
    vertex -0.07405865215290029 0.23893343430359532 6.300000000000001
    vertex -0.07405865215290029 1.73093343430358 6.300000000000001
  endloop
endfacet
facet normal 0.0 0.0 1.0
  outer loop
    vertex -0.16741006861004976 2.3288396716130877 6.300000000000001
    vertex -0.07405865215290029 1.73093343430358 6.300000000000001
    vertex 0.5498736905183875 2.420488260384696 6.300000000000001
  endloop
endfacet
facet normal 0.0 0.0 1.0
  outer loop
    vertex 0.5498736905183875 2.420488260384696 6.300000000000001
    vertex -0.07405865215290029 1.73093343430358 6.300000000000001
    vertex 1.0974213478470858 1.73093343430358 6.300000000000001
  endloop
endfacet
facet normal 0.0 0.0 1.0
  outer loop
    vertex 0.5498736905183875 2.420488260384696 6.300000000000001
    vertex 1.0974213478470858 1.73093343430358 6.300000000000001
    vertex 1.2664369984690764 2.3233673016169942 6.300000000000001
  endloop
endfacet
facet normal 0.0 0.0 1.0
  outer loop
    vertex -2.1390293538115737 -1.0562035178043605 6.300000000000001
    vertex -2.13355698381548 0.37764354927477123 6.300000000000001
    vertex -2.2306779425832044 -0.33891975867594576 6.300000000000001
  endloop
endfacet
facet normal 0.0 0.0 1.0
  outer loop
    vertex -2.13355698381548 0.37764354927477123 6.300000000000001
    vertex -2.1390293538115737 -1.0562035178043605 6.300000000000001
    vertex -1.86485691736898 -1.725326025293323 6.300000000000001
  endloop
endfacet
facet normal 0.0 0.0 1.0
  outer loop
    vertex -2.13355698381548 0.37764354927477123 6.300000000000001
    vertex -1.86485691736898 -1.725326025293323 6.300000000000001
    vertex -1.854285110348519 1.0446538007877797 6.300000000000001
  endloop
endfacet
facet normal 0.0 0.0 1.0
  outer loop
    vertex -1.854285110348519 1.0446538007877797 6.300000000000001
    vertex -1.86485691736898 -1.725326025293323 6.300000000000001
    vertex -1.426845031707526 -2.3006876880347233 6.300000000000001
  endloop
endfacet
facet normal 0.0 0.0 1.0
  outer loop
    vertex -1.854285110348519 1.0446538007877797 6.300000000000001
    vertex -1.426845031707526 -2.3006876880347233 6.300000000000001
    vertex -1.4949586521529048 -0.9379165656964088 6.300000000000001
  endloop
endfacet
facet normal 0.0 0.0 1.0
  outer loop
    vertex -1.4949586521529048 -0.9379165656964088 6.300000000000001
    vertex -1.426845031707526 -2.3006876880347233 6.300000000000001
    vertex -0.07405865215290029 -0.9379165656964088 6.300000000000001
  endloop
endfacet
facet normal 0.0 0.0 1.0
  outer loop
    vertex -0.07405865215290029 -0.9379165656964088 6.300000000000001
    vertex -1.426845031707526 -2.3006876880347233 6.300000000000001
    vertex -0.8548434829862374 -2.743078559542824 6.300000000000001
  endloop
endfacet
facet normal 0.0 0.0 1.0
  outer loop
    vertex -0.07405865215290029 -0.9379165656964088 6.300000000000001
    vertex -0.8548434829862374 -2.743078559542824 6.300000000000001
    vertex -0.18783323147325134 -3.022350433009808 6.300000000000001
  endloop
endfacet
facet normal 0.0 0.0 1.0
  outer loop
    vertex -0.07405865215290029 -0.9379165656964088 6.300000000000001
    vertex -0.18783323147325134 -3.022350433009808 6.300000000000001
    vertex -0.07405865215290029 -2.4432765656964155 6.300000000000001
  endloop
endfacet
facet normal -0.791024201881489 0.6117848576401292 0.0
  outer loop
    vertex -1.4118942388403954 1.6166553495090403 6.300000000000001
    vertex -1.854285110348519 1.0446538007877797 2.000000000000001
    vertex -1.854285110348519 1.0446538007877797 6.300000000000001
  endloop
endfacet
facet normal -0.791024201881489 0.6117848576401292 0.0
  outer loop
    vertex -1.854285110348519 1.0446538007877797 2.000000000000001
    vertex -1.4118942388403954 1.6166553495090403 6.300000000000001
    vertex -1.4118942388403954 1.6166553495090403 2.000000000000001
  endloop
endfacet
facet normal 0.12674135576852844 -0.9919357986976554 0.0
  outer loop
    vertex 1.2460138356058523 -3.0278228030059013 6.300000000000001
    vertex 0.5287300764774656 -3.1194713917775094 2.000000000000001
    vertex 1.2460138356058523 -3.0278228030059013 2.000000000000001
  endloop
endfacet
facet normal 0.12674135576852844 -0.9919357986976554 0.0
  outer loop
    vertex 0.5287300764774656 -3.1194713917775094 2.000000000000001
    vertex 1.2460138356058523 -3.0278228030059013 6.300000000000001
    vertex 0.5287300764774656 -3.1194713917775094 6.300000000000001
  endloop
endfacet
facet normal 0.9253333293077232 0.3791546250176631 0.0
  outer loop
    vertex 2.9434606843647826 1.0263428939005095 2.000000000000001
    vertex 3.2176331208073985 0.3572203864115471 6.300000000000001
    vertex 3.2176331208073985 0.3572203864115471 2.000000000000001
  endloop
endfacet
facet normal 0.9253333293077232 0.3791546250176631 0.0
  outer loop
    vertex 3.2176331208073985 0.3572203864115471 6.300000000000001
    vertex 2.9434606843647826 1.0263428939005095 2.000000000000001
    vertex 2.9434606843647826 1.0263428939005095 6.300000000000001
  endloop
endfacet
facet normal -0.9253333293077342 -0.37915462501763636 0.0
  outer loop
    vertex -2.1390293538115737 -1.0562035178043605 6.300000000000001
    vertex -1.86485691736898 -1.725326025293323 2.000000000000001
    vertex -1.86485691736898 -1.725326025293323 6.300000000000001
  endloop
endfacet
facet normal -0.9253333293077342 -0.37915462501763636 0.0
  outer loop
    vertex -1.86485691736898 -1.725326025293323 2.000000000000001
    vertex -2.1390293538115737 -1.0562035178043605 6.300000000000001
    vertex -2.1390293538115737 -1.0562035178043605 2.000000000000001
  endloop
endfacet
facet normal 0.9224122784796419 -0.38620666554319794 0.0
  outer loop
    vertex 3.212160750811316 -1.0766266806675846 2.000000000000001
    vertex 2.9328888773443214 -1.7436369321805933 6.300000000000001
    vertex 2.9328888773443214 -1.7436369321805933 2.000000000000001
  endloop
endfacet
facet normal 0.9224122784796419 -0.38620666554319794 0.0
  outer loop
    vertex 2.9328888773443214 -1.7436369321805933 6.300000000000001
    vertex 3.212160750811316 -1.0766266806675846 2.000000000000001
    vertex 3.212160750811316 -1.0766266806675846 6.300000000000001
  endloop
endfacet
facet normal -0.6057291331544783 0.7956709227110944 0.0
  outer loop
    vertex -1.4118942388403954 1.6166553495090403 6.300000000000001
    vertex -0.8365325760990122 2.054667235170472 2.000000000000001
    vertex -1.4118942388403954 1.6166553495090403 2.000000000000001
  endloop
endfacet
facet normal -0.6057291331544783 0.7956709227110944 0.0
  outer loop
    vertex -0.8365325760990122 2.054667235170472 2.000000000000001
    vertex -1.4118942388403954 1.6166553495090403 6.300000000000001
    vertex -0.8365325760990122 2.054667235170472 6.300000000000001
  endloop
endfacet
facet normal -0.1343091274261987 -0.990939482657752 0.0
  outer loop
    vertex 0.5287300764774656 -3.1194713917775094 6.300000000000001
    vertex -0.18783323147325134 -3.022350433009808 2.000000000000001
    vertex 0.5287300764774656 -3.1194713917775094 2.000000000000001
  endloop
endfacet
facet normal -0.1343091274261987 -0.990939482657752 0.0
  outer loop
    vertex -0.18783323147325134 -3.022350433009808 2.000000000000001
    vertex 0.5287300764774656 -3.1194713917775094 6.300000000000001
    vertex -0.18783323147325134 -3.022350433009808 6.300000000000001
  endloop
endfacet
facet normal 0.0 0.0 1.0
  outer loop
    vertex 2.525351347847088 -0.9379165656964088 2.000000000000001
    vertex 1.0974213478470858 0.23893343430359532 2.000000000000001
    vertex 1.0974213478470858 -0.9379165656964088 2.000000000000001
  endloop
endfacet
facet normal 0.0 0.0 1.0
  outer loop
    vertex 1.0974213478470858 0.23893343430359532 2.000000000000001
    vertex 2.525351347847088 -0.9379165656964088 2.000000000000001
    vertex 2.525351347847088 0.23893343430359532 2.000000000000001
  endloop
endfacet
facet normal 0.0 0.0 1.0
  outer loop
    vertex 1.0974213478470858 -2.4432765656964155 2.000000000000001
    vertex -0.07405865215290029 -0.9379165656964088 2.000000000000001
    vertex -0.07405865215290029 -2.4432765656964155 2.000000000000001
  endloop
endfacet
facet normal 0.0 0.0 1.0
  outer loop
    vertex -0.07405865215290029 -0.9379165656964088 2.000000000000001
    vertex 1.0974213478470858 -2.4432765656964155 2.000000000000001
    vertex -0.07405865215290029 0.23893343430359532 2.000000000000001
  endloop
endfacet
facet normal 0.0 0.0 1.0
  outer loop
    vertex -0.07405865215290029 0.23893343430359532 2.000000000000001
    vertex 1.0974213478470858 -2.4432765656964155 2.000000000000001
    vertex -0.07405865215290029 1.73093343430358 2.000000000000001
  endloop
endfacet
facet normal 0.0 0.0 1.0
  outer loop
    vertex -0.07405865215290029 1.73093343430358 2.000000000000001
    vertex 1.0974213478470858 -2.4432765656964155 2.000000000000001
    vertex 1.0974213478470858 1.73093343430358 2.000000000000001
  endloop
endfacet
facet normal 0.0 0.0 1.0
  outer loop
    vertex 1.0974213478470858 1.73093343430358 2.000000000000001
    vertex 1.0974213478470858 -2.4432765656964155 2.000000000000001
    vertex 1.0974213478470858 -0.9379165656964088 2.000000000000001
  endloop
endfacet
facet normal 0.0 0.0 1.0
  outer loop
    vertex 1.0974213478470858 1.73093343430358 2.000000000000001
    vertex 1.0974213478470858 -0.9379165656964088 2.000000000000001
    vertex 1.0974213478470858 0.23893343430359532 2.000000000000001
  endloop
endfacet
facet normal 0.0 0.0 1.0
  outer loop
    vertex -0.07405865215290029 -0.9379165656964088 2.000000000000001
    vertex -1.4949586521529048 0.23893343430359532 2.000000000000001
    vertex -1.4949586521529048 -0.9379165656964088 2.000000000000001
  endloop
endfacet
facet normal 0.0 0.0 1.0
  outer loop
    vertex -1.4949586521529048 0.23893343430359532 2.000000000000001
    vertex -0.07405865215290029 -0.9379165656964088 2.000000000000001
    vertex -0.07405865215290029 0.23893343430359532 2.000000000000001
  endloop
endfacet
facet normal 0.6117848576400946 0.7910242018815158 0.0
  outer loop
    vertex 1.9334472499820905 2.0440954281500106 6.300000000000001
    vertex 2.5054487987033736 1.6017045566419097 2.000000000000001
    vertex 1.9334472499820905 2.0440954281500106 2.000000000000001
  endloop
endfacet
facet normal 0.6117848576400946 0.7910242018815158 0.0
  outer loop
    vertex 2.5054487987033736 1.6017045566419097 2.000000000000001
    vertex 1.9334472499820905 2.0440954281500106 6.300000000000001
    vertex 2.5054487987033736 1.6017045566419097 6.300000000000001
  endloop
endfacet
facet normal -0.7956709227110879 -0.6057291331544867 0.0
  outer loop
    vertex -1.86485691736898 -1.725326025293323 6.300000000000001
    vertex -1.426845031707526 -2.3006876880347233 2.000000000000001
    vertex -1.426845031707526 -2.3006876880347233 6.300000000000001
  endloop
endfacet
facet normal -0.7956709227110879 -0.6057291331544867 0.0
  outer loop
    vertex -1.426845031707526 -2.3006876880347233 2.000000000000001
    vertex -1.86485691736898 -1.725326025293323 6.300000000000001
    vertex -1.86485691736898 -1.725326025293323 2.000000000000001
  endloop
endfacet
facet normal 0.7910242018815193 -0.6117848576400903 0.0
  outer loop
    vertex 2.9328888773443214 -1.7436369321805933 2.000000000000001
    vertex 2.490498005836243 -2.3156384809018538 6.300000000000001
    vertex 2.490498005836243 -2.3156384809018538 2.000000000000001
  endloop
endfacet
facet normal 0.7910242018815193 -0.6117848576400903 0.0
  outer loop
    vertex 2.490498005836243 -2.3156384809018538 6.300000000000001
    vertex 2.9328888773443214 -1.7436369321805933 2.000000000000001
    vertex 2.9328888773443214 -1.7436369321805933 6.300000000000001
  endloop
endfacet
facet normal -1.0 0.0 0.0
  outer loop
    vertex 1.0974213478470858 1.73093343430358 6.300000000000001
    vertex 1.0974213478470858 0.23893343430359532 2.000000000000001
    vertex 1.0974213478470858 0.23893343430359532 6.300000000000001
  endloop
endfacet
facet normal -1.0 0.0 0.0
  outer loop
    vertex 1.0974213478470858 0.23893343430359532 2.000000000000001
    vertex 1.0974213478470858 1.73093343430358 6.300000000000001
    vertex 1.0974213478470858 1.73093343430358 2.000000000000001
  endloop
endfacet
facet normal -0.6117848576400908 -0.7910242018815188 0.0
  outer loop
    vertex -0.8548434829862374 -2.743078559542824 6.300000000000001
    vertex -1.426845031707526 -2.3006876880347233 2.000000000000001
    vertex -0.8548434829862374 -2.743078559542824 2.000000000000001
  endloop
endfacet
facet normal -0.6117848576400908 -0.7910242018815188 0.0
  outer loop
    vertex -1.426845031707526 -2.3006876880347233 2.000000000000001
    vertex -0.8548434829862374 -2.743078559542824 6.300000000000001
    vertex -1.426845031707526 -2.3006876880347233 6.300000000000001
  endloop
endfacet
facet normal -0.991935798697652 -0.12674135576855425 0.0
  outer loop
    vertex -2.2306779425832044 -0.33891975867594576 6.300000000000001
    vertex -2.1390293538115737 -1.0562035178043605 2.000000000000001
    vertex -2.1390293538115737 -1.0562035178043605 6.300000000000001
  endloop
endfacet
facet normal -0.991935798697652 -0.12674135576855425 0.0
  outer loop
    vertex -2.1390293538115737 -1.0562035178043605 2.000000000000001
    vertex -2.2306779425832044 -0.33891975867594576 6.300000000000001
    vertex -2.2306779425832044 -0.33891975867594576 2.000000000000001
  endloop
endfacet
facet normal 0.795670922711118 0.6057291331544473 0.0
  outer loop
    vertex 2.5054487987033736 1.6017045566419097 2.000000000000001
    vertex 2.9434606843647826 1.0263428939005095 6.300000000000001
    vertex 2.9434606843647826 1.0263428939005095 2.000000000000001
  endloop
endfacet
facet normal 0.795670922711118 0.6057291331544473 0.0
  outer loop
    vertex 2.9434606843647826 1.0263428939005095 6.300000000000001
    vertex 2.5054487987033736 1.6017045566419097 2.000000000000001
    vertex 2.5054487987033736 1.6017045566419097 6.300000000000001
  endloop
endfacet
facet normal 0.13430912742620388 0.9909394826577513 0.0
  outer loop
    vertex 0.5498736905183875 2.420488260384696 6.300000000000001
    vertex 1.2664369984690764 2.3233673016169942 2.000000000000001
    vertex 0.5498736905183875 2.420488260384696 2.000000000000001
  endloop
endfacet
facet normal 0.13430912742620388 0.9909394826577513 0.0
  outer loop
    vertex 1.2664369984690764 2.3233673016169942 2.000000000000001
    vertex 0.5498736905183875 2.420488260384696 6.300000000000001
    vertex 1.2664369984690764 2.3233673016169942 6.300000000000001
  endloop
endfacet
facet normal -0.9224122784796585 0.3862066655431582 0.0
  outer loop
    vertex -1.854285110348519 1.0446538007877797 6.300000000000001
    vertex -2.13355698381548 0.37764354927477123 2.000000000000001
    vertex -2.13355698381548 0.37764354927477123 6.300000000000001
  endloop
endfacet
facet normal -0.9224122784796585 0.3862066655431582 0.0
  outer loop
    vertex -2.13355698381548 0.37764354927477123 2.000000000000001
    vertex -1.854285110348519 1.0446538007877797 6.300000000000001
    vertex -1.854285110348519 1.0446538007877797 2.000000000000001
  endloop
endfacet
facet normal 0.991935798697652 0.12674135576855425 0.0
  outer loop
    vertex 3.2176331208073985 0.3572203864115471 2.000000000000001
    vertex 3.3092817095790292 -0.3600633727168677 6.300000000000001
    vertex 3.3092817095790292 -0.3600633727168677 2.000000000000001
  endloop
endfacet
facet normal 0.991935798697652 0.12674135576855425 0.0
  outer loop
    vertex 3.3092817095790292 -0.3600633727168677 6.300000000000001
    vertex 3.2176331208073985 0.3572203864115471 2.000000000000001
    vertex 3.2176331208073985 0.3572203864115471 6.300000000000001
  endloop
endfacet
facet normal 0.3791546250176494 -0.9253333293077288 0.0
  outer loop
    vertex 1.915136343094843 -2.753650366563285 6.300000000000001
    vertex 1.2460138356058523 -3.0278228030059013 2.000000000000001
    vertex 1.915136343094843 -2.753650366563285 2.000000000000001
  endloop
endfacet
facet normal 0.3791546250176494 -0.9253333293077288 0.0
  outer loop
    vertex 1.2460138356058523 -3.0278228030059013 2.000000000000001
    vertex 1.915136343094843 -2.753650366563285 6.300000000000001
    vertex 1.2460138356058523 -3.0278228030059013 6.300000000000001
  endloop
endfacet
endsolid Untitled
