<?xml version="1.0" encoding="UTF-8" standalone="no"?>
<!-- Generator: Adobe Illustrator 21.1.0, SVG Export Plug-In . SVG Version: 6.00 Build 0)  -->

<svg
   xmlns:dc="http://purl.org/dc/elements/1.1/"
   xmlns:cc="http://creativecommons.org/ns#"
   xmlns:rdf="http://www.w3.org/1999/02/22-rdf-syntax-ns#"
   xmlns:svg="http://www.w3.org/2000/svg"
   xmlns="http://www.w3.org/2000/svg"
   xmlns:sodipodi="http://sodipodi.sourceforge.net/DTD/sodipodi-0.dtd"
   xmlns:inkscape="http://www.inkscape.org/namespaces/inkscape"
   version="1.1"
   id="Layer_1"
   x="0px"
   y="0px"
   viewBox="0 0 1728 864"
   style="enable-background:new 0 0 1728 864;"
   xml:space="preserve"
   sodipodi:docname="stem.svg"
   inkscape:version="0.92.1 r15371"><metadata
     id="metadata47"><rdf:RDF><cc:Work
         rdf:about=""><dc:format>image/svg+xml</dc:format><dc:type
           rdf:resource="http://purl.org/dc/dcmitype/StillImage" /><dc:title></dc:title></cc:Work></rdf:RDF></metadata><defs
     id="defs45" /><sodipodi:namedview
     pagecolor="#ed8787"
     bordercolor="#666666"
     borderopacity="1"
     objecttolerance="10"
     gridtolerance="10"
     guidetolerance="10"
     inkscape:pageopacity="0.76078431"
     inkscape:pageshadow="2"
     inkscape:window-width="3000"
     inkscape:window-height="1895"
     id="namedview43"
     showgrid="false"
     inkscape:pagecheckerboard="false"
     inkscape:document-units="mm"
     inkscape:snap-perpendicular="true"
     inkscape:snap-tangential="true"
     inkscape:zoom="32"
     inkscape:cx="23.002675"
     inkscape:cy="842.54094"
     inkscape:window-x="-13"
     inkscape:window-y="-13"
     inkscape:window-maximized="1"
     inkscape:current-layer="Layer_1" /><style
     type="text/css"
     id="style2">
	.st0{fill:none;stroke:#FFFFFF;stroke-width:0.25;stroke-miterlimit:10;}
	.st1{fill:none;stroke:#FFFFFF;stroke-miterlimit:10;}
	.st2{fill:#FFFFFF;}
	.st3{fill:none;stroke:#000000;stroke-width:1.000000e-03;stroke-miterlimit:10;}
</style><rect
     y="15.908669"
     x="18.101116"
     height="16.492393"
     width="16.492393"
     id="rect4534"
     style="fill:#f6f6f6;fill-opacity:1;stroke:#000000;stroke-width:0.00133333;stroke-miterlimit:4;stroke-dasharray:none;stroke-opacity:1" /><path
     style="fill:#000000;fill-opacity:1;stroke:none;stroke-width:0.00133333;stroke-miterlimit:4;stroke-dasharray:none;stroke-opacity:1"
     d="m 18.101719,15.908813 v 8.246094 a 8.2461967,8.2461967 0 0 1 8.246094,-8.246094 z m 8.246094,0 a 8.2461967,8.2461967 0 0 1 8.246094,8.246094 v -8.246094 z m 8.246094,8.246094 a 8.2461967,8.2461967 0 0 1 -8.246094,8.246094 h 8.246094 z m -8.246094,8.246094 a 8.2461967,8.2461967 0 0 1 -8.246094,-8.246094 v 8.246094 z"
     id="rect4524"
     inkscape:connector-curvature="0" /><circle
     class="st3"
     cx="34.913441"
     cy="21.856079"
     r="0.5"
     id="circle32"
     style="fill:none;stroke:#000000;stroke-width:0.00133333;stroke-miterlimit:4;stroke-dasharray:none;stroke-opacity:1" /><g
     id="g36"
     style="fill:#000000;fill-opacity:1;stroke:none"
     transform="translate(-61.952689,-46.845135)"><path
       d="M 90.1,69.2 V 65 h -3.6 v 4.2 h -4.2 v 3.6 h 4.2 V 77 h 3.6 v -4.2 h 4.2 v -3.6 z m -1.8,2.3 c -0.3,0 -0.5,-0.2 -0.5,-0.5 0,-0.3 0.2,-0.5 0.5,-0.5 0.3,0 0.5,0.2 0.5,0.5 0,0.3 -0.2,0.5 -0.5,0.5 z"
       id="path34"
       style="fill:#000000;fill-opacity:1;stroke:none"
       inkscape:connector-curvature="0" /></g></svg>