  0
SECTION
  2
HEADER
  9
$ACADVER
  1
AC1009
  9
$EXTMIN
 10
0.0
 20
0.0
 30
0.0
  9
$EXTMAX
 10
1000.0
 20
1000.0
 30
0.0
  9
$FILLMODE
 70
 0
  9
$SPLFRAME
 70
 1
  0
ENDSEC
  0
SECTION
  2
TABLES
  0
TABLE
  2
LAYER
 70
1
  0
LAYER
  2
0
 70
     0
 62
     7
  6
CONTINUOUS
  0
ENDTAB
  0
ENDSEC
  0
SECTION
  2
ENTITIES
  0
LINE
  8
0
 62
     0
 10
0.0937066
 20
133.437
 30
0.0
 11
214.406
 21
133.437
 31
0.0
  0
LINE
  8
0
 62
     0
 10
214.406
 20
133.437
 30
0.0
 11
214.406
 21
0.0868165
 31
0.0
  0
LINE
  8
0
 62
     0
 10
214.406
 20
0.0868165
 30
0.0
 11
0.0937066
 21
0.0868165
 31
0.0
  0
LINE
  8
0
 62
     0
 10
0.0937066
 20
0.0868165
 30
0.0
 11
0.0937066
 21
133.437
 31
0.0
  0
LINE
  8
0
 62
     0
 10
4.99953
 20
130.912
 30
0.0
 11
19.0004
 21
130.912
 31
0.0
  0
LINE
  8
0
 62
     0
 10
19.0004
 20
130.912
 30
0.0
 11
19.0004
 21
116.911
 31
0.0
  0
LINE
  8
0
 62
     0
 10
19.0004
 20
116.911
 30
0.0
 11
4.99953
 21
116.911
 31
0.0
  0
LINE
  8
0
 62
     0
 10
4.99953
 20
116.911
 30
0.0
 11
4.99953
 21
130.912
 31
0.0
  0
LINE
  8
0
 62
     0
 10
4.99953
 20
73.7623
 30
0.0
 11
19.0004
 21
73.7623
 31
0.0
  0
LINE
  8
0
 62
     0
 10
19.0004
 20
73.7623
 30
0.0
 11
19.0004
 21
59.7613
 31
0.0
  0
LINE
  8
0
 62
     0
 10
19.0004
 20
59.7613
 30
0.0
 11
4.99953
 21
59.7613
 31
0.0
  0
LINE
  8
0
 62
     0
 10
4.99953
 20
59.7613
 30
0.0
 11
4.99953
 21
73.7623
 31
0.0
  0
LINE
  8
0
 62
     0
 10
4.99953
 20
54.7123
 30
0.0
 11
19.0004
 21
54.7123
 31
0.0
  0
LINE
  8
0
 62
     0
 10
19.0004
 20
54.7123
 30
0.0
 11
19.0004
 21
40.7113
 31
0.0
  0
LINE
  8
0
 62
     0
 10
19.0004
 20
40.7113
 30
0.0
 11
4.99953
 21
40.7113
 31
0.0
  0
LINE
  8
0
 62
     0
 10
4.99953
 20
40.7113
 30
0.0
 11
4.99953
 21
54.7123
 31
0.0
  0
LINE
  8
0
 62
     0
 10
7.38216
 20
35.6623
 30
0.0
 11
21.3817
 21
35.6623
 31
0.0
  0
LINE
  8
0
 62
     0
 10
21.3817
 20
35.6623
 30
0.0
 11
21.3817
 21
21.6614
 31
0.0
  0
LINE
  8
0
 62
     0
 10
21.3817
 20
21.6614
 30
0.0
 11
7.38216
 21
21.6614
 31
0.0
  0
LINE
  8
0
 62
     0
 10
7.38216
 20
21.6614
 30
0.0
 11
7.38216
 21
35.6623
 31
0.0
  0
LINE
  8
0
 62
     0
 10
9.76341
 20
16.6122
 30
0.0
 11
23.7629
 21
16.6122
 31
0.0
  0
LINE
  8
0
 62
     0
 10
23.7629
 20
16.6122
 30
0.0
 11
23.7629
 21
2.61138
 31
0.0
  0
LINE
  8
0
 62
     0
 10
23.7629
 20
2.61138
 30
0.0
 11
9.76341
 21
2.61138
 31
0.0
  0
LINE
  8
0
 62
     0
 10
9.76341
 20
2.61138
 30
0.0
 11
9.76341
 21
16.6122
 31
0.0
  0
LINE
  8
0
 62
     0
 10
39.1322
 20
104.362
 30
0.0
 11
39.1322
 21
98.093
 31
0.0
  0
LINE
  8
0
 62
     0
 10
39.1322
 20
98.093
 30
0.0
 11
37.5059
 21
98.093
 31
0.0
  0
LINE
  8
0
 62
     0
 10
37.5059
 20
98.093
 30
0.0
 11
37.5059
 21
96.8925
 31
0.0
  0
LINE
  8
0
 62
     0
 10
37.5059
 20
96.8925
 30
0.0
 11
34.2057
 21
96.8925
 31
0.0
  0
LINE
  8
0
 62
     0
 10
34.2057
 20
96.8925
 30
0.0
 11
34.2057
 21
98.093
 31
0.0
  0
LINE
  8
0
 62
     0
 10
34.2057
 20
98.093
 30
0.0
 11
32.4817
 21
98.093
 31
0.0
  0
LINE
  8
0
 62
     0
 10
32.4817
 20
98.093
 30
0.0
 11
32.4817
 21
98.8921
 31
0.0
  0
LINE
  8
0
 62
     0
 10
32.4817
 20
98.8921
 30
0.0
 11
30.9053
 21
98.8921
 31
0.0
  0
LINE
  8
0
 62
     0
 10
30.9053
 20
98.8921
 30
0.0
 11
30.9053
 21
97.8627
 31
0.0
  0
LINE
  8
0
 62
     0
 10
30.9053
 20
97.8627
 30
0.0
 11
16.9058
 21
97.8627
 31
0.0
  0
LINE
  8
0
 62
     0
 10
16.9058
 20
97.8627
 30
0.0
 11
16.9058
 21
98.8921
 31
0.0
  0
LINE
  8
0
 62
     0
 10
16.9058
 20
98.8921
 30
0.0
 11
15.332
 21
98.8921
 31
0.0
  0
LINE
  8
0
 62
     0
 10
15.332
 20
98.8921
 30
0.0
 11
15.332
 21
98.093
 31
0.0
  0
LINE
  8
0
 62
     0
 10
15.332
 20
98.093
 30
0.0
 11
13.6054
 21
98.093
 31
0.0
  0
LINE
  8
0
 62
     0
 10
13.6054
 20
98.093
 30
0.0
 11
13.6054
 21
96.8925
 31
0.0
  0
LINE
  8
0
 62
     0
 10
13.6054
 20
96.8925
 30
0.0
 11
10.3063
 21
96.8925
 31
0.0
  0
LINE
  8
0
 62
     0
 10
10.3063
 20
96.8925
 30
0.0
 11
10.3063
 21
98.093
 31
0.0
  0
LINE
  8
0
 62
     0
 10
10.3063
 20
98.093
 30
0.0
 11
8.68165
 21
98.093
 31
0.0
  0
LINE
  8
0
 62
     0
 10
8.68165
 20
98.093
 30
0.0
 11
8.68165
 21
104.362
 31
0.0
  0
LINE
  8
0
 62
     0
 10
8.68165
 20
104.362
 30
0.0
 11
7.80521
 21
104.362
 31
0.0
  0
LINE
  8
0
 62
     0
 10
7.80521
 20
104.362
 30
0.0
 11
7.80521
 21
107.163
 31
0.0
  0
LINE
  8
0
 62
     0
 10
7.80521
 20
107.163
 30
0.0
 11
8.68165
 21
107.163
 31
0.0
  0
LINE
  8
0
 62
     0
 10
8.68165
 20
107.163
 30
0.0
 11
8.68165
 21
110.392
 31
0.0
  0
LINE
  8
0
 62
     0
 10
8.68165
 20
110.392
 30
0.0
 11
15.332
 21
110.392
 31
0.0
  0
LINE
  8
0
 62
     0
 10
15.332
 20
110.392
 30
0.0
 11
15.332
 21
109.593
 31
0.0
  0
LINE
  8
0
 62
     0
 10
15.332
 20
109.593
 30
0.0
 11
16.9058
 21
109.593
 31
0.0
  0
LINE
  8
0
 62
     0
 10
16.9058
 20
109.593
 30
0.0
 11
16.9058
 21
111.862
 31
0.0
  0
LINE
  8
0
 62
     0
 10
16.9058
 20
111.862
 30
0.0
 11
30.9053
 21
111.862
 31
0.0
  0
LINE
  8
0
 62
     0
 10
30.9053
 20
111.862
 30
0.0
 11
30.9053
 21
109.593
 31
0.0
  0
LINE
  8
0
 62
     0
 10
30.9053
 20
109.593
 30
0.0
 11
32.4817
 21
109.593
 31
0.0
  0
LINE
  8
0
 62
     0
 10
32.4817
 20
109.593
 30
0.0
 11
32.4817
 21
110.392
 31
0.0
  0
LINE
  8
0
 62
     0
 10
32.4817
 20
110.392
 30
0.0
 11
39.1322
 21
110.392
 31
0.0
  0
LINE
  8
0
 62
     0
 10
39.1322
 20
110.392
 30
0.0
 11
39.1322
 21
107.163
 31
0.0
  0
LINE
  8
0
 62
     0
 10
39.1322
 20
107.163
 30
0.0
 11
40.0071
 21
107.163
 31
0.0
  0
LINE
  8
0
 62
     0
 10
40.0071
 20
107.163
 30
0.0
 11
40.0071
 21
104.362
 31
0.0
  0
LINE
  8
0
 62
     0
 10
40.0071
 20
104.362
 30
0.0
 11
39.1322
 21
104.362
 31
0.0
  0
LINE
  8
0
 62
     0
 10
26.4308
 20
130.912
 30
0.0
 11
40.4301
 21
130.912
 31
0.0
  0
LINE
  8
0
 62
     0
 10
40.4301
 20
130.912
 30
0.0
 11
40.4301
 21
116.911
 31
0.0
  0
LINE
  8
0
 62
     0
 10
40.4301
 20
116.911
 30
0.0
 11
26.4308
 21
116.911
 31
0.0
  0
LINE
  8
0
 62
     0
 10
26.4308
 20
116.911
 30
0.0
 11
26.4308
 21
130.912
 31
0.0
  0
LINE
  8
0
 62
     0
 10
41.5135
 20
85.3115
 30
0.0
 11
41.5135
 21
79.043
 31
0.0
  0
LINE
  8
0
 62
     0
 10
41.5135
 20
79.043
 30
0.0
 11
39.8872
 21
79.043
 31
0.0
  0
LINE
  8
0
 62
     0
 10
39.8872
 20
79.043
 30
0.0
 11
39.8872
 21
77.8425
 31
0.0
  0
LINE
  8
0
 62
     0
 10
39.8872
 20
77.8425
 30
0.0
 11
36.5883
 21
77.8425
 31
0.0
  0
LINE
  8
0
 62
     0
 10
36.5883
 20
77.8425
 30
0.0
 11
36.5883
 21
79.043
 31
0.0
  0
LINE
  8
0
 62
     0
 10
36.5883
 20
79.043
 30
0.0
 11
34.863
 21
79.043
 31
0.0
  0
LINE
  8
0
 62
     0
 10
34.863
 20
79.043
 30
0.0
 11
34.863
 21
79.8421
 31
0.0
  0
LINE
  8
0
 62
     0
 10
34.863
 20
79.8421
 30
0.0
 11
33.2879
 21
79.8421
 31
0.0
  0
LINE
  8
0
 62
     0
 10
33.2879
 20
79.8421
 30
0.0
 11
33.2879
 21
78.8127
 31
0.0
  0
LINE
  8
0
 62
     0
 10
33.2879
 20
78.8127
 30
0.0
 11
19.2884
 21
78.8127
 31
0.0
  0
LINE
  8
0
 62
     0
 10
19.2884
 20
78.8127
 30
0.0
 11
19.2884
 21
79.8421
 31
0.0
  0
LINE
  8
0
 62
     0
 10
19.2884
 20
79.8421
 30
0.0
 11
17.7133
 21
79.8421
 31
0.0
  0
LINE
  8
0
 62
     0
 10
17.7133
 20
79.8421
 30
0.0
 11
17.7133
 21
79.043
 31
0.0
  0
LINE
  8
0
 62
     0
 10
17.7133
 20
79.043
 30
0.0
 11
15.988
 21
79.043
 31
0.0
  0
LINE
  8
0
 62
     0
 10
15.988
 20
79.043
 30
0.0
 11
15.988
 21
77.8425
 31
0.0
  0
LINE
  8
0
 62
     0
 10
15.988
 20
77.8425
 30
0.0
 11
12.6876
 21
77.8425
 31
0.0
  0
LINE
  8
0
 62
     0
 10
12.6876
 20
77.8425
 30
0.0
 11
12.6876
 21
79.043
 31
0.0
  0
LINE
  8
0
 62
     0
 10
12.6876
 20
79.043
 30
0.0
 11
11.0629
 21
79.043
 31
0.0
  0
LINE
  8
0
 62
     0
 10
11.0629
 20
79.043
 30
0.0
 11
11.0629
 21
85.3115
 31
0.0
  0
LINE
  8
0
 62
     0
 10
11.0629
 20
85.3115
 30
0.0
 11
10.1878
 21
85.3115
 31
0.0
  0
LINE
  8
0
 62
     0
 10
10.1878
 20
85.3115
 30
0.0
 11
10.1878
 21
88.1133
 31
0.0
  0
LINE
  8
0
 62
     0
 10
10.1878
 20
88.1133
 30
0.0
 11
11.0629
 21
88.1133
 31
0.0
  0
LINE
  8
0
 62
     0
 10
11.0629
 20
88.1133
 30
0.0
 11
11.0629
 21
91.3419
 31
0.0
  0
LINE
  8
0
 62
     0
 10
11.0629
 20
91.3419
 30
0.0
 11
17.7133
 21
91.3419
 31
0.0
  0
LINE
  8
0
 62
     0
 10
17.7133
 20
91.3419
 30
0.0
 11
17.7133
 21
90.5425
 31
0.0
  0
LINE
  8
0
 62
     0
 10
17.7133
 20
90.5425
 30
0.0
 11
19.2884
 21
90.5425
 31
0.0
  0
LINE
  8
0
 62
     0
 10
19.2884
 20
90.5425
 30
0.0
 11
19.2884
 21
92.8123
 31
0.0
  0
LINE
  8
0
 62
     0
 10
19.2884
 20
92.8123
 30
0.0
 11
33.2879
 21
92.8123
 31
0.0
  0
LINE
  8
0
 62
     0
 10
33.2879
 20
92.8123
 30
0.0
 11
33.2879
 21
90.5425
 31
0.0
  0
LINE
  8
0
 62
     0
 10
33.2879
 20
90.5425
 30
0.0
 11
34.863
 21
90.5425
 31
0.0
  0
LINE
  8
0
 62
     0
 10
34.863
 20
90.5425
 30
0.0
 11
34.863
 21
91.3419
 31
0.0
  0
LINE
  8
0
 62
     0
 10
34.863
 20
91.3419
 30
0.0
 11
41.5135
 21
91.3419
 31
0.0
  0
LINE
  8
0
 62
     0
 10
41.5135
 20
91.3419
 30
0.0
 11
41.5135
 21
88.1133
 31
0.0
  0
LINE
  8
0
 62
     0
 10
41.5135
 20
88.1133
 30
0.0
 11
42.387
 21
88.1133
 31
0.0
  0
LINE
  8
0
 62
     0
 10
42.387
 20
88.1133
 30
0.0
 11
42.387
 21
85.3115
 31
0.0
  0
LINE
  8
0
 62
     0
 10
42.387
 20
85.3115
 30
0.0
 11
41.5135
 21
85.3115
 31
0.0
  0
LINE
  8
0
 62
     0
 10
31.1933
 20
54.7123
 30
0.0
 11
45.194
 21
54.7123
 31
0.0
  0
LINE
  8
0
 62
     0
 10
45.194
 20
54.7123
 30
0.0
 11
45.194
 21
40.7113
 31
0.0
  0
LINE
  8
0
 62
     0
 10
45.194
 20
40.7113
 30
0.0
 11
31.1933
 21
40.7113
 31
0.0
  0
LINE
  8
0
 62
     0
 10
31.1933
 20
40.7113
 30
0.0
 11
31.1933
 21
54.7123
 31
0.0
  0
LINE
  8
0
 62
     0
 10
31.1933
 20
35.6623
 30
0.0
 11
45.194
 21
35.6623
 31
0.0
  0
LINE
  8
0
 62
     0
 10
45.194
 20
35.6623
 30
0.0
 11
45.194
 21
21.6614
 31
0.0
  0
LINE
  8
0
 62
     0
 10
45.194
 20
21.6614
 30
0.0
 11
31.1933
 21
21.6614
 31
0.0
  0
LINE
  8
0
 62
     0
 10
31.1933
 20
21.6614
 30
0.0
 11
31.1933
 21
35.6623
 31
0.0
  0
LINE
  8
0
 62
     0
 10
33.5745
 20
73.7623
 30
0.0
 11
47.5753
 21
73.7623
 31
0.0
  0
LINE
  8
0
 62
     0
 10
47.5753
 20
73.7623
 30
0.0
 11
47.5753
 21
59.7613
 31
0.0
  0
LINE
  8
0
 62
     0
 10
47.5753
 20
59.7613
 30
0.0
 11
33.5745
 21
59.7613
 31
0.0
  0
LINE
  8
0
 62
     0
 10
33.5745
 20
59.7613
 30
0.0
 11
33.5745
 21
73.7623
 31
0.0
  0
LINE
  8
0
 62
     0
 10
45.4822
 20
130.912
 30
0.0
 11
59.4815
 21
130.912
 31
0.0
  0
LINE
  8
0
 62
     0
 10
59.4815
 20
130.912
 30
0.0
 11
59.4815
 21
116.911
 31
0.0
  0
LINE
  8
0
 62
     0
 10
59.4815
 20
116.911
 30
0.0
 11
45.4822
 21
116.911
 31
0.0
  0
LINE
  8
0
 62
     0
 10
45.4822
 20
116.911
 30
0.0
 11
45.4822
 21
130.912
 31
0.0
  0
LINE
  8
0
 62
     0
 10
50.2433
 20
35.6623
 30
0.0
 11
64.244
 21
35.6623
 31
0.0
  0
LINE
  8
0
 62
     0
 10
64.244
 20
35.6623
 30
0.0
 11
64.244
 21
21.6614
 31
0.0
  0
LINE
  8
0
 62
     0
 10
64.244
 20
21.6614
 30
0.0
 11
50.2433
 21
21.6614
 31
0.0
  0
LINE
  8
0
 62
     0
 10
50.2433
 20
21.6614
 30
0.0
 11
50.2433
 21
35.6623
 31
0.0
  0
LINE
  8
0
 62
     0
 10
57.3885
 20
92.8123
 30
0.0
 11
71.3878
 21
92.8123
 31
0.0
  0
LINE
  8
0
 62
     0
 10
71.3878
 20
92.8123
 30
0.0
 11
71.3878
 21
78.8113
 31
0.0
  0
LINE
  8
0
 62
     0
 10
71.3878
 20
78.8113
 30
0.0
 11
57.3885
 21
78.8113
 31
0.0
  0
LINE
  8
0
 62
     0
 10
57.3885
 20
78.8113
 30
0.0
 11
57.3885
 21
92.8123
 31
0.0
  0
LINE
  8
0
 62
     0
 10
62.1496
 20
73.7623
 30
0.0
 11
76.1503
 21
73.7623
 31
0.0
  0
LINE
  8
0
 62
     0
 10
76.1503
 20
73.7623
 30
0.0
 11
76.1503
 21
59.7613
 31
0.0
  0
LINE
  8
0
 62
     0
 10
76.1503
 20
59.7613
 30
0.0
 11
62.1496
 21
59.7613
 31
0.0
  0
LINE
  8
0
 62
     0
 10
62.1496
 20
59.7613
 30
0.0
 11
62.1496
 21
73.7623
 31
0.0
  0
LINE
  8
0
 62
     0
 10
66.9135
 20
130.912
 30
0.0
 11
80.9128
 21
130.912
 31
0.0
  0
LINE
  8
0
 62
     0
 10
80.9128
 20
130.912
 30
0.0
 11
80.9128
 21
116.911
 31
0.0
  0
LINE
  8
0
 62
     0
 10
80.9128
 20
116.911
 30
0.0
 11
66.9135
 21
116.911
 31
0.0
  0
LINE
  8
0
 62
     0
 10
66.9135
 20
116.911
 30
0.0
 11
66.9135
 21
130.912
 31
0.0
  0
LINE
  8
0
 62
     0
 10
81.9933
 20
104.362
 30
0.0
 11
81.9933
 21
98.093
 31
0.0
  0
LINE
  8
0
 62
     0
 10
81.9933
 20
98.093
 30
0.0
 11
80.3684
 21
98.093
 31
0.0
  0
LINE
  8
0
 62
     0
 10
80.3684
 20
98.093
 30
0.0
 11
80.3684
 21
96.8925
 31
0.0
  0
LINE
  8
0
 62
     0
 10
80.3684
 20
96.8925
 30
0.0
 11
77.0682
 21
96.8925
 31
0.0
  0
LINE
  8
0
 62
     0
 10
77.0682
 20
96.8925
 30
0.0
 11
77.0682
 21
98.093
 31
0.0
  0
LINE
  8
0
 62
     0
 10
77.0682
 20
98.093
 30
0.0
 11
75.3442
 21
98.093
 31
0.0
  0
LINE
  8
0
 62
     0
 10
75.3442
 20
98.093
 30
0.0
 11
75.3442
 21
98.8921
 31
0.0
  0
LINE
  8
0
 62
     0
 10
75.3442
 20
98.8921
 30
0.0
 11
73.769
 21
98.8921
 31
0.0
  0
LINE
  8
0
 62
     0
 10
73.769
 20
98.8921
 30
0.0
 11
73.769
 21
97.8627
 31
0.0
  0
LINE
  8
0
 62
     0
 10
73.769
 20
97.8627
 30
0.0
 11
59.7683
 21
97.8627
 31
0.0
  0
LINE
  8
0
 62
     0
 10
59.7683
 20
97.8627
 30
0.0
 11
59.7683
 21
98.8921
 31
0.0
  0
LINE
  8
0
 62
     0
 10
59.7683
 20
98.8921
 30
0.0
 11
58.1932
 21
98.8921
 31
0.0
  0
LINE
  8
0
 62
     0
 10
58.1932
 20
98.8921
 30
0.0
 11
58.1932
 21
98.093
 31
0.0
  0
LINE
  8
0
 62
     0
 10
58.1932
 20
98.093
 30
0.0
 11
56.4691
 21
98.093
 31
0.0
  0
LINE
  8
0
 62
     0
 10
56.4691
 20
98.093
 30
0.0
 11
56.4691
 21
96.8925
 31
0.0
  0
LINE
  8
0
 62
     0
 10
56.4691
 20
96.8925
 30
0.0
 11
53.1689
 21
96.8925
 31
0.0
  0
LINE
  8
0
 62
     0
 10
53.1689
 20
96.8925
 30
0.0
 11
53.1689
 21
98.093
 31
0.0
  0
LINE
  8
0
 62
     0
 10
53.1689
 20
98.093
 30
0.0
 11
51.544
 21
98.093
 31
0.0
  0
LINE
  8
0
 62
     0
 10
51.544
 20
98.093
 30
0.0
 11
51.544
 21
104.362
 31
0.0
  0
LINE
  8
0
 62
     0
 10
51.544
 20
104.362
 30
0.0
 11
50.6691
 21
104.362
 31
0.0
  0
LINE
  8
0
 62
     0
 10
50.6691
 20
104.362
 30
0.0
 11
50.6691
 21
107.163
 31
0.0
  0
LINE
  8
0
 62
     0
 10
50.6691
 20
107.163
 30
0.0
 11
51.544
 21
107.163
 31
0.0
  0
LINE
  8
0
 62
     0
 10
51.544
 20
107.163
 30
0.0
 11
51.544
 21
110.392
 31
0.0
  0
LINE
  8
0
 62
     0
 10
51.544
 20
110.392
 30
0.0
 11
58.1932
 21
110.392
 31
0.0
  0
LINE
  8
0
 62
     0
 10
58.1932
 20
110.392
 30
0.0
 11
58.1932
 21
109.593
 31
0.0
  0
LINE
  8
0
 62
     0
 10
58.1932
 20
109.593
 30
0.0
 11
59.7683
 21
109.593
 31
0.0
  0
LINE
  8
0
 62
     0
 10
59.7683
 20
109.593
 30
0.0
 11
59.7683
 21
111.862
 31
0.0
  0
LINE
  8
0
 62
     0
 10
59.7683
 20
111.862
 30
0.0
 11
73.769
 21
111.862
 31
0.0
  0
LINE
  8
0
 62
     0
 10
73.769
 20
111.862
 30
0.0
 11
73.769
 21
109.593
 31
0.0
  0
LINE
  8
0
 62
     0
 10
73.769
 20
109.593
 30
0.0
 11
75.3442
 21
109.593
 31
0.0
  0
LINE
  8
0
 62
     0
 10
75.3442
 20
109.593
 30
0.0
 11
75.3442
 21
110.392
 31
0.0
  0
LINE
  8
0
 62
     0
 10
75.3442
 20
110.392
 30
0.0
 11
81.9933
 21
110.392
 31
0.0
  0
LINE
  8
0
 62
     0
 10
81.9933
 20
110.392
 30
0.0
 11
81.9933
 21
107.163
 31
0.0
  0
LINE
  8
0
 62
     0
 10
81.9933
 20
107.163
 30
0.0
 11
82.8682
 21
107.163
 31
0.0
  0
LINE
  8
0
 62
     0
 10
82.8682
 20
107.163
 30
0.0
 11
82.8682
 21
104.362
 31
0.0
  0
LINE
  8
0
 62
     0
 10
82.8682
 20
104.362
 30
0.0
 11
81.9933
 21
104.362
 31
0.0
  0
LINE
  8
0
 62
     0
 10
71.6746
 20
35.6623
 30
0.0
 11
85.6753
 21
35.6623
 31
0.0
  0
LINE
  8
0
 62
     0
 10
85.6753
 20
35.6623
 30
0.0
 11
85.6753
 21
21.6614
 31
0.0
  0
LINE
  8
0
 62
     0
 10
85.6753
 20
21.6614
 30
0.0
 11
71.6746
 21
21.6614
 31
0.0
  0
LINE
  8
0
 62
     0
 10
71.6746
 20
21.6614
 30
0.0
 11
71.6746
 21
35.6623
 31
0.0
  0
LINE
  8
0
 62
     0
 10
89.1385
 20
47.2115
 30
0.0
 11
89.1385
 21
40.943
 31
0.0
  0
LINE
  8
0
 62
     0
 10
89.1385
 20
40.943
 30
0.0
 11
87.5122
 21
40.943
 31
0.0
  0
LINE
  8
0
 62
     0
 10
87.5122
 20
40.943
 30
0.0
 11
87.5122
 21
39.7425
 31
0.0
  0
LINE
  8
0
 62
     0
 10
87.5122
 20
39.7425
 30
0.0
 11
84.2133
 21
39.7425
 31
0.0
  0
LINE
  8
0
 62
     0
 10
84.2133
 20
39.7425
 30
0.0
 11
84.2133
 21
40.943
 31
0.0
  0
LINE
  8
0
 62
     0
 10
84.2133
 20
40.943
 30
0.0
 11
82.4879
 21
40.943
 31
0.0
  0
LINE
  8
0
 62
     0
 10
82.4879
 20
40.943
 30
0.0
 11
82.4879
 21
41.7421
 31
0.0
  0
LINE
  8
0
 62
     0
 10
82.4879
 20
41.7421
 30
0.0
 11
80.9128
 21
41.7421
 31
0.0
  0
LINE
  8
0
 62
     0
 10
80.9128
 20
41.7421
 30
0.0
 11
80.9128
 21
40.7127
 31
0.0
  0
LINE
  8
0
 62
     0
 10
80.9128
 20
40.7127
 30
0.0
 11
66.9135
 21
40.7127
 31
0.0
  0
LINE
  8
0
 62
     0
 10
66.9135
 20
40.7127
 30
0.0
 11
66.9135
 21
41.7421
 31
0.0
  0
LINE
  8
0
 62
     0
 10
66.9135
 20
41.7421
 30
0.0
 11
65.3383
 21
41.7421
 31
0.0
  0
LINE
  8
0
 62
     0
 10
65.3383
 20
41.7421
 30
0.0
 11
65.3383
 21
40.943
 31
0.0
  0
LINE
  8
0
 62
     0
 10
65.3383
 20
40.943
 30
0.0
 11
63.6129
 21
40.943
 31
0.0
  0
LINE
  8
0
 62
     0
 10
63.6129
 20
40.943
 30
0.0
 11
63.6129
 21
39.7425
 31
0.0
  0
LINE
  8
0
 62
     0
 10
63.6129
 20
39.7425
 30
0.0
 11
60.3127
 21
39.7425
 31
0.0
  0
LINE
  8
0
 62
     0
 10
60.3127
 20
39.7425
 30
0.0
 11
60.3127
 21
40.943
 31
0.0
  0
LINE
  8
0
 62
     0
 10
60.3127
 20
40.943
 30
0.0
 11
58.6878
 21
40.943
 31
0.0
  0
LINE
  8
0
 62
     0
 10
58.6878
 20
40.943
 30
0.0
 11
58.6878
 21
47.2115
 31
0.0
  0
LINE
  8
0
 62
     0
 10
58.6878
 20
47.2115
 30
0.0
 11
57.8129
 21
47.2115
 31
0.0
  0
LINE
  8
0
 62
     0
 10
57.8129
 20
47.2115
 30
0.0
 11
57.8129
 21
50.0133
 31
0.0
  0
LINE
  8
0
 62
     0
 10
57.8129
 20
50.0133
 30
0.0
 11
58.6878
 21
50.0133
 31
0.0
  0
LINE
  8
0
 62
     0
 10
58.6878
 20
50.0133
 30
0.0
 11
58.6878
 21
53.2419
 31
0.0
  0
LINE
  8
0
 62
     0
 10
58.6878
 20
53.2419
 30
0.0
 11
65.3383
 21
53.2419
 31
0.0
  0
LINE
  8
0
 62
     0
 10
65.3383
 20
53.2419
 30
0.0
 11
65.3383
 21
52.4425
 31
0.0
  0
LINE
  8
0
 62
     0
 10
65.3383
 20
52.4425
 30
0.0
 11
66.9135
 21
52.4425
 31
0.0
  0
LINE
  8
0
 62
     0
 10
66.9135
 20
52.4425
 30
0.0
 11
66.9135
 21
54.7123
 31
0.0
  0
LINE
  8
0
 62
     0
 10
66.9135
 20
54.7123
 30
0.0
 11
80.9128
 21
54.7123
 31
0.0
  0
LINE
  8
0
 62
     0
 10
80.9128
 20
54.7123
 30
0.0
 11
80.9128
 21
52.4425
 31
0.0
  0
LINE
  8
0
 62
     0
 10
80.9128
 20
52.4425
 30
0.0
 11
82.4879
 21
52.4425
 31
0.0
  0
LINE
  8
0
 62
     0
 10
82.4879
 20
52.4425
 30
0.0
 11
82.4879
 21
53.2419
 31
0.0
  0
LINE
  8
0
 62
     0
 10
82.4879
 20
53.2419
 30
0.0
 11
89.1385
 21
53.2419
 31
0.0
  0
LINE
  8
0
 62
     0
 10
89.1385
 20
53.2419
 30
0.0
 11
89.1385
 21
50.0133
 31
0.0
  0
LINE
  8
0
 62
     0
 10
89.1385
 20
50.0133
 30
0.0
 11
90.012
 21
50.0133
 31
0.0
  0
LINE
  8
0
 62
     0
 10
90.012
 20
50.0133
 30
0.0
 11
90.012
 21
47.2115
 31
0.0
  0
LINE
  8
0
 62
     0
 10
90.012
 20
47.2115
 30
0.0
 11
89.1385
 21
47.2115
 31
0.0
  0
LINE
  8
0
 62
     0
 10
83.5822
 20
92.8123
 30
0.0
 11
97.5815
 21
92.8123
 31
0.0
  0
LINE
  8
0
 62
     0
 10
97.5815
 20
92.8123
 30
0.0
 11
97.5815
 21
78.8113
 31
0.0
  0
LINE
  8
0
 62
     0
 10
97.5815
 20
78.8113
 30
0.0
 11
83.5822
 21
78.8113
 31
0.0
  0
LINE
  8
0
 62
     0
 10
83.5822
 20
78.8113
 30
0.0
 11
83.5822
 21
92.8123
 31
0.0
  0
LINE
  8
0
 62
     0
 10
93.1058
 20
130.912
 30
0.0
 11
107.105
 21
130.912
 31
0.0
  0
LINE
  8
0
 62
     0
 10
107.105
 20
130.912
 30
0.0
 11
107.105
 21
116.911
 31
0.0
  0
LINE
  8
0
 62
     0
 10
107.105
 20
116.911
 30
0.0
 11
93.1058
 21
116.911
 31
0.0
  0
LINE
  8
0
 62
     0
 10
93.1058
 20
116.911
 30
0.0
 11
93.1058
 21
130.912
 31
0.0
  0
LINE
  8
0
 62
     0
 10
97.8683
 20
35.6623
 30
0.0
 11
111.869
 21
35.6623
 31
0.0
  0
LINE
  8
0
 62
     0
 10
111.869
 20
35.6623
 30
0.0
 11
111.869
 21
21.6614
 31
0.0
  0
LINE
  8
0
 62
     0
 10
111.869
 20
21.6614
 30
0.0
 11
97.8683
 21
21.6614
 31
0.0
  0
LINE
  8
0
 62
     0
 10
97.8683
 20
21.6614
 30
0.0
 11
97.8683
 21
35.6623
 31
0.0
  0
LINE
  8
0
 62
     0
 10
115.331
 20
66.2615
 30
0.0
 11
115.331
 21
59.993
 31
0.0
  0
LINE
  8
0
 62
     0
 10
115.331
 20
59.993
 30
0.0
 11
113.706
 21
59.993
 31
0.0
  0
LINE
  8
0
 62
     0
 10
113.706
 20
59.993
 30
0.0
 11
113.706
 21
58.7925
 31
0.0
  0
LINE
  8
0
 62
     0
 10
113.706
 20
58.7925
 30
0.0
 11
110.406
 21
58.7925
 31
0.0
  0
LINE
  8
0
 62
     0
 10
110.406
 20
58.7925
 30
0.0
 11
110.406
 21
59.993
 31
0.0
  0
LINE
  8
0
 62
     0
 10
110.406
 20
59.993
 30
0.0
 11
108.682
 21
59.993
 31
0.0
  0
LINE
  8
0
 62
     0
 10
108.682
 20
59.993
 30
0.0
 11
108.682
 21
60.7921
 31
0.0
  0
LINE
  8
0
 62
     0
 10
108.682
 20
60.7921
 30
0.0
 11
107.107
 21
60.7921
 31
0.0
  0
LINE
  8
0
 62
     0
 10
107.107
 20
60.7921
 30
0.0
 11
107.107
 21
59.7627
 31
0.0
  0
LINE
  8
0
 62
     0
 10
107.107
 20
59.7627
 30
0.0
 11
93.1072
 21
59.7627
 31
0.0
  0
LINE
  8
0
 62
     0
 10
93.1072
 20
59.7627
 30
0.0
 11
93.1072
 21
60.7921
 31
0.0
  0
LINE
  8
0
 62
     0
 10
93.1072
 20
60.7921
 30
0.0
 11
91.5321
 21
60.7921
 31
0.0
  0
LINE
  8
0
 62
     0
 10
91.5321
 20
60.7921
 30
0.0
 11
91.5321
 21
59.993
 31
0.0
  0
LINE
  8
0
 62
     0
 10
91.5321
 20
59.993
 30
0.0
 11
89.8066
 21
59.993
 31
0.0
  0
LINE
  8
0
 62
     0
 10
89.8066
 20
59.993
 30
0.0
 11
89.8066
 21
58.7925
 31
0.0
  0
LINE
  8
0
 62
     0
 10
89.8066
 20
58.7925
 30
0.0
 11
86.5064
 21
58.7925
 31
0.0
  0
LINE
  8
0
 62
     0
 10
86.5064
 20
58.7925
 30
0.0
 11
86.5064
 21
59.993
 31
0.0
  0
LINE
  8
0
 62
     0
 10
86.5064
 20
59.993
 30
0.0
 11
84.8815
 21
59.993
 31
0.0
  0
LINE
  8
0
 62
     0
 10
84.8815
 20
59.993
 30
0.0
 11
84.8815
 21
66.2615
 31
0.0
  0
LINE
  8
0
 62
     0
 10
84.8815
 20
66.2615
 30
0.0
 11
84.0052
 21
66.2615
 31
0.0
  0
LINE
  8
0
 62
     0
 10
84.0052
 20
66.2615
 30
0.0
 11
84.0052
 21
69.0633
 31
0.0
  0
LINE
  8
0
 62
     0
 10
84.0052
 20
69.0633
 30
0.0
 11
84.8815
 21
69.0633
 31
0.0
  0
LINE
  8
0
 62
     0
 10
84.8815
 20
69.0633
 30
0.0
 11
84.8815
 21
72.2919
 31
0.0
  0
LINE
  8
0
 62
     0
 10
84.8815
 20
72.2919
 30
0.0
 11
91.5321
 21
72.2919
 31
0.0
  0
LINE
  8
0
 62
     0
 10
91.5321
 20
72.2919
 30
0.0
 11
91.5321
 21
71.4925
 31
0.0
  0
LINE
  8
0
 62
     0
 10
91.5321
 20
71.4925
 30
0.0
 11
93.1072
 21
71.4925
 31
0.0
  0
LINE
  8
0
 62
     0
 10
93.1072
 20
71.4925
 30
0.0
 11
93.1072
 21
73.7623
 31
0.0
  0
LINE
  8
0
 62
     0
 10
93.1072
 20
73.7623
 30
0.0
 11
107.107
 21
73.7623
 31
0.0
  0
LINE
  8
0
 62
     0
 10
107.107
 20
73.7623
 30
0.0
 11
107.107
 21
71.4925
 31
0.0
  0
LINE
  8
0
 62
     0
 10
107.107
 20
71.4925
 30
0.0
 11
108.682
 21
71.4925
 31
0.0
  0
LINE
  8
0
 62
     0
 10
108.682
 20
71.4925
 30
0.0
 11
108.682
 21
72.2919
 31
0.0
  0
LINE
  8
0
 62
     0
 10
108.682
 20
72.2919
 30
0.0
 11
115.331
 21
72.2919
 31
0.0
  0
LINE
  8
0
 62
     0
 10
115.331
 20
72.2919
 30
0.0
 11
115.331
 21
69.0633
 31
0.0
  0
LINE
  8
0
 62
     0
 10
115.331
 20
69.0633
 30
0.0
 11
116.207
 21
69.0633
 31
0.0
  0
LINE
  8
0
 62
     0
 10
116.207
 20
69.0633
 30
0.0
 11
116.207
 21
66.2615
 31
0.0
  0
LINE
  8
0
 62
     0
 10
116.207
 20
66.2615
 30
0.0
 11
115.331
 21
66.2615
 31
0.0
  0
LINE
  8
0
 62
     0
 10
120.093
 20
104.362
 30
0.0
 11
120.093
 21
98.093
 31
0.0
  0
LINE
  8
0
 62
     0
 10
120.093
 20
98.093
 30
0.0
 11
118.468
 21
98.093
 31
0.0
  0
LINE
  8
0
 62
     0
 10
118.468
 20
98.093
 30
0.0
 11
118.468
 21
96.8925
 31
0.0
  0
LINE
  8
0
 62
     0
 10
118.468
 20
96.8925
 30
0.0
 11
115.168
 21
96.8925
 31
0.0
  0
LINE
  8
0
 62
     0
 10
115.168
 20
96.8925
 30
0.0
 11
115.168
 21
98.093
 31
0.0
  0
LINE
  8
0
 62
     0
 10
115.168
 20
98.093
 30
0.0
 11
113.444
 21
98.093
 31
0.0
  0
LINE
  8
0
 62
     0
 10
113.444
 20
98.093
 30
0.0
 11
113.444
 21
98.8921
 31
0.0
  0
LINE
  8
0
 62
     0
 10
113.444
 20
98.8921
 30
0.0
 11
111.869
 21
98.8921
 31
0.0
  0
LINE
  8
0
 62
     0
 10
111.869
 20
98.8921
 30
0.0
 11
111.869
 21
97.8627
 31
0.0
  0
LINE
  8
0
 62
     0
 10
111.869
 20
97.8627
 30
0.0
 11
97.8683
 21
97.8627
 31
0.0
  0
LINE
  8
0
 62
     0
 10
97.8683
 20
97.8627
 30
0.0
 11
97.8683
 21
98.8921
 31
0.0
  0
LINE
  8
0
 62
     0
 10
97.8683
 20
98.8921
 30
0.0
 11
96.2932
 21
98.8921
 31
0.0
  0
LINE
  8
0
 62
     0
 10
96.2932
 20
98.8921
 30
0.0
 11
96.2932
 21
98.093
 31
0.0
  0
LINE
  8
0
 62
     0
 10
96.2932
 20
98.093
 30
0.0
 11
94.5691
 21
98.093
 31
0.0
  0
LINE
  8
0
 62
     0
 10
94.5691
 20
98.093
 30
0.0
 11
94.5691
 21
96.8925
 31
0.0
  0
LINE
  8
0
 62
     0
 10
94.5691
 20
96.8925
 30
0.0
 11
91.2689
 21
96.8925
 31
0.0
  0
LINE
  8
0
 62
     0
 10
91.2689
 20
96.8925
 30
0.0
 11
91.2689
 21
98.093
 31
0.0
  0
LINE
  8
0
 62
     0
 10
91.2689
 20
98.093
 30
0.0
 11
89.644
 21
98.093
 31
0.0
  0
LINE
  8
0
 62
     0
 10
89.644
 20
98.093
 30
0.0
 11
89.644
 21
104.362
 31
0.0
  0
LINE
  8
0
 62
     0
 10
89.644
 20
104.362
 30
0.0
 11
88.7691
 21
104.362
 31
0.0
  0
LINE
  8
0
 62
     0
 10
88.7691
 20
104.362
 30
0.0
 11
88.7691
 21
107.163
 31
0.0
  0
LINE
  8
0
 62
     0
 10
88.7691
 20
107.163
 30
0.0
 11
89.644
 21
107.163
 31
0.0
  0
LINE
  8
0
 62
     0
 10
89.644
 20
107.163
 30
0.0
 11
89.644
 21
110.392
 31
0.0
  0
LINE
  8
0
 62
     0
 10
89.644
 20
110.392
 30
0.0
 11
96.2932
 21
110.392
 31
0.0
  0
LINE
  8
0
 62
     0
 10
96.2932
 20
110.392
 30
0.0
 11
96.2932
 21
109.593
 31
0.0
  0
LINE
  8
0
 62
     0
 10
96.2932
 20
109.593
 30
0.0
 11
97.8683
 21
109.593
 31
0.0
  0
LINE
  8
0
 62
     0
 10
97.8683
 20
109.593
 30
0.0
 11
97.8683
 21
111.862
 31
0.0
  0
LINE
  8
0
 62
     0
 10
97.8683
 20
111.862
 30
0.0
 11
111.869
 21
111.862
 31
0.0
  0
LINE
  8
0
 62
     0
 10
111.869
 20
111.862
 30
0.0
 11
111.869
 21
109.593
 31
0.0
  0
LINE
  8
0
 62
     0
 10
111.869
 20
109.593
 30
0.0
 11
113.444
 21
109.593
 31
0.0
  0
LINE
  8
0
 62
     0
 10
113.444
 20
109.593
 30
0.0
 11
113.444
 21
110.392
 31
0.0
  0
LINE
  8
0
 62
     0
 10
113.444
 20
110.392
 30
0.0
 11
120.093
 21
110.392
 31
0.0
  0
LINE
  8
0
 62
     0
 10
120.093
 20
110.392
 30
0.0
 11
120.093
 21
107.163
 31
0.0
  0
LINE
  8
0
 62
     0
 10
120.093
 20
107.163
 30
0.0
 11
120.968
 21
107.163
 31
0.0
  0
LINE
  8
0
 62
     0
 10
120.968
 20
107.163
 30
0.0
 11
120.968
 21
104.362
 31
0.0
  0
LINE
  8
0
 62
     0
 10
120.968
 20
104.362
 30
0.0
 11
120.093
 21
104.362
 31
0.0
  0
LINE
  8
0
 62
     0
 10
132
 20
47.2115
 30
0.0
 11
132
 21
40.943
 31
0.0
  0
LINE
  8
0
 62
     0
 10
132
 20
40.943
 30
0.0
 11
130.375
 21
40.943
 31
0.0
  0
LINE
  8
0
 62
     0
 10
130.375
 20
40.943
 30
0.0
 11
130.375
 21
39.7425
 31
0.0
  0
LINE
  8
0
 62
     0
 10
130.375
 20
39.7425
 30
0.0
 11
127.074
 21
39.7425
 31
0.0
  0
LINE
  8
0
 62
     0
 10
127.074
 20
39.7425
 30
0.0
 11
127.074
 21
40.943
 31
0.0
  0
LINE
  8
0
 62
     0
 10
127.074
 20
40.943
 30
0.0
 11
125.349
 21
40.943
 31
0.0
  0
LINE
  8
0
 62
     0
 10
125.349
 20
40.943
 30
0.0
 11
125.349
 21
41.7421
 31
0.0
  0
LINE
  8
0
 62
     0
 10
125.349
 20
41.7421
 30
0.0
 11
123.775
 21
41.7421
 31
0.0
  0
LINE
  8
0
 62
     0
 10
123.775
 20
41.7421
 30
0.0
 11
123.775
 21
40.7127
 31
0.0
  0
LINE
  8
0
 62
     0
 10
123.775
 20
40.7127
 30
0.0
 11
109.775
 21
40.7127
 31
0.0
  0
LINE
  8
0
 62
     0
 10
109.775
 20
40.7127
 30
0.0
 11
109.775
 21
41.7421
 31
0.0
  0
LINE
  8
0
 62
     0
 10
109.775
 20
41.7421
 30
0.0
 11
108.199
 21
41.7421
 31
0.0
  0
LINE
  8
0
 62
     0
 10
108.199
 20
41.7421
 30
0.0
 11
108.199
 21
40.943
 31
0.0
  0
LINE
  8
0
 62
     0
 10
108.199
 20
40.943
 30
0.0
 11
106.474
 21
40.943
 31
0.0
  0
LINE
  8
0
 62
     0
 10
106.474
 20
40.943
 30
0.0
 11
106.474
 21
39.7425
 31
0.0
  0
LINE
  8
0
 62
     0
 10
106.474
 20
39.7425
 30
0.0
 11
103.175
 21
39.7425
 31
0.0
  0
LINE
  8
0
 62
     0
 10
103.175
 20
39.7425
 30
0.0
 11
103.175
 21
40.943
 31
0.0
  0
LINE
  8
0
 62
     0
 10
103.175
 20
40.943
 30
0.0
 11
101.55
 21
40.943
 31
0.0
  0
LINE
  8
0
 62
     0
 10
101.55
 20
40.943
 30
0.0
 11
101.55
 21
47.2115
 31
0.0
  0
LINE
  8
0
 62
     0
 10
101.55
 20
47.2115
 30
0.0
 11
100.675
 21
47.2115
 31
0.0
  0
LINE
  8
0
 62
     0
 10
100.675
 20
47.2115
 30
0.0
 11
100.675
 21
50.0133
 31
0.0
  0
LINE
  8
0
 62
     0
 10
100.675
 20
50.0133
 30
0.0
 11
101.55
 21
50.0133
 31
0.0
  0
LINE
  8
0
 62
     0
 10
101.55
 20
50.0133
 30
0.0
 11
101.55
 21
53.2419
 31
0.0
  0
LINE
  8
0
 62
     0
 10
101.55
 20
53.2419
 30
0.0
 11
108.199
 21
53.2419
 31
0.0
  0
LINE
  8
0
 62
     0
 10
108.199
 20
53.2419
 30
0.0
 11
108.199
 21
52.4425
 31
0.0
  0
LINE
  8
0
 62
     0
 10
108.199
 20
52.4425
 30
0.0
 11
109.775
 21
52.4425
 31
0.0
  0
LINE
  8
0
 62
     0
 10
109.775
 20
52.4425
 30
0.0
 11
109.775
 21
54.7123
 31
0.0
  0
LINE
  8
0
 62
     0
 10
109.775
 20
54.7123
 30
0.0
 11
123.775
 21
54.7123
 31
0.0
  0
LINE
  8
0
 62
     0
 10
123.775
 20
54.7123
 30
0.0
 11
123.775
 21
52.4425
 31
0.0
  0
LINE
  8
0
 62
     0
 10
123.775
 20
52.4425
 30
0.0
 11
125.349
 21
52.4425
 31
0.0
  0
LINE
  8
0
 62
     0
 10
125.349
 20
52.4425
 30
0.0
 11
125.349
 21
53.2419
 31
0.0
  0
LINE
  8
0
 62
     0
 10
125.349
 20
53.2419
 30
0.0
 11
132
 21
53.2419
 31
0.0
  0
LINE
  8
0
 62
     0
 10
132
 20
53.2419
 30
0.0
 11
132
 21
50.0133
 31
0.0
  0
LINE
  8
0
 62
     0
 10
132
 20
50.0133
 30
0.0
 11
132.874
 21
50.0133
 31
0.0
  0
LINE
  8
0
 62
     0
 10
132.874
 20
50.0133
 30
0.0
 11
132.874
 21
47.2115
 31
0.0
  0
LINE
  8
0
 62
     0
 10
132.874
 20
47.2115
 30
0.0
 11
132
 21
47.2115
 31
0.0
  0
LINE
  8
0
 62
     0
 10
121.681
 20
130.912
 30
0.0
 11
135.68
 21
130.912
 31
0.0
  0
LINE
  8
0
 62
     0
 10
135.68
 20
130.912
 30
0.0
 11
135.68
 21
116.911
 31
0.0
  0
LINE
  8
0
 62
     0
 10
135.68
 20
116.911
 30
0.0
 11
121.681
 21
116.911
 31
0.0
  0
LINE
  8
0
 62
     0
 10
121.681
 20
116.911
 30
0.0
 11
121.681
 21
130.912
 31
0.0
  0
LINE
  8
0
 62
     0
 10
124.063
 20
73.7623
 30
0.0
 11
138.063
 21
73.7623
 31
0.0
  0
LINE
  8
0
 62
     0
 10
138.063
 20
73.7623
 30
0.0
 11
138.063
 21
59.7613
 31
0.0
  0
LINE
  8
0
 62
     0
 10
138.063
 20
59.7613
 30
0.0
 11
124.063
 21
59.7613
 31
0.0
  0
LINE
  8
0
 62
     0
 10
124.063
 20
59.7613
 30
0.0
 11
124.063
 21
73.7623
 31
0.0
  0
LINE
  8
0
 62
     0
 10
126.443
 20
35.6623
 30
0.0
 11
140.444
 21
35.6623
 31
0.0
  0
LINE
  8
0
 62
     0
 10
140.444
 20
35.6623
 30
0.0
 11
140.444
 21
21.6614
 31
0.0
  0
LINE
  8
0
 62
     0
 10
140.444
 20
21.6614
 30
0.0
 11
126.443
 21
21.6614
 31
0.0
  0
LINE
  8
0
 62
     0
 10
126.443
 20
21.6614
 30
0.0
 11
126.443
 21
35.6623
 31
0.0
  0
LINE
  8
0
 62
     0
 10
141.525
 20
85.3115
 30
0.0
 11
141.525
 21
79.043
 31
0.0
  0
LINE
  8
0
 62
     0
 10
141.525
 20
79.043
 30
0.0
 11
139.9
 21
79.043
 31
0.0
  0
LINE
  8
0
 62
     0
 10
139.9
 20
79.043
 30
0.0
 11
139.9
 21
77.8425
 31
0.0
  0
LINE
  8
0
 62
     0
 10
139.9
 20
77.8425
 30
0.0
 11
136.599
 21
77.8425
 31
0.0
  0
LINE
  8
0
 62
     0
 10
136.599
 20
77.8425
 30
0.0
 11
136.599
 21
79.043
 31
0.0
  0
LINE
  8
0
 62
     0
 10
136.599
 20
79.043
 30
0.0
 11
134.874
 21
79.043
 31
0.0
  0
LINE
  8
0
 62
     0
 10
134.874
 20
79.043
 30
0.0
 11
134.874
 21
79.8421
 31
0.0
  0
LINE
  8
0
 62
     0
 10
134.874
 20
79.8421
 30
0.0
 11
133.3
 21
79.8421
 31
0.0
  0
LINE
  8
0
 62
     0
 10
133.3
 20
79.8421
 30
0.0
 11
133.3
 21
78.8127
 31
0.0
  0
LINE
  8
0
 62
     0
 10
133.3
 20
78.8127
 30
0.0
 11
119.3
 21
78.8127
 31
0.0
  0
LINE
  8
0
 62
     0
 10
119.3
 20
78.8127
 30
0.0
 11
119.3
 21
79.8421
 31
0.0
  0
LINE
  8
0
 62
     0
 10
119.3
 20
79.8421
 30
0.0
 11
117.724
 21
79.8421
 31
0.0
  0
LINE
  8
0
 62
     0
 10
117.724
 20
79.8421
 30
0.0
 11
117.724
 21
79.043
 31
0.0
  0
LINE
  8
0
 62
     0
 10
117.724
 20
79.043
 30
0.0
 11
115.999
 21
79.043
 31
0.0
  0
LINE
  8
0
 62
     0
 10
115.999
 20
79.043
 30
0.0
 11
115.999
 21
77.8425
 31
0.0
  0
LINE
  8
0
 62
     0
 10
115.999
 20
77.8425
 30
0.0
 11
112.7
 21
77.8425
 31
0.0
  0
LINE
  8
0
 62
     0
 10
112.7
 20
77.8425
 30
0.0
 11
112.7
 21
79.043
 31
0.0
  0
LINE
  8
0
 62
     0
 10
112.7
 20
79.043
 30
0.0
 11
111.075
 21
79.043
 31
0.0
  0
LINE
  8
0
 62
     0
 10
111.075
 20
79.043
 30
0.0
 11
111.075
 21
85.3115
 31
0.0
  0
LINE
  8
0
 62
     0
 10
111.075
 20
85.3115
 30
0.0
 11
110.2
 21
85.3115
 31
0.0
  0
LINE
  8
0
 62
     0
 10
110.2
 20
85.3115
 30
0.0
 11
110.2
 21
88.1133
 31
0.0
  0
LINE
  8
0
 62
     0
 10
110.2
 20
88.1133
 30
0.0
 11
111.075
 21
88.1133
 31
0.0
  0
LINE
  8
0
 62
     0
 10
111.075
 20
88.1133
 30
0.0
 11
111.075
 21
91.3419
 31
0.0
  0
LINE
  8
0
 62
     0
 10
111.075
 20
91.3419
 30
0.0
 11
117.724
 21
91.3419
 31
0.0
  0
LINE
  8
0
 62
     0
 10
117.724
 20
91.3419
 30
0.0
 11
117.724
 21
90.5425
 31
0.0
  0
LINE
  8
0
 62
     0
 10
117.724
 20
90.5425
 30
0.0
 11
119.3
 21
90.5425
 31
0.0
  0
LINE
  8
0
 62
     0
 10
119.3
 20
90.5425
 30
0.0
 11
119.3
 21
92.8123
 31
0.0
  0
LINE
  8
0
 62
     0
 10
119.3
 20
92.8123
 30
0.0
 11
133.3
 21
92.8123
 31
0.0
  0
LINE
  8
0
 62
     0
 10
133.3
 20
92.8123
 30
0.0
 11
133.3
 21
90.5425
 31
0.0
  0
LINE
  8
0
 62
     0
 10
133.3
 20
90.5425
 30
0.0
 11
134.874
 21
90.5425
 31
0.0
  0
LINE
  8
0
 62
     0
 10
134.874
 20
90.5425
 30
0.0
 11
134.874
 21
91.3419
 31
0.0
  0
LINE
  8
0
 62
     0
 10
134.874
 20
91.3419
 30
0.0
 11
141.525
 21
91.3419
 31
0.0
  0
LINE
  8
0
 62
     0
 10
141.525
 20
91.3419
 30
0.0
 11
141.525
 21
88.1133
 31
0.0
  0
LINE
  8
0
 62
     0
 10
141.525
 20
88.1133
 30
0.0
 11
142.399
 21
88.1133
 31
0.0
  0
LINE
  8
0
 62
     0
 10
142.399
 20
88.1133
 30
0.0
 11
142.399
 21
85.3115
 31
0.0
  0
LINE
  8
0
 62
     0
 10
142.399
 20
85.3115
 30
0.0
 11
141.525
 21
85.3115
 31
0.0
  0
LINE
  8
0
 62
     0
 10
128.825
 20
111.862
 30
0.0
 11
142.825
 21
111.862
 31
0.0
  0
LINE
  8
0
 62
     0
 10
142.825
 20
111.862
 30
0.0
 11
142.825
 21
97.8613
 31
0.0
  0
LINE
  8
0
 62
     0
 10
142.825
 20
97.8613
 30
0.0
 11
128.825
 21
97.8613
 31
0.0
  0
LINE
  8
0
 62
     0
 10
128.825
 20
97.8613
 30
0.0
 11
128.825
 21
111.862
 31
0.0
  0
LINE
  8
0
 62
     0
 10
146.288
 20
9.11158
 30
0.0
 11
146.288
 21
2.84289
 31
0.0
  0
LINE
  8
0
 62
     0
 10
146.288
 20
2.84289
 30
0.0
 11
144.613
 21
2.84289
 31
0.0
  0
LINE
  8
0
 62
     0
 10
144.613
 20
2.84289
 30
0.0
 11
144.613
 21
1.64262
 31
0.0
  0
LINE
  8
0
 62
     0
 10
144.613
 20
1.64262
 30
0.0
 11
141.312
 21
1.64262
 31
0.0
  0
LINE
  8
0
 62
     0
 10
141.312
 20
1.64262
 30
0.0
 11
141.312
 21
2.84289
 31
0.0
  0
LINE
  8
0
 62
     0
 10
141.312
 20
2.84289
 30
0.0
 11
139.638
 21
2.84289
 31
0.0
  0
LINE
  8
0
 62
     0
 10
139.638
 20
2.84289
 30
0.0
 11
139.638
 21
7.31326
 31
0.0
  0
LINE
  8
0
 62
     0
 10
139.638
 20
7.31326
 30
0.0
 11
99.9628
 21
7.31326
 31
0.0
  0
LINE
  8
0
 62
     0
 10
99.9628
 20
7.31326
 30
0.0
 11
99.9628
 21
2.61276
 31
0.0
  0
LINE
  8
0
 62
     0
 10
99.9628
 20
2.61276
 30
0.0
 11
85.9635
 21
2.61276
 31
0.0
  0
LINE
  8
0
 62
     0
 10
85.9635
 20
2.61276
 30
0.0
 11
85.9635
 21
7.31326
 31
0.0
  0
LINE
  8
0
 62
     0
 10
85.9635
 20
7.31326
 30
0.0
 11
46.2883
 21
7.31326
 31
0.0
  0
LINE
  8
0
 62
     0
 10
46.2883
 20
7.31326
 30
0.0
 11
46.2883
 21
2.84289
 31
0.0
  0
LINE
  8
0
 62
     0
 10
46.2883
 20
2.84289
 30
0.0
 11
44.6126
 21
2.84289
 31
0.0
  0
LINE
  8
0
 62
     0
 10
44.6126
 20
2.84289
 30
0.0
 11
44.6126
 21
1.64262
 31
0.0
  0
LINE
  8
0
 62
     0
 10
44.6126
 20
1.64262
 30
0.0
 11
41.312
 21
1.64262
 31
0.0
  0
LINE
  8
0
 62
     0
 10
41.312
 20
1.64262
 30
0.0
 11
41.312
 21
2.84289
 31
0.0
  0
LINE
  8
0
 62
     0
 10
41.312
 20
2.84289
 30
0.0
 11
39.6378
 21
2.84289
 31
0.0
  0
LINE
  8
0
 62
     0
 10
39.6378
 20
2.84289
 30
0.0
 11
39.6378
 21
9.11158
 31
0.0
  0
LINE
  8
0
 62
     0
 10
39.6378
 20
9.11158
 30
0.0
 11
38.7629
 21
9.11158
 31
0.0
  0
LINE
  8
0
 62
     0
 10
38.7629
 20
9.11158
 30
0.0
 11
38.7629
 21
11.9131
 31
0.0
  0
LINE
  8
0
 62
     0
 10
38.7629
 20
11.9131
 30
0.0
 11
39.6378
 21
11.9131
 31
0.0
  0
LINE
  8
0
 62
     0
 10
39.6378
 20
11.9131
 30
0.0
 11
39.6378
 21
15.1419
 31
0.0
  0
LINE
  8
0
 62
     0
 10
39.6378
 20
15.1419
 30
0.0
 11
46.2883
 21
15.1419
 31
0.0
  0
LINE
  8
0
 62
     0
 10
46.2883
 20
15.1419
 30
0.0
 11
46.2883
 21
11.9131
 31
0.0
  0
LINE
  8
0
 62
     0
 10
46.2883
 20
11.9131
 30
0.0
 11
85.9635
 21
11.9131
 31
0.0
  0
LINE
  8
0
 62
     0
 10
85.9635
 20
11.9131
 30
0.0
 11
85.9635
 21
16.6122
 31
0.0
  0
LINE
  8
0
 62
     0
 10
85.9635
 20
16.6122
 30
0.0
 11
99.9628
 21
16.6122
 31
0.0
  0
LINE
  8
0
 62
     0
 10
99.9628
 20
16.6122
 30
0.0
 11
99.9628
 21
11.9131
 31
0.0
  0
LINE
  8
0
 62
     0
 10
99.9628
 20
11.9131
 30
0.0
 11
139.638
 21
11.9131
 31
0.0
  0
LINE
  8
0
 62
     0
 10
139.638
 20
11.9131
 30
0.0
 11
139.638
 21
15.1419
 31
0.0
  0
LINE
  8
0
 62
     0
 10
139.638
 20
15.1419
 30
0.0
 11
146.288
 21
15.1419
 31
0.0
  0
LINE
  8
0
 62
     0
 10
146.288
 20
15.1419
 30
0.0
 11
146.288
 21
11.9131
 31
0.0
  0
LINE
  8
0
 62
     0
 10
146.288
 20
11.9131
 30
0.0
 11
147.162
 21
11.9131
 31
0.0
  0
LINE
  8
0
 62
     0
 10
147.162
 20
11.9131
 30
0.0
 11
147.162
 21
9.11158
 31
0.0
  0
LINE
  8
0
 62
     0
 10
147.162
 20
9.11158
 30
0.0
 11
146.288
 21
9.11158
 31
0.0
  0
LINE
  8
0
 62
     0
 10
150.256
 20
73.7623
 30
0.0
 11
164.255
 21
73.7623
 31
0.0
  0
LINE
  8
0
 62
     0
 10
164.255
 20
73.7623
 30
0.0
 11
164.255
 21
59.7613
 31
0.0
  0
LINE
  8
0
 62
     0
 10
164.255
 20
59.7613
 30
0.0
 11
150.256
 21
59.7613
 31
0.0
  0
LINE
  8
0
 62
     0
 10
150.256
 20
59.7613
 30
0.0
 11
150.256
 21
73.7623
 31
0.0
  0
LINE
  8
0
 62
     0
 10
152.638
 20
130.912
 30
0.0
 11
166.638
 21
130.912
 31
0.0
  0
LINE
  8
0
 62
     0
 10
166.638
 20
130.912
 30
0.0
 11
166.638
 21
116.911
 31
0.0
  0
LINE
  8
0
 62
     0
 10
166.638
 20
116.911
 30
0.0
 11
152.638
 21
116.911
 31
0.0
  0
LINE
  8
0
 62
     0
 10
152.638
 20
116.911
 30
0.0
 11
152.638
 21
130.912
 31
0.0
  0
LINE
  8
0
 62
     0
 10
152.638
 20
111.862
 30
0.0
 11
166.638
 21
111.862
 31
0.0
  0
LINE
  8
0
 62
     0
 10
166.638
 20
111.862
 30
0.0
 11
166.638
 21
97.8613
 31
0.0
  0
LINE
  8
0
 62
     0
 10
166.638
 20
97.8613
 30
0.0
 11
152.638
 21
97.8613
 31
0.0
  0
LINE
  8
0
 62
     0
 10
152.638
 20
97.8613
 30
0.0
 11
152.638
 21
111.862
 31
0.0
  0
LINE
  8
0
 62
     0
 10
152.638
 20
92.8123
 30
0.0
 11
166.638
 21
92.8123
 31
0.0
  0
LINE
  8
0
 62
     0
 10
166.638
 20
92.8123
 30
0.0
 11
166.638
 21
78.8113
 31
0.0
  0
LINE
  8
0
 62
     0
 10
166.638
 20
78.8113
 30
0.0
 11
152.638
 21
78.8113
 31
0.0
  0
LINE
  8
0
 62
     0
 10
152.638
 20
78.8113
 30
0.0
 11
152.638
 21
92.8123
 31
0.0
  0
LINE
  8
0
 62
     0
 10
152.638
 20
35.6623
 30
0.0
 11
166.638
 21
35.6623
 31
0.0
  0
LINE
  8
0
 62
     0
 10
166.638
 20
35.6623
 30
0.0
 11
166.638
 21
21.6614
 31
0.0
  0
LINE
  8
0
 62
     0
 10
166.638
 20
21.6614
 30
0.0
 11
152.638
 21
21.6614
 31
0.0
  0
LINE
  8
0
 62
     0
 10
152.638
 20
21.6614
 30
0.0
 11
152.638
 21
35.6623
 31
0.0
  0
LINE
  8
0
 62
     0
 10
157.4
 20
16.6122
 30
0.0
 11
171.4
 21
16.6122
 31
0.0
  0
LINE
  8
0
 62
     0
 10
171.4
 20
16.6122
 30
0.0
 11
171.4
 21
2.61138
 31
0.0
  0
LINE
  8
0
 62
     0
 10
171.4
 20
2.61138
 30
0.0
 11
157.4
 21
2.61138
 31
0.0
  0
LINE
  8
0
 62
     0
 10
157.4
 20
2.61138
 30
0.0
 11
157.4
 21
16.6122
 31
0.0
  0
LINE
  8
0
 62
     0
 10
177.243
 20
47.2115
 30
0.0
 11
177.243
 21
40.943
 31
0.0
  0
LINE
  8
0
 62
     0
 10
177.243
 20
40.943
 30
0.0
 11
175.618
 21
40.943
 31
0.0
  0
LINE
  8
0
 62
     0
 10
175.618
 20
40.943
 30
0.0
 11
175.618
 21
39.7425
 31
0.0
  0
LINE
  8
0
 62
     0
 10
175.618
 20
39.7425
 30
0.0
 11
172.318
 21
39.7425
 31
0.0
  0
LINE
  8
0
 62
     0
 10
172.318
 20
39.7425
 30
0.0
 11
172.318
 21
40.943
 31
0.0
  0
LINE
  8
0
 62
     0
 10
172.318
 20
40.943
 30
0.0
 11
170.594
 21
40.943
 31
0.0
  0
LINE
  8
0
 62
     0
 10
170.594
 20
40.943
 30
0.0
 11
170.594
 21
41.7421
 31
0.0
  0
LINE
  8
0
 62
     0
 10
170.594
 20
41.7421
 30
0.0
 11
169.019
 21
41.7421
 31
0.0
  0
LINE
  8
0
 62
     0
 10
169.019
 20
41.7421
 30
0.0
 11
169.019
 21
40.7127
 31
0.0
  0
LINE
  8
0
 62
     0
 10
169.019
 20
40.7127
 30
0.0
 11
155.018
 21
40.7127
 31
0.0
  0
LINE
  8
0
 62
     0
 10
155.018
 20
40.7127
 30
0.0
 11
155.018
 21
41.7421
 31
0.0
  0
LINE
  8
0
 62
     0
 10
155.018
 20
41.7421
 30
0.0
 11
153.443
 21
41.7421
 31
0.0
  0
LINE
  8
0
 62
     0
 10
153.443
 20
41.7421
 30
0.0
 11
153.443
 21
40.943
 31
0.0
  0
LINE
  8
0
 62
     0
 10
153.443
 20
40.943
 30
0.0
 11
151.719
 21
40.943
 31
0.0
  0
LINE
  8
0
 62
     0
 10
151.719
 20
40.943
 30
0.0
 11
151.719
 21
39.7425
 31
0.0
  0
LINE
  8
0
 62
     0
 10
151.719
 20
39.7425
 30
0.0
 11
148.419
 21
39.7425
 31
0.0
  0
LINE
  8
0
 62
     0
 10
148.419
 20
39.7425
 30
0.0
 11
148.419
 21
40.943
 31
0.0
  0
LINE
  8
0
 62
     0
 10
148.419
 20
40.943
 30
0.0
 11
146.794
 21
40.943
 31
0.0
  0
LINE
  8
0
 62
     0
 10
146.794
 20
40.943
 30
0.0
 11
146.794
 21
47.2115
 31
0.0
  0
LINE
  8
0
 62
     0
 10
146.794
 20
47.2115
 30
0.0
 11
145.919
 21
47.2115
 31
0.0
  0
LINE
  8
0
 62
     0
 10
145.919
 20
47.2115
 30
0.0
 11
145.919
 21
50.0133
 31
0.0
  0
LINE
  8
0
 62
     0
 10
145.919
 20
50.0133
 30
0.0
 11
146.794
 21
50.0133
 31
0.0
  0
LINE
  8
0
 62
     0
 10
146.794
 20
50.0133
 30
0.0
 11
146.794
 21
53.2419
 31
0.0
  0
LINE
  8
0
 62
     0
 10
146.794
 20
53.2419
 30
0.0
 11
153.443
 21
53.2419
 31
0.0
  0
LINE
  8
0
 62
     0
 10
153.443
 20
53.2419
 30
0.0
 11
153.443
 21
52.4425
 31
0.0
  0
LINE
  8
0
 62
     0
 10
153.443
 20
52.4425
 30
0.0
 11
155.018
 21
52.4425
 31
0.0
  0
LINE
  8
0
 62
     0
 10
155.018
 20
52.4425
 30
0.0
 11
155.018
 21
54.7123
 31
0.0
  0
LINE
  8
0
 62
     0
 10
155.018
 20
54.7123
 30
0.0
 11
169.019
 21
54.7123
 31
0.0
  0
LINE
  8
0
 62
     0
 10
169.019
 20
54.7123
 30
0.0
 11
169.019
 21
52.4425
 31
0.0
  0
LINE
  8
0
 62
     0
 10
169.019
 20
52.4425
 30
0.0
 11
170.594
 21
52.4425
 31
0.0
  0
LINE
  8
0
 62
     0
 10
170.594
 20
52.4425
 30
0.0
 11
170.594
 21
53.2419
 31
0.0
  0
LINE
  8
0
 62
     0
 10
170.594
 20
53.2419
 30
0.0
 11
177.243
 21
53.2419
 31
0.0
  0
LINE
  8
0
 62
     0
 10
177.243
 20
53.2419
 30
0.0
 11
177.243
 21
50.0133
 31
0.0
  0
LINE
  8
0
 62
     0
 10
177.243
 20
50.0133
 30
0.0
 11
178.118
 21
50.0133
 31
0.0
  0
LINE
  8
0
 62
     0
 10
178.118
 20
50.0133
 30
0.0
 11
178.118
 21
47.2115
 31
0.0
  0
LINE
  8
0
 62
     0
 10
178.118
 20
47.2115
 30
0.0
 11
177.243
 21
47.2115
 31
0.0
  0
LINE
  8
0
 62
     0
 10
174.068
 20
73.7623
 30
0.0
 11
188.069
 21
73.7623
 31
0.0
  0
LINE
  8
0
 62
     0
 10
188.069
 20
73.7623
 30
0.0
 11
188.069
 21
59.7613
 31
0.0
  0
LINE
  8
0
 62
     0
 10
188.069
 20
59.7613
 30
0.0
 11
174.068
 21
59.7613
 31
0.0
  0
LINE
  8
0
 62
     0
 10
174.068
 20
59.7613
 30
0.0
 11
174.068
 21
73.7623
 31
0.0
  0
LINE
  8
0
 62
     0
 10
174.068
 20
111.862
 30
0.0
 11
188.069
 21
111.862
 31
0.0
  0
LINE
  8
0
 62
     0
 10
188.069
 20
111.862
 30
0.0
 11
188.069
 21
97.8613
 31
0.0
  0
LINE
  8
0
 62
     0
 10
188.069
 20
97.8613
 30
0.0
 11
174.068
 21
97.8613
 31
0.0
  0
LINE
  8
0
 62
     0
 10
174.068
 20
97.8613
 30
0.0
 11
174.068
 21
111.862
 31
0.0
  0
LINE
  8
0
 62
     0
 10
174.068
 20
92.8123
 30
0.0
 11
188.069
 21
92.8123
 31
0.0
  0
LINE
  8
0
 62
     0
 10
188.069
 20
92.8123
 30
0.0
 11
188.069
 21
78.8113
 31
0.0
  0
LINE
  8
0
 62
     0
 10
188.069
 20
78.8113
 30
0.0
 11
174.068
 21
78.8113
 31
0.0
  0
LINE
  8
0
 62
     0
 10
174.068
 20
78.8113
 30
0.0
 11
174.068
 21
92.8123
 31
0.0
  0
LINE
  8
0
 62
     0
 10
174.068
 20
35.6623
 30
0.0
 11
188.069
 21
35.6623
 31
0.0
  0
LINE
  8
0
 62
     0
 10
188.069
 20
35.6623
 30
0.0
 11
188.069
 21
21.6614
 31
0.0
  0
LINE
  8
0
 62
     0
 10
188.069
 20
21.6614
 30
0.0
 11
174.068
 21
21.6614
 31
0.0
  0
LINE
  8
0
 62
     0
 10
174.068
 20
21.6614
 30
0.0
 11
174.068
 21
35.6623
 31
0.0
  0
LINE
  8
0
 62
     0
 10
193.118
 20
54.7123
 30
0.0
 11
207.119
 21
54.7123
 31
0.0
  0
LINE
  8
0
 62
     0
 10
207.119
 20
54.7123
 30
0.0
 11
207.119
 21
40.7113
 31
0.0
  0
LINE
  8
0
 62
     0
 10
207.119
 20
40.7113
 30
0.0
 11
193.118
 21
40.7113
 31
0.0
  0
LINE
  8
0
 62
     0
 10
193.118
 20
40.7113
 30
0.0
 11
193.118
 21
54.7123
 31
0.0
  0
LINE
  8
0
 62
     0
 10
195.5
 20
73.7623
 30
0.0
 11
209.5
 21
73.7623
 31
0.0
  0
LINE
  8
0
 62
     0
 10
209.5
 20
73.7623
 30
0.0
 11
209.5
 21
59.7613
 31
0.0
  0
LINE
  8
0
 62
     0
 10
209.5
 20
59.7613
 30
0.0
 11
195.5
 21
59.7613
 31
0.0
  0
LINE
  8
0
 62
     0
 10
195.5
 20
59.7613
 30
0.0
 11
195.5
 21
73.7623
 31
0.0
  0
LINE
  8
0
 62
     0
 10
195.5
 20
111.862
 30
0.0
 11
209.5
 21
111.862
 31
0.0
  0
LINE
  8
0
 62
     0
 10
209.5
 20
111.862
 30
0.0
 11
209.5
 21
97.8613
 31
0.0
  0
LINE
  8
0
 62
     0
 10
209.5
 20
97.8613
 30
0.0
 11
195.5
 21
97.8613
 31
0.0
  0
LINE
  8
0
 62
     0
 10
195.5
 20
97.8613
 30
0.0
 11
195.5
 21
111.862
 31
0.0
  0
LINE
  8
0
 62
     0
 10
195.5
 20
92.8123
 30
0.0
 11
209.5
 21
92.8123
 31
0.0
  0
LINE
  8
0
 62
     0
 10
209.5
 20
92.8123
 30
0.0
 11
209.5
 21
78.8113
 31
0.0
  0
LINE
  8
0
 62
     0
 10
209.5
 20
78.8113
 30
0.0
 11
195.5
 21
78.8113
 31
0.0
  0
LINE
  8
0
 62
     0
 10
195.5
 20
78.8113
 30
0.0
 11
195.5
 21
92.8123
 31
0.0
  0
LINE
  8
0
 62
     0
 10
195.5
 20
35.6623
 30
0.0
 11
209.5
 21
35.6623
 31
0.0
  0
LINE
  8
0
 62
     0
 10
209.5
 20
35.6623
 30
0.0
 11
209.5
 21
21.6614
 31
0.0
  0
LINE
  8
0
 62
     0
 10
209.5
 20
21.6614
 30
0.0
 11
195.5
 21
21.6614
 31
0.0
  0
LINE
  8
0
 62
     0
 10
195.5
 20
21.6614
 30
0.0
 11
195.5
 21
35.6623
 31
0.0
  0
LINE
  8
0
 62
     0
 10
210.581
 20
123.412
 30
0.0
 11
210.581
 21
117.143
 31
0.0
  0
LINE
  8
0
 62
     0
 10
210.581
 20
117.143
 30
0.0
 11
208.956
 21
117.143
 31
0.0
  0
LINE
  8
0
 62
     0
 10
208.956
 20
117.143
 30
0.0
 11
208.956
 21
115.943
 31
0.0
  0
LINE
  8
0
 62
     0
 10
208.956
 20
115.943
 30
0.0
 11
205.656
 21
115.943
 31
0.0
  0
LINE
  8
0
 62
     0
 10
205.656
 20
115.943
 30
0.0
 11
205.656
 21
117.143
 31
0.0
  0
LINE
  8
0
 62
     0
 10
205.656
 20
117.143
 30
0.0
 11
203.93
 21
117.143
 31
0.0
  0
LINE
  8
0
 62
     0
 10
203.93
 20
117.143
 30
0.0
 11
203.93
 21
117.942
 31
0.0
  0
LINE
  8
0
 62
     0
 10
203.93
 20
117.942
 30
0.0
 11
202.355
 21
117.942
 31
0.0
  0
LINE
  8
0
 62
     0
 10
202.355
 20
117.942
 30
0.0
 11
202.355
 21
116.913
 31
0.0
  0
LINE
  8
0
 62
     0
 10
202.355
 20
116.913
 30
0.0
 11
188.356
 21
116.913
 31
0.0
  0
LINE
  8
0
 62
     0
 10
188.356
 20
116.913
 30
0.0
 11
188.356
 21
117.942
 31
0.0
  0
LINE
  8
0
 62
     0
 10
188.356
 20
117.942
 30
0.0
 11
186.782
 21
117.942
 31
0.0
  0
LINE
  8
0
 62
     0
 10
186.782
 20
117.942
 30
0.0
 11
186.782
 21
117.143
 31
0.0
  0
LINE
  8
0
 62
     0
 10
186.782
 20
117.143
 30
0.0
 11
185.055
 21
117.143
 31
0.0
  0
LINE
  8
0
 62
     0
 10
185.055
 20
117.143
 30
0.0
 11
185.055
 21
115.943
 31
0.0
  0
LINE
  8
0
 62
     0
 10
185.055
 20
115.943
 30
0.0
 11
181.756
 21
115.943
 31
0.0
  0
LINE
  8
0
 62
     0
 10
181.756
 20
115.943
 30
0.0
 11
181.756
 21
117.143
 31
0.0
  0
LINE
  8
0
 62
     0
 10
181.756
 20
117.143
 30
0.0
 11
180.13
 21
117.143
 31
0.0
  0
LINE
  8
0
 62
     0
 10
180.13
 20
117.143
 30
0.0
 11
180.13
 21
123.412
 31
0.0
  0
LINE
  8
0
 62
     0
 10
180.13
 20
123.412
 30
0.0
 11
179.255
 21
123.412
 31
0.0
  0
LINE
  8
0
 62
     0
 10
179.255
 20
123.412
 30
0.0
 11
179.255
 21
126.213
 31
0.0
  0
LINE
  8
0
 62
     0
 10
179.255
 20
126.213
 30
0.0
 11
180.13
 21
126.213
 31
0.0
  0
LINE
  8
0
 62
     0
 10
180.13
 20
126.213
 30
0.0
 11
180.13
 21
129.442
 31
0.0
  0
LINE
  8
0
 62
     0
 10
180.13
 20
129.442
 30
0.0
 11
186.782
 21
129.442
 31
0.0
  0
LINE
  8
0
 62
     0
 10
186.782
 20
129.442
 30
0.0
 11
186.782
 21
128.643
 31
0.0
  0
LINE
  8
0
 62
     0
 10
186.782
 20
128.643
 30
0.0
 11
188.356
 21
128.643
 31
0.0
  0
LINE
  8
0
 62
     0
 10
188.356
 20
128.643
 30
0.0
 11
188.356
 21
130.912
 31
0.0
  0
LINE
  8
0
 62
     0
 10
188.356
 20
130.912
 30
0.0
 11
202.355
 21
130.912
 31
0.0
  0
LINE
  8
0
 62
     0
 10
202.355
 20
130.912
 30
0.0
 11
202.355
 21
128.643
 31
0.0
  0
LINE
  8
0
 62
     0
 10
202.355
 20
128.643
 30
0.0
 11
203.93
 21
128.643
 31
0.0
  0
LINE
  8
0
 62
     0
 10
203.93
 20
128.643
 30
0.0
 11
203.93
 21
129.442
 31
0.0
  0
LINE
  8
0
 62
     0
 10
203.93
 20
129.442
 30
0.0
 11
210.581
 21
129.442
 31
0.0
  0
LINE
  8
0
 62
     0
 10
210.581
 20
129.442
 30
0.0
 11
210.581
 21
126.213
 31
0.0
  0
LINE
  8
0
 62
     0
 10
210.581
 20
126.213
 30
0.0
 11
211.456
 21
126.213
 31
0.0
  0
LINE
  8
0
 62
     0
 10
211.456
 20
126.213
 30
0.0
 11
211.456
 21
123.412
 31
0.0
  0
LINE
  8
0
 62
     0
 10
211.456
 20
123.412
 30
0.0
 11
210.581
 21
123.412
 31
0.0
  0
LINE
  8
0
 62
     0
 10
210.582
 20
9.11158
 30
0.0
 11
210.582
 21
2.84289
 31
0.0
  0
LINE
  8
0
 62
     0
 10
210.582
 20
2.84289
 30
0.0
 11
208.957
 21
2.84289
 31
0.0
  0
LINE
  8
0
 62
     0
 10
208.957
 20
2.84289
 30
0.0
 11
208.957
 21
1.64262
 31
0.0
  0
LINE
  8
0
 62
     0
 10
208.957
 20
1.64262
 30
0.0
 11
205.657
 21
1.64262
 31
0.0
  0
LINE
  8
0
 62
     0
 10
205.657
 20
1.64262
 30
0.0
 11
205.657
 21
2.84289
 31
0.0
  0
LINE
  8
0
 62
     0
 10
205.657
 20
2.84289
 30
0.0
 11
203.932
 21
2.84289
 31
0.0
  0
LINE
  8
0
 62
     0
 10
203.932
 20
2.84289
 30
0.0
 11
203.932
 21
3.64215
 31
0.0
  0
LINE
  8
0
 62
     0
 10
203.932
 20
3.64215
 30
0.0
 11
202.357
 21
3.64215
 31
0.0
  0
LINE
  8
0
 62
     0
 10
202.357
 20
3.64215
 30
0.0
 11
202.357
 21
2.61276
 31
0.0
  0
LINE
  8
0
 62
     0
 10
202.357
 20
2.61276
 30
0.0
 11
188.357
 21
2.61276
 31
0.0
  0
LINE
  8
0
 62
     0
 10
188.357
 20
2.61276
 30
0.0
 11
188.357
 21
3.64215
 31
0.0
  0
LINE
  8
0
 62
     0
 10
188.357
 20
3.64215
 30
0.0
 11
186.782
 21
3.64215
 31
0.0
  0
LINE
  8
0
 62
     0
 10
186.782
 20
3.64215
 30
0.0
 11
186.782
 21
2.84289
 31
0.0
  0
LINE
  8
0
 62
     0
 10
186.782
 20
2.84289
 30
0.0
 11
185.057
 21
2.84289
 31
0.0
  0
LINE
  8
0
 62
     0
 10
185.057
 20
2.84289
 30
0.0
 11
185.057
 21
1.64262
 31
0.0
  0
LINE
  8
0
 62
     0
 10
185.057
 20
1.64262
 30
0.0
 11
181.756
 21
1.64262
 31
0.0
  0
LINE
  8
0
 62
     0
 10
181.756
 20
1.64262
 30
0.0
 11
181.756
 21
2.84289
 31
0.0
  0
LINE
  8
0
 62
     0
 10
181.756
 20
2.84289
 30
0.0
 11
180.132
 21
2.84289
 31
0.0
  0
LINE
  8
0
 62
     0
 10
180.132
 20
2.84289
 30
0.0
 11
180.132
 21
9.11158
 31
0.0
  0
LINE
  8
0
 62
     0
 10
180.132
 20
9.11158
 30
0.0
 11
179.257
 21
9.11158
 31
0.0
  0
LINE
  8
0
 62
     0
 10
179.257
 20
9.11158
 30
0.0
 11
179.257
 21
11.9131
 31
0.0
  0
LINE
  8
0
 62
     0
 10
179.257
 20
11.9131
 30
0.0
 11
180.132
 21
11.9131
 31
0.0
  0
LINE
  8
0
 62
     0
 10
180.132
 20
11.9131
 30
0.0
 11
180.132
 21
15.1419
 31
0.0
  0
LINE
  8
0
 62
     0
 10
180.132
 20
15.1419
 30
0.0
 11
186.782
 21
15.1419
 31
0.0
  0
LINE
  8
0
 62
     0
 10
186.782
 20
15.1419
 30
0.0
 11
186.782
 21
14.3426
 31
0.0
  0
LINE
  8
0
 62
     0
 10
186.782
 20
14.3426
 30
0.0
 11
188.357
 21
14.3426
 31
0.0
  0
LINE
  8
0
 62
     0
 10
188.357
 20
14.3426
 30
0.0
 11
188.357
 21
16.6122
 31
0.0
  0
LINE
  8
0
 62
     0
 10
188.357
 20
16.6122
 30
0.0
 11
202.357
 21
16.6122
 31
0.0
  0
LINE
  8
0
 62
     0
 10
202.357
 20
16.6122
 30
0.0
 11
202.357
 21
14.3426
 31
0.0
  0
LINE
  8
0
 62
     0
 10
202.357
 20
14.3426
 30
0.0
 11
203.932
 21
14.3426
 31
0.0
  0
LINE
  8
0
 62
     0
 10
203.932
 20
14.3426
 30
0.0
 11
203.932
 21
15.1419
 31
0.0
  0
LINE
  8
0
 62
     0
 10
203.932
 20
15.1419
 30
0.0
 11
210.582
 21
15.1419
 31
0.0
  0
LINE
  8
0
 62
     0
 10
210.582
 20
15.1419
 30
0.0
 11
210.582
 21
11.9131
 31
0.0
  0
LINE
  8
0
 62
     0
 10
210.582
 20
11.9131
 30
0.0
 11
211.457
 21
11.9131
 31
0.0
  0
LINE
  8
0
 62
     0
 10
211.457
 20
11.9131
 30
0.0
 11
211.457
 21
9.11158
 31
0.0
  0
LINE
  8
0
 62
     0
 10
211.457
 20
9.11158
 30
0.0
 11
210.582
 21
9.11158
 31
0.0
  0
ENDSEC
  0
EOF
