  0
SECTION
  2
HEADER
  9
$ACADVER
  1
AC1009
  9
$EXTMIN
 10
0.0
 20
0.0
 30
0.0
  9
$EXTMAX
 10
1000.0
 20
1000.0
 30
0.0
  9
$FILLMODE
 70
 0
  9
$SPLFRAME
 70
 1
  0
ENDSEC
  0
SECTION
  2
TABLES
  0
TABLE
  2
LAYER
 70
1
  0
LAYER
  2
0
 70
     0
 62
     7
  6
CONTINUOUS
  0
ENDTAB
  0
ENDSEC
  0
SECTION
  2
ENTITIES
  0
LINE
  8
0
 62
     0
 10
229.406
 20
153.438
 30
0.0
 11
229.799
 21
153.422
 31
0.0
  0
LINE
  8
0
 62
     0
 10
229.799
 20
153.422
 30
0.0
 11
230.189
 21
153.376
 31
0.0
  0
LINE
  8
0
 62
     0
 10
230.189
 20
153.376
 30
0.0
 11
230.573
 21
153.3
 31
0.0
  0
LINE
  8
0
 62
     0
 10
230.573
 20
153.3
 30
0.0
 11
230.952
 21
153.192
 31
0.0
  0
LINE
  8
0
 62
     0
 10
230.952
 20
153.192
 30
0.0
 11
231.32
 21
153.056
 31
0.0
  0
LINE
  8
0
 62
     0
 10
231.32
 20
153.056
 30
0.0
 11
231.676
 21
152.892
 31
0.0
  0
LINE
  8
0
 62
     0
 10
231.676
 20
152.892
 30
0.0
 11
232.019
 21
152.701
 31
0.0
  0
LINE
  8
0
 62
     0
 10
232.019
 20
152.701
 30
0.0
 11
232.344
 21
152.483
 31
0.0
  0
LINE
  8
0
 62
     0
 10
232.344
 20
152.483
 30
0.0
 11
232.654
 21
152.24
 31
0.0
  0
LINE
  8
0
 62
     0
 10
232.654
 20
152.24
 30
0.0
 11
232.942
 21
151.974
 31
0.0
  0
LINE
  8
0
 62
     0
 10
232.942
 20
151.974
 30
0.0
 11
233.208
 21
151.685
 31
0.0
  0
LINE
  8
0
 62
     0
 10
233.208
 20
151.685
 30
0.0
 11
233.452
 21
151.376
 31
0.0
  0
LINE
  8
0
 62
     0
 10
233.452
 20
151.376
 30
0.0
 11
233.67
 21
151.05
 31
0.0
  0
LINE
  8
0
 62
     0
 10
233.67
 20
151.05
 30
0.0
 11
233.861
 21
150.708
 31
0.0
  0
LINE
  8
0
 62
     0
 10
233.861
 20
150.708
 30
0.0
 11
234.025
 21
150.351
 31
0.0
  0
LINE
  8
0
 62
     0
 10
234.025
 20
150.351
 30
0.0
 11
234.162
 21
149.983
 31
0.0
  0
LINE
  8
0
 62
     0
 10
234.162
 20
149.983
 30
0.0
 11
234.268
 21
149.604
 31
0.0
  0
LINE
  8
0
 62
     0
 10
234.268
 20
149.604
 30
0.0
 11
234.345
 21
149.219
 31
0.0
  0
LINE
  8
0
 62
     0
 10
234.345
 20
149.219
 30
0.0
 11
234.39
 21
148.83
 31
0.0
  0
LINE
  8
0
 62
     0
 10
234.39
 20
148.83
 30
0.0
 11
234.407
 21
148.438
 31
0.0
  0
LINE
  8
0
 62
     0
 10
234.407
 20
148.438
 30
0.0
 11
234.407
 21
5.08773
 31
0.0
  0
LINE
  8
0
 62
     0
 10
234.407
 20
5.08773
 30
0.0
 11
234.39
 21
4.69498
 31
0.0
  0
LINE
  8
0
 62
     0
 10
234.39
 20
4.69498
 30
0.0
 11
234.345
 21
4.30498
 31
0.0
  0
LINE
  8
0
 62
     0
 10
234.345
 20
4.30498
 30
0.0
 11
234.268
 21
3.92053
 31
0.0
  0
LINE
  8
0
 62
     0
 10
234.268
 20
3.92053
 30
0.0
 11
234.162
 21
3.54295
 31
0.0
  0
LINE
  8
0
 62
     0
 10
234.162
 20
3.54295
 30
0.0
 11
234.025
 21
3.175
 31
0.0
  0
LINE
  8
0
 62
     0
 10
234.025
 20
3.175
 30
0.0
 11
233.861
 21
2.81809
 31
0.0
  0
LINE
  8
0
 62
     0
 10
233.861
 20
2.81809
 30
0.0
 11
233.67
 21
2.47496
 31
0.0
  0
LINE
  8
0
 62
     0
 10
233.67
 20
2.47496
 30
0.0
 11
233.452
 21
2.14836
 31
0.0
  0
LINE
  8
0
 62
     0
 10
233.452
 20
2.14836
 30
0.0
 11
233.208
 21
1.84106
 31
0.0
  0
LINE
  8
0
 62
     0
 10
233.208
 20
1.84106
 30
0.0
 11
232.942
 21
1.55167
 31
0.0
  0
LINE
  8
0
 62
     0
 10
232.942
 20
1.55167
 30
0.0
 11
232.654
 21
1.28571
 31
0.0
  0
LINE
  8
0
 62
     0
 10
232.654
 20
1.28571
 30
0.0
 11
232.344
 21
1.04317
 31
0.0
  0
LINE
  8
0
 62
     0
 10
232.344
 20
1.04317
 30
0.0
 11
232.019
 21
0.824068
 31
0.0
  0
LINE
  8
0
 62
     0
 10
232.019
 20
0.824068
 30
0.0
 11
231.676
 21
0.63252
 31
0.0
  0
LINE
  8
0
 62
     0
 10
231.676
 20
0.63252
 30
0.0
 11
231.32
 21
0.468535
 31
0.0
  0
LINE
  8
0
 62
     0
 10
231.32
 20
0.468535
 30
0.0
 11
230.952
 21
0.332107
 31
0.0
  0
LINE
  8
0
 62
     0
 10
230.952
 20
0.332107
 30
0.0
 11
230.573
 21
0.225998
 31
0.0
  0
LINE
  8
0
 62
     0
 10
230.573
 20
0.225998
 30
0.0
 11
230.189
 21
0.150206
 31
0.0
  0
LINE
  8
0
 62
     0
 10
230.189
 20
0.150206
 30
0.0
 11
229.799
 21
0.101975
 31
0.0
  0
LINE
  8
0
 62
     0
 10
229.799
 20
0.101975
 30
0.0
 11
229.406
 21
0.0881944
 31
0.0
  0
LINE
  8
0
 62
     0
 10
229.406
 20
0.0881944
 30
0.0
 11
5.09323
 21
0.0881944
 31
0.0
  0
LINE
  8
0
 62
     0
 10
5.09323
 20
0.0881944
 30
0.0
 11
4.70186
 21
0.101975
 31
0.0
  0
LINE
  8
0
 62
     0
 10
4.70186
 20
0.101975
 30
0.0
 11
4.3119
 21
0.150206
 31
0.0
  0
LINE
  8
0
 62
     0
 10
4.3119
 20
0.150206
 30
0.0
 11
3.9274
 21
0.225998
 31
0.0
  0
LINE
  8
0
 62
     0
 10
3.9274
 20
0.225998
 30
0.0
 11
3.54845
 21
0.332107
 31
0.0
  0
LINE
  8
0
 62
     0
 10
3.54845
 20
0.332107
 30
0.0
 11
3.18051
 21
0.468535
 31
0.0
  0
LINE
  8
0
 62
     0
 10
3.18051
 20
0.468535
 30
0.0
 11
2.8236
 21
0.63252
 31
0.0
  0
LINE
  8
0
 62
     0
 10
2.8236
 20
0.63252
 30
0.0
 11
2.48185
 21
0.824068
 31
0.0
  0
LINE
  8
0
 62
     0
 10
2.48185
 20
0.824068
 30
0.0
 11
2.15525
 21
1.04317
 31
0.0
  0
LINE
  8
0
 62
     0
 10
2.15525
 20
1.04317
 30
0.0
 11
1.84657
 21
1.28571
 31
0.0
  0
LINE
  8
0
 62
     0
 10
1.84657
 20
1.28571
 30
0.0
 11
1.55718
 21
1.55167
 31
0.0
  0
LINE
  8
0
 62
     0
 10
1.55718
 20
1.55167
 30
0.0
 11
1.29122
 21
1.84106
 31
0.0
  0
LINE
  8
0
 62
     0
 10
1.29122
 20
1.84106
 30
0.0
 11
1.04869
 21
2.14836
 31
0.0
  0
LINE
  8
0
 62
     0
 10
1.04869
 20
2.14836
 30
0.0
 11
0.830957
 21
2.47496
 31
0.0
  0
LINE
  8
0
 62
     0
 10
0.830957
 20
2.47496
 30
0.0
 11
0.63941
 21
2.81809
 31
0.0
  0
LINE
  8
0
 62
     0
 10
0.63941
 20
2.81809
 30
0.0
 11
0.475424
 21
3.175
 31
0.0
  0
LINE
  8
0
 62
     0
 10
0.475424
 20
3.175
 30
0.0
 11
0.338998
 21
3.54295
 31
0.0
  0
LINE
  8
0
 62
     0
 10
0.338998
 20
3.54295
 30
0.0
 11
0.23151
 21
3.92053
 31
0.0
  0
LINE
  8
0
 62
     0
 10
0.23151
 20
3.92053
 30
0.0
 11
0.155718
 21
4.30498
 31
0.0
  0
LINE
  8
0
 62
     0
 10
0.155718
 20
4.30498
 30
0.0
 11
0.108865
 21
4.69498
 31
0.0
  0
LINE
  8
0
 62
     0
 10
0.108865
 20
4.69498
 30
0.0
 11
0.0937066
 21
5.08773
 31
0.0
  0
LINE
  8
0
 62
     0
 10
0.0937066
 20
5.08773
 30
0.0
 11
0.0937066
 21
148.438
 31
0.0
  0
LINE
  8
0
 62
     0
 10
0.0937066
 20
148.438
 30
0.0
 11
0.108865
 21
148.83
 31
0.0
  0
LINE
  8
0
 62
     0
 10
0.108865
 20
148.83
 30
0.0
 11
0.155718
 21
149.219
 31
0.0
  0
LINE
  8
0
 62
     0
 10
0.155718
 20
149.219
 30
0.0
 11
0.23151
 21
149.604
 31
0.0
  0
LINE
  8
0
 62
     0
 10
0.23151
 20
149.604
 30
0.0
 11
0.338998
 21
149.983
 31
0.0
  0
LINE
  8
0
 62
     0
 10
0.338998
 20
149.983
 30
0.0
 11
0.475424
 21
150.351
 31
0.0
  0
LINE
  8
0
 62
     0
 10
0.475424
 20
150.351
 30
0.0
 11
0.63941
 21
150.708
 31
0.0
  0
LINE
  8
0
 62
     0
 10
0.63941
 20
150.708
 30
0.0
 11
0.830957
 21
151.05
 31
0.0
  0
LINE
  8
0
 62
     0
 10
0.830957
 20
151.05
 30
0.0
 11
1.04869
 21
151.376
 31
0.0
  0
LINE
  8
0
 62
     0
 10
1.04869
 20
151.376
 30
0.0
 11
1.29122
 21
151.685
 31
0.0
  0
LINE
  8
0
 62
     0
 10
1.29122
 20
151.685
 30
0.0
 11
1.55718
 21
151.974
 31
0.0
  0
LINE
  8
0
 62
     0
 10
1.55718
 20
151.974
 30
0.0
 11
1.84657
 21
152.24
 31
0.0
  0
LINE
  8
0
 62
     0
 10
1.84657
 20
152.24
 30
0.0
 11
2.15525
 21
152.483
 31
0.0
  0
LINE
  8
0
 62
     0
 10
2.15525
 20
152.483
 30
0.0
 11
2.48185
 21
152.701
 31
0.0
  0
LINE
  8
0
 62
     0
 10
2.48185
 20
152.701
 30
0.0
 11
2.8236
 21
152.892
 31
0.0
  0
LINE
  8
0
 62
     0
 10
2.8236
 20
152.892
 30
0.0
 11
3.18051
 21
153.056
 31
0.0
  0
LINE
  8
0
 62
     0
 10
3.18051
 20
153.056
 30
0.0
 11
3.54845
 21
153.192
 31
0.0
  0
LINE
  8
0
 62
     0
 10
3.54845
 20
153.192
 30
0.0
 11
3.9274
 21
153.3
 31
0.0
  0
LINE
  8
0
 62
     0
 10
3.9274
 20
153.3
 30
0.0
 11
4.3119
 21
153.376
 31
0.0
  0
LINE
  8
0
 62
     0
 10
4.3119
 20
153.376
 30
0.0
 11
4.70186
 21
153.422
 31
0.0
  0
LINE
  8
0
 62
     0
 10
4.70186
 20
153.422
 30
0.0
 11
5.09323
 21
153.438
 31
0.0
  0
LINE
  8
0
 62
     0
 10
5.09323
 20
153.438
 30
0.0
 11
229.406
 21
153.438
 31
0.0
  0
LINE
  8
0
 62
     0
 10
28.9994
 20
127.912
 30
0.0
 11
28.9994
 21
126.913
 31
0.0
  0
LINE
  8
0
 62
     0
 10
28.9994
 20
126.913
 30
0.0
 11
14.9999
 21
126.913
 31
0.0
  0
LINE
  8
0
 62
     0
 10
14.9999
 20
126.913
 30
0.0
 11
14.9999
 21
127.912
 31
0.0
  0
LINE
  8
0
 62
     0
 10
14.9999
 20
127.912
 30
0.0
 11
14.1993
 21
127.912
 31
0.0
  0
LINE
  8
0
 62
     0
 10
14.1993
 20
127.912
 30
0.0
 11
14.1993
 21
131.013
 31
0.0
  0
LINE
  8
0
 62
     0
 10
14.1993
 20
131.013
 30
0.0
 11
14.9999
 21
131.013
 31
0.0
  0
LINE
  8
0
 62
     0
 10
14.9999
 20
131.013
 30
0.0
 11
14.9999
 21
136.813
 31
0.0
  0
LINE
  8
0
 62
     0
 10
14.9999
 20
136.813
 30
0.0
 11
14.1993
 21
136.813
 31
0.0
  0
LINE
  8
0
 62
     0
 10
14.1993
 20
136.813
 30
0.0
 11
14.1993
 21
139.912
 31
0.0
  0
LINE
  8
0
 62
     0
 10
14.1993
 20
139.912
 30
0.0
 11
14.9999
 21
139.912
 31
0.0
  0
LINE
  8
0
 62
     0
 10
14.9999
 20
139.912
 30
0.0
 11
14.9999
 21
140.913
 31
0.0
  0
LINE
  8
0
 62
     0
 10
14.9999
 20
140.913
 30
0.0
 11
28.9994
 21
140.913
 31
0.0
  0
LINE
  8
0
 62
     0
 10
28.9994
 20
140.913
 30
0.0
 11
28.9994
 21
139.912
 31
0.0
  0
LINE
  8
0
 62
     0
 10
28.9994
 20
139.912
 30
0.0
 11
29.8001
 21
139.912
 31
0.0
  0
LINE
  8
0
 62
     0
 10
29.8001
 20
139.912
 30
0.0
 11
29.8001
 21
136.813
 31
0.0
  0
LINE
  8
0
 62
     0
 10
29.8001
 20
136.813
 30
0.0
 11
28.9994
 21
136.813
 31
0.0
  0
LINE
  8
0
 62
     0
 10
28.9994
 20
136.813
 30
0.0
 11
28.9994
 21
131.013
 31
0.0
  0
LINE
  8
0
 62
     0
 10
28.9994
 20
131.013
 30
0.0
 11
29.8001
 21
131.013
 31
0.0
  0
LINE
  8
0
 62
     0
 10
29.8001
 20
131.013
 30
0.0
 11
29.8001
 21
127.912
 31
0.0
  0
LINE
  8
0
 62
     0
 10
29.8001
 20
127.912
 30
0.0
 11
28.9994
 21
127.912
 31
0.0
  0
LINE
  8
0
 62
     0
 10
28.9994
 20
70.7623
 30
0.0
 11
28.9994
 21
69.7632
 31
0.0
  0
LINE
  8
0
 62
     0
 10
28.9994
 20
69.7632
 30
0.0
 11
14.9999
 21
69.7632
 31
0.0
  0
LINE
  8
0
 62
     0
 10
14.9999
 20
69.7632
 30
0.0
 11
14.9999
 21
70.7623
 31
0.0
  0
LINE
  8
0
 62
     0
 10
14.9999
 20
70.7623
 30
0.0
 11
14.1993
 21
70.7623
 31
0.0
  0
LINE
  8
0
 62
     0
 10
14.1993
 20
70.7623
 30
0.0
 11
14.1993
 21
73.8628
 31
0.0
  0
LINE
  8
0
 62
     0
 10
14.1993
 20
73.8628
 30
0.0
 11
14.9999
 21
73.8628
 31
0.0
  0
LINE
  8
0
 62
     0
 10
14.9999
 20
73.8628
 30
0.0
 11
14.9999
 21
79.6629
 31
0.0
  0
LINE
  8
0
 62
     0
 10
14.9999
 20
79.6629
 30
0.0
 11
14.1993
 21
79.6629
 31
0.0
  0
LINE
  8
0
 62
     0
 10
14.1993
 20
79.6629
 30
0.0
 11
14.1993
 21
82.7624
 31
0.0
  0
LINE
  8
0
 62
     0
 10
14.1993
 20
82.7624
 30
0.0
 11
14.9999
 21
82.7624
 31
0.0
  0
LINE
  8
0
 62
     0
 10
14.9999
 20
82.7624
 30
0.0
 11
14.9999
 21
83.7629
 31
0.0
  0
LINE
  8
0
 62
     0
 10
14.9999
 20
83.7629
 30
0.0
 11
28.9994
 21
83.7629
 31
0.0
  0
LINE
  8
0
 62
     0
 10
28.9994
 20
83.7629
 30
0.0
 11
28.9994
 21
82.7624
 31
0.0
  0
LINE
  8
0
 62
     0
 10
28.9994
 20
82.7624
 30
0.0
 11
29.8001
 21
82.7624
 31
0.0
  0
LINE
  8
0
 62
     0
 10
29.8001
 20
82.7624
 30
0.0
 11
29.8001
 21
79.6629
 31
0.0
  0
LINE
  8
0
 62
     0
 10
29.8001
 20
79.6629
 30
0.0
 11
28.9994
 21
79.6629
 31
0.0
  0
LINE
  8
0
 62
     0
 10
28.9994
 20
79.6629
 30
0.0
 11
28.9994
 21
73.8628
 31
0.0
  0
LINE
  8
0
 62
     0
 10
28.9994
 20
73.8628
 30
0.0
 11
29.8001
 21
73.8628
 31
0.0
  0
LINE
  8
0
 62
     0
 10
29.8001
 20
73.8628
 30
0.0
 11
29.8001
 21
70.7623
 31
0.0
  0
LINE
  8
0
 62
     0
 10
29.8001
 20
70.7623
 30
0.0
 11
28.9994
 21
70.7623
 31
0.0
  0
LINE
  8
0
 62
     0
 10
28.9994
 20
51.7123
 30
0.0
 11
28.9994
 21
50.7132
 31
0.0
  0
LINE
  8
0
 62
     0
 10
28.9994
 20
50.7132
 30
0.0
 11
14.9999
 21
50.7132
 31
0.0
  0
LINE
  8
0
 62
     0
 10
14.9999
 20
50.7132
 30
0.0
 11
14.9999
 21
51.7123
 31
0.0
  0
LINE
  8
0
 62
     0
 10
14.9999
 20
51.7123
 30
0.0
 11
14.1993
 21
51.7123
 31
0.0
  0
LINE
  8
0
 62
     0
 10
14.1993
 20
51.7123
 30
0.0
 11
14.1993
 21
54.8128
 31
0.0
  0
LINE
  8
0
 62
     0
 10
14.1993
 20
54.8128
 30
0.0
 11
14.9999
 21
54.8128
 31
0.0
  0
LINE
  8
0
 62
     0
 10
14.9999
 20
54.8128
 30
0.0
 11
14.9999
 21
60.6129
 31
0.0
  0
LINE
  8
0
 62
     0
 10
14.9999
 20
60.6129
 30
0.0
 11
14.1993
 21
60.6129
 31
0.0
  0
LINE
  8
0
 62
     0
 10
14.1993
 20
60.6129
 30
0.0
 11
14.1993
 21
63.7124
 31
0.0
  0
LINE
  8
0
 62
     0
 10
14.1993
 20
63.7124
 30
0.0
 11
14.9999
 21
63.7124
 31
0.0
  0
LINE
  8
0
 62
     0
 10
14.9999
 20
63.7124
 30
0.0
 11
14.9999
 21
64.7129
 31
0.0
  0
LINE
  8
0
 62
     0
 10
14.9999
 20
64.7129
 30
0.0
 11
28.9994
 21
64.7129
 31
0.0
  0
LINE
  8
0
 62
     0
 10
28.9994
 20
64.7129
 30
0.0
 11
28.9994
 21
63.7124
 31
0.0
  0
LINE
  8
0
 62
     0
 10
28.9994
 20
63.7124
 30
0.0
 11
29.8001
 21
63.7124
 31
0.0
  0
LINE
  8
0
 62
     0
 10
29.8001
 20
63.7124
 30
0.0
 11
29.8001
 21
60.6129
 31
0.0
  0
LINE
  8
0
 62
     0
 10
29.8001
 20
60.6129
 30
0.0
 11
28.9994
 21
60.6129
 31
0.0
  0
LINE
  8
0
 62
     0
 10
28.9994
 20
60.6129
 30
0.0
 11
28.9994
 21
54.8128
 31
0.0
  0
LINE
  8
0
 62
     0
 10
28.9994
 20
54.8128
 30
0.0
 11
29.8001
 21
54.8128
 31
0.0
  0
LINE
  8
0
 62
     0
 10
29.8001
 20
54.8128
 30
0.0
 11
29.8001
 21
51.7123
 31
0.0
  0
LINE
  8
0
 62
     0
 10
29.8001
 20
51.7123
 30
0.0
 11
28.9994
 21
51.7123
 31
0.0
  0
LINE
  8
0
 62
     0
 10
31.3821
 20
32.6622
 30
0.0
 11
31.3821
 21
31.6632
 31
0.0
  0
LINE
  8
0
 62
     0
 10
31.3821
 20
31.6632
 30
0.0
 11
17.3812
 21
31.6632
 31
0.0
  0
LINE
  8
0
 62
     0
 10
17.3812
 20
31.6632
 30
0.0
 11
17.3812
 21
32.6622
 31
0.0
  0
LINE
  8
0
 62
     0
 10
17.3812
 20
32.6622
 30
0.0
 11
16.5819
 21
32.6622
 31
0.0
  0
LINE
  8
0
 62
     0
 10
16.5819
 20
32.6622
 30
0.0
 11
16.5819
 21
35.7628
 31
0.0
  0
LINE
  8
0
 62
     0
 10
16.5819
 20
35.7628
 30
0.0
 11
17.3812
 21
35.7628
 31
0.0
  0
LINE
  8
0
 62
     0
 10
17.3812
 20
35.7628
 30
0.0
 11
17.3812
 21
41.5629
 31
0.0
  0
LINE
  8
0
 62
     0
 10
17.3812
 20
41.5629
 30
0.0
 11
16.5819
 21
41.5629
 31
0.0
  0
LINE
  8
0
 62
     0
 10
16.5819
 20
41.5629
 30
0.0
 11
16.5819
 21
44.6624
 31
0.0
  0
LINE
  8
0
 62
     0
 10
16.5819
 20
44.6624
 30
0.0
 11
17.3812
 21
44.6624
 31
0.0
  0
LINE
  8
0
 62
     0
 10
17.3812
 20
44.6624
 30
0.0
 11
17.3812
 21
45.6629
 31
0.0
  0
LINE
  8
0
 62
     0
 10
17.3812
 20
45.6629
 30
0.0
 11
31.3821
 21
45.6629
 31
0.0
  0
LINE
  8
0
 62
     0
 10
31.3821
 20
45.6629
 30
0.0
 11
31.3821
 21
44.6624
 31
0.0
  0
LINE
  8
0
 62
     0
 10
31.3821
 20
44.6624
 30
0.0
 11
32.1813
 21
44.6624
 31
0.0
  0
LINE
  8
0
 62
     0
 10
32.1813
 20
44.6624
 30
0.0
 11
32.1813
 21
41.5629
 31
0.0
  0
LINE
  8
0
 62
     0
 10
32.1813
 20
41.5629
 30
0.0
 11
31.3821
 21
41.5629
 31
0.0
  0
LINE
  8
0
 62
     0
 10
31.3821
 20
41.5629
 30
0.0
 11
31.3821
 21
35.7628
 31
0.0
  0
LINE
  8
0
 62
     0
 10
31.3821
 20
35.7628
 30
0.0
 11
32.1813
 21
35.7628
 31
0.0
  0
LINE
  8
0
 62
     0
 10
32.1813
 20
35.7628
 30
0.0
 11
32.1813
 21
32.6622
 31
0.0
  0
LINE
  8
0
 62
     0
 10
32.1813
 20
32.6622
 30
0.0
 11
31.3821
 21
32.6622
 31
0.0
  0
LINE
  8
0
 62
     0
 10
33.7633
 20
13.6122
 30
0.0
 11
33.7633
 21
12.6132
 31
0.0
  0
LINE
  8
0
 62
     0
 10
33.7633
 20
12.6132
 30
0.0
 11
19.7624
 21
12.6132
 31
0.0
  0
LINE
  8
0
 62
     0
 10
19.7624
 20
12.6132
 30
0.0
 11
19.7624
 21
13.6122
 31
0.0
  0
LINE
  8
0
 62
     0
 10
19.7624
 20
13.6122
 30
0.0
 11
18.9632
 21
13.6122
 31
0.0
  0
LINE
  8
0
 62
     0
 10
18.9632
 20
13.6122
 30
0.0
 11
18.9632
 21
16.7128
 31
0.0
  0
LINE
  8
0
 62
     0
 10
18.9632
 20
16.7128
 30
0.0
 11
19.7624
 21
16.7128
 31
0.0
  0
LINE
  8
0
 62
     0
 10
19.7624
 20
16.7128
 30
0.0
 11
19.7624
 21
22.513
 31
0.0
  0
LINE
  8
0
 62
     0
 10
19.7624
 20
22.513
 30
0.0
 11
18.9632
 21
22.513
 31
0.0
  0
LINE
  8
0
 62
     0
 10
18.9632
 20
22.513
 30
0.0
 11
18.9632
 21
25.6122
 31
0.0
  0
LINE
  8
0
 62
     0
 10
18.9632
 20
25.6122
 30
0.0
 11
19.7624
 21
25.6122
 31
0.0
  0
LINE
  8
0
 62
     0
 10
19.7624
 20
25.6122
 30
0.0
 11
19.7624
 21
26.6127
 31
0.0
  0
LINE
  8
0
 62
     0
 10
19.7624
 20
26.6127
 30
0.0
 11
33.7633
 21
26.6127
 31
0.0
  0
LINE
  8
0
 62
     0
 10
33.7633
 20
26.6127
 30
0.0
 11
33.7633
 21
25.6122
 31
0.0
  0
LINE
  8
0
 62
     0
 10
33.7633
 20
25.6122
 30
0.0
 11
34.5626
 21
25.6122
 31
0.0
  0
LINE
  8
0
 62
     0
 10
34.5626
 20
25.6122
 30
0.0
 11
34.5626
 21
22.513
 31
0.0
  0
LINE
  8
0
 62
     0
 10
34.5626
 20
22.513
 30
0.0
 11
33.7633
 21
22.513
 31
0.0
  0
LINE
  8
0
 62
     0
 10
33.7633
 20
22.513
 30
0.0
 11
33.7633
 21
16.7128
 31
0.0
  0
LINE
  8
0
 62
     0
 10
33.7633
 20
16.7128
 30
0.0
 11
34.5626
 21
16.7128
 31
0.0
  0
LINE
  8
0
 62
     0
 10
34.5626
 20
16.7128
 30
0.0
 11
34.5626
 21
13.6122
 31
0.0
  0
LINE
  8
0
 62
     0
 10
34.5626
 20
13.6122
 30
0.0
 11
33.7633
 21
13.6122
 31
0.0
  0
LINE
  8
0
 62
     0
 10
49.1314
 20
114.362
 30
0.0
 11
49.1314
 21
108.092
 31
0.0
  0
LINE
  8
0
 62
     0
 10
49.1314
 20
108.092
 30
0.0
 11
47.5065
 21
108.092
 31
0.0
  0
LINE
  8
0
 62
     0
 10
47.5065
 20
108.092
 30
0.0
 11
47.5065
 21
106.893
 31
0.0
  0
LINE
  8
0
 62
     0
 10
47.5065
 20
106.893
 30
0.0
 11
44.2062
 21
106.893
 31
0.0
  0
LINE
  8
0
 62
     0
 10
44.2062
 20
106.893
 30
0.0
 11
44.2062
 21
108.092
 31
0.0
  0
LINE
  8
0
 62
     0
 10
44.2062
 20
108.092
 30
0.0
 11
42.4822
 21
108.092
 31
0.0
  0
LINE
  8
0
 62
     0
 10
42.4822
 20
108.092
 30
0.0
 11
42.4822
 21
108.893
 31
0.0
  0
LINE
  8
0
 62
     0
 10
42.4822
 20
108.893
 30
0.0
 11
41.7064
 21
108.893
 31
0.0
  0
LINE
  8
0
 62
     0
 10
41.7064
 20
108.893
 30
0.0
 11
41.7064
 21
108.862
 31
0.0
  0
LINE
  8
0
 62
     0
 10
41.7064
 20
108.862
 30
0.0
 11
40.9056
 21
108.862
 31
0.0
  0
LINE
  8
0
 62
     0
 10
40.9056
 20
108.862
 30
0.0
 11
40.9056
 21
107.863
 31
0.0
  0
LINE
  8
0
 62
     0
 10
40.9056
 20
107.863
 30
0.0
 11
26.9062
 21
107.863
 31
0.0
  0
LINE
  8
0
 62
     0
 10
26.9062
 20
107.863
 30
0.0
 11
26.9062
 21
108.862
 31
0.0
  0
LINE
  8
0
 62
     0
 10
26.9062
 20
108.862
 30
0.0
 11
26.1056
 21
108.862
 31
0.0
  0
LINE
  8
0
 62
     0
 10
26.1056
 20
108.862
 30
0.0
 11
26.1056
 21
108.893
 31
0.0
  0
LINE
  8
0
 62
     0
 10
26.1056
 20
108.893
 30
0.0
 11
25.3311
 21
108.893
 31
0.0
  0
LINE
  8
0
 62
     0
 10
25.3311
 20
108.893
 30
0.0
 11
25.3311
 21
108.092
 31
0.0
  0
LINE
  8
0
 62
     0
 10
25.3311
 20
108.092
 30
0.0
 11
23.6058
 21
108.092
 31
0.0
  0
LINE
  8
0
 62
     0
 10
23.6058
 20
108.092
 30
0.0
 11
23.6058
 21
106.893
 31
0.0
  0
LINE
  8
0
 62
     0
 10
23.6058
 20
106.893
 30
0.0
 11
20.3054
 21
106.893
 31
0.0
  0
LINE
  8
0
 62
     0
 10
20.3054
 20
106.893
 30
0.0
 11
20.3054
 21
108.092
 31
0.0
  0
LINE
  8
0
 62
     0
 10
20.3054
 20
108.092
 30
0.0
 11
18.6807
 21
108.092
 31
0.0
  0
LINE
  8
0
 62
     0
 10
18.6807
 20
108.092
 30
0.0
 11
18.6807
 21
114.362
 31
0.0
  0
LINE
  8
0
 62
     0
 10
18.6807
 20
114.362
 30
0.0
 11
17.8056
 21
114.362
 31
0.0
  0
LINE
  8
0
 62
     0
 10
17.8056
 20
114.362
 30
0.0
 11
17.8056
 21
117.162
 31
0.0
  0
LINE
  8
0
 62
     0
 10
17.8056
 20
117.162
 30
0.0
 11
18.6807
 21
117.162
 31
0.0
  0
LINE
  8
0
 62
     0
 10
18.6807
 20
117.162
 30
0.0
 11
18.6807
 21
120.392
 31
0.0
  0
LINE
  8
0
 62
     0
 10
18.6807
 20
120.392
 30
0.0
 11
25.3311
 21
120.392
 31
0.0
  0
LINE
  8
0
 62
     0
 10
25.3311
 20
120.392
 30
0.0
 11
25.3311
 21
119.593
 31
0.0
  0
LINE
  8
0
 62
     0
 10
25.3311
 20
119.593
 30
0.0
 11
26.1056
 21
119.593
 31
0.0
  0
LINE
  8
0
 62
     0
 10
26.1056
 20
119.593
 30
0.0
 11
26.1056
 21
120.862
 31
0.0
  0
LINE
  8
0
 62
     0
 10
26.1056
 20
120.862
 30
0.0
 11
26.9062
 21
120.862
 31
0.0
  0
LINE
  8
0
 62
     0
 10
26.9062
 20
120.862
 30
0.0
 11
26.9062
 21
121.863
 31
0.0
  0
LINE
  8
0
 62
     0
 10
26.9062
 20
121.863
 30
0.0
 11
40.9056
 21
121.863
 31
0.0
  0
LINE
  8
0
 62
     0
 10
40.9056
 20
121.863
 30
0.0
 11
40.9056
 21
120.862
 31
0.0
  0
LINE
  8
0
 62
     0
 10
40.9056
 20
120.862
 30
0.0
 11
41.7064
 21
120.862
 31
0.0
  0
LINE
  8
0
 62
     0
 10
41.7064
 20
120.862
 30
0.0
 11
41.7064
 21
119.593
 31
0.0
  0
LINE
  8
0
 62
     0
 10
41.7064
 20
119.593
 30
0.0
 11
42.4822
 21
119.593
 31
0.0
  0
LINE
  8
0
 62
     0
 10
42.4822
 20
119.593
 30
0.0
 11
42.4822
 21
120.392
 31
0.0
  0
LINE
  8
0
 62
     0
 10
42.4822
 20
120.392
 30
0.0
 11
49.1314
 21
120.392
 31
0.0
  0
LINE
  8
0
 62
     0
 10
49.1314
 20
120.392
 30
0.0
 11
49.1314
 21
117.162
 31
0.0
  0
LINE
  8
0
 62
     0
 10
49.1314
 20
117.162
 30
0.0
 11
50.0063
 21
117.162
 31
0.0
  0
LINE
  8
0
 62
     0
 10
50.0063
 20
117.162
 30
0.0
 11
50.0063
 21
114.362
 31
0.0
  0
LINE
  8
0
 62
     0
 10
50.0063
 20
114.362
 30
0.0
 11
49.1314
 21
114.362
 31
0.0
  0
LINE
  8
0
 62
     0
 10
50.4306
 20
127.912
 30
0.0
 11
50.4306
 21
126.913
 31
0.0
  0
LINE
  8
0
 62
     0
 10
50.4306
 20
126.913
 30
0.0
 11
36.4314
 21
126.913
 31
0.0
  0
LINE
  8
0
 62
     0
 10
36.4314
 20
126.913
 30
0.0
 11
36.4314
 21
127.912
 31
0.0
  0
LINE
  8
0
 62
     0
 10
36.4314
 20
127.912
 30
0.0
 11
35.632
 21
127.912
 31
0.0
  0
LINE
  8
0
 62
     0
 10
35.632
 20
127.912
 30
0.0
 11
35.632
 21
131.013
 31
0.0
  0
LINE
  8
0
 62
     0
 10
35.632
 20
131.013
 30
0.0
 11
36.4314
 21
131.013
 31
0.0
  0
LINE
  8
0
 62
     0
 10
36.4314
 20
131.013
 30
0.0
 11
36.4314
 21
136.813
 31
0.0
  0
LINE
  8
0
 62
     0
 10
36.4314
 20
136.813
 30
0.0
 11
35.632
 21
136.813
 31
0.0
  0
LINE
  8
0
 62
     0
 10
35.632
 20
136.813
 30
0.0
 11
35.632
 21
139.912
 31
0.0
  0
LINE
  8
0
 62
     0
 10
35.632
 20
139.912
 30
0.0
 11
36.4314
 21
139.912
 31
0.0
  0
LINE
  8
0
 62
     0
 10
36.4314
 20
139.912
 30
0.0
 11
36.4314
 21
140.913
 31
0.0
  0
LINE
  8
0
 62
     0
 10
36.4314
 20
140.913
 30
0.0
 11
50.4306
 21
140.913
 31
0.0
  0
LINE
  8
0
 62
     0
 10
50.4306
 20
140.913
 30
0.0
 11
50.4306
 21
139.912
 31
0.0
  0
LINE
  8
0
 62
     0
 10
50.4306
 20
139.912
 30
0.0
 11
51.2314
 21
139.912
 31
0.0
  0
LINE
  8
0
 62
     0
 10
51.2314
 20
139.912
 30
0.0
 11
51.2314
 21
136.813
 31
0.0
  0
LINE
  8
0
 62
     0
 10
51.2314
 20
136.813
 30
0.0
 11
50.4306
 21
136.813
 31
0.0
  0
LINE
  8
0
 62
     0
 10
50.4306
 20
136.813
 30
0.0
 11
50.4306
 21
131.013
 31
0.0
  0
LINE
  8
0
 62
     0
 10
50.4306
 20
131.013
 30
0.0
 11
51.2314
 21
131.013
 31
0.0
  0
LINE
  8
0
 62
     0
 10
51.2314
 20
131.013
 30
0.0
 11
51.2314
 21
127.912
 31
0.0
  0
LINE
  8
0
 62
     0
 10
51.2314
 20
127.912
 30
0.0
 11
50.4306
 21
127.912
 31
0.0
  0
LINE
  8
0
 62
     0
 10
51.5126
 20
95.3121
 30
0.0
 11
51.5126
 21
89.0418
 31
0.0
  0
LINE
  8
0
 62
     0
 10
51.5126
 20
89.0418
 30
0.0
 11
49.8877
 21
89.0418
 31
0.0
  0
LINE
  8
0
 62
     0
 10
49.8877
 20
89.0418
 30
0.0
 11
49.8877
 21
87.8431
 31
0.0
  0
LINE
  8
0
 62
     0
 10
49.8877
 20
87.8431
 30
0.0
 11
46.5875
 21
87.8431
 31
0.0
  0
LINE
  8
0
 62
     0
 10
46.5875
 20
87.8431
 30
0.0
 11
46.5875
 21
89.0418
 31
0.0
  0
LINE
  8
0
 62
     0
 10
46.5875
 20
89.0418
 30
0.0
 11
44.8635
 21
89.0418
 31
0.0
  0
LINE
  8
0
 62
     0
 10
44.8635
 20
89.0418
 30
0.0
 11
44.8635
 21
89.8426
 31
0.0
  0
LINE
  8
0
 62
     0
 10
44.8635
 20
89.8426
 30
0.0
 11
44.0877
 21
89.8426
 31
0.0
  0
LINE
  8
0
 62
     0
 10
44.0877
 20
89.8426
 30
0.0
 11
44.0877
 21
89.8123
 31
0.0
  0
LINE
  8
0
 62
     0
 10
44.0877
 20
89.8123
 30
0.0
 11
43.2883
 21
89.8123
 31
0.0
  0
LINE
  8
0
 62
     0
 10
43.2883
 20
89.8123
 30
0.0
 11
43.2883
 21
88.8132
 31
0.0
  0
LINE
  8
0
 62
     0
 10
43.2883
 20
88.8132
 30
0.0
 11
29.2874
 21
88.8132
 31
0.0
  0
LINE
  8
0
 62
     0
 10
29.2874
 20
88.8132
 30
0.0
 11
29.2874
 21
89.8123
 31
0.0
  0
LINE
  8
0
 62
     0
 10
29.2874
 20
89.8123
 30
0.0
 11
28.4882
 21
89.8123
 31
0.0
  0
LINE
  8
0
 62
     0
 10
28.4882
 20
89.8123
 30
0.0
 11
28.4882
 21
89.8426
 31
0.0
  0
LINE
  8
0
 62
     0
 10
28.4882
 20
89.8426
 30
0.0
 11
27.7124
 21
89.8426
 31
0.0
  0
LINE
  8
0
 62
     0
 10
27.7124
 20
89.8426
 30
0.0
 11
27.7124
 21
89.0418
 31
0.0
  0
LINE
  8
0
 62
     0
 10
27.7124
 20
89.0418
 30
0.0
 11
25.9884
 21
89.0418
 31
0.0
  0
LINE
  8
0
 62
     0
 10
25.9884
 20
89.0418
 30
0.0
 11
25.9884
 21
87.8431
 31
0.0
  0
LINE
  8
0
 62
     0
 10
25.9884
 20
87.8431
 30
0.0
 11
22.688
 21
87.8431
 31
0.0
  0
LINE
  8
0
 62
     0
 10
22.688
 20
87.8431
 30
0.0
 11
22.688
 21
89.0418
 31
0.0
  0
LINE
  8
0
 62
     0
 10
22.688
 20
89.0418
 30
0.0
 11
21.0633
 21
89.0418
 31
0.0
  0
LINE
  8
0
 62
     0
 10
21.0633
 20
89.0418
 30
0.0
 11
21.0633
 21
95.3121
 31
0.0
  0
LINE
  8
0
 62
     0
 10
21.0633
 20
95.3121
 30
0.0
 11
20.1883
 21
95.3121
 31
0.0
  0
LINE
  8
0
 62
     0
 10
20.1883
 20
95.3121
 30
0.0
 11
20.1883
 21
98.1121
 31
0.0
  0
LINE
  8
0
 62
     0
 10
20.1883
 20
98.1121
 30
0.0
 11
21.0633
 21
98.1121
 31
0.0
  0
LINE
  8
0
 62
     0
 10
21.0633
 20
98.1121
 30
0.0
 11
21.0633
 21
101.342
 31
0.0
  0
LINE
  8
0
 62
     0
 10
21.0633
 20
101.342
 30
0.0
 11
27.7124
 21
101.342
 31
0.0
  0
LINE
  8
0
 62
     0
 10
27.7124
 20
101.342
 30
0.0
 11
27.7124
 21
100.543
 31
0.0
  0
LINE
  8
0
 62
     0
 10
27.7124
 20
100.543
 30
0.0
 11
28.4882
 21
100.543
 31
0.0
  0
LINE
  8
0
 62
     0
 10
28.4882
 20
100.543
 30
0.0
 11
28.4882
 21
101.812
 31
0.0
  0
LINE
  8
0
 62
     0
 10
28.4882
 20
101.812
 30
0.0
 11
29.2874
 21
101.812
 31
0.0
  0
LINE
  8
0
 62
     0
 10
29.2874
 20
101.812
 30
0.0
 11
29.2874
 21
102.813
 31
0.0
  0
LINE
  8
0
 62
     0
 10
29.2874
 20
102.813
 30
0.0
 11
43.2883
 21
102.813
 31
0.0
  0
LINE
  8
0
 62
     0
 10
43.2883
 20
102.813
 30
0.0
 11
43.2883
 21
101.812
 31
0.0
  0
LINE
  8
0
 62
     0
 10
43.2883
 20
101.812
 30
0.0
 11
44.0877
 21
101.812
 31
0.0
  0
LINE
  8
0
 62
     0
 10
44.0877
 20
101.812
 30
0.0
 11
44.0877
 21
100.543
 31
0.0
  0
LINE
  8
0
 62
     0
 10
44.0877
 20
100.543
 30
0.0
 11
44.8635
 21
100.543
 31
0.0
  0
LINE
  8
0
 62
     0
 10
44.8635
 20
100.543
 30
0.0
 11
44.8635
 21
101.342
 31
0.0
  0
LINE
  8
0
 62
     0
 10
44.8635
 20
101.342
 30
0.0
 11
51.5126
 21
101.342
 31
0.0
  0
LINE
  8
0
 62
     0
 10
51.5126
 20
101.342
 30
0.0
 11
51.5126
 21
98.1121
 31
0.0
  0
LINE
  8
0
 62
     0
 10
51.5126
 20
98.1121
 30
0.0
 11
52.3875
 21
98.1121
 31
0.0
  0
LINE
  8
0
 62
     0
 10
52.3875
 20
98.1121
 30
0.0
 11
52.3875
 21
95.3121
 31
0.0
  0
LINE
  8
0
 62
     0
 10
52.3875
 20
95.3121
 30
0.0
 11
51.5126
 21
95.3121
 31
0.0
  0
LINE
  8
0
 62
     0
 10
55.1931
 20
51.7123
 30
0.0
 11
55.1931
 21
50.7132
 31
0.0
  0
LINE
  8
0
 62
     0
 10
55.1931
 20
50.7132
 30
0.0
 11
41.1939
 21
50.7132
 31
0.0
  0
LINE
  8
0
 62
     0
 10
41.1939
 20
50.7132
 30
0.0
 11
41.1939
 21
51.7123
 31
0.0
  0
LINE
  8
0
 62
     0
 10
41.1939
 20
51.7123
 30
0.0
 11
40.3945
 21
51.7123
 31
0.0
  0
LINE
  8
0
 62
     0
 10
40.3945
 20
51.7123
 30
0.0
 11
40.3945
 21
54.8128
 31
0.0
  0
LINE
  8
0
 62
     0
 10
40.3945
 20
54.8128
 30
0.0
 11
41.1939
 21
54.8128
 31
0.0
  0
LINE
  8
0
 62
     0
 10
41.1939
 20
54.8128
 30
0.0
 11
41.1939
 21
60.6129
 31
0.0
  0
LINE
  8
0
 62
     0
 10
41.1939
 20
60.6129
 30
0.0
 11
40.3945
 21
60.6129
 31
0.0
  0
LINE
  8
0
 62
     0
 10
40.3945
 20
60.6129
 30
0.0
 11
40.3945
 21
63.7124
 31
0.0
  0
LINE
  8
0
 62
     0
 10
40.3945
 20
63.7124
 30
0.0
 11
41.1939
 21
63.7124
 31
0.0
  0
LINE
  8
0
 62
     0
 10
41.1939
 20
63.7124
 30
0.0
 11
41.1939
 21
64.7129
 31
0.0
  0
LINE
  8
0
 62
     0
 10
41.1939
 20
64.7129
 30
0.0
 11
55.1931
 21
64.7129
 31
0.0
  0
LINE
  8
0
 62
     0
 10
55.1931
 20
64.7129
 30
0.0
 11
55.1931
 21
63.7124
 31
0.0
  0
LINE
  8
0
 62
     0
 10
55.1931
 20
63.7124
 30
0.0
 11
55.9939
 21
63.7124
 31
0.0
  0
LINE
  8
0
 62
     0
 10
55.9939
 20
63.7124
 30
0.0
 11
55.9939
 21
60.6129
 31
0.0
  0
LINE
  8
0
 62
     0
 10
55.9939
 20
60.6129
 30
0.0
 11
55.1931
 21
60.6129
 31
0.0
  0
LINE
  8
0
 62
     0
 10
55.1931
 20
60.6129
 30
0.0
 11
55.1931
 21
54.8128
 31
0.0
  0
LINE
  8
0
 62
     0
 10
55.1931
 20
54.8128
 30
0.0
 11
55.9939
 21
54.8128
 31
0.0
  0
LINE
  8
0
 62
     0
 10
55.9939
 20
54.8128
 30
0.0
 11
55.9939
 21
51.7123
 31
0.0
  0
LINE
  8
0
 62
     0
 10
55.9939
 20
51.7123
 30
0.0
 11
55.1931
 21
51.7123
 31
0.0
  0
LINE
  8
0
 62
     0
 10
55.1931
 20
32.6622
 30
0.0
 11
55.1931
 21
31.6632
 31
0.0
  0
LINE
  8
0
 62
     0
 10
55.1931
 20
31.6632
 30
0.0
 11
41.1939
 21
31.6632
 31
0.0
  0
LINE
  8
0
 62
     0
 10
41.1939
 20
31.6632
 30
0.0
 11
41.1939
 21
32.6622
 31
0.0
  0
LINE
  8
0
 62
     0
 10
41.1939
 20
32.6622
 30
0.0
 11
40.3945
 21
32.6622
 31
0.0
  0
LINE
  8
0
 62
     0
 10
40.3945
 20
32.6622
 30
0.0
 11
40.3945
 21
35.7628
 31
0.0
  0
LINE
  8
0
 62
     0
 10
40.3945
 20
35.7628
 30
0.0
 11
41.1939
 21
35.7628
 31
0.0
  0
LINE
  8
0
 62
     0
 10
41.1939
 20
35.7628
 30
0.0
 11
41.1939
 21
41.5629
 31
0.0
  0
LINE
  8
0
 62
     0
 10
41.1939
 20
41.5629
 30
0.0
 11
40.3945
 21
41.5629
 31
0.0
  0
LINE
  8
0
 62
     0
 10
40.3945
 20
41.5629
 30
0.0
 11
40.3945
 21
44.6624
 31
0.0
  0
LINE
  8
0
 62
     0
 10
40.3945
 20
44.6624
 30
0.0
 11
41.1939
 21
44.6624
 31
0.0
  0
LINE
  8
0
 62
     0
 10
41.1939
 20
44.6624
 30
0.0
 11
41.1939
 21
45.6629
 31
0.0
  0
LINE
  8
0
 62
     0
 10
41.1939
 20
45.6629
 30
0.0
 11
55.1931
 21
45.6629
 31
0.0
  0
LINE
  8
0
 62
     0
 10
55.1931
 20
45.6629
 30
0.0
 11
55.1931
 21
44.6624
 31
0.0
  0
LINE
  8
0
 62
     0
 10
55.1931
 20
44.6624
 30
0.0
 11
55.9939
 21
44.6624
 31
0.0
  0
LINE
  8
0
 62
     0
 10
55.9939
 20
44.6624
 30
0.0
 11
55.9939
 21
41.5629
 31
0.0
  0
LINE
  8
0
 62
     0
 10
55.9939
 20
41.5629
 30
0.0
 11
55.1931
 21
41.5629
 31
0.0
  0
LINE
  8
0
 62
     0
 10
55.1931
 20
41.5629
 30
0.0
 11
55.1931
 21
35.7628
 31
0.0
  0
LINE
  8
0
 62
     0
 10
55.1931
 20
35.7628
 30
0.0
 11
55.9939
 21
35.7628
 31
0.0
  0
LINE
  8
0
 62
     0
 10
55.9939
 20
35.7628
 30
0.0
 11
55.9939
 21
32.6622
 31
0.0
  0
LINE
  8
0
 62
     0
 10
55.9939
 20
32.6622
 30
0.0
 11
55.1931
 21
32.6622
 31
0.0
  0
LINE
  8
0
 62
     0
 10
57.5744
 20
70.7623
 30
0.0
 11
57.5744
 21
69.7632
 31
0.0
  0
LINE
  8
0
 62
     0
 10
57.5744
 20
69.7632
 30
0.0
 11
43.5751
 21
69.7632
 31
0.0
  0
LINE
  8
0
 62
     0
 10
43.5751
 20
69.7632
 30
0.0
 11
43.5751
 21
70.7623
 31
0.0
  0
LINE
  8
0
 62
     0
 10
43.5751
 20
70.7623
 30
0.0
 11
42.7743
 21
70.7623
 31
0.0
  0
LINE
  8
0
 62
     0
 10
42.7743
 20
70.7623
 30
0.0
 11
42.7743
 21
73.8628
 31
0.0
  0
LINE
  8
0
 62
     0
 10
42.7743
 20
73.8628
 30
0.0
 11
43.5751
 21
73.8628
 31
0.0
  0
LINE
  8
0
 62
     0
 10
43.5751
 20
73.8628
 30
0.0
 11
43.5751
 21
79.6629
 31
0.0
  0
LINE
  8
0
 62
     0
 10
43.5751
 20
79.6629
 30
0.0
 11
42.7743
 21
79.6629
 31
0.0
  0
LINE
  8
0
 62
     0
 10
42.7743
 20
79.6629
 30
0.0
 11
42.7743
 21
82.7624
 31
0.0
  0
LINE
  8
0
 62
     0
 10
42.7743
 20
82.7624
 30
0.0
 11
43.5751
 21
82.7624
 31
0.0
  0
LINE
  8
0
 62
     0
 10
43.5751
 20
82.7624
 30
0.0
 11
43.5751
 21
83.7629
 31
0.0
  0
LINE
  8
0
 62
     0
 10
43.5751
 20
83.7629
 30
0.0
 11
57.5744
 21
83.7629
 31
0.0
  0
LINE
  8
0
 62
     0
 10
57.5744
 20
83.7629
 30
0.0
 11
57.5744
 21
82.7624
 31
0.0
  0
LINE
  8
0
 62
     0
 10
57.5744
 20
82.7624
 30
0.0
 11
58.3752
 21
82.7624
 31
0.0
  0
LINE
  8
0
 62
     0
 10
58.3752
 20
82.7624
 30
0.0
 11
58.3752
 21
79.6629
 31
0.0
  0
LINE
  8
0
 62
     0
 10
58.3752
 20
79.6629
 30
0.0
 11
57.5744
 21
79.6629
 31
0.0
  0
LINE
  8
0
 62
     0
 10
57.5744
 20
79.6629
 30
0.0
 11
57.5744
 21
73.8628
 31
0.0
  0
LINE
  8
0
 62
     0
 10
57.5744
 20
73.8628
 30
0.0
 11
58.3752
 21
73.8628
 31
0.0
  0
LINE
  8
0
 62
     0
 10
58.3752
 20
73.8628
 30
0.0
 11
58.3752
 21
70.7623
 31
0.0
  0
LINE
  8
0
 62
     0
 10
58.3752
 20
70.7623
 30
0.0
 11
57.5744
 21
70.7623
 31
0.0
  0
LINE
  8
0
 62
     0
 10
69.4821
 20
127.912
 30
0.0
 11
69.4821
 21
126.913
 31
0.0
  0
LINE
  8
0
 62
     0
 10
69.4821
 20
126.913
 30
0.0
 11
55.4814
 21
126.913
 31
0.0
  0
LINE
  8
0
 62
     0
 10
55.4814
 20
126.913
 30
0.0
 11
55.4814
 21
127.912
 31
0.0
  0
LINE
  8
0
 62
     0
 10
55.4814
 20
127.912
 30
0.0
 11
54.682
 21
127.912
 31
0.0
  0
LINE
  8
0
 62
     0
 10
54.682
 20
127.912
 30
0.0
 11
54.682
 21
131.013
 31
0.0
  0
LINE
  8
0
 62
     0
 10
54.682
 20
131.013
 30
0.0
 11
55.4814
 21
131.013
 31
0.0
  0
LINE
  8
0
 62
     0
 10
55.4814
 20
131.013
 30
0.0
 11
55.4814
 21
136.813
 31
0.0
  0
LINE
  8
0
 62
     0
 10
55.4814
 20
136.813
 30
0.0
 11
54.682
 21
136.813
 31
0.0
  0
LINE
  8
0
 62
     0
 10
54.682
 20
136.813
 30
0.0
 11
54.682
 21
139.912
 31
0.0
  0
LINE
  8
0
 62
     0
 10
54.682
 20
139.912
 30
0.0
 11
55.4814
 21
139.912
 31
0.0
  0
LINE
  8
0
 62
     0
 10
55.4814
 20
139.912
 30
0.0
 11
55.4814
 21
140.913
 31
0.0
  0
LINE
  8
0
 62
     0
 10
55.4814
 20
140.913
 30
0.0
 11
69.4821
 21
140.913
 31
0.0
  0
LINE
  8
0
 62
     0
 10
69.4821
 20
140.913
 30
0.0
 11
69.4821
 21
139.912
 31
0.0
  0
LINE
  8
0
 62
     0
 10
69.4821
 20
139.912
 30
0.0
 11
70.2815
 21
139.912
 31
0.0
  0
LINE
  8
0
 62
     0
 10
70.2815
 20
139.912
 30
0.0
 11
70.2815
 21
136.813
 31
0.0
  0
LINE
  8
0
 62
     0
 10
70.2815
 20
136.813
 30
0.0
 11
69.4821
 21
136.813
 31
0.0
  0
LINE
  8
0
 62
     0
 10
69.4821
 20
136.813
 30
0.0
 11
69.4821
 21
131.013
 31
0.0
  0
LINE
  8
0
 62
     0
 10
69.4821
 20
131.013
 30
0.0
 11
70.2815
 21
131.013
 31
0.0
  0
LINE
  8
0
 62
     0
 10
70.2815
 20
131.013
 30
0.0
 11
70.2815
 21
127.912
 31
0.0
  0
LINE
  8
0
 62
     0
 10
70.2815
 20
127.912
 30
0.0
 11
69.4821
 21
127.912
 31
0.0
  0
LINE
  8
0
 62
     0
 10
74.2431
 20
32.6622
 30
0.0
 11
74.2431
 21
31.6632
 31
0.0
  0
LINE
  8
0
 62
     0
 10
74.2431
 20
31.6632
 30
0.0
 11
60.2439
 21
31.6632
 31
0.0
  0
LINE
  8
0
 62
     0
 10
60.2439
 20
31.6632
 30
0.0
 11
60.2439
 21
32.6622
 31
0.0
  0
LINE
  8
0
 62
     0
 10
60.2439
 20
32.6622
 30
0.0
 11
59.4445
 21
32.6622
 31
0.0
  0
LINE
  8
0
 62
     0
 10
59.4445
 20
32.6622
 30
0.0
 11
59.4445
 21
35.7628
 31
0.0
  0
LINE
  8
0
 62
     0
 10
59.4445
 20
35.7628
 30
0.0
 11
60.2439
 21
35.7628
 31
0.0
  0
LINE
  8
0
 62
     0
 10
60.2439
 20
35.7628
 30
0.0
 11
60.2439
 21
41.5629
 31
0.0
  0
LINE
  8
0
 62
     0
 10
60.2439
 20
41.5629
 30
0.0
 11
59.4445
 21
41.5629
 31
0.0
  0
LINE
  8
0
 62
     0
 10
59.4445
 20
41.5629
 30
0.0
 11
59.4445
 21
44.6624
 31
0.0
  0
LINE
  8
0
 62
     0
 10
59.4445
 20
44.6624
 30
0.0
 11
60.2439
 21
44.6624
 31
0.0
  0
LINE
  8
0
 62
     0
 10
60.2439
 20
44.6624
 30
0.0
 11
60.2439
 21
45.6629
 31
0.0
  0
LINE
  8
0
 62
     0
 10
60.2439
 20
45.6629
 30
0.0
 11
74.2431
 21
45.6629
 31
0.0
  0
LINE
  8
0
 62
     0
 10
74.2431
 20
45.6629
 30
0.0
 11
74.2431
 21
44.6624
 31
0.0
  0
LINE
  8
0
 62
     0
 10
74.2431
 20
44.6624
 30
0.0
 11
75.044
 21
44.6624
 31
0.0
  0
LINE
  8
0
 62
     0
 10
75.044
 20
44.6624
 30
0.0
 11
75.044
 21
41.5629
 31
0.0
  0
LINE
  8
0
 62
     0
 10
75.044
 20
41.5629
 30
0.0
 11
74.2431
 21
41.5629
 31
0.0
  0
LINE
  8
0
 62
     0
 10
74.2431
 20
41.5629
 30
0.0
 11
74.2431
 21
35.7628
 31
0.0
  0
LINE
  8
0
 62
     0
 10
74.2431
 20
35.7628
 30
0.0
 11
75.044
 21
35.7628
 31
0.0
  0
LINE
  8
0
 62
     0
 10
75.044
 20
35.7628
 30
0.0
 11
75.044
 21
32.6622
 31
0.0
  0
LINE
  8
0
 62
     0
 10
75.044
 20
32.6622
 30
0.0
 11
74.2431
 21
32.6622
 31
0.0
  0
LINE
  8
0
 62
     0
 10
81.3883
 20
89.8123
 30
0.0
 11
81.3883
 21
88.8132
 31
0.0
  0
LINE
  8
0
 62
     0
 10
81.3883
 20
88.8132
 30
0.0
 11
67.3876
 21
88.8132
 31
0.0
  0
LINE
  8
0
 62
     0
 10
67.3876
 20
88.8132
 30
0.0
 11
67.3876
 21
89.8123
 31
0.0
  0
LINE
  8
0
 62
     0
 10
67.3876
 20
89.8123
 30
0.0
 11
66.5882
 21
89.8123
 31
0.0
  0
LINE
  8
0
 62
     0
 10
66.5882
 20
89.8123
 30
0.0
 11
66.5882
 21
92.9128
 31
0.0
  0
LINE
  8
0
 62
     0
 10
66.5882
 20
92.9128
 30
0.0
 11
67.3876
 21
92.9128
 31
0.0
  0
LINE
  8
0
 62
     0
 10
67.3876
 20
92.9128
 30
0.0
 11
67.3876
 21
98.7129
 31
0.0
  0
LINE
  8
0
 62
     0
 10
67.3876
 20
98.7129
 30
0.0
 11
66.5882
 21
98.7129
 31
0.0
  0
LINE
  8
0
 62
     0
 10
66.5882
 20
98.7129
 30
0.0
 11
66.5882
 21
101.812
 31
0.0
  0
LINE
  8
0
 62
     0
 10
66.5882
 20
101.812
 30
0.0
 11
67.3876
 21
101.812
 31
0.0
  0
LINE
  8
0
 62
     0
 10
67.3876
 20
101.812
 30
0.0
 11
67.3876
 21
102.813
 31
0.0
  0
LINE
  8
0
 62
     0
 10
67.3876
 20
102.813
 30
0.0
 11
81.3883
 21
102.813
 31
0.0
  0
LINE
  8
0
 62
     0
 10
81.3883
 20
102.813
 30
0.0
 11
81.3883
 21
101.812
 31
0.0
  0
LINE
  8
0
 62
     0
 10
81.3883
 20
101.812
 30
0.0
 11
82.1877
 21
101.812
 31
0.0
  0
LINE
  8
0
 62
     0
 10
82.1877
 20
101.812
 30
0.0
 11
82.1877
 21
98.7129
 31
0.0
  0
LINE
  8
0
 62
     0
 10
82.1877
 20
98.7129
 30
0.0
 11
81.3883
 21
98.7129
 31
0.0
  0
LINE
  8
0
 62
     0
 10
81.3883
 20
98.7129
 30
0.0
 11
81.3883
 21
92.9128
 31
0.0
  0
LINE
  8
0
 62
     0
 10
81.3883
 20
92.9128
 30
0.0
 11
82.1877
 21
92.9128
 31
0.0
  0
LINE
  8
0
 62
     0
 10
82.1877
 20
92.9128
 30
0.0
 11
82.1877
 21
89.8123
 31
0.0
  0
LINE
  8
0
 62
     0
 10
82.1877
 20
89.8123
 30
0.0
 11
81.3883
 21
89.8123
 31
0.0
  0
LINE
  8
0
 62
     0
 10
86.1494
 20
70.7623
 30
0.0
 11
86.1494
 21
69.7632
 31
0.0
  0
LINE
  8
0
 62
     0
 10
86.1494
 20
69.7632
 30
0.0
 11
72.1501
 21
69.7632
 31
0.0
  0
LINE
  8
0
 62
     0
 10
72.1501
 20
69.7632
 30
0.0
 11
72.1501
 21
70.7623
 31
0.0
  0
LINE
  8
0
 62
     0
 10
72.1501
 20
70.7623
 30
0.0
 11
71.3493
 21
70.7623
 31
0.0
  0
LINE
  8
0
 62
     0
 10
71.3493
 20
70.7623
 30
0.0
 11
71.3493
 21
73.8628
 31
0.0
  0
LINE
  8
0
 62
     0
 10
71.3493
 20
73.8628
 30
0.0
 11
72.1501
 21
73.8628
 31
0.0
  0
LINE
  8
0
 62
     0
 10
72.1501
 20
73.8628
 30
0.0
 11
72.1501
 21
79.6629
 31
0.0
  0
LINE
  8
0
 62
     0
 10
72.1501
 20
79.6629
 30
0.0
 11
71.3493
 21
79.6629
 31
0.0
  0
LINE
  8
0
 62
     0
 10
71.3493
 20
79.6629
 30
0.0
 11
71.3493
 21
82.7624
 31
0.0
  0
LINE
  8
0
 62
     0
 10
71.3493
 20
82.7624
 30
0.0
 11
72.1501
 21
82.7624
 31
0.0
  0
LINE
  8
0
 62
     0
 10
72.1501
 20
82.7624
 30
0.0
 11
72.1501
 21
83.7629
 31
0.0
  0
LINE
  8
0
 62
     0
 10
72.1501
 20
83.7629
 30
0.0
 11
86.1494
 21
83.7629
 31
0.0
  0
LINE
  8
0
 62
     0
 10
86.1494
 20
83.7629
 30
0.0
 11
86.1494
 21
82.7624
 31
0.0
  0
LINE
  8
0
 62
     0
 10
86.1494
 20
82.7624
 30
0.0
 11
86.9502
 21
82.7624
 31
0.0
  0
LINE
  8
0
 62
     0
 10
86.9502
 20
82.7624
 30
0.0
 11
86.9502
 21
79.6629
 31
0.0
  0
LINE
  8
0
 62
     0
 10
86.9502
 20
79.6629
 30
0.0
 11
86.1494
 21
79.6629
 31
0.0
  0
LINE
  8
0
 62
     0
 10
86.1494
 20
79.6629
 30
0.0
 11
86.1494
 21
73.8628
 31
0.0
  0
LINE
  8
0
 62
     0
 10
86.1494
 20
73.8628
 30
0.0
 11
86.9502
 21
73.8628
 31
0.0
  0
LINE
  8
0
 62
     0
 10
86.9502
 20
73.8628
 30
0.0
 11
86.9502
 21
70.7623
 31
0.0
  0
LINE
  8
0
 62
     0
 10
86.9502
 20
70.7623
 30
0.0
 11
86.1494
 21
70.7623
 31
0.0
  0
LINE
  8
0
 62
     0
 10
90.9133
 20
127.912
 30
0.0
 11
90.9133
 21
126.913
 31
0.0
  0
LINE
  8
0
 62
     0
 10
90.9133
 20
126.913
 30
0.0
 11
76.9126
 21
126.913
 31
0.0
  0
LINE
  8
0
 62
     0
 10
76.9126
 20
126.913
 30
0.0
 11
76.9126
 21
127.912
 31
0.0
  0
LINE
  8
0
 62
     0
 10
76.9126
 20
127.912
 30
0.0
 11
76.1132
 21
127.912
 31
0.0
  0
LINE
  8
0
 62
     0
 10
76.1132
 20
127.912
 30
0.0
 11
76.1132
 21
131.013
 31
0.0
  0
LINE
  8
0
 62
     0
 10
76.1132
 20
131.013
 30
0.0
 11
76.9126
 21
131.013
 31
0.0
  0
LINE
  8
0
 62
     0
 10
76.9126
 20
131.013
 30
0.0
 11
76.9126
 21
136.813
 31
0.0
  0
LINE
  8
0
 62
     0
 10
76.9126
 20
136.813
 30
0.0
 11
76.1132
 21
136.813
 31
0.0
  0
LINE
  8
0
 62
     0
 10
76.1132
 20
136.813
 30
0.0
 11
76.1132
 21
139.912
 31
0.0
  0
LINE
  8
0
 62
     0
 10
76.1132
 20
139.912
 30
0.0
 11
76.9126
 21
139.912
 31
0.0
  0
LINE
  8
0
 62
     0
 10
76.9126
 20
139.912
 30
0.0
 11
76.9126
 21
140.913
 31
0.0
  0
LINE
  8
0
 62
     0
 10
76.9126
 20
140.913
 30
0.0
 11
90.9133
 21
140.913
 31
0.0
  0
LINE
  8
0
 62
     0
 10
90.9133
 20
140.913
 30
0.0
 11
90.9133
 21
139.912
 31
0.0
  0
LINE
  8
0
 62
     0
 10
90.9133
 20
139.912
 30
0.0
 11
91.7127
 21
139.912
 31
0.0
  0
LINE
  8
0
 62
     0
 10
91.7127
 20
139.912
 30
0.0
 11
91.7127
 21
136.813
 31
0.0
  0
LINE
  8
0
 62
     0
 10
91.7127
 20
136.813
 30
0.0
 11
90.9133
 21
136.813
 31
0.0
  0
LINE
  8
0
 62
     0
 10
90.9133
 20
136.813
 30
0.0
 11
90.9133
 21
131.013
 31
0.0
  0
LINE
  8
0
 62
     0
 10
90.9133
 20
131.013
 30
0.0
 11
91.7127
 21
131.013
 31
0.0
  0
LINE
  8
0
 62
     0
 10
91.7127
 20
131.013
 30
0.0
 11
91.7127
 21
127.912
 31
0.0
  0
LINE
  8
0
 62
     0
 10
91.7127
 20
127.912
 30
0.0
 11
90.9133
 21
127.912
 31
0.0
  0
LINE
  8
0
 62
     0
 10
91.9939
 20
114.362
 30
0.0
 11
91.9939
 21
108.092
 31
0.0
  0
LINE
  8
0
 62
     0
 10
91.9939
 20
108.092
 30
0.0
 11
90.369
 21
108.092
 31
0.0
  0
LINE
  8
0
 62
     0
 10
90.369
 20
108.092
 30
0.0
 11
90.369
 21
106.893
 31
0.0
  0
LINE
  8
0
 62
     0
 10
90.369
 20
106.893
 30
0.0
 11
87.0687
 21
106.893
 31
0.0
  0
LINE
  8
0
 62
     0
 10
87.0687
 20
106.893
 30
0.0
 11
87.0687
 21
108.092
 31
0.0
  0
LINE
  8
0
 62
     0
 10
87.0687
 20
108.092
 30
0.0
 11
85.3433
 21
108.092
 31
0.0
  0
LINE
  8
0
 62
     0
 10
85.3433
 20
108.092
 30
0.0
 11
85.3433
 21
108.893
 31
0.0
  0
LINE
  8
0
 62
     0
 10
85.3433
 20
108.893
 30
0.0
 11
84.569
 21
108.893
 31
0.0
  0
LINE
  8
0
 62
     0
 10
84.569
 20
108.893
 30
0.0
 11
84.569
 21
108.862
 31
0.0
  0
LINE
  8
0
 62
     0
 10
84.569
 20
108.862
 30
0.0
 11
83.7681
 21
108.862
 31
0.0
  0
LINE
  8
0
 62
     0
 10
83.7681
 20
108.862
 30
0.0
 11
83.7681
 21
107.863
 31
0.0
  0
LINE
  8
0
 62
     0
 10
83.7681
 20
107.863
 30
0.0
 11
69.7689
 21
107.863
 31
0.0
  0
LINE
  8
0
 62
     0
 10
69.7689
 20
107.863
 30
0.0
 11
69.7689
 21
108.862
 31
0.0
  0
LINE
  8
0
 62
     0
 10
69.7689
 20
108.862
 30
0.0
 11
68.9695
 21
108.862
 31
0.0
  0
LINE
  8
0
 62
     0
 10
68.9695
 20
108.862
 30
0.0
 11
68.9695
 21
108.893
 31
0.0
  0
LINE
  8
0
 62
     0
 10
68.9695
 20
108.893
 30
0.0
 11
68.1937
 21
108.893
 31
0.0
  0
LINE
  8
0
 62
     0
 10
68.1937
 20
108.893
 30
0.0
 11
68.1937
 21
108.092
 31
0.0
  0
LINE
  8
0
 62
     0
 10
68.1937
 20
108.092
 30
0.0
 11
66.4683
 21
108.092
 31
0.0
  0
LINE
  8
0
 62
     0
 10
66.4683
 20
108.092
 30
0.0
 11
66.4683
 21
106.893
 31
0.0
  0
LINE
  8
0
 62
     0
 10
66.4683
 20
106.893
 30
0.0
 11
63.1694
 21
106.893
 31
0.0
  0
LINE
  8
0
 62
     0
 10
63.1694
 20
106.893
 30
0.0
 11
63.1694
 21
108.092
 31
0.0
  0
LINE
  8
0
 62
     0
 10
63.1694
 20
108.092
 30
0.0
 11
61.5431
 21
108.092
 31
0.0
  0
LINE
  8
0
 62
     0
 10
61.5431
 20
108.092
 30
0.0
 11
61.5431
 21
114.362
 31
0.0
  0
LINE
  8
0
 62
     0
 10
61.5431
 20
114.362
 30
0.0
 11
60.6683
 21
114.362
 31
0.0
  0
LINE
  8
0
 62
     0
 10
60.6683
 20
114.362
 30
0.0
 11
60.6683
 21
117.162
 31
0.0
  0
LINE
  8
0
 62
     0
 10
60.6683
 20
117.162
 30
0.0
 11
61.5431
 21
117.162
 31
0.0
  0
LINE
  8
0
 62
     0
 10
61.5431
 20
117.162
 30
0.0
 11
61.5431
 21
120.392
 31
0.0
  0
LINE
  8
0
 62
     0
 10
61.5431
 20
120.392
 30
0.0
 11
68.1937
 21
120.392
 31
0.0
  0
LINE
  8
0
 62
     0
 10
68.1937
 20
120.392
 30
0.0
 11
68.1937
 21
119.593
 31
0.0
  0
LINE
  8
0
 62
     0
 10
68.1937
 20
119.593
 30
0.0
 11
68.9695
 21
119.593
 31
0.0
  0
LINE
  8
0
 62
     0
 10
68.9695
 20
119.593
 30
0.0
 11
68.9695
 21
120.862
 31
0.0
  0
LINE
  8
0
 62
     0
 10
68.9695
 20
120.862
 30
0.0
 11
69.7689
 21
120.862
 31
0.0
  0
LINE
  8
0
 62
     0
 10
69.7689
 20
120.862
 30
0.0
 11
69.7689
 21
121.863
 31
0.0
  0
LINE
  8
0
 62
     0
 10
69.7689
 20
121.863
 30
0.0
 11
83.7681
 21
121.863
 31
0.0
  0
LINE
  8
0
 62
     0
 10
83.7681
 20
121.863
 30
0.0
 11
83.7681
 21
120.862
 31
0.0
  0
LINE
  8
0
 62
     0
 10
83.7681
 20
120.862
 30
0.0
 11
84.569
 21
120.862
 31
0.0
  0
LINE
  8
0
 62
     0
 10
84.569
 20
120.862
 30
0.0
 11
84.569
 21
119.593
 31
0.0
  0
LINE
  8
0
 62
     0
 10
84.569
 20
119.593
 30
0.0
 11
85.3433
 21
119.593
 31
0.0
  0
LINE
  8
0
 62
     0
 10
85.3433
 20
119.593
 30
0.0
 11
85.3433
 21
120.392
 31
0.0
  0
LINE
  8
0
 62
     0
 10
85.3433
 20
120.392
 30
0.0
 11
91.9939
 21
120.392
 31
0.0
  0
LINE
  8
0
 62
     0
 10
91.9939
 20
120.392
 30
0.0
 11
91.9939
 21
117.162
 31
0.0
  0
LINE
  8
0
 62
     0
 10
91.9939
 20
117.162
 30
0.0
 11
92.8688
 21
117.162
 31
0.0
  0
LINE
  8
0
 62
     0
 10
92.8688
 20
117.162
 30
0.0
 11
92.8688
 21
114.362
 31
0.0
  0
LINE
  8
0
 62
     0
 10
92.8688
 20
114.362
 30
0.0
 11
91.9939
 21
114.362
 31
0.0
  0
LINE
  8
0
 62
     0
 10
95.6744
 20
32.6622
 30
0.0
 11
95.6744
 21
31.6632
 31
0.0
  0
LINE
  8
0
 62
     0
 10
95.6744
 20
31.6632
 30
0.0
 11
81.6751
 21
31.6632
 31
0.0
  0
LINE
  8
0
 62
     0
 10
81.6751
 20
31.6632
 30
0.0
 11
81.6751
 21
32.6622
 31
0.0
  0
LINE
  8
0
 62
     0
 10
81.6751
 20
32.6622
 30
0.0
 11
80.8743
 21
32.6622
 31
0.0
  0
LINE
  8
0
 62
     0
 10
80.8743
 20
32.6622
 30
0.0
 11
80.8743
 21
35.7628
 31
0.0
  0
LINE
  8
0
 62
     0
 10
80.8743
 20
35.7628
 30
0.0
 11
81.6751
 21
35.7628
 31
0.0
  0
LINE
  8
0
 62
     0
 10
81.6751
 20
35.7628
 30
0.0
 11
81.6751
 21
41.5629
 31
0.0
  0
LINE
  8
0
 62
     0
 10
81.6751
 20
41.5629
 30
0.0
 11
80.8743
 21
41.5629
 31
0.0
  0
LINE
  8
0
 62
     0
 10
80.8743
 20
41.5629
 30
0.0
 11
80.8743
 21
44.6624
 31
0.0
  0
LINE
  8
0
 62
     0
 10
80.8743
 20
44.6624
 30
0.0
 11
81.6751
 21
44.6624
 31
0.0
  0
LINE
  8
0
 62
     0
 10
81.6751
 20
44.6624
 30
0.0
 11
81.6751
 21
45.6629
 31
0.0
  0
LINE
  8
0
 62
     0
 10
81.6751
 20
45.6629
 30
0.0
 11
95.6744
 21
45.6629
 31
0.0
  0
LINE
  8
0
 62
     0
 10
95.6744
 20
45.6629
 30
0.0
 11
95.6744
 21
44.6624
 31
0.0
  0
LINE
  8
0
 62
     0
 10
95.6744
 20
44.6624
 30
0.0
 11
96.4752
 21
44.6624
 31
0.0
  0
LINE
  8
0
 62
     0
 10
96.4752
 20
44.6624
 30
0.0
 11
96.4752
 21
41.5629
 31
0.0
  0
LINE
  8
0
 62
     0
 10
96.4752
 20
41.5629
 30
0.0
 11
95.6744
 21
41.5629
 31
0.0
  0
LINE
  8
0
 62
     0
 10
95.6744
 20
41.5629
 30
0.0
 11
95.6744
 21
35.7628
 31
0.0
  0
LINE
  8
0
 62
     0
 10
95.6744
 20
35.7628
 30
0.0
 11
96.4752
 21
35.7628
 31
0.0
  0
LINE
  8
0
 62
     0
 10
96.4752
 20
35.7628
 30
0.0
 11
96.4752
 21
32.6622
 31
0.0
  0
LINE
  8
0
 62
     0
 10
96.4752
 20
32.6622
 30
0.0
 11
95.6744
 21
32.6622
 31
0.0
  0
LINE
  8
0
 62
     0
 10
99.1376
 20
57.2121
 30
0.0
 11
99.1376
 21
50.9418
 31
0.0
  0
LINE
  8
0
 62
     0
 10
99.1376
 20
50.9418
 30
0.0
 11
97.5127
 21
50.9418
 31
0.0
  0
LINE
  8
0
 62
     0
 10
97.5127
 20
50.9418
 30
0.0
 11
97.5127
 21
49.7431
 31
0.0
  0
LINE
  8
0
 62
     0
 10
97.5127
 20
49.7431
 30
0.0
 11
94.2125
 21
49.7431
 31
0.0
  0
LINE
  8
0
 62
     0
 10
94.2125
 20
49.7431
 30
0.0
 11
94.2125
 21
50.9418
 31
0.0
  0
LINE
  8
0
 62
     0
 10
94.2125
 20
50.9418
 30
0.0
 11
92.4885
 21
50.9418
 31
0.0
  0
LINE
  8
0
 62
     0
 10
92.4885
 20
50.9418
 30
0.0
 11
92.4885
 21
51.7426
 31
0.0
  0
LINE
  8
0
 62
     0
 10
92.4885
 20
51.7426
 30
0.0
 11
91.7127
 21
51.7426
 31
0.0
  0
LINE
  8
0
 62
     0
 10
91.7127
 20
51.7426
 30
0.0
 11
91.7127
 21
51.7123
 31
0.0
  0
LINE
  8
0
 62
     0
 10
91.7127
 20
51.7123
 30
0.0
 11
90.9133
 21
51.7123
 31
0.0
  0
LINE
  8
0
 62
     0
 10
90.9133
 20
51.7123
 30
0.0
 11
90.9133
 21
50.7132
 31
0.0
  0
LINE
  8
0
 62
     0
 10
90.9133
 20
50.7132
 30
0.0
 11
76.9126
 21
50.7132
 31
0.0
  0
LINE
  8
0
 62
     0
 10
76.9126
 20
50.7132
 30
0.0
 11
76.9126
 21
51.7123
 31
0.0
  0
LINE
  8
0
 62
     0
 10
76.9126
 20
51.7123
 30
0.0
 11
76.1132
 21
51.7123
 31
0.0
  0
LINE
  8
0
 62
     0
 10
76.1132
 20
51.7123
 30
0.0
 11
76.1132
 21
51.7426
 31
0.0
  0
LINE
  8
0
 62
     0
 10
76.1132
 20
51.7426
 30
0.0
 11
75.3375
 21
51.7426
 31
0.0
  0
LINE
  8
0
 62
     0
 10
75.3375
 20
51.7426
 30
0.0
 11
75.3375
 21
50.9418
 31
0.0
  0
LINE
  8
0
 62
     0
 10
75.3375
 20
50.9418
 30
0.0
 11
73.6134
 21
50.9418
 31
0.0
  0
LINE
  8
0
 62
     0
 10
73.6134
 20
50.9418
 30
0.0
 11
73.6134
 21
49.7431
 31
0.0
  0
LINE
  8
0
 62
     0
 10
73.6134
 20
49.7431
 30
0.0
 11
70.3132
 21
49.7431
 31
0.0
  0
LINE
  8
0
 62
     0
 10
70.3132
 20
49.7431
 30
0.0
 11
70.3132
 21
50.9418
 31
0.0
  0
LINE
  8
0
 62
     0
 10
70.3132
 20
50.9418
 30
0.0
 11
68.6883
 21
50.9418
 31
0.0
  0
LINE
  8
0
 62
     0
 10
68.6883
 20
50.9418
 30
0.0
 11
68.6883
 21
57.2121
 31
0.0
  0
LINE
  8
0
 62
     0
 10
68.6883
 20
57.2121
 30
0.0
 11
67.8134
 21
57.2121
 31
0.0
  0
LINE
  8
0
 62
     0
 10
67.8134
 20
57.2121
 30
0.0
 11
67.8134
 21
60.0121
 31
0.0
  0
LINE
  8
0
 62
     0
 10
67.8134
 20
60.0121
 30
0.0
 11
68.6883
 21
60.0121
 31
0.0
  0
LINE
  8
0
 62
     0
 10
68.6883
 20
60.0121
 30
0.0
 11
68.6883
 21
63.2425
 31
0.0
  0
LINE
  8
0
 62
     0
 10
68.6883
 20
63.2425
 30
0.0
 11
75.3375
 21
63.2425
 31
0.0
  0
LINE
  8
0
 62
     0
 10
75.3375
 20
63.2425
 30
0.0
 11
75.3375
 21
62.4431
 31
0.0
  0
LINE
  8
0
 62
     0
 10
75.3375
 20
62.4431
 30
0.0
 11
76.1132
 21
62.4431
 31
0.0
  0
LINE
  8
0
 62
     0
 10
76.1132
 20
62.4431
 30
0.0
 11
76.1132
 21
63.7124
 31
0.0
  0
LINE
  8
0
 62
     0
 10
76.1132
 20
63.7124
 30
0.0
 11
76.9126
 21
63.7124
 31
0.0
  0
LINE
  8
0
 62
     0
 10
76.9126
 20
63.7124
 30
0.0
 11
76.9126
 21
64.7129
 31
0.0
  0
LINE
  8
0
 62
     0
 10
76.9126
 20
64.7129
 30
0.0
 11
90.9133
 21
64.7129
 31
0.0
  0
LINE
  8
0
 62
     0
 10
90.9133
 20
64.7129
 30
0.0
 11
90.9133
 21
63.7124
 31
0.0
  0
LINE
  8
0
 62
     0
 10
90.9133
 20
63.7124
 30
0.0
 11
91.7127
 21
63.7124
 31
0.0
  0
LINE
  8
0
 62
     0
 10
91.7127
 20
63.7124
 30
0.0
 11
91.7127
 21
62.4431
 31
0.0
  0
LINE
  8
0
 62
     0
 10
91.7127
 20
62.4431
 30
0.0
 11
92.4885
 21
62.4431
 31
0.0
  0
LINE
  8
0
 62
     0
 10
92.4885
 20
62.4431
 30
0.0
 11
92.4885
 21
63.2425
 31
0.0
  0
LINE
  8
0
 62
     0
 10
92.4885
 20
63.2425
 30
0.0
 11
99.1376
 21
63.2425
 31
0.0
  0
LINE
  8
0
 62
     0
 10
99.1376
 20
63.2425
 30
0.0
 11
99.1376
 21
60.0121
 31
0.0
  0
LINE
  8
0
 62
     0
 10
99.1376
 20
60.0121
 30
0.0
 11
100.013
 21
60.0121
 31
0.0
  0
LINE
  8
0
 62
     0
 10
100.013
 20
60.0121
 30
0.0
 11
100.013
 21
57.2121
 31
0.0
  0
LINE
  8
0
 62
     0
 10
100.013
 20
57.2121
 30
0.0
 11
99.1376
 21
57.2121
 31
0.0
  0
LINE
  8
0
 62
     0
 10
107.582
 20
89.8123
 30
0.0
 11
107.582
 21
88.8132
 31
0.0
  0
LINE
  8
0
 62
     0
 10
107.582
 20
88.8132
 30
0.0
 11
93.5814
 21
88.8132
 31
0.0
  0
LINE
  8
0
 62
     0
 10
93.5814
 20
88.8132
 30
0.0
 11
93.5814
 21
89.8123
 31
0.0
  0
LINE
  8
0
 62
     0
 10
93.5814
 20
89.8123
 30
0.0
 11
92.782
 21
89.8123
 31
0.0
  0
LINE
  8
0
 62
     0
 10
92.782
 20
89.8123
 30
0.0
 11
92.782
 21
92.9128
 31
0.0
  0
LINE
  8
0
 62
     0
 10
92.782
 20
92.9128
 30
0.0
 11
93.5814
 21
92.9128
 31
0.0
  0
LINE
  8
0
 62
     0
 10
93.5814
 20
92.9128
 30
0.0
 11
93.5814
 21
98.7129
 31
0.0
  0
LINE
  8
0
 62
     0
 10
93.5814
 20
98.7129
 30
0.0
 11
92.782
 21
98.7129
 31
0.0
  0
LINE
  8
0
 62
     0
 10
92.782
 20
98.7129
 30
0.0
 11
92.782
 21
101.812
 31
0.0
  0
LINE
  8
0
 62
     0
 10
92.782
 20
101.812
 30
0.0
 11
93.5814
 21
101.812
 31
0.0
  0
LINE
  8
0
 62
     0
 10
93.5814
 20
101.812
 30
0.0
 11
93.5814
 21
102.813
 31
0.0
  0
LINE
  8
0
 62
     0
 10
93.5814
 20
102.813
 30
0.0
 11
107.582
 21
102.813
 31
0.0
  0
LINE
  8
0
 62
     0
 10
107.582
 20
102.813
 30
0.0
 11
107.582
 21
101.812
 31
0.0
  0
LINE
  8
0
 62
     0
 10
107.582
 20
101.812
 30
0.0
 11
108.381
 21
101.812
 31
0.0
  0
LINE
  8
0
 62
     0
 10
108.381
 20
101.812
 30
0.0
 11
108.381
 21
98.7129
 31
0.0
  0
LINE
  8
0
 62
     0
 10
108.381
 20
98.7129
 30
0.0
 11
107.582
 21
98.7129
 31
0.0
  0
LINE
  8
0
 62
     0
 10
107.582
 20
98.7129
 30
0.0
 11
107.582
 21
92.9128
 31
0.0
  0
LINE
  8
0
 62
     0
 10
107.582
 20
92.9128
 30
0.0
 11
108.381
 21
92.9128
 31
0.0
  0
LINE
  8
0
 62
     0
 10
108.381
 20
92.9128
 30
0.0
 11
108.381
 21
89.8123
 31
0.0
  0
LINE
  8
0
 62
     0
 10
108.381
 20
89.8123
 30
0.0
 11
107.582
 21
89.8123
 31
0.0
  0
LINE
  8
0
 62
     0
 10
117.106
 20
127.912
 30
0.0
 11
117.106
 21
126.913
 31
0.0
  0
LINE
  8
0
 62
     0
 10
117.106
 20
126.913
 30
0.0
 11
103.106
 21
126.913
 31
0.0
  0
LINE
  8
0
 62
     0
 10
103.106
 20
126.913
 30
0.0
 11
103.106
 21
127.912
 31
0.0
  0
LINE
  8
0
 62
     0
 10
103.106
 20
127.912
 30
0.0
 11
102.306
 21
127.912
 31
0.0
  0
LINE
  8
0
 62
     0
 10
102.306
 20
127.912
 30
0.0
 11
102.306
 21
131.013
 31
0.0
  0
LINE
  8
0
 62
     0
 10
102.306
 20
131.013
 30
0.0
 11
103.106
 21
131.013
 31
0.0
  0
LINE
  8
0
 62
     0
 10
103.106
 20
131.013
 30
0.0
 11
103.106
 21
136.813
 31
0.0
  0
LINE
  8
0
 62
     0
 10
103.106
 20
136.813
 30
0.0
 11
102.306
 21
136.813
 31
0.0
  0
LINE
  8
0
 62
     0
 10
102.306
 20
136.813
 30
0.0
 11
102.306
 21
139.912
 31
0.0
  0
LINE
  8
0
 62
     0
 10
102.306
 20
139.912
 30
0.0
 11
103.106
 21
139.912
 31
0.0
  0
LINE
  8
0
 62
     0
 10
103.106
 20
139.912
 30
0.0
 11
103.106
 21
140.913
 31
0.0
  0
LINE
  8
0
 62
     0
 10
103.106
 20
140.913
 30
0.0
 11
117.106
 21
140.913
 31
0.0
  0
LINE
  8
0
 62
     0
 10
117.106
 20
140.913
 30
0.0
 11
117.106
 21
139.912
 31
0.0
  0
LINE
  8
0
 62
     0
 10
117.106
 20
139.912
 30
0.0
 11
117.906
 21
139.912
 31
0.0
  0
LINE
  8
0
 62
     0
 10
117.906
 20
139.912
 30
0.0
 11
117.906
 21
136.813
 31
0.0
  0
LINE
  8
0
 62
     0
 10
117.906
 20
136.813
 30
0.0
 11
117.106
 21
136.813
 31
0.0
  0
LINE
  8
0
 62
     0
 10
117.106
 20
136.813
 30
0.0
 11
117.106
 21
131.013
 31
0.0
  0
LINE
  8
0
 62
     0
 10
117.106
 20
131.013
 30
0.0
 11
117.906
 21
131.013
 31
0.0
  0
LINE
  8
0
 62
     0
 10
117.906
 20
131.013
 30
0.0
 11
117.906
 21
127.912
 31
0.0
  0
LINE
  8
0
 62
     0
 10
117.906
 20
127.912
 30
0.0
 11
117.106
 21
127.912
 31
0.0
  0
LINE
  8
0
 62
     0
 10
121.868
 20
32.6622
 30
0.0
 11
121.868
 21
31.6632
 31
0.0
  0
LINE
  8
0
 62
     0
 10
121.868
 20
31.6632
 30
0.0
 11
107.869
 21
31.6632
 31
0.0
  0
LINE
  8
0
 62
     0
 10
107.869
 20
31.6632
 30
0.0
 11
107.869
 21
32.6622
 31
0.0
  0
LINE
  8
0
 62
     0
 10
107.869
 20
32.6622
 30
0.0
 11
107.069
 21
32.6622
 31
0.0
  0
LINE
  8
0
 62
     0
 10
107.069
 20
32.6622
 30
0.0
 11
107.069
 21
35.7628
 31
0.0
  0
LINE
  8
0
 62
     0
 10
107.069
 20
35.7628
 30
0.0
 11
107.869
 21
35.7628
 31
0.0
  0
LINE
  8
0
 62
     0
 10
107.869
 20
35.7628
 30
0.0
 11
107.869
 21
41.5629
 31
0.0
  0
LINE
  8
0
 62
     0
 10
107.869
 20
41.5629
 30
0.0
 11
107.069
 21
41.5629
 31
0.0
  0
LINE
  8
0
 62
     0
 10
107.069
 20
41.5629
 30
0.0
 11
107.069
 21
44.6624
 31
0.0
  0
LINE
  8
0
 62
     0
 10
107.069
 20
44.6624
 30
0.0
 11
107.869
 21
44.6624
 31
0.0
  0
LINE
  8
0
 62
     0
 10
107.869
 20
44.6624
 30
0.0
 11
107.869
 21
45.6629
 31
0.0
  0
LINE
  8
0
 62
     0
 10
107.869
 20
45.6629
 30
0.0
 11
121.868
 21
45.6629
 31
0.0
  0
LINE
  8
0
 62
     0
 10
121.868
 20
45.6629
 30
0.0
 11
121.868
 21
44.6624
 31
0.0
  0
LINE
  8
0
 62
     0
 10
121.868
 20
44.6624
 30
0.0
 11
122.669
 21
44.6624
 31
0.0
  0
LINE
  8
0
 62
     0
 10
122.669
 20
44.6624
 30
0.0
 11
122.669
 21
41.5629
 31
0.0
  0
LINE
  8
0
 62
     0
 10
122.669
 20
41.5629
 30
0.0
 11
121.868
 21
41.5629
 31
0.0
  0
LINE
  8
0
 62
     0
 10
121.868
 20
41.5629
 30
0.0
 11
121.868
 21
35.7628
 31
0.0
  0
LINE
  8
0
 62
     0
 10
121.868
 20
35.7628
 30
0.0
 11
122.669
 21
35.7628
 31
0.0
  0
LINE
  8
0
 62
     0
 10
122.669
 20
35.7628
 30
0.0
 11
122.669
 21
32.6622
 31
0.0
  0
LINE
  8
0
 62
     0
 10
122.669
 20
32.6622
 30
0.0
 11
121.868
 21
32.6622
 31
0.0
  0
LINE
  8
0
 62
     0
 10
125.331
 20
76.2621
 30
0.0
 11
125.331
 21
69.9918
 31
0.0
  0
LINE
  8
0
 62
     0
 10
125.331
 20
69.9918
 30
0.0
 11
123.706
 21
69.9918
 31
0.0
  0
LINE
  8
0
 62
     0
 10
123.706
 20
69.9918
 30
0.0
 11
123.706
 21
68.7931
 31
0.0
  0
LINE
  8
0
 62
     0
 10
123.706
 20
68.7931
 30
0.0
 11
120.406
 21
68.7931
 31
0.0
  0
LINE
  8
0
 62
     0
 10
120.406
 20
68.7931
 30
0.0
 11
120.406
 21
69.9918
 31
0.0
  0
LINE
  8
0
 62
     0
 10
120.406
 20
69.9918
 30
0.0
 11
118.682
 21
69.9918
 31
0.0
  0
LINE
  8
0
 62
     0
 10
118.682
 20
69.9918
 30
0.0
 11
118.682
 21
70.7926
 31
0.0
  0
LINE
  8
0
 62
     0
 10
118.682
 20
70.7926
 30
0.0
 11
117.906
 21
70.7926
 31
0.0
  0
LINE
  8
0
 62
     0
 10
117.906
 20
70.7926
 30
0.0
 11
117.906
 21
70.7623
 31
0.0
  0
LINE
  8
0
 62
     0
 10
117.906
 20
70.7623
 30
0.0
 11
117.107
 21
70.7623
 31
0.0
  0
LINE
  8
0
 62
     0
 10
117.107
 20
70.7623
 30
0.0
 11
117.107
 21
69.7632
 31
0.0
  0
LINE
  8
0
 62
     0
 10
117.107
 20
69.7632
 30
0.0
 11
103.106
 21
69.7632
 31
0.0
  0
LINE
  8
0
 62
     0
 10
103.106
 20
69.7632
 30
0.0
 11
103.106
 21
70.7623
 31
0.0
  0
LINE
  8
0
 62
     0
 10
103.106
 20
70.7623
 30
0.0
 11
102.307
 21
70.7623
 31
0.0
  0
LINE
  8
0
 62
     0
 10
102.307
 20
70.7623
 30
0.0
 11
102.307
 21
70.7926
 31
0.0
  0
LINE
  8
0
 62
     0
 10
102.307
 20
70.7926
 30
0.0
 11
101.531
 21
70.7926
 31
0.0
  0
LINE
  8
0
 62
     0
 10
101.531
 20
70.7926
 30
0.0
 11
101.531
 21
69.9918
 31
0.0
  0
LINE
  8
0
 62
     0
 10
101.531
 20
69.9918
 30
0.0
 11
99.8072
 21
69.9918
 31
0.0
  0
LINE
  8
0
 62
     0
 10
99.8072
 20
69.9918
 30
0.0
 11
99.8072
 21
68.7931
 31
0.0
  0
LINE
  8
0
 62
     0
 10
99.8072
 20
68.7931
 30
0.0
 11
96.5069
 21
68.7931
 31
0.0
  0
LINE
  8
0
 62
     0
 10
96.5069
 20
68.7931
 30
0.0
 11
96.5069
 21
69.9918
 31
0.0
  0
LINE
  8
0
 62
     0
 10
96.5069
 20
69.9918
 30
0.0
 11
94.8821
 21
69.9918
 31
0.0
  0
LINE
  8
0
 62
     0
 10
94.8821
 20
69.9918
 30
0.0
 11
94.8821
 21
76.2621
 31
0.0
  0
LINE
  8
0
 62
     0
 10
94.8821
 20
76.2621
 30
0.0
 11
94.0058
 21
76.2621
 31
0.0
  0
LINE
  8
0
 62
     0
 10
94.0058
 20
76.2621
 30
0.0
 11
94.0058
 21
79.0621
 31
0.0
  0
LINE
  8
0
 62
     0
 10
94.0058
 20
79.0621
 30
0.0
 11
94.8821
 21
79.0621
 31
0.0
  0
LINE
  8
0
 62
     0
 10
94.8821
 20
79.0621
 30
0.0
 11
94.8821
 21
82.2925
 31
0.0
  0
LINE
  8
0
 62
     0
 10
94.8821
 20
82.2925
 30
0.0
 11
101.531
 21
82.2925
 31
0.0
  0
LINE
  8
0
 62
     0
 10
101.531
 20
82.2925
 30
0.0
 11
101.531
 21
81.4931
 31
0.0
  0
LINE
  8
0
 62
     0
 10
101.531
 20
81.4931
 30
0.0
 11
102.307
 21
81.4931
 31
0.0
  0
LINE
  8
0
 62
     0
 10
102.307
 20
81.4931
 30
0.0
 11
102.307
 21
82.7624
 31
0.0
  0
LINE
  8
0
 62
     0
 10
102.307
 20
82.7624
 30
0.0
 11
103.106
 21
82.7624
 31
0.0
  0
LINE
  8
0
 62
     0
 10
103.106
 20
82.7624
 30
0.0
 11
103.106
 21
83.7629
 31
0.0
  0
LINE
  8
0
 62
     0
 10
103.106
 20
83.7629
 30
0.0
 11
117.107
 21
83.7629
 31
0.0
  0
LINE
  8
0
 62
     0
 10
117.107
 20
83.7629
 30
0.0
 11
117.107
 21
82.7624
 31
0.0
  0
LINE
  8
0
 62
     0
 10
117.107
 20
82.7624
 30
0.0
 11
117.906
 21
82.7624
 31
0.0
  0
LINE
  8
0
 62
     0
 10
117.906
 20
82.7624
 30
0.0
 11
117.906
 21
81.4931
 31
0.0
  0
LINE
  8
0
 62
     0
 10
117.906
 20
81.4931
 30
0.0
 11
118.682
 21
81.4931
 31
0.0
  0
LINE
  8
0
 62
     0
 10
118.682
 20
81.4931
 30
0.0
 11
118.682
 21
82.2925
 31
0.0
  0
LINE
  8
0
 62
     0
 10
118.682
 20
82.2925
 30
0.0
 11
125.331
 21
82.2925
 31
0.0
  0
LINE
  8
0
 62
     0
 10
125.331
 20
82.2925
 30
0.0
 11
125.331
 21
79.0621
 31
0.0
  0
LINE
  8
0
 62
     0
 10
125.331
 20
79.0621
 30
0.0
 11
126.206
 21
79.0621
 31
0.0
  0
LINE
  8
0
 62
     0
 10
126.206
 20
79.0621
 30
0.0
 11
126.206
 21
76.2621
 31
0.0
  0
LINE
  8
0
 62
     0
 10
126.206
 20
76.2621
 30
0.0
 11
125.331
 21
76.2621
 31
0.0
  0
LINE
  8
0
 62
     0
 10
130.094
 20
114.362
 30
0.0
 11
130.094
 21
108.092
 31
0.0
  0
LINE
  8
0
 62
     0
 10
130.094
 20
108.092
 30
0.0
 11
128.469
 21
108.092
 31
0.0
  0
LINE
  8
0
 62
     0
 10
128.469
 20
108.092
 30
0.0
 11
128.469
 21
106.893
 31
0.0
  0
LINE
  8
0
 62
     0
 10
128.469
 20
106.893
 30
0.0
 11
125.169
 21
106.893
 31
0.0
  0
LINE
  8
0
 62
     0
 10
125.169
 20
106.893
 30
0.0
 11
125.169
 21
108.092
 31
0.0
  0
LINE
  8
0
 62
     0
 10
125.169
 20
108.092
 30
0.0
 11
123.443
 21
108.092
 31
0.0
  0
LINE
  8
0
 62
     0
 10
123.443
 20
108.092
 30
0.0
 11
123.443
 21
108.893
 31
0.0
  0
LINE
  8
0
 62
     0
 10
123.443
 20
108.893
 30
0.0
 11
122.669
 21
108.893
 31
0.0
  0
LINE
  8
0
 62
     0
 10
122.669
 20
108.893
 30
0.0
 11
122.669
 21
108.862
 31
0.0
  0
LINE
  8
0
 62
     0
 10
122.669
 20
108.862
 30
0.0
 11
121.868
 21
108.862
 31
0.0
  0
LINE
  8
0
 62
     0
 10
121.868
 20
108.862
 30
0.0
 11
121.868
 21
107.863
 31
0.0
  0
LINE
  8
0
 62
     0
 10
121.868
 20
107.863
 30
0.0
 11
107.869
 21
107.863
 31
0.0
  0
LINE
  8
0
 62
     0
 10
107.869
 20
107.863
 30
0.0
 11
107.869
 21
108.862
 31
0.0
  0
LINE
  8
0
 62
     0
 10
107.869
 20
108.862
 30
0.0
 11
107.069
 21
108.862
 31
0.0
  0
LINE
  8
0
 62
     0
 10
107.069
 20
108.862
 30
0.0
 11
107.069
 21
108.893
 31
0.0
  0
LINE
  8
0
 62
     0
 10
107.069
 20
108.893
 30
0.0
 11
106.294
 21
108.893
 31
0.0
  0
LINE
  8
0
 62
     0
 10
106.294
 20
108.893
 30
0.0
 11
106.294
 21
108.092
 31
0.0
  0
LINE
  8
0
 62
     0
 10
106.294
 20
108.092
 30
0.0
 11
104.568
 21
108.092
 31
0.0
  0
LINE
  8
0
 62
     0
 10
104.568
 20
108.092
 30
0.0
 11
104.568
 21
106.893
 31
0.0
  0
LINE
  8
0
 62
     0
 10
104.568
 20
106.893
 30
0.0
 11
101.269
 21
106.893
 31
0.0
  0
LINE
  8
0
 62
     0
 10
101.269
 20
106.893
 30
0.0
 11
101.269
 21
108.092
 31
0.0
  0
LINE
  8
0
 62
     0
 10
101.269
 20
108.092
 30
0.0
 11
99.6431
 21
108.092
 31
0.0
  0
LINE
  8
0
 62
     0
 10
99.6431
 20
108.092
 30
0.0
 11
99.6431
 21
114.362
 31
0.0
  0
LINE
  8
0
 62
     0
 10
99.6431
 20
114.362
 30
0.0
 11
98.7683
 21
114.362
 31
0.0
  0
LINE
  8
0
 62
     0
 10
98.7683
 20
114.362
 30
0.0
 11
98.7683
 21
117.162
 31
0.0
  0
LINE
  8
0
 62
     0
 10
98.7683
 20
117.162
 30
0.0
 11
99.6431
 21
117.162
 31
0.0
  0
LINE
  8
0
 62
     0
 10
99.6431
 20
117.162
 30
0.0
 11
99.6431
 21
120.392
 31
0.0
  0
LINE
  8
0
 62
     0
 10
99.6431
 20
120.392
 30
0.0
 11
106.294
 21
120.392
 31
0.0
  0
LINE
  8
0
 62
     0
 10
106.294
 20
120.392
 30
0.0
 11
106.294
 21
119.593
 31
0.0
  0
LINE
  8
0
 62
     0
 10
106.294
 20
119.593
 30
0.0
 11
107.069
 21
119.593
 31
0.0
  0
LINE
  8
0
 62
     0
 10
107.069
 20
119.593
 30
0.0
 11
107.069
 21
120.862
 31
0.0
  0
LINE
  8
0
 62
     0
 10
107.069
 20
120.862
 30
0.0
 11
107.869
 21
120.862
 31
0.0
  0
LINE
  8
0
 62
     0
 10
107.869
 20
120.862
 30
0.0
 11
107.869
 21
121.863
 31
0.0
  0
LINE
  8
0
 62
     0
 10
107.869
 20
121.863
 30
0.0
 11
121.868
 21
121.863
 31
0.0
  0
LINE
  8
0
 62
     0
 10
121.868
 20
121.863
 30
0.0
 11
121.868
 21
120.862
 31
0.0
  0
LINE
  8
0
 62
     0
 10
121.868
 20
120.862
 30
0.0
 11
122.669
 21
120.862
 31
0.0
  0
LINE
  8
0
 62
     0
 10
122.669
 20
120.862
 30
0.0
 11
122.669
 21
119.593
 31
0.0
  0
LINE
  8
0
 62
     0
 10
122.669
 20
119.593
 30
0.0
 11
123.443
 21
119.593
 31
0.0
  0
LINE
  8
0
 62
     0
 10
123.443
 20
119.593
 30
0.0
 11
123.443
 21
120.392
 31
0.0
  0
LINE
  8
0
 62
     0
 10
123.443
 20
120.392
 30
0.0
 11
130.094
 21
120.392
 31
0.0
  0
LINE
  8
0
 62
     0
 10
130.094
 20
120.392
 30
0.0
 11
130.094
 21
117.162
 31
0.0
  0
LINE
  8
0
 62
     0
 10
130.094
 20
117.162
 30
0.0
 11
130.969
 21
117.162
 31
0.0
  0
LINE
  8
0
 62
     0
 10
130.969
 20
117.162
 30
0.0
 11
130.969
 21
114.362
 31
0.0
  0
LINE
  8
0
 62
     0
 10
130.969
 20
114.362
 30
0.0
 11
130.094
 21
114.362
 31
0.0
  0
LINE
  8
0
 62
     0
 10
142
 20
57.2121
 30
0.0
 11
142
 21
50.9418
 31
0.0
  0
LINE
  8
0
 62
     0
 10
142
 20
50.9418
 30
0.0
 11
140.375
 21
50.9418
 31
0.0
  0
LINE
  8
0
 62
     0
 10
140.375
 20
50.9418
 30
0.0
 11
140.375
 21
49.7431
 31
0.0
  0
LINE
  8
0
 62
     0
 10
140.375
 20
49.7431
 30
0.0
 11
137.075
 21
49.7431
 31
0.0
  0
LINE
  8
0
 62
     0
 10
137.075
 20
49.7431
 30
0.0
 11
137.075
 21
50.9418
 31
0.0
  0
LINE
  8
0
 62
     0
 10
137.075
 20
50.9418
 30
0.0
 11
135.35
 21
50.9418
 31
0.0
  0
LINE
  8
0
 62
     0
 10
135.35
 20
50.9418
 30
0.0
 11
135.35
 21
51.7426
 31
0.0
  0
LINE
  8
0
 62
     0
 10
135.35
 20
51.7426
 30
0.0
 11
134.575
 21
51.7426
 31
0.0
  0
LINE
  8
0
 62
     0
 10
134.575
 20
51.7426
 30
0.0
 11
134.575
 21
51.7123
 31
0.0
  0
LINE
  8
0
 62
     0
 10
134.575
 20
51.7123
 30
0.0
 11
133.774
 21
51.7123
 31
0.0
  0
LINE
  8
0
 62
     0
 10
133.774
 20
51.7123
 30
0.0
 11
133.774
 21
50.7132
 31
0.0
  0
LINE
  8
0
 62
     0
 10
133.774
 20
50.7132
 30
0.0
 11
119.775
 21
50.7132
 31
0.0
  0
LINE
  8
0
 62
     0
 10
119.775
 20
50.7132
 30
0.0
 11
119.775
 21
51.7123
 31
0.0
  0
LINE
  8
0
 62
     0
 10
119.775
 20
51.7123
 30
0.0
 11
118.974
 21
51.7123
 31
0.0
  0
LINE
  8
0
 62
     0
 10
118.974
 20
51.7123
 30
0.0
 11
118.974
 21
51.7426
 31
0.0
  0
LINE
  8
0
 62
     0
 10
118.974
 20
51.7426
 30
0.0
 11
118.2
 21
51.7426
 31
0.0
  0
LINE
  8
0
 62
     0
 10
118.2
 20
51.7426
 30
0.0
 11
118.2
 21
50.9418
 31
0.0
  0
LINE
  8
0
 62
     0
 10
118.2
 20
50.9418
 30
0.0
 11
116.475
 21
50.9418
 31
0.0
  0
LINE
  8
0
 62
     0
 10
116.475
 20
50.9418
 30
0.0
 11
116.475
 21
49.7431
 31
0.0
  0
LINE
  8
0
 62
     0
 10
116.475
 20
49.7431
 30
0.0
 11
113.174
 21
49.7431
 31
0.0
  0
LINE
  8
0
 62
     0
 10
113.174
 20
49.7431
 30
0.0
 11
113.174
 21
50.9418
 31
0.0
  0
LINE
  8
0
 62
     0
 10
113.174
 20
50.9418
 30
0.0
 11
111.549
 21
50.9418
 31
0.0
  0
LINE
  8
0
 62
     0
 10
111.549
 20
50.9418
 30
0.0
 11
111.549
 21
57.2121
 31
0.0
  0
LINE
  8
0
 62
     0
 10
111.549
 20
57.2121
 30
0.0
 11
110.675
 21
57.2121
 31
0.0
  0
LINE
  8
0
 62
     0
 10
110.675
 20
57.2121
 30
0.0
 11
110.675
 21
60.0121
 31
0.0
  0
LINE
  8
0
 62
     0
 10
110.675
 20
60.0121
 30
0.0
 11
111.549
 21
60.0121
 31
0.0
  0
LINE
  8
0
 62
     0
 10
111.549
 20
60.0121
 30
0.0
 11
111.549
 21
63.2425
 31
0.0
  0
LINE
  8
0
 62
     0
 10
111.549
 20
63.2425
 30
0.0
 11
118.2
 21
63.2425
 31
0.0
  0
LINE
  8
0
 62
     0
 10
118.2
 20
63.2425
 30
0.0
 11
118.2
 21
62.4431
 31
0.0
  0
LINE
  8
0
 62
     0
 10
118.2
 20
62.4431
 30
0.0
 11
118.974
 21
62.4431
 31
0.0
  0
LINE
  8
0
 62
     0
 10
118.974
 20
62.4431
 30
0.0
 11
118.974
 21
63.7124
 31
0.0
  0
LINE
  8
0
 62
     0
 10
118.974
 20
63.7124
 30
0.0
 11
119.775
 21
63.7124
 31
0.0
  0
LINE
  8
0
 62
     0
 10
119.775
 20
63.7124
 30
0.0
 11
119.775
 21
64.7129
 31
0.0
  0
LINE
  8
0
 62
     0
 10
119.775
 20
64.7129
 30
0.0
 11
133.774
 21
64.7129
 31
0.0
  0
LINE
  8
0
 62
     0
 10
133.774
 20
64.7129
 30
0.0
 11
133.774
 21
63.7124
 31
0.0
  0
LINE
  8
0
 62
     0
 10
133.774
 20
63.7124
 30
0.0
 11
134.575
 21
63.7124
 31
0.0
  0
LINE
  8
0
 62
     0
 10
134.575
 20
63.7124
 30
0.0
 11
134.575
 21
62.4431
 31
0.0
  0
LINE
  8
0
 62
     0
 10
134.575
 20
62.4431
 30
0.0
 11
135.35
 21
62.4431
 31
0.0
  0
LINE
  8
0
 62
     0
 10
135.35
 20
62.4431
 30
0.0
 11
135.35
 21
63.2425
 31
0.0
  0
LINE
  8
0
 62
     0
 10
135.35
 20
63.2425
 30
0.0
 11
142
 21
63.2425
 31
0.0
  0
LINE
  8
0
 62
     0
 10
142
 20
63.2425
 30
0.0
 11
142
 21
60.0121
 31
0.0
  0
LINE
  8
0
 62
     0
 10
142
 20
60.0121
 30
0.0
 11
142.875
 21
60.0121
 31
0.0
  0
LINE
  8
0
 62
     0
 10
142.875
 20
60.0121
 30
0.0
 11
142.875
 21
57.2121
 31
0.0
  0
LINE
  8
0
 62
     0
 10
142.875
 20
57.2121
 30
0.0
 11
142
 21
57.2121
 31
0.0
  0
LINE
  8
0
 62
     0
 10
145.681
 20
127.912
 30
0.0
 11
145.681
 21
126.913
 31
0.0
  0
LINE
  8
0
 62
     0
 10
145.681
 20
126.913
 30
0.0
 11
131.681
 21
126.913
 31
0.0
  0
LINE
  8
0
 62
     0
 10
131.681
 20
126.913
 30
0.0
 11
131.681
 21
127.912
 31
0.0
  0
LINE
  8
0
 62
     0
 10
131.681
 20
127.912
 30
0.0
 11
130.881
 21
127.912
 31
0.0
  0
LINE
  8
0
 62
     0
 10
130.881
 20
127.912
 30
0.0
 11
130.881
 21
131.013
 31
0.0
  0
LINE
  8
0
 62
     0
 10
130.881
 20
131.013
 30
0.0
 11
131.681
 21
131.013
 31
0.0
  0
LINE
  8
0
 62
     0
 10
131.681
 20
131.013
 30
0.0
 11
131.681
 21
136.813
 31
0.0
  0
LINE
  8
0
 62
     0
 10
131.681
 20
136.813
 30
0.0
 11
130.881
 21
136.813
 31
0.0
  0
LINE
  8
0
 62
     0
 10
130.881
 20
136.813
 30
0.0
 11
130.881
 21
139.912
 31
0.0
  0
LINE
  8
0
 62
     0
 10
130.881
 20
139.912
 30
0.0
 11
131.681
 21
139.912
 31
0.0
  0
LINE
  8
0
 62
     0
 10
131.681
 20
139.912
 30
0.0
 11
131.681
 21
140.913
 31
0.0
  0
LINE
  8
0
 62
     0
 10
131.681
 20
140.913
 30
0.0
 11
145.681
 21
140.913
 31
0.0
  0
LINE
  8
0
 62
     0
 10
145.681
 20
140.913
 30
0.0
 11
145.681
 21
139.912
 31
0.0
  0
LINE
  8
0
 62
     0
 10
145.681
 20
139.912
 30
0.0
 11
146.481
 21
139.912
 31
0.0
  0
LINE
  8
0
 62
     0
 10
146.481
 20
139.912
 30
0.0
 11
146.481
 21
136.813
 31
0.0
  0
LINE
  8
0
 62
     0
 10
146.481
 20
136.813
 30
0.0
 11
145.681
 21
136.813
 31
0.0
  0
LINE
  8
0
 62
     0
 10
145.681
 20
136.813
 30
0.0
 11
145.681
 21
131.013
 31
0.0
  0
LINE
  8
0
 62
     0
 10
145.681
 20
131.013
 30
0.0
 11
146.481
 21
131.013
 31
0.0
  0
LINE
  8
0
 62
     0
 10
146.481
 20
131.013
 30
0.0
 11
146.481
 21
127.912
 31
0.0
  0
LINE
  8
0
 62
     0
 10
146.481
 20
127.912
 30
0.0
 11
145.681
 21
127.912
 31
0.0
  0
LINE
  8
0
 62
     0
 10
148.063
 20
70.7623
 30
0.0
 11
148.063
 21
69.7632
 31
0.0
  0
LINE
  8
0
 62
     0
 10
148.063
 20
69.7632
 30
0.0
 11
134.063
 21
69.7632
 31
0.0
  0
LINE
  8
0
 62
     0
 10
134.063
 20
69.7632
 30
0.0
 11
134.063
 21
70.7623
 31
0.0
  0
LINE
  8
0
 62
     0
 10
134.063
 20
70.7623
 30
0.0
 11
133.263
 21
70.7623
 31
0.0
  0
LINE
  8
0
 62
     0
 10
133.263
 20
70.7623
 30
0.0
 11
133.263
 21
73.8628
 31
0.0
  0
LINE
  8
0
 62
     0
 10
133.263
 20
73.8628
 30
0.0
 11
134.063
 21
73.8628
 31
0.0
  0
LINE
  8
0
 62
     0
 10
134.063
 20
73.8628
 30
0.0
 11
134.063
 21
79.6629
 31
0.0
  0
LINE
  8
0
 62
     0
 10
134.063
 20
79.6629
 30
0.0
 11
133.263
 21
79.6629
 31
0.0
  0
LINE
  8
0
 62
     0
 10
133.263
 20
79.6629
 30
0.0
 11
133.263
 21
82.7624
 31
0.0
  0
LINE
  8
0
 62
     0
 10
133.263
 20
82.7624
 30
0.0
 11
134.063
 21
82.7624
 31
0.0
  0
LINE
  8
0
 62
     0
 10
134.063
 20
82.7624
 30
0.0
 11
134.063
 21
83.7629
 31
0.0
  0
LINE
  8
0
 62
     0
 10
134.063
 20
83.7629
 30
0.0
 11
148.063
 21
83.7629
 31
0.0
  0
LINE
  8
0
 62
     0
 10
148.063
 20
83.7629
 30
0.0
 11
148.063
 21
82.7624
 31
0.0
  0
LINE
  8
0
 62
     0
 10
148.063
 20
82.7624
 30
0.0
 11
148.863
 21
82.7624
 31
0.0
  0
LINE
  8
0
 62
     0
 10
148.863
 20
82.7624
 30
0.0
 11
148.863
 21
79.6629
 31
0.0
  0
LINE
  8
0
 62
     0
 10
148.863
 20
79.6629
 30
0.0
 11
148.063
 21
79.6629
 31
0.0
  0
LINE
  8
0
 62
     0
 10
148.063
 20
79.6629
 30
0.0
 11
148.063
 21
73.8628
 31
0.0
  0
LINE
  8
0
 62
     0
 10
148.063
 20
73.8628
 30
0.0
 11
148.863
 21
73.8628
 31
0.0
  0
LINE
  8
0
 62
     0
 10
148.863
 20
73.8628
 30
0.0
 11
148.863
 21
70.7623
 31
0.0
  0
LINE
  8
0
 62
     0
 10
148.863
 20
70.7623
 30
0.0
 11
148.063
 21
70.7623
 31
0.0
  0
LINE
  8
0
 62
     0
 10
150.443
 20
32.6622
 30
0.0
 11
150.443
 21
31.6632
 31
0.0
  0
LINE
  8
0
 62
     0
 10
150.443
 20
31.6632
 30
0.0
 11
136.444
 21
31.6632
 31
0.0
  0
LINE
  8
0
 62
     0
 10
136.444
 20
31.6632
 30
0.0
 11
136.444
 21
32.6622
 31
0.0
  0
LINE
  8
0
 62
     0
 10
136.444
 20
32.6622
 30
0.0
 11
135.644
 21
32.6622
 31
0.0
  0
LINE
  8
0
 62
     0
 10
135.644
 20
32.6622
 30
0.0
 11
135.644
 21
35.7628
 31
0.0
  0
LINE
  8
0
 62
     0
 10
135.644
 20
35.7628
 30
0.0
 11
136.444
 21
35.7628
 31
0.0
  0
LINE
  8
0
 62
     0
 10
136.444
 20
35.7628
 30
0.0
 11
136.444
 21
41.5629
 31
0.0
  0
LINE
  8
0
 62
     0
 10
136.444
 20
41.5629
 30
0.0
 11
135.644
 21
41.5629
 31
0.0
  0
LINE
  8
0
 62
     0
 10
135.644
 20
41.5629
 30
0.0
 11
135.644
 21
44.6624
 31
0.0
  0
LINE
  8
0
 62
     0
 10
135.644
 20
44.6624
 30
0.0
 11
136.444
 21
44.6624
 31
0.0
  0
LINE
  8
0
 62
     0
 10
136.444
 20
44.6624
 30
0.0
 11
136.444
 21
45.6629
 31
0.0
  0
LINE
  8
0
 62
     0
 10
136.444
 20
45.6629
 30
0.0
 11
150.443
 21
45.6629
 31
0.0
  0
LINE
  8
0
 62
     0
 10
150.443
 20
45.6629
 30
0.0
 11
150.443
 21
44.6624
 31
0.0
  0
LINE
  8
0
 62
     0
 10
150.443
 20
44.6624
 30
0.0
 11
151.244
 21
44.6624
 31
0.0
  0
LINE
  8
0
 62
     0
 10
151.244
 20
44.6624
 30
0.0
 11
151.244
 21
41.5629
 31
0.0
  0
LINE
  8
0
 62
     0
 10
151.244
 20
41.5629
 30
0.0
 11
150.443
 21
41.5629
 31
0.0
  0
LINE
  8
0
 62
     0
 10
150.443
 20
41.5629
 30
0.0
 11
150.443
 21
35.7628
 31
0.0
  0
LINE
  8
0
 62
     0
 10
150.443
 20
35.7628
 30
0.0
 11
151.244
 21
35.7628
 31
0.0
  0
LINE
  8
0
 62
     0
 10
151.244
 20
35.7628
 30
0.0
 11
151.244
 21
32.6622
 31
0.0
  0
LINE
  8
0
 62
     0
 10
151.244
 20
32.6622
 30
0.0
 11
150.443
 21
32.6622
 31
0.0
  0
LINE
  8
0
 62
     0
 10
151.525
 20
95.3121
 30
0.0
 11
151.525
 21
89.0418
 31
0.0
  0
LINE
  8
0
 62
     0
 10
151.525
 20
89.0418
 30
0.0
 11
149.9
 21
89.0418
 31
0.0
  0
LINE
  8
0
 62
     0
 10
149.9
 20
89.0418
 30
0.0
 11
149.9
 21
87.8431
 31
0.0
  0
LINE
  8
0
 62
     0
 10
149.9
 20
87.8431
 30
0.0
 11
146.6
 21
87.8431
 31
0.0
  0
LINE
  8
0
 62
     0
 10
146.6
 20
87.8431
 30
0.0
 11
146.6
 21
89.0418
 31
0.0
  0
LINE
  8
0
 62
     0
 10
146.6
 20
89.0418
 30
0.0
 11
144.875
 21
89.0418
 31
0.0
  0
LINE
  8
0
 62
     0
 10
144.875
 20
89.0418
 30
0.0
 11
144.875
 21
89.8426
 31
0.0
  0
LINE
  8
0
 62
     0
 10
144.875
 20
89.8426
 30
0.0
 11
144.1
 21
89.8426
 31
0.0
  0
LINE
  8
0
 62
     0
 10
144.1
 20
89.8426
 30
0.0
 11
144.1
 21
89.8123
 31
0.0
  0
LINE
  8
0
 62
     0
 10
144.1
 20
89.8123
 30
0.0
 11
143.299
 21
89.8123
 31
0.0
  0
LINE
  8
0
 62
     0
 10
143.299
 20
89.8123
 30
0.0
 11
143.299
 21
88.8132
 31
0.0
  0
LINE
  8
0
 62
     0
 10
143.299
 20
88.8132
 30
0.0
 11
129.3
 21
88.8132
 31
0.0
  0
LINE
  8
0
 62
     0
 10
129.3
 20
88.8132
 30
0.0
 11
129.3
 21
89.8123
 31
0.0
  0
LINE
  8
0
 62
     0
 10
129.3
 20
89.8123
 30
0.0
 11
128.499
 21
89.8123
 31
0.0
  0
LINE
  8
0
 62
     0
 10
128.499
 20
89.8123
 30
0.0
 11
128.499
 21
89.8426
 31
0.0
  0
LINE
  8
0
 62
     0
 10
128.499
 20
89.8426
 30
0.0
 11
127.725
 21
89.8426
 31
0.0
  0
LINE
  8
0
 62
     0
 10
127.725
 20
89.8426
 30
0.0
 11
127.725
 21
89.0418
 31
0.0
  0
LINE
  8
0
 62
     0
 10
127.725
 20
89.0418
 30
0.0
 11
126
 21
89.0418
 31
0.0
  0
LINE
  8
0
 62
     0
 10
126
 20
89.0418
 30
0.0
 11
126
 21
87.8431
 31
0.0
  0
LINE
  8
0
 62
     0
 10
126
 20
87.8431
 30
0.0
 11
122.699
 21
87.8431
 31
0.0
  0
LINE
  8
0
 62
     0
 10
122.699
 20
87.8431
 30
0.0
 11
122.699
 21
89.0418
 31
0.0
  0
LINE
  8
0
 62
     0
 10
122.699
 20
89.0418
 30
0.0
 11
121.074
 21
89.0418
 31
0.0
  0
LINE
  8
0
 62
     0
 10
121.074
 20
89.0418
 30
0.0
 11
121.074
 21
95.3121
 31
0.0
  0
LINE
  8
0
 62
     0
 10
121.074
 20
95.3121
 30
0.0
 11
120.2
 21
95.3121
 31
0.0
  0
LINE
  8
0
 62
     0
 10
120.2
 20
95.3121
 30
0.0
 11
120.2
 21
98.1121
 31
0.0
  0
LINE
  8
0
 62
     0
 10
120.2
 20
98.1121
 30
0.0
 11
121.074
 21
98.1121
 31
0.0
  0
LINE
  8
0
 62
     0
 10
121.074
 20
98.1121
 30
0.0
 11
121.074
 21
101.342
 31
0.0
  0
LINE
  8
0
 62
     0
 10
121.074
 20
101.342
 30
0.0
 11
127.725
 21
101.342
 31
0.0
  0
LINE
  8
0
 62
     0
 10
127.725
 20
101.342
 30
0.0
 11
127.725
 21
100.543
 31
0.0
  0
LINE
  8
0
 62
     0
 10
127.725
 20
100.543
 30
0.0
 11
128.499
 21
100.543
 31
0.0
  0
LINE
  8
0
 62
     0
 10
128.499
 20
100.543
 30
0.0
 11
128.499
 21
101.812
 31
0.0
  0
LINE
  8
0
 62
     0
 10
128.499
 20
101.812
 30
0.0
 11
129.3
 21
101.812
 31
0.0
  0
LINE
  8
0
 62
     0
 10
129.3
 20
101.812
 30
0.0
 11
129.3
 21
102.813
 31
0.0
  0
LINE
  8
0
 62
     0
 10
129.3
 20
102.813
 30
0.0
 11
143.299
 21
102.813
 31
0.0
  0
LINE
  8
0
 62
     0
 10
143.299
 20
102.813
 30
0.0
 11
143.299
 21
101.812
 31
0.0
  0
LINE
  8
0
 62
     0
 10
143.299
 20
101.812
 30
0.0
 11
144.1
 21
101.812
 31
0.0
  0
LINE
  8
0
 62
     0
 10
144.1
 20
101.812
 30
0.0
 11
144.1
 21
100.543
 31
0.0
  0
LINE
  8
0
 62
     0
 10
144.1
 20
100.543
 30
0.0
 11
144.875
 21
100.543
 31
0.0
  0
LINE
  8
0
 62
     0
 10
144.875
 20
100.543
 30
0.0
 11
144.875
 21
101.342
 31
0.0
  0
LINE
  8
0
 62
     0
 10
144.875
 20
101.342
 30
0.0
 11
151.525
 21
101.342
 31
0.0
  0
LINE
  8
0
 62
     0
 10
151.525
 20
101.342
 30
0.0
 11
151.525
 21
98.1121
 31
0.0
  0
LINE
  8
0
 62
     0
 10
151.525
 20
98.1121
 30
0.0
 11
152.4
 21
98.1121
 31
0.0
  0
LINE
  8
0
 62
     0
 10
152.4
 20
98.1121
 30
0.0
 11
152.4
 21
95.3121
 31
0.0
  0
LINE
  8
0
 62
     0
 10
152.4
 20
95.3121
 30
0.0
 11
151.525
 21
95.3121
 31
0.0
  0
LINE
  8
0
 62
     0
 10
152.824
 20
108.862
 30
0.0
 11
152.824
 21
107.863
 31
0.0
  0
LINE
  8
0
 62
     0
 10
152.824
 20
107.863
 30
0.0
 11
138.825
 21
107.863
 31
0.0
  0
LINE
  8
0
 62
     0
 10
138.825
 20
107.863
 30
0.0
 11
138.825
 21
108.862
 31
0.0
  0
LINE
  8
0
 62
     0
 10
138.825
 20
108.862
 30
0.0
 11
138.024
 21
108.862
 31
0.0
  0
LINE
  8
0
 62
     0
 10
138.024
 20
108.862
 30
0.0
 11
138.024
 21
111.963
 31
0.0
  0
LINE
  8
0
 62
     0
 10
138.024
 20
111.963
 30
0.0
 11
138.825
 21
111.963
 31
0.0
  0
LINE
  8
0
 62
     0
 10
138.825
 20
111.963
 30
0.0
 11
138.825
 21
117.763
 31
0.0
  0
LINE
  8
0
 62
     0
 10
138.825
 20
117.763
 30
0.0
 11
138.024
 21
117.763
 31
0.0
  0
LINE
  8
0
 62
     0
 10
138.024
 20
117.763
 30
0.0
 11
138.024
 21
120.862
 31
0.0
  0
LINE
  8
0
 62
     0
 10
138.024
 20
120.862
 30
0.0
 11
138.825
 21
120.862
 31
0.0
  0
LINE
  8
0
 62
     0
 10
138.825
 20
120.862
 30
0.0
 11
138.825
 21
121.863
 31
0.0
  0
LINE
  8
0
 62
     0
 10
138.825
 20
121.863
 30
0.0
 11
152.824
 21
121.863
 31
0.0
  0
LINE
  8
0
 62
     0
 10
152.824
 20
121.863
 30
0.0
 11
152.824
 21
120.862
 31
0.0
  0
LINE
  8
0
 62
     0
 10
152.824
 20
120.862
 30
0.0
 11
153.625
 21
120.862
 31
0.0
  0
LINE
  8
0
 62
     0
 10
153.625
 20
120.862
 30
0.0
 11
153.625
 21
117.763
 31
0.0
  0
LINE
  8
0
 62
     0
 10
153.625
 20
117.763
 30
0.0
 11
152.824
 21
117.763
 31
0.0
  0
LINE
  8
0
 62
     0
 10
152.824
 20
117.763
 30
0.0
 11
152.824
 21
111.963
 31
0.0
  0
LINE
  8
0
 62
     0
 10
152.824
 20
111.963
 30
0.0
 11
153.625
 21
111.963
 31
0.0
  0
LINE
  8
0
 62
     0
 10
153.625
 20
111.963
 30
0.0
 11
153.625
 21
108.862
 31
0.0
  0
LINE
  8
0
 62
     0
 10
153.625
 20
108.862
 30
0.0
 11
152.824
 21
108.862
 31
0.0
  0
LINE
  8
0
 62
     0
 10
156.288
 20
19.112
 30
0.0
 11
156.288
 21
12.8419
 31
0.0
  0
LINE
  8
0
 62
     0
 10
156.288
 20
12.8419
 30
0.0
 11
154.613
 21
12.8419
 31
0.0
  0
LINE
  8
0
 62
     0
 10
154.613
 20
12.8419
 30
0.0
 11
154.613
 21
11.643
 31
0.0
  0
LINE
  8
0
 62
     0
 10
154.613
 20
11.643
 30
0.0
 11
151.313
 21
11.643
 31
0.0
  0
LINE
  8
0
 62
     0
 10
151.313
 20
11.643
 30
0.0
 11
151.313
 21
12.8419
 31
0.0
  0
LINE
  8
0
 62
     0
 10
151.313
 20
12.8419
 30
0.0
 11
149.638
 21
12.8419
 31
0.0
  0
LINE
  8
0
 62
     0
 10
149.638
 20
12.8419
 30
0.0
 11
149.638
 21
17.3123
 31
0.0
  0
LINE
  8
0
 62
     0
 10
149.638
 20
17.3123
 30
0.0
 11
109.963
 21
17.3123
 31
0.0
  0
LINE
  8
0
 62
     0
 10
109.963
 20
17.3123
 30
0.0
 11
109.963
 21
16.7128
 31
0.0
  0
LINE
  8
0
 62
     0
 10
109.963
 20
16.7128
 30
0.0
 11
110.763
 21
16.7128
 31
0.0
  0
LINE
  8
0
 62
     0
 10
110.763
 20
16.7128
 30
0.0
 11
110.763
 21
13.6122
 31
0.0
  0
LINE
  8
0
 62
     0
 10
110.763
 20
13.6122
 30
0.0
 11
109.963
 21
13.6122
 31
0.0
  0
LINE
  8
0
 62
     0
 10
109.963
 20
13.6122
 30
0.0
 11
109.963
 21
12.6132
 31
0.0
  0
LINE
  8
0
 62
     0
 10
109.963
 20
12.6132
 30
0.0
 11
95.9626
 21
12.6132
 31
0.0
  0
LINE
  8
0
 62
     0
 10
95.9626
 20
12.6132
 30
0.0
 11
95.9626
 21
13.6122
 31
0.0
  0
LINE
  8
0
 62
     0
 10
95.9626
 20
13.6122
 30
0.0
 11
95.1632
 21
13.6122
 31
0.0
  0
LINE
  8
0
 62
     0
 10
95.1632
 20
13.6122
 30
0.0
 11
95.1632
 21
16.7128
 31
0.0
  0
LINE
  8
0
 62
     0
 10
95.1632
 20
16.7128
 30
0.0
 11
95.9626
 21
16.7128
 31
0.0
  0
LINE
  8
0
 62
     0
 10
95.9626
 20
16.7128
 30
0.0
 11
95.9626
 21
17.3123
 31
0.0
  0
LINE
  8
0
 62
     0
 10
95.9626
 20
17.3123
 30
0.0
 11
56.2875
 21
17.3123
 31
0.0
  0
LINE
  8
0
 62
     0
 10
56.2875
 20
17.3123
 30
0.0
 11
56.2875
 21
12.8419
 31
0.0
  0
LINE
  8
0
 62
     0
 10
56.2875
 20
12.8419
 30
0.0
 11
54.6132
 21
12.8419
 31
0.0
  0
LINE
  8
0
 62
     0
 10
54.6132
 20
12.8419
 30
0.0
 11
54.6132
 21
11.643
 31
0.0
  0
LINE
  8
0
 62
     0
 10
54.6132
 20
11.643
 30
0.0
 11
51.3126
 21
11.643
 31
0.0
  0
LINE
  8
0
 62
     0
 10
51.3126
 20
11.643
 30
0.0
 11
51.3126
 21
12.8419
 31
0.0
  0
LINE
  8
0
 62
     0
 10
51.3126
 20
12.8419
 30
0.0
 11
49.6383
 21
12.8419
 31
0.0
  0
LINE
  8
0
 62
     0
 10
49.6383
 20
12.8419
 30
0.0
 11
49.6383
 21
19.112
 31
0.0
  0
LINE
  8
0
 62
     0
 10
49.6383
 20
19.112
 30
0.0
 11
48.7634
 21
19.112
 31
0.0
  0
LINE
  8
0
 62
     0
 10
48.7634
 20
19.112
 30
0.0
 11
48.7634
 21
21.9122
 31
0.0
  0
LINE
  8
0
 62
     0
 10
48.7634
 20
21.9122
 30
0.0
 11
49.6383
 21
21.9122
 31
0.0
  0
LINE
  8
0
 62
     0
 10
49.6383
 20
21.9122
 30
0.0
 11
49.6383
 21
25.1423
 31
0.0
  0
LINE
  8
0
 62
     0
 10
49.6383
 20
25.1423
 30
0.0
 11
56.2875
 21
25.1423
 31
0.0
  0
LINE
  8
0
 62
     0
 10
56.2875
 20
25.1423
 30
0.0
 11
56.2875
 21
21.9122
 31
0.0
  0
LINE
  8
0
 62
     0
 10
56.2875
 20
21.9122
 30
0.0
 11
95.9626
 21
21.9122
 31
0.0
  0
LINE
  8
0
 62
     0
 10
95.9626
 20
21.9122
 30
0.0
 11
95.9626
 21
22.513
 31
0.0
  0
LINE
  8
0
 62
     0
 10
95.9626
 20
22.513
 30
0.0
 11
95.1632
 21
22.513
 31
0.0
  0
LINE
  8
0
 62
     0
 10
95.1632
 20
22.513
 30
0.0
 11
95.1632
 21
25.6122
 31
0.0
  0
LINE
  8
0
 62
     0
 10
95.1632
 20
25.6122
 30
0.0
 11
95.9626
 21
25.6122
 31
0.0
  0
LINE
  8
0
 62
     0
 10
95.9626
 20
25.6122
 30
0.0
 11
95.9626
 21
26.6127
 31
0.0
  0
LINE
  8
0
 62
     0
 10
95.9626
 20
26.6127
 30
0.0
 11
109.963
 21
26.6127
 31
0.0
  0
LINE
  8
0
 62
     0
 10
109.963
 20
26.6127
 30
0.0
 11
109.963
 21
25.6122
 31
0.0
  0
LINE
  8
0
 62
     0
 10
109.963
 20
25.6122
 30
0.0
 11
110.763
 21
25.6122
 31
0.0
  0
LINE
  8
0
 62
     0
 10
110.763
 20
25.6122
 30
0.0
 11
110.763
 21
22.513
 31
0.0
  0
LINE
  8
0
 62
     0
 10
110.763
 20
22.513
 30
0.0
 11
109.963
 21
22.513
 31
0.0
  0
LINE
  8
0
 62
     0
 10
109.963
 20
22.513
 30
0.0
 11
109.963
 21
21.9122
 31
0.0
  0
LINE
  8
0
 62
     0
 10
109.963
 20
21.9122
 30
0.0
 11
149.638
 21
21.9122
 31
0.0
  0
LINE
  8
0
 62
     0
 10
149.638
 20
21.9122
 30
0.0
 11
149.638
 21
25.1423
 31
0.0
  0
LINE
  8
0
 62
     0
 10
149.638
 20
25.1423
 30
0.0
 11
156.288
 21
25.1423
 31
0.0
  0
LINE
  8
0
 62
     0
 10
156.288
 20
25.1423
 30
0.0
 11
156.288
 21
21.9122
 31
0.0
  0
LINE
  8
0
 62
     0
 10
156.288
 20
21.9122
 30
0.0
 11
157.163
 21
21.9122
 31
0.0
  0
LINE
  8
0
 62
     0
 10
157.163
 20
21.9122
 30
0.0
 11
157.163
 21
19.112
 31
0.0
  0
LINE
  8
0
 62
     0
 10
157.163
 20
19.112
 30
0.0
 11
156.288
 21
19.112
 31
0.0
  0
LINE
  8
0
 62
     0
 10
174.256
 20
70.7623
 30
0.0
 11
174.256
 21
69.7632
 31
0.0
  0
LINE
  8
0
 62
     0
 10
174.256
 20
69.7632
 30
0.0
 11
160.256
 21
69.7632
 31
0.0
  0
LINE
  8
0
 62
     0
 10
160.256
 20
69.7632
 30
0.0
 11
160.256
 21
70.7623
 31
0.0
  0
LINE
  8
0
 62
     0
 10
160.256
 20
70.7623
 30
0.0
 11
159.456
 21
70.7623
 31
0.0
  0
LINE
  8
0
 62
     0
 10
159.456
 20
70.7623
 30
0.0
 11
159.456
 21
73.8628
 31
0.0
  0
LINE
  8
0
 62
     0
 10
159.456
 20
73.8628
 30
0.0
 11
160.256
 21
73.8628
 31
0.0
  0
LINE
  8
0
 62
     0
 10
160.256
 20
73.8628
 30
0.0
 11
160.256
 21
79.6629
 31
0.0
  0
LINE
  8
0
 62
     0
 10
160.256
 20
79.6629
 30
0.0
 11
159.456
 21
79.6629
 31
0.0
  0
LINE
  8
0
 62
     0
 10
159.456
 20
79.6629
 30
0.0
 11
159.456
 21
82.7624
 31
0.0
  0
LINE
  8
0
 62
     0
 10
159.456
 20
82.7624
 30
0.0
 11
160.256
 21
82.7624
 31
0.0
  0
LINE
  8
0
 62
     0
 10
160.256
 20
82.7624
 30
0.0
 11
160.256
 21
83.7629
 31
0.0
  0
LINE
  8
0
 62
     0
 10
160.256
 20
83.7629
 30
0.0
 11
174.256
 21
83.7629
 31
0.0
  0
LINE
  8
0
 62
     0
 10
174.256
 20
83.7629
 30
0.0
 11
174.256
 21
82.7624
 31
0.0
  0
LINE
  8
0
 62
     0
 10
174.256
 20
82.7624
 30
0.0
 11
175.056
 21
82.7624
 31
0.0
  0
LINE
  8
0
 62
     0
 10
175.056
 20
82.7624
 30
0.0
 11
175.056
 21
79.6629
 31
0.0
  0
LINE
  8
0
 62
     0
 10
175.056
 20
79.6629
 30
0.0
 11
174.256
 21
79.6629
 31
0.0
  0
LINE
  8
0
 62
     0
 10
174.256
 20
79.6629
 30
0.0
 11
174.256
 21
73.8628
 31
0.0
  0
LINE
  8
0
 62
     0
 10
174.256
 20
73.8628
 30
0.0
 11
175.056
 21
73.8628
 31
0.0
  0
LINE
  8
0
 62
     0
 10
175.056
 20
73.8628
 30
0.0
 11
175.056
 21
70.7623
 31
0.0
  0
LINE
  8
0
 62
     0
 10
175.056
 20
70.7623
 30
0.0
 11
174.256
 21
70.7623
 31
0.0
  0
LINE
  8
0
 62
     0
 10
176.638
 20
127.912
 30
0.0
 11
176.638
 21
126.913
 31
0.0
  0
LINE
  8
0
 62
     0
 10
176.638
 20
126.913
 30
0.0
 11
162.638
 21
126.913
 31
0.0
  0
LINE
  8
0
 62
     0
 10
162.638
 20
126.913
 30
0.0
 11
162.638
 21
127.912
 31
0.0
  0
LINE
  8
0
 62
     0
 10
162.638
 20
127.912
 30
0.0
 11
161.838
 21
127.912
 31
0.0
  0
LINE
  8
0
 62
     0
 10
161.838
 20
127.912
 30
0.0
 11
161.838
 21
131.013
 31
0.0
  0
LINE
  8
0
 62
     0
 10
161.838
 20
131.013
 30
0.0
 11
162.638
 21
131.013
 31
0.0
  0
LINE
  8
0
 62
     0
 10
162.638
 20
131.013
 30
0.0
 11
162.638
 21
136.813
 31
0.0
  0
LINE
  8
0
 62
     0
 10
162.638
 20
136.813
 30
0.0
 11
161.838
 21
136.813
 31
0.0
  0
LINE
  8
0
 62
     0
 10
161.838
 20
136.813
 30
0.0
 11
161.838
 21
139.912
 31
0.0
  0
LINE
  8
0
 62
     0
 10
161.838
 20
139.912
 30
0.0
 11
162.638
 21
139.912
 31
0.0
  0
LINE
  8
0
 62
     0
 10
162.638
 20
139.912
 30
0.0
 11
162.638
 21
140.913
 31
0.0
  0
LINE
  8
0
 62
     0
 10
162.638
 20
140.913
 30
0.0
 11
176.638
 21
140.913
 31
0.0
  0
LINE
  8
0
 62
     0
 10
176.638
 20
140.913
 30
0.0
 11
176.638
 21
139.912
 31
0.0
  0
LINE
  8
0
 62
     0
 10
176.638
 20
139.912
 30
0.0
 11
177.438
 21
139.912
 31
0.0
  0
LINE
  8
0
 62
     0
 10
177.438
 20
139.912
 30
0.0
 11
177.438
 21
136.813
 31
0.0
  0
LINE
  8
0
 62
     0
 10
177.438
 20
136.813
 30
0.0
 11
176.638
 21
136.813
 31
0.0
  0
LINE
  8
0
 62
     0
 10
176.638
 20
136.813
 30
0.0
 11
176.638
 21
131.013
 31
0.0
  0
LINE
  8
0
 62
     0
 10
176.638
 20
131.013
 30
0.0
 11
177.438
 21
131.013
 31
0.0
  0
LINE
  8
0
 62
     0
 10
177.438
 20
131.013
 30
0.0
 11
177.438
 21
127.912
 31
0.0
  0
LINE
  8
0
 62
     0
 10
177.438
 20
127.912
 30
0.0
 11
176.638
 21
127.912
 31
0.0
  0
LINE
  8
0
 62
     0
 10
176.638
 20
108.862
 30
0.0
 11
176.638
 21
107.863
 31
0.0
  0
LINE
  8
0
 62
     0
 10
176.638
 20
107.863
 30
0.0
 11
162.638
 21
107.863
 31
0.0
  0
LINE
  8
0
 62
     0
 10
162.638
 20
107.863
 30
0.0
 11
162.638
 21
108.862
 31
0.0
  0
LINE
  8
0
 62
     0
 10
162.638
 20
108.862
 30
0.0
 11
161.838
 21
108.862
 31
0.0
  0
LINE
  8
0
 62
     0
 10
161.838
 20
108.862
 30
0.0
 11
161.838
 21
111.963
 31
0.0
  0
LINE
  8
0
 62
     0
 10
161.838
 20
111.963
 30
0.0
 11
162.638
 21
111.963
 31
0.0
  0
LINE
  8
0
 62
     0
 10
162.638
 20
111.963
 30
0.0
 11
162.638
 21
117.763
 31
0.0
  0
LINE
  8
0
 62
     0
 10
162.638
 20
117.763
 30
0.0
 11
161.838
 21
117.763
 31
0.0
  0
LINE
  8
0
 62
     0
 10
161.838
 20
117.763
 30
0.0
 11
161.838
 21
120.862
 31
0.0
  0
LINE
  8
0
 62
     0
 10
161.838
 20
120.862
 30
0.0
 11
162.638
 21
120.862
 31
0.0
  0
LINE
  8
0
 62
     0
 10
162.638
 20
120.862
 30
0.0
 11
162.638
 21
121.863
 31
0.0
  0
LINE
  8
0
 62
     0
 10
162.638
 20
121.863
 30
0.0
 11
176.638
 21
121.863
 31
0.0
  0
LINE
  8
0
 62
     0
 10
176.638
 20
121.863
 30
0.0
 11
176.638
 21
120.862
 31
0.0
  0
LINE
  8
0
 62
     0
 10
176.638
 20
120.862
 30
0.0
 11
177.438
 21
120.862
 31
0.0
  0
LINE
  8
0
 62
     0
 10
177.438
 20
120.862
 30
0.0
 11
177.438
 21
117.763
 31
0.0
  0
LINE
  8
0
 62
     0
 10
177.438
 20
117.763
 30
0.0
 11
176.638
 21
117.763
 31
0.0
  0
LINE
  8
0
 62
     0
 10
176.638
 20
117.763
 30
0.0
 11
176.638
 21
111.963
 31
0.0
  0
LINE
  8
0
 62
     0
 10
176.638
 20
111.963
 30
0.0
 11
177.438
 21
111.963
 31
0.0
  0
LINE
  8
0
 62
     0
 10
177.438
 20
111.963
 30
0.0
 11
177.438
 21
108.862
 31
0.0
  0
LINE
  8
0
 62
     0
 10
177.438
 20
108.862
 30
0.0
 11
176.638
 21
108.862
 31
0.0
  0
LINE
  8
0
 62
     0
 10
176.638
 20
89.8123
 30
0.0
 11
176.638
 21
88.8132
 31
0.0
  0
LINE
  8
0
 62
     0
 10
176.638
 20
88.8132
 30
0.0
 11
162.638
 21
88.8132
 31
0.0
  0
LINE
  8
0
 62
     0
 10
162.638
 20
88.8132
 30
0.0
 11
162.638
 21
89.8123
 31
0.0
  0
LINE
  8
0
 62
     0
 10
162.638
 20
89.8123
 30
0.0
 11
161.838
 21
89.8123
 31
0.0
  0
LINE
  8
0
 62
     0
 10
161.838
 20
89.8123
 30
0.0
 11
161.838
 21
92.9128
 31
0.0
  0
LINE
  8
0
 62
     0
 10
161.838
 20
92.9128
 30
0.0
 11
162.638
 21
92.9128
 31
0.0
  0
LINE
  8
0
 62
     0
 10
162.638
 20
92.9128
 30
0.0
 11
162.638
 21
98.7129
 31
0.0
  0
LINE
  8
0
 62
     0
 10
162.638
 20
98.7129
 30
0.0
 11
161.838
 21
98.7129
 31
0.0
  0
LINE
  8
0
 62
     0
 10
161.838
 20
98.7129
 30
0.0
 11
161.838
 21
101.812
 31
0.0
  0
LINE
  8
0
 62
     0
 10
161.838
 20
101.812
 30
0.0
 11
162.638
 21
101.812
 31
0.0
  0
LINE
  8
0
 62
     0
 10
162.638
 20
101.812
 30
0.0
 11
162.638
 21
102.813
 31
0.0
  0
LINE
  8
0
 62
     0
 10
162.638
 20
102.813
 30
0.0
 11
176.638
 21
102.813
 31
0.0
  0
LINE
  8
0
 62
     0
 10
176.638
 20
102.813
 30
0.0
 11
176.638
 21
101.812
 31
0.0
  0
LINE
  8
0
 62
     0
 10
176.638
 20
101.812
 30
0.0
 11
177.438
 21
101.812
 31
0.0
  0
LINE
  8
0
 62
     0
 10
177.438
 20
101.812
 30
0.0
 11
177.438
 21
98.7129
 31
0.0
  0
LINE
  8
0
 62
     0
 10
177.438
 20
98.7129
 30
0.0
 11
176.638
 21
98.7129
 31
0.0
  0
LINE
  8
0
 62
     0
 10
176.638
 20
98.7129
 30
0.0
 11
176.638
 21
92.9128
 31
0.0
  0
LINE
  8
0
 62
     0
 10
176.638
 20
92.9128
 30
0.0
 11
177.438
 21
92.9128
 31
0.0
  0
LINE
  8
0
 62
     0
 10
177.438
 20
92.9128
 30
0.0
 11
177.438
 21
89.8123
 31
0.0
  0
LINE
  8
0
 62
     0
 10
177.438
 20
89.8123
 30
0.0
 11
176.638
 21
89.8123
 31
0.0
  0
LINE
  8
0
 62
     0
 10
176.638
 20
32.6622
 30
0.0
 11
176.638
 21
31.6632
 31
0.0
  0
LINE
  8
0
 62
     0
 10
176.638
 20
31.6632
 30
0.0
 11
162.638
 21
31.6632
 31
0.0
  0
LINE
  8
0
 62
     0
 10
162.638
 20
31.6632
 30
0.0
 11
162.638
 21
32.6622
 31
0.0
  0
LINE
  8
0
 62
     0
 10
162.638
 20
32.6622
 30
0.0
 11
161.838
 21
32.6622
 31
0.0
  0
LINE
  8
0
 62
     0
 10
161.838
 20
32.6622
 30
0.0
 11
161.838
 21
35.7628
 31
0.0
  0
LINE
  8
0
 62
     0
 10
161.838
 20
35.7628
 30
0.0
 11
162.638
 21
35.7628
 31
0.0
  0
LINE
  8
0
 62
     0
 10
162.638
 20
35.7628
 30
0.0
 11
162.638
 21
41.5629
 31
0.0
  0
LINE
  8
0
 62
     0
 10
162.638
 20
41.5629
 30
0.0
 11
161.838
 21
41.5629
 31
0.0
  0
LINE
  8
0
 62
     0
 10
161.838
 20
41.5629
 30
0.0
 11
161.838
 21
44.6624
 31
0.0
  0
LINE
  8
0
 62
     0
 10
161.838
 20
44.6624
 30
0.0
 11
162.638
 21
44.6624
 31
0.0
  0
LINE
  8
0
 62
     0
 10
162.638
 20
44.6624
 30
0.0
 11
162.638
 21
45.6629
 31
0.0
  0
LINE
  8
0
 62
     0
 10
162.638
 20
45.6629
 30
0.0
 11
176.638
 21
45.6629
 31
0.0
  0
LINE
  8
0
 62
     0
 10
176.638
 20
45.6629
 30
0.0
 11
176.638
 21
44.6624
 31
0.0
  0
LINE
  8
0
 62
     0
 10
176.638
 20
44.6624
 30
0.0
 11
177.438
 21
44.6624
 31
0.0
  0
LINE
  8
0
 62
     0
 10
177.438
 20
44.6624
 30
0.0
 11
177.438
 21
41.5629
 31
0.0
  0
LINE
  8
0
 62
     0
 10
177.438
 20
41.5629
 30
0.0
 11
176.638
 21
41.5629
 31
0.0
  0
LINE
  8
0
 62
     0
 10
176.638
 20
41.5629
 30
0.0
 11
176.638
 21
35.7628
 31
0.0
  0
LINE
  8
0
 62
     0
 10
176.638
 20
35.7628
 30
0.0
 11
177.438
 21
35.7628
 31
0.0
  0
LINE
  8
0
 62
     0
 10
177.438
 20
35.7628
 30
0.0
 11
177.438
 21
32.6622
 31
0.0
  0
LINE
  8
0
 62
     0
 10
177.438
 20
32.6622
 30
0.0
 11
176.638
 21
32.6622
 31
0.0
  0
LINE
  8
0
 62
     0
 10
181.399
 20
13.6122
 30
0.0
 11
181.399
 21
12.6132
 31
0.0
  0
LINE
  8
0
 62
     0
 10
181.399
 20
12.6132
 30
0.0
 11
167.4
 21
12.6132
 31
0.0
  0
LINE
  8
0
 62
     0
 10
167.4
 20
12.6132
 30
0.0
 11
167.4
 21
13.6122
 31
0.0
  0
LINE
  8
0
 62
     0
 10
167.4
 20
13.6122
 30
0.0
 11
166.599
 21
13.6122
 31
0.0
  0
LINE
  8
0
 62
     0
 10
166.599
 20
13.6122
 30
0.0
 11
166.599
 21
16.7128
 31
0.0
  0
LINE
  8
0
 62
     0
 10
166.599
 20
16.7128
 30
0.0
 11
167.4
 21
16.7128
 31
0.0
  0
LINE
  8
0
 62
     0
 10
167.4
 20
16.7128
 30
0.0
 11
167.4
 21
22.513
 31
0.0
  0
LINE
  8
0
 62
     0
 10
167.4
 20
22.513
 30
0.0
 11
166.599
 21
22.513
 31
0.0
  0
LINE
  8
0
 62
     0
 10
166.599
 20
22.513
 30
0.0
 11
166.599
 21
25.6122
 31
0.0
  0
LINE
  8
0
 62
     0
 10
166.599
 20
25.6122
 30
0.0
 11
167.4
 21
25.6122
 31
0.0
  0
LINE
  8
0
 62
     0
 10
167.4
 20
25.6122
 30
0.0
 11
167.4
 21
26.6127
 31
0.0
  0
LINE
  8
0
 62
     0
 10
167.4
 20
26.6127
 30
0.0
 11
181.399
 21
26.6127
 31
0.0
  0
LINE
  8
0
 62
     0
 10
181.399
 20
26.6127
 30
0.0
 11
181.399
 21
25.6122
 31
0.0
  0
LINE
  8
0
 62
     0
 10
181.399
 20
25.6122
 30
0.0
 11
182.2
 21
25.6122
 31
0.0
  0
LINE
  8
0
 62
     0
 10
182.2
 20
25.6122
 30
0.0
 11
182.2
 21
22.513
 31
0.0
  0
LINE
  8
0
 62
     0
 10
182.2
 20
22.513
 30
0.0
 11
181.399
 21
22.513
 31
0.0
  0
LINE
  8
0
 62
     0
 10
181.399
 20
22.513
 30
0.0
 11
181.399
 21
16.7128
 31
0.0
  0
LINE
  8
0
 62
     0
 10
181.399
 20
16.7128
 30
0.0
 11
182.2
 21
16.7128
 31
0.0
  0
LINE
  8
0
 62
     0
 10
182.2
 20
16.7128
 30
0.0
 11
182.2
 21
13.6122
 31
0.0
  0
LINE
  8
0
 62
     0
 10
182.2
 20
13.6122
 30
0.0
 11
181.399
 21
13.6122
 31
0.0
  0
LINE
  8
0
 62
     0
 10
187.244
 20
57.2121
 30
0.0
 11
187.244
 21
50.9418
 31
0.0
  0
LINE
  8
0
 62
     0
 10
187.244
 20
50.9418
 30
0.0
 11
185.619
 21
50.9418
 31
0.0
  0
LINE
  8
0
 62
     0
 10
185.619
 20
50.9418
 30
0.0
 11
185.619
 21
49.7431
 31
0.0
  0
LINE
  8
0
 62
     0
 10
185.619
 20
49.7431
 30
0.0
 11
182.319
 21
49.7431
 31
0.0
  0
LINE
  8
0
 62
     0
 10
182.319
 20
49.7431
 30
0.0
 11
182.319
 21
50.9418
 31
0.0
  0
LINE
  8
0
 62
     0
 10
182.319
 20
50.9418
 30
0.0
 11
180.593
 21
50.9418
 31
0.0
  0
LINE
  8
0
 62
     0
 10
180.593
 20
50.9418
 30
0.0
 11
180.593
 21
51.7426
 31
0.0
  0
LINE
  8
0
 62
     0
 10
180.593
 20
51.7426
 30
0.0
 11
179.819
 21
51.7426
 31
0.0
  0
LINE
  8
0
 62
     0
 10
179.819
 20
51.7426
 30
0.0
 11
179.819
 21
51.7123
 31
0.0
  0
LINE
  8
0
 62
     0
 10
179.819
 20
51.7123
 30
0.0
 11
179.018
 21
51.7123
 31
0.0
  0
LINE
  8
0
 62
     0
 10
179.018
 20
51.7123
 30
0.0
 11
179.018
 21
50.7132
 31
0.0
  0
LINE
  8
0
 62
     0
 10
179.018
 20
50.7132
 30
0.0
 11
165.019
 21
50.7132
 31
0.0
  0
LINE
  8
0
 62
     0
 10
165.019
 20
50.7132
 30
0.0
 11
165.019
 21
51.7123
 31
0.0
  0
LINE
  8
0
 62
     0
 10
165.019
 20
51.7123
 30
0.0
 11
164.219
 21
51.7123
 31
0.0
  0
LINE
  8
0
 62
     0
 10
164.219
 20
51.7123
 30
0.0
 11
164.219
 21
51.7426
 31
0.0
  0
LINE
  8
0
 62
     0
 10
164.219
 20
51.7426
 30
0.0
 11
163.444
 21
51.7426
 31
0.0
  0
LINE
  8
0
 62
     0
 10
163.444
 20
51.7426
 30
0.0
 11
163.444
 21
50.9418
 31
0.0
  0
LINE
  8
0
 62
     0
 10
163.444
 20
50.9418
 30
0.0
 11
161.718
 21
50.9418
 31
0.0
  0
LINE
  8
0
 62
     0
 10
161.718
 20
50.9418
 30
0.0
 11
161.718
 21
49.7431
 31
0.0
  0
LINE
  8
0
 62
     0
 10
161.718
 20
49.7431
 30
0.0
 11
158.419
 21
49.7431
 31
0.0
  0
LINE
  8
0
 62
     0
 10
158.419
 20
49.7431
 30
0.0
 11
158.419
 21
50.9418
 31
0.0
  0
LINE
  8
0
 62
     0
 10
158.419
 20
50.9418
 30
0.0
 11
156.793
 21
50.9418
 31
0.0
  0
LINE
  8
0
 62
     0
 10
156.793
 20
50.9418
 30
0.0
 11
156.793
 21
57.2121
 31
0.0
  0
LINE
  8
0
 62
     0
 10
156.793
 20
57.2121
 30
0.0
 11
155.918
 21
57.2121
 31
0.0
  0
LINE
  8
0
 62
     0
 10
155.918
 20
57.2121
 30
0.0
 11
155.918
 21
60.0121
 31
0.0
  0
LINE
  8
0
 62
     0
 10
155.918
 20
60.0121
 30
0.0
 11
156.793
 21
60.0121
 31
0.0
  0
LINE
  8
0
 62
     0
 10
156.793
 20
60.0121
 30
0.0
 11
156.793
 21
63.2425
 31
0.0
  0
LINE
  8
0
 62
     0
 10
156.793
 20
63.2425
 30
0.0
 11
163.444
 21
63.2425
 31
0.0
  0
LINE
  8
0
 62
     0
 10
163.444
 20
63.2425
 30
0.0
 11
163.444
 21
62.4431
 31
0.0
  0
LINE
  8
0
 62
     0
 10
163.444
 20
62.4431
 30
0.0
 11
164.219
 21
62.4431
 31
0.0
  0
LINE
  8
0
 62
     0
 10
164.219
 20
62.4431
 30
0.0
 11
164.219
 21
63.7124
 31
0.0
  0
LINE
  8
0
 62
     0
 10
164.219
 20
63.7124
 30
0.0
 11
165.019
 21
63.7124
 31
0.0
  0
LINE
  8
0
 62
     0
 10
165.019
 20
63.7124
 30
0.0
 11
165.019
 21
64.7129
 31
0.0
  0
LINE
  8
0
 62
     0
 10
165.019
 20
64.7129
 30
0.0
 11
179.018
 21
64.7129
 31
0.0
  0
LINE
  8
0
 62
     0
 10
179.018
 20
64.7129
 30
0.0
 11
179.018
 21
63.7124
 31
0.0
  0
LINE
  8
0
 62
     0
 10
179.018
 20
63.7124
 30
0.0
 11
179.819
 21
63.7124
 31
0.0
  0
LINE
  8
0
 62
     0
 10
179.819
 20
63.7124
 30
0.0
 11
179.819
 21
62.4431
 31
0.0
  0
LINE
  8
0
 62
     0
 10
179.819
 20
62.4431
 30
0.0
 11
180.593
 21
62.4431
 31
0.0
  0
LINE
  8
0
 62
     0
 10
180.593
 20
62.4431
 30
0.0
 11
180.593
 21
63.2425
 31
0.0
  0
LINE
  8
0
 62
     0
 10
180.593
 20
63.2425
 30
0.0
 11
187.244
 21
63.2425
 31
0.0
  0
LINE
  8
0
 62
     0
 10
187.244
 20
63.2425
 30
0.0
 11
187.244
 21
60.0121
 31
0.0
  0
LINE
  8
0
 62
     0
 10
187.244
 20
60.0121
 30
0.0
 11
188.119
 21
60.0121
 31
0.0
  0
LINE
  8
0
 62
     0
 10
188.119
 20
60.0121
 30
0.0
 11
188.119
 21
57.2121
 31
0.0
  0
LINE
  8
0
 62
     0
 10
188.119
 20
57.2121
 30
0.0
 11
187.244
 21
57.2121
 31
0.0
  0
LINE
  8
0
 62
     0
 10
198.068
 20
70.7623
 30
0.0
 11
198.068
 21
69.7632
 31
0.0
  0
LINE
  8
0
 62
     0
 10
198.068
 20
69.7632
 30
0.0
 11
184.069
 21
69.7632
 31
0.0
  0
LINE
  8
0
 62
     0
 10
184.069
 20
69.7632
 30
0.0
 11
184.069
 21
70.7623
 31
0.0
  0
LINE
  8
0
 62
     0
 10
184.069
 20
70.7623
 30
0.0
 11
183.269
 21
70.7623
 31
0.0
  0
LINE
  8
0
 62
     0
 10
183.269
 20
70.7623
 30
0.0
 11
183.269
 21
73.8628
 31
0.0
  0
LINE
  8
0
 62
     0
 10
183.269
 20
73.8628
 30
0.0
 11
184.069
 21
73.8628
 31
0.0
  0
LINE
  8
0
 62
     0
 10
184.069
 20
73.8628
 30
0.0
 11
184.069
 21
79.6629
 31
0.0
  0
LINE
  8
0
 62
     0
 10
184.069
 20
79.6629
 30
0.0
 11
183.269
 21
79.6629
 31
0.0
  0
LINE
  8
0
 62
     0
 10
183.269
 20
79.6629
 30
0.0
 11
183.269
 21
82.7624
 31
0.0
  0
LINE
  8
0
 62
     0
 10
183.269
 20
82.7624
 30
0.0
 11
184.069
 21
82.7624
 31
0.0
  0
LINE
  8
0
 62
     0
 10
184.069
 20
82.7624
 30
0.0
 11
184.069
 21
83.7629
 31
0.0
  0
LINE
  8
0
 62
     0
 10
184.069
 20
83.7629
 30
0.0
 11
198.068
 21
83.7629
 31
0.0
  0
LINE
  8
0
 62
     0
 10
198.068
 20
83.7629
 30
0.0
 11
198.068
 21
82.7624
 31
0.0
  0
LINE
  8
0
 62
     0
 10
198.068
 20
82.7624
 30
0.0
 11
198.869
 21
82.7624
 31
0.0
  0
LINE
  8
0
 62
     0
 10
198.869
 20
82.7624
 30
0.0
 11
198.869
 21
79.6629
 31
0.0
  0
LINE
  8
0
 62
     0
 10
198.869
 20
79.6629
 30
0.0
 11
198.068
 21
79.6629
 31
0.0
  0
LINE
  8
0
 62
     0
 10
198.068
 20
79.6629
 30
0.0
 11
198.068
 21
73.8628
 31
0.0
  0
LINE
  8
0
 62
     0
 10
198.068
 20
73.8628
 30
0.0
 11
198.869
 21
73.8628
 31
0.0
  0
LINE
  8
0
 62
     0
 10
198.869
 20
73.8628
 30
0.0
 11
198.869
 21
70.7623
 31
0.0
  0
LINE
  8
0
 62
     0
 10
198.869
 20
70.7623
 30
0.0
 11
198.068
 21
70.7623
 31
0.0
  0
LINE
  8
0
 62
     0
 10
198.068
 20
108.862
 30
0.0
 11
198.068
 21
107.863
 31
0.0
  0
LINE
  8
0
 62
     0
 10
198.068
 20
107.863
 30
0.0
 11
184.069
 21
107.863
 31
0.0
  0
LINE
  8
0
 62
     0
 10
184.069
 20
107.863
 30
0.0
 11
184.069
 21
108.862
 31
0.0
  0
LINE
  8
0
 62
     0
 10
184.069
 20
108.862
 30
0.0
 11
183.269
 21
108.862
 31
0.0
  0
LINE
  8
0
 62
     0
 10
183.269
 20
108.862
 30
0.0
 11
183.269
 21
111.963
 31
0.0
  0
LINE
  8
0
 62
     0
 10
183.269
 20
111.963
 30
0.0
 11
184.069
 21
111.963
 31
0.0
  0
LINE
  8
0
 62
     0
 10
184.069
 20
111.963
 30
0.0
 11
184.069
 21
117.763
 31
0.0
  0
LINE
  8
0
 62
     0
 10
184.069
 20
117.763
 30
0.0
 11
183.269
 21
117.763
 31
0.0
  0
LINE
  8
0
 62
     0
 10
183.269
 20
117.763
 30
0.0
 11
183.269
 21
120.862
 31
0.0
  0
LINE
  8
0
 62
     0
 10
183.269
 20
120.862
 30
0.0
 11
184.069
 21
120.862
 31
0.0
  0
LINE
  8
0
 62
     0
 10
184.069
 20
120.862
 30
0.0
 11
184.069
 21
121.863
 31
0.0
  0
LINE
  8
0
 62
     0
 10
184.069
 20
121.863
 30
0.0
 11
198.068
 21
121.863
 31
0.0
  0
LINE
  8
0
 62
     0
 10
198.068
 20
121.863
 30
0.0
 11
198.068
 21
120.862
 31
0.0
  0
LINE
  8
0
 62
     0
 10
198.068
 20
120.862
 30
0.0
 11
198.869
 21
120.862
 31
0.0
  0
LINE
  8
0
 62
     0
 10
198.869
 20
120.862
 30
0.0
 11
198.869
 21
117.763
 31
0.0
  0
LINE
  8
0
 62
     0
 10
198.869
 20
117.763
 30
0.0
 11
198.068
 21
117.763
 31
0.0
  0
LINE
  8
0
 62
     0
 10
198.068
 20
117.763
 30
0.0
 11
198.068
 21
111.963
 31
0.0
  0
LINE
  8
0
 62
     0
 10
198.068
 20
111.963
 30
0.0
 11
198.869
 21
111.963
 31
0.0
  0
LINE
  8
0
 62
     0
 10
198.869
 20
111.963
 30
0.0
 11
198.869
 21
108.862
 31
0.0
  0
LINE
  8
0
 62
     0
 10
198.869
 20
108.862
 30
0.0
 11
198.068
 21
108.862
 31
0.0
  0
LINE
  8
0
 62
     0
 10
198.068
 20
89.8123
 30
0.0
 11
198.068
 21
88.8132
 31
0.0
  0
LINE
  8
0
 62
     0
 10
198.068
 20
88.8132
 30
0.0
 11
184.069
 21
88.8132
 31
0.0
  0
LINE
  8
0
 62
     0
 10
184.069
 20
88.8132
 30
0.0
 11
184.069
 21
89.8123
 31
0.0
  0
LINE
  8
0
 62
     0
 10
184.069
 20
89.8123
 30
0.0
 11
183.269
 21
89.8123
 31
0.0
  0
LINE
  8
0
 62
     0
 10
183.269
 20
89.8123
 30
0.0
 11
183.269
 21
92.9128
 31
0.0
  0
LINE
  8
0
 62
     0
 10
183.269
 20
92.9128
 30
0.0
 11
184.069
 21
92.9128
 31
0.0
  0
LINE
  8
0
 62
     0
 10
184.069
 20
92.9128
 30
0.0
 11
184.069
 21
98.7129
 31
0.0
  0
LINE
  8
0
 62
     0
 10
184.069
 20
98.7129
 30
0.0
 11
183.269
 21
98.7129
 31
0.0
  0
LINE
  8
0
 62
     0
 10
183.269
 20
98.7129
 30
0.0
 11
183.269
 21
101.812
 31
0.0
  0
LINE
  8
0
 62
     0
 10
183.269
 20
101.812
 30
0.0
 11
184.069
 21
101.812
 31
0.0
  0
LINE
  8
0
 62
     0
 10
184.069
 20
101.812
 30
0.0
 11
184.069
 21
102.813
 31
0.0
  0
LINE
  8
0
 62
     0
 10
184.069
 20
102.813
 30
0.0
 11
198.068
 21
102.813
 31
0.0
  0
LINE
  8
0
 62
     0
 10
198.068
 20
102.813
 30
0.0
 11
198.068
 21
101.812
 31
0.0
  0
LINE
  8
0
 62
     0
 10
198.068
 20
101.812
 30
0.0
 11
198.869
 21
101.812
 31
0.0
  0
LINE
  8
0
 62
     0
 10
198.869
 20
101.812
 30
0.0
 11
198.869
 21
98.7129
 31
0.0
  0
LINE
  8
0
 62
     0
 10
198.869
 20
98.7129
 30
0.0
 11
198.068
 21
98.7129
 31
0.0
  0
LINE
  8
0
 62
     0
 10
198.068
 20
98.7129
 30
0.0
 11
198.068
 21
92.9128
 31
0.0
  0
LINE
  8
0
 62
     0
 10
198.068
 20
92.9128
 30
0.0
 11
198.869
 21
92.9128
 31
0.0
  0
LINE
  8
0
 62
     0
 10
198.869
 20
92.9128
 30
0.0
 11
198.869
 21
89.8123
 31
0.0
  0
LINE
  8
0
 62
     0
 10
198.869
 20
89.8123
 30
0.0
 11
198.068
 21
89.8123
 31
0.0
  0
LINE
  8
0
 62
     0
 10
198.068
 20
32.6622
 30
0.0
 11
198.068
 21
31.6632
 31
0.0
  0
LINE
  8
0
 62
     0
 10
198.068
 20
31.6632
 30
0.0
 11
184.069
 21
31.6632
 31
0.0
  0
LINE
  8
0
 62
     0
 10
184.069
 20
31.6632
 30
0.0
 11
184.069
 21
32.6622
 31
0.0
  0
LINE
  8
0
 62
     0
 10
184.069
 20
32.6622
 30
0.0
 11
183.269
 21
32.6622
 31
0.0
  0
LINE
  8
0
 62
     0
 10
183.269
 20
32.6622
 30
0.0
 11
183.269
 21
35.7628
 31
0.0
  0
LINE
  8
0
 62
     0
 10
183.269
 20
35.7628
 30
0.0
 11
184.069
 21
35.7628
 31
0.0
  0
LINE
  8
0
 62
     0
 10
184.069
 20
35.7628
 30
0.0
 11
184.069
 21
41.5629
 31
0.0
  0
LINE
  8
0
 62
     0
 10
184.069
 20
41.5629
 30
0.0
 11
183.269
 21
41.5629
 31
0.0
  0
LINE
  8
0
 62
     0
 10
183.269
 20
41.5629
 30
0.0
 11
183.269
 21
44.6624
 31
0.0
  0
LINE
  8
0
 62
     0
 10
183.269
 20
44.6624
 30
0.0
 11
184.069
 21
44.6624
 31
0.0
  0
LINE
  8
0
 62
     0
 10
184.069
 20
44.6624
 30
0.0
 11
184.069
 21
45.6629
 31
0.0
  0
LINE
  8
0
 62
     0
 10
184.069
 20
45.6629
 30
0.0
 11
198.068
 21
45.6629
 31
0.0
  0
LINE
  8
0
 62
     0
 10
198.068
 20
45.6629
 30
0.0
 11
198.068
 21
44.6624
 31
0.0
  0
LINE
  8
0
 62
     0
 10
198.068
 20
44.6624
 30
0.0
 11
198.869
 21
44.6624
 31
0.0
  0
LINE
  8
0
 62
     0
 10
198.869
 20
44.6624
 30
0.0
 11
198.869
 21
41.5629
 31
0.0
  0
LINE
  8
0
 62
     0
 10
198.869
 20
41.5629
 30
0.0
 11
198.068
 21
41.5629
 31
0.0
  0
LINE
  8
0
 62
     0
 10
198.068
 20
41.5629
 30
0.0
 11
198.068
 21
35.7628
 31
0.0
  0
LINE
  8
0
 62
     0
 10
198.068
 20
35.7628
 30
0.0
 11
198.869
 21
35.7628
 31
0.0
  0
LINE
  8
0
 62
     0
 10
198.869
 20
35.7628
 30
0.0
 11
198.869
 21
32.6622
 31
0.0
  0
LINE
  8
0
 62
     0
 10
198.869
 20
32.6622
 30
0.0
 11
198.068
 21
32.6622
 31
0.0
  0
LINE
  8
0
 62
     0
 10
217.118
 20
51.7123
 30
0.0
 11
217.118
 21
50.7132
 31
0.0
  0
LINE
  8
0
 62
     0
 10
217.118
 20
50.7132
 30
0.0
 11
203.119
 21
50.7132
 31
0.0
  0
LINE
  8
0
 62
     0
 10
203.119
 20
50.7132
 30
0.0
 11
203.119
 21
51.7123
 31
0.0
  0
LINE
  8
0
 62
     0
 10
203.119
 20
51.7123
 30
0.0
 11
202.319
 21
51.7123
 31
0.0
  0
LINE
  8
0
 62
     0
 10
202.319
 20
51.7123
 30
0.0
 11
202.319
 21
54.8128
 31
0.0
  0
LINE
  8
0
 62
     0
 10
202.319
 20
54.8128
 30
0.0
 11
203.119
 21
54.8128
 31
0.0
  0
LINE
  8
0
 62
     0
 10
203.119
 20
54.8128
 30
0.0
 11
203.119
 21
60.6129
 31
0.0
  0
LINE
  8
0
 62
     0
 10
203.119
 20
60.6129
 30
0.0
 11
202.319
 21
60.6129
 31
0.0
  0
LINE
  8
0
 62
     0
 10
202.319
 20
60.6129
 30
0.0
 11
202.319
 21
63.7124
 31
0.0
  0
LINE
  8
0
 62
     0
 10
202.319
 20
63.7124
 30
0.0
 11
203.119
 21
63.7124
 31
0.0
  0
LINE
  8
0
 62
     0
 10
203.119
 20
63.7124
 30
0.0
 11
203.119
 21
64.7129
 31
0.0
  0
LINE
  8
0
 62
     0
 10
203.119
 20
64.7129
 30
0.0
 11
217.118
 21
64.7129
 31
0.0
  0
LINE
  8
0
 62
     0
 10
217.118
 20
64.7129
 30
0.0
 11
217.118
 21
63.7124
 31
0.0
  0
LINE
  8
0
 62
     0
 10
217.118
 20
63.7124
 30
0.0
 11
217.919
 21
63.7124
 31
0.0
  0
LINE
  8
0
 62
     0
 10
217.919
 20
63.7124
 30
0.0
 11
217.919
 21
60.6129
 31
0.0
  0
LINE
  8
0
 62
     0
 10
217.919
 20
60.6129
 30
0.0
 11
217.118
 21
60.6129
 31
0.0
  0
LINE
  8
0
 62
     0
 10
217.118
 20
60.6129
 30
0.0
 11
217.118
 21
54.8128
 31
0.0
  0
LINE
  8
0
 62
     0
 10
217.118
 20
54.8128
 30
0.0
 11
217.919
 21
54.8128
 31
0.0
  0
LINE
  8
0
 62
     0
 10
217.919
 20
54.8128
 30
0.0
 11
217.919
 21
51.7123
 31
0.0
  0
LINE
  8
0
 62
     0
 10
217.919
 20
51.7123
 30
0.0
 11
217.118
 21
51.7123
 31
0.0
  0
LINE
  8
0
 62
     0
 10
219.499
 20
70.7623
 30
0.0
 11
219.499
 21
69.7632
 31
0.0
  0
LINE
  8
0
 62
     0
 10
219.499
 20
69.7632
 30
0.0
 11
205.5
 21
69.7632
 31
0.0
  0
LINE
  8
0
 62
     0
 10
205.5
 20
69.7632
 30
0.0
 11
205.5
 21
70.7623
 31
0.0
  0
LINE
  8
0
 62
     0
 10
205.5
 20
70.7623
 30
0.0
 11
204.699
 21
70.7623
 31
0.0
  0
LINE
  8
0
 62
     0
 10
204.699
 20
70.7623
 30
0.0
 11
204.699
 21
73.8628
 31
0.0
  0
LINE
  8
0
 62
     0
 10
204.699
 20
73.8628
 30
0.0
 11
205.5
 21
73.8628
 31
0.0
  0
LINE
  8
0
 62
     0
 10
205.5
 20
73.8628
 30
0.0
 11
205.5
 21
79.6629
 31
0.0
  0
LINE
  8
0
 62
     0
 10
205.5
 20
79.6629
 30
0.0
 11
204.699
 21
79.6629
 31
0.0
  0
LINE
  8
0
 62
     0
 10
204.699
 20
79.6629
 30
0.0
 11
204.699
 21
82.7624
 31
0.0
  0
LINE
  8
0
 62
     0
 10
204.699
 20
82.7624
 30
0.0
 11
205.5
 21
82.7624
 31
0.0
  0
LINE
  8
0
 62
     0
 10
205.5
 20
82.7624
 30
0.0
 11
205.5
 21
83.7629
 31
0.0
  0
LINE
  8
0
 62
     0
 10
205.5
 20
83.7629
 30
0.0
 11
219.499
 21
83.7629
 31
0.0
  0
LINE
  8
0
 62
     0
 10
219.499
 20
83.7629
 30
0.0
 11
219.499
 21
82.7624
 31
0.0
  0
LINE
  8
0
 62
     0
 10
219.499
 20
82.7624
 30
0.0
 11
220.3
 21
82.7624
 31
0.0
  0
LINE
  8
0
 62
     0
 10
220.3
 20
82.7624
 30
0.0
 11
220.3
 21
79.6629
 31
0.0
  0
LINE
  8
0
 62
     0
 10
220.3
 20
79.6629
 30
0.0
 11
219.499
 21
79.6629
 31
0.0
  0
LINE
  8
0
 62
     0
 10
219.499
 20
79.6629
 30
0.0
 11
219.499
 21
73.8628
 31
0.0
  0
LINE
  8
0
 62
     0
 10
219.499
 20
73.8628
 30
0.0
 11
220.3
 21
73.8628
 31
0.0
  0
LINE
  8
0
 62
     0
 10
220.3
 20
73.8628
 30
0.0
 11
220.3
 21
70.7623
 31
0.0
  0
LINE
  8
0
 62
     0
 10
220.3
 20
70.7623
 30
0.0
 11
219.499
 21
70.7623
 31
0.0
  0
LINE
  8
0
 62
     0
 10
219.499
 20
108.862
 30
0.0
 11
219.499
 21
107.863
 31
0.0
  0
LINE
  8
0
 62
     0
 10
219.499
 20
107.863
 30
0.0
 11
205.5
 21
107.863
 31
0.0
  0
LINE
  8
0
 62
     0
 10
205.5
 20
107.863
 30
0.0
 11
205.5
 21
108.862
 31
0.0
  0
LINE
  8
0
 62
     0
 10
205.5
 20
108.862
 30
0.0
 11
204.699
 21
108.862
 31
0.0
  0
LINE
  8
0
 62
     0
 10
204.699
 20
108.862
 30
0.0
 11
204.699
 21
111.963
 31
0.0
  0
LINE
  8
0
 62
     0
 10
204.699
 20
111.963
 30
0.0
 11
205.5
 21
111.963
 31
0.0
  0
LINE
  8
0
 62
     0
 10
205.5
 20
111.963
 30
0.0
 11
205.5
 21
117.763
 31
0.0
  0
LINE
  8
0
 62
     0
 10
205.5
 20
117.763
 30
0.0
 11
204.699
 21
117.763
 31
0.0
  0
LINE
  8
0
 62
     0
 10
204.699
 20
117.763
 30
0.0
 11
204.699
 21
120.862
 31
0.0
  0
LINE
  8
0
 62
     0
 10
204.699
 20
120.862
 30
0.0
 11
205.5
 21
120.862
 31
0.0
  0
LINE
  8
0
 62
     0
 10
205.5
 20
120.862
 30
0.0
 11
205.5
 21
121.863
 31
0.0
  0
LINE
  8
0
 62
     0
 10
205.5
 20
121.863
 30
0.0
 11
219.499
 21
121.863
 31
0.0
  0
LINE
  8
0
 62
     0
 10
219.499
 20
121.863
 30
0.0
 11
219.499
 21
120.862
 31
0.0
  0
LINE
  8
0
 62
     0
 10
219.499
 20
120.862
 30
0.0
 11
220.3
 21
120.862
 31
0.0
  0
LINE
  8
0
 62
     0
 10
220.3
 20
120.862
 30
0.0
 11
220.3
 21
117.763
 31
0.0
  0
LINE
  8
0
 62
     0
 10
220.3
 20
117.763
 30
0.0
 11
219.499
 21
117.763
 31
0.0
  0
LINE
  8
0
 62
     0
 10
219.499
 20
117.763
 30
0.0
 11
219.499
 21
111.963
 31
0.0
  0
LINE
  8
0
 62
     0
 10
219.499
 20
111.963
 30
0.0
 11
220.3
 21
111.963
 31
0.0
  0
LINE
  8
0
 62
     0
 10
220.3
 20
111.963
 30
0.0
 11
220.3
 21
108.862
 31
0.0
  0
LINE
  8
0
 62
     0
 10
220.3
 20
108.862
 30
0.0
 11
219.499
 21
108.862
 31
0.0
  0
LINE
  8
0
 62
     0
 10
219.499
 20
89.8123
 30
0.0
 11
219.499
 21
88.8132
 31
0.0
  0
LINE
  8
0
 62
     0
 10
219.499
 20
88.8132
 30
0.0
 11
205.5
 21
88.8132
 31
0.0
  0
LINE
  8
0
 62
     0
 10
205.5
 20
88.8132
 30
0.0
 11
205.5
 21
89.8123
 31
0.0
  0
LINE
  8
0
 62
     0
 10
205.5
 20
89.8123
 30
0.0
 11
204.699
 21
89.8123
 31
0.0
  0
LINE
  8
0
 62
     0
 10
204.699
 20
89.8123
 30
0.0
 11
204.699
 21
92.9128
 31
0.0
  0
LINE
  8
0
 62
     0
 10
204.699
 20
92.9128
 30
0.0
 11
205.5
 21
92.9128
 31
0.0
  0
LINE
  8
0
 62
     0
 10
205.5
 20
92.9128
 30
0.0
 11
205.5
 21
98.7129
 31
0.0
  0
LINE
  8
0
 62
     0
 10
205.5
 20
98.7129
 30
0.0
 11
204.699
 21
98.7129
 31
0.0
  0
LINE
  8
0
 62
     0
 10
204.699
 20
98.7129
 30
0.0
 11
204.699
 21
101.812
 31
0.0
  0
LINE
  8
0
 62
     0
 10
204.699
 20
101.812
 30
0.0
 11
205.5
 21
101.812
 31
0.0
  0
LINE
  8
0
 62
     0
 10
205.5
 20
101.812
 30
0.0
 11
205.5
 21
102.813
 31
0.0
  0
LINE
  8
0
 62
     0
 10
205.5
 20
102.813
 30
0.0
 11
219.499
 21
102.813
 31
0.0
  0
LINE
  8
0
 62
     0
 10
219.499
 20
102.813
 30
0.0
 11
219.499
 21
101.812
 31
0.0
  0
LINE
  8
0
 62
     0
 10
219.499
 20
101.812
 30
0.0
 11
220.3
 21
101.812
 31
0.0
  0
LINE
  8
0
 62
     0
 10
220.3
 20
101.812
 30
0.0
 11
220.3
 21
98.7129
 31
0.0
  0
LINE
  8
0
 62
     0
 10
220.3
 20
98.7129
 30
0.0
 11
219.499
 21
98.7129
 31
0.0
  0
LINE
  8
0
 62
     0
 10
219.499
 20
98.7129
 30
0.0
 11
219.499
 21
92.9128
 31
0.0
  0
LINE
  8
0
 62
     0
 10
219.499
 20
92.9128
 30
0.0
 11
220.3
 21
92.9128
 31
0.0
  0
LINE
  8
0
 62
     0
 10
220.3
 20
92.9128
 30
0.0
 11
220.3
 21
89.8123
 31
0.0
  0
LINE
  8
0
 62
     0
 10
220.3
 20
89.8123
 30
0.0
 11
219.499
 21
89.8123
 31
0.0
  0
LINE
  8
0
 62
     0
 10
219.499
 20
32.6622
 30
0.0
 11
219.499
 21
31.6632
 31
0.0
  0
LINE
  8
0
 62
     0
 10
219.499
 20
31.6632
 30
0.0
 11
205.5
 21
31.6632
 31
0.0
  0
LINE
  8
0
 62
     0
 10
205.5
 20
31.6632
 30
0.0
 11
205.5
 21
32.6622
 31
0.0
  0
LINE
  8
0
 62
     0
 10
205.5
 20
32.6622
 30
0.0
 11
204.699
 21
32.6622
 31
0.0
  0
LINE
  8
0
 62
     0
 10
204.699
 20
32.6622
 30
0.0
 11
204.699
 21
35.7628
 31
0.0
  0
LINE
  8
0
 62
     0
 10
204.699
 20
35.7628
 30
0.0
 11
205.5
 21
35.7628
 31
0.0
  0
LINE
  8
0
 62
     0
 10
205.5
 20
35.7628
 30
0.0
 11
205.5
 21
41.5629
 31
0.0
  0
LINE
  8
0
 62
     0
 10
205.5
 20
41.5629
 30
0.0
 11
204.699
 21
41.5629
 31
0.0
  0
LINE
  8
0
 62
     0
 10
204.699
 20
41.5629
 30
0.0
 11
204.699
 21
44.6624
 31
0.0
  0
LINE
  8
0
 62
     0
 10
204.699
 20
44.6624
 30
0.0
 11
205.5
 21
44.6624
 31
0.0
  0
LINE
  8
0
 62
     0
 10
205.5
 20
44.6624
 30
0.0
 11
205.5
 21
45.6629
 31
0.0
  0
LINE
  8
0
 62
     0
 10
205.5
 20
45.6629
 30
0.0
 11
219.499
 21
45.6629
 31
0.0
  0
LINE
  8
0
 62
     0
 10
219.499
 20
45.6629
 30
0.0
 11
219.499
 21
44.6624
 31
0.0
  0
LINE
  8
0
 62
     0
 10
219.499
 20
44.6624
 30
0.0
 11
220.3
 21
44.6624
 31
0.0
  0
LINE
  8
0
 62
     0
 10
220.3
 20
44.6624
 30
0.0
 11
220.3
 21
41.5629
 31
0.0
  0
LINE
  8
0
 62
     0
 10
220.3
 20
41.5629
 30
0.0
 11
219.499
 21
41.5629
 31
0.0
  0
LINE
  8
0
 62
     0
 10
219.499
 20
41.5629
 30
0.0
 11
219.499
 21
35.7628
 31
0.0
  0
LINE
  8
0
 62
     0
 10
219.499
 20
35.7628
 30
0.0
 11
220.3
 21
35.7628
 31
0.0
  0
LINE
  8
0
 62
     0
 10
220.3
 20
35.7628
 30
0.0
 11
220.3
 21
32.6622
 31
0.0
  0
LINE
  8
0
 62
     0
 10
220.3
 20
32.6622
 30
0.0
 11
219.499
 21
32.6622
 31
0.0
  0
LINE
  8
0
 62
     0
 10
220.581
 20
133.412
 30
0.0
 11
220.581
 21
127.142
 31
0.0
  0
LINE
  8
0
 62
     0
 10
220.581
 20
127.142
 30
0.0
 11
218.955
 21
127.142
 31
0.0
  0
LINE
  8
0
 62
     0
 10
218.955
 20
127.142
 30
0.0
 11
218.955
 21
125.943
 31
0.0
  0
LINE
  8
0
 62
     0
 10
218.955
 20
125.943
 30
0.0
 11
215.656
 21
125.943
 31
0.0
  0
LINE
  8
0
 62
     0
 10
215.656
 20
125.943
 30
0.0
 11
215.656
 21
127.142
 31
0.0
  0
LINE
  8
0
 62
     0
 10
215.656
 20
127.142
 30
0.0
 11
213.931
 21
127.142
 31
0.0
  0
LINE
  8
0
 62
     0
 10
213.931
 20
127.142
 30
0.0
 11
213.931
 21
127.943
 31
0.0
  0
LINE
  8
0
 62
     0
 10
213.931
 20
127.943
 30
0.0
 11
213.156
 21
127.943
 31
0.0
  0
LINE
  8
0
 62
     0
 10
213.156
 20
127.943
 30
0.0
 11
213.156
 21
127.912
 31
0.0
  0
LINE
  8
0
 62
     0
 10
213.156
 20
127.912
 30
0.0
 11
212.356
 21
127.912
 31
0.0
  0
LINE
  8
0
 62
     0
 10
212.356
 20
127.912
 30
0.0
 11
212.356
 21
126.913
 31
0.0
  0
LINE
  8
0
 62
     0
 10
212.356
 20
126.913
 30
0.0
 11
198.356
 21
126.913
 31
0.0
  0
LINE
  8
0
 62
     0
 10
198.356
 20
126.913
 30
0.0
 11
198.356
 21
127.912
 31
0.0
  0
LINE
  8
0
 62
     0
 10
198.356
 20
127.912
 30
0.0
 11
197.556
 21
127.912
 31
0.0
  0
LINE
  8
0
 62
     0
 10
197.556
 20
127.912
 30
0.0
 11
197.556
 21
127.943
 31
0.0
  0
LINE
  8
0
 62
     0
 10
197.556
 20
127.943
 30
0.0
 11
196.781
 21
127.943
 31
0.0
  0
LINE
  8
0
 62
     0
 10
196.781
 20
127.943
 30
0.0
 11
196.781
 21
127.142
 31
0.0
  0
LINE
  8
0
 62
     0
 10
196.781
 20
127.142
 30
0.0
 11
195.056
 21
127.142
 31
0.0
  0
LINE
  8
0
 62
     0
 10
195.056
 20
127.142
 30
0.0
 11
195.056
 21
125.943
 31
0.0
  0
LINE
  8
0
 62
     0
 10
195.056
 20
125.943
 30
0.0
 11
191.756
 21
125.943
 31
0.0
  0
LINE
  8
0
 62
     0
 10
191.756
 20
125.943
 30
0.0
 11
191.756
 21
127.142
 31
0.0
  0
LINE
  8
0
 62
     0
 10
191.756
 20
127.142
 30
0.0
 11
190.131
 21
127.142
 31
0.0
  0
LINE
  8
0
 62
     0
 10
190.131
 20
127.142
 30
0.0
 11
190.131
 21
133.412
 31
0.0
  0
LINE
  8
0
 62
     0
 10
190.131
 20
133.412
 30
0.0
 11
189.256
 21
133.412
 31
0.0
  0
LINE
  8
0
 62
     0
 10
189.256
 20
133.412
 30
0.0
 11
189.256
 21
136.212
 31
0.0
  0
LINE
  8
0
 62
     0
 10
189.256
 20
136.212
 30
0.0
 11
190.131
 21
136.212
 31
0.0
  0
LINE
  8
0
 62
     0
 10
190.131
 20
136.212
 30
0.0
 11
190.131
 21
139.442
 31
0.0
  0
LINE
  8
0
 62
     0
 10
190.131
 20
139.442
 30
0.0
 11
196.781
 21
139.442
 31
0.0
  0
LINE
  8
0
 62
     0
 10
196.781
 20
139.442
 30
0.0
 11
196.781
 21
138.643
 31
0.0
  0
LINE
  8
0
 62
     0
 10
196.781
 20
138.643
 30
0.0
 11
197.556
 21
138.643
 31
0.0
  0
LINE
  8
0
 62
     0
 10
197.556
 20
138.643
 30
0.0
 11
197.556
 21
139.912
 31
0.0
  0
LINE
  8
0
 62
     0
 10
197.556
 20
139.912
 30
0.0
 11
198.356
 21
139.912
 31
0.0
  0
LINE
  8
0
 62
     0
 10
198.356
 20
139.912
 30
0.0
 11
198.356
 21
140.913
 31
0.0
  0
LINE
  8
0
 62
     0
 10
198.356
 20
140.913
 30
0.0
 11
212.356
 21
140.913
 31
0.0
  0
LINE
  8
0
 62
     0
 10
212.356
 20
140.913
 30
0.0
 11
212.356
 21
139.912
 31
0.0
  0
LINE
  8
0
 62
     0
 10
212.356
 20
139.912
 30
0.0
 11
213.156
 21
139.912
 31
0.0
  0
LINE
  8
0
 62
     0
 10
213.156
 20
139.912
 30
0.0
 11
213.156
 21
138.643
 31
0.0
  0
LINE
  8
0
 62
     0
 10
213.156
 20
138.643
 30
0.0
 11
213.931
 21
138.643
 31
0.0
  0
LINE
  8
0
 62
     0
 10
213.931
 20
138.643
 30
0.0
 11
213.931
 21
139.442
 31
0.0
  0
LINE
  8
0
 62
     0
 10
213.931
 20
139.442
 30
0.0
 11
220.581
 21
139.442
 31
0.0
  0
LINE
  8
0
 62
     0
 10
220.581
 20
139.442
 30
0.0
 11
220.581
 21
136.212
 31
0.0
  0
LINE
  8
0
 62
     0
 10
220.581
 20
136.212
 30
0.0
 11
221.456
 21
136.212
 31
0.0
  0
LINE
  8
0
 62
     0
 10
221.456
 20
136.212
 30
0.0
 11
221.456
 21
133.412
 31
0.0
  0
LINE
  8
0
 62
     0
 10
221.456
 20
133.412
 30
0.0
 11
220.581
 21
133.412
 31
0.0
  0
LINE
  8
0
 62
     0
 10
220.581
 20
19.112
 30
0.0
 11
220.581
 21
12.8419
 31
0.0
  0
LINE
  8
0
 62
     0
 10
220.581
 20
12.8419
 30
0.0
 11
218.956
 21
12.8419
 31
0.0
  0
LINE
  8
0
 62
     0
 10
218.956
 20
12.8419
 30
0.0
 11
218.956
 21
11.643
 31
0.0
  0
LINE
  8
0
 62
     0
 10
218.956
 20
11.643
 30
0.0
 11
215.656
 21
11.643
 31
0.0
  0
LINE
  8
0
 62
     0
 10
215.656
 20
11.643
 30
0.0
 11
215.656
 21
12.8419
 31
0.0
  0
LINE
  8
0
 62
     0
 10
215.656
 20
12.8419
 30
0.0
 11
213.932
 21
12.8419
 31
0.0
  0
LINE
  8
0
 62
     0
 10
213.932
 20
12.8419
 30
0.0
 11
213.932
 21
13.6426
 31
0.0
  0
LINE
  8
0
 62
     0
 10
213.932
 20
13.6426
 30
0.0
 11
213.156
 21
13.6426
 31
0.0
  0
LINE
  8
0
 62
     0
 10
213.156
 20
13.6426
 30
0.0
 11
213.156
 21
13.6122
 31
0.0
  0
LINE
  8
0
 62
     0
 10
213.156
 20
13.6122
 30
0.0
 11
212.357
 21
13.6122
 31
0.0
  0
LINE
  8
0
 62
     0
 10
212.357
 20
13.6122
 30
0.0
 11
212.357
 21
12.6132
 31
0.0
  0
LINE
  8
0
 62
     0
 10
212.357
 20
12.6132
 30
0.0
 11
198.356
 21
12.6132
 31
0.0
  0
LINE
  8
0
 62
     0
 10
198.356
 20
12.6132
 30
0.0
 11
198.356
 21
13.6122
 31
0.0
  0
LINE
  8
0
 62
     0
 10
198.356
 20
13.6122
 30
0.0
 11
197.557
 21
13.6122
 31
0.0
  0
LINE
  8
0
 62
     0
 10
197.557
 20
13.6122
 30
0.0
 11
197.557
 21
13.6426
 31
0.0
  0
LINE
  8
0
 62
     0
 10
197.557
 20
13.6426
 30
0.0
 11
196.781
 21
13.6426
 31
0.0
  0
LINE
  8
0
 62
     0
 10
196.781
 20
13.6426
 30
0.0
 11
196.781
 21
12.8419
 31
0.0
  0
LINE
  8
0
 62
     0
 10
196.781
 20
12.8419
 30
0.0
 11
195.057
 21
12.8419
 31
0.0
  0
LINE
  8
0
 62
     0
 10
195.057
 20
12.8419
 30
0.0
 11
195.057
 21
11.643
 31
0.0
  0
LINE
  8
0
 62
     0
 10
195.057
 20
11.643
 30
0.0
 11
191.757
 21
11.643
 31
0.0
  0
LINE
  8
0
 62
     0
 10
191.757
 20
11.643
 30
0.0
 11
191.757
 21
12.8419
 31
0.0
  0
LINE
  8
0
 62
     0
 10
191.757
 20
12.8419
 30
0.0
 11
190.132
 21
12.8419
 31
0.0
  0
LINE
  8
0
 62
     0
 10
190.132
 20
12.8419
 30
0.0
 11
190.132
 21
19.112
 31
0.0
  0
LINE
  8
0
 62
     0
 10
190.132
 20
19.112
 30
0.0
 11
189.257
 21
19.112
 31
0.0
  0
LINE
  8
0
 62
     0
 10
189.257
 20
19.112
 30
0.0
 11
189.257
 21
21.9122
 31
0.0
  0
LINE
  8
0
 62
     0
 10
189.257
 20
21.9122
 30
0.0
 11
190.132
 21
21.9122
 31
0.0
  0
LINE
  8
0
 62
     0
 10
190.132
 20
21.9122
 30
0.0
 11
190.132
 21
25.1423
 31
0.0
  0
LINE
  8
0
 62
     0
 10
190.132
 20
25.1423
 30
0.0
 11
196.781
 21
25.1423
 31
0.0
  0
LINE
  8
0
 62
     0
 10
196.781
 20
25.1423
 30
0.0
 11
196.781
 21
24.343
 31
0.0
  0
LINE
  8
0
 62
     0
 10
196.781
 20
24.343
 30
0.0
 11
197.557
 21
24.343
 31
0.0
  0
LINE
  8
0
 62
     0
 10
197.557
 20
24.343
 30
0.0
 11
197.557
 21
25.6122
 31
0.0
  0
LINE
  8
0
 62
     0
 10
197.557
 20
25.6122
 30
0.0
 11
198.356
 21
25.6122
 31
0.0
  0
LINE
  8
0
 62
     0
 10
198.356
 20
25.6122
 30
0.0
 11
198.356
 21
26.6127
 31
0.0
  0
LINE
  8
0
 62
     0
 10
198.356
 20
26.6127
 30
0.0
 11
212.357
 21
26.6127
 31
0.0
  0
LINE
  8
0
 62
     0
 10
212.357
 20
26.6127
 30
0.0
 11
212.357
 21
25.6122
 31
0.0
  0
LINE
  8
0
 62
     0
 10
212.357
 20
25.6122
 30
0.0
 11
213.156
 21
25.6122
 31
0.0
  0
LINE
  8
0
 62
     0
 10
213.156
 20
25.6122
 30
0.0
 11
213.156
 21
24.343
 31
0.0
  0
LINE
  8
0
 62
     0
 10
213.156
 20
24.343
 30
0.0
 11
213.932
 21
24.343
 31
0.0
  0
LINE
  8
0
 62
     0
 10
213.932
 20
24.343
 30
0.0
 11
213.932
 21
25.1423
 31
0.0
  0
LINE
  8
0
 62
     0
 10
213.932
 20
25.1423
 30
0.0
 11
220.581
 21
25.1423
 31
0.0
  0
LINE
  8
0
 62
     0
 10
220.581
 20
25.1423
 30
0.0
 11
220.581
 21
21.9122
 31
0.0
  0
LINE
  8
0
 62
     0
 10
220.581
 20
21.9122
 30
0.0
 11
221.456
 21
21.9122
 31
0.0
  0
LINE
  8
0
 62
     0
 10
221.456
 20
21.9122
 30
0.0
 11
221.456
 21
19.112
 31
0.0
  0
LINE
  8
0
 62
     0
 10
221.456
 20
19.112
 30
0.0
 11
220.581
 21
19.112
 31
0.0
  0
ENDSEC
  0
EOF
