<?xml version="1.0"?>
<!-- Generated by SVGo -->
<svg width="224.313mm" height="143.350mm"
     viewBox="0.000 0.000 224.313 143.350"
     xmlns="http://www.w3.org/2000/svg" 
     xmlns:xlink="http://www.w3.org/1999/xlink">
<polygon points="219.313,5.000 219.313,138.350 5.000,138.350 5.000,5.000" style="fill:none;stroke-width:0.2;stroke:black"/>
<polygon points="9.906,21.525 9.906,7.525 23.906,7.525 23.906,21.525" style="fill:none;stroke-width:0.2;stroke:black"/>
<polygon points="9.906,78.675 9.906,64.675 23.906,64.675 23.906,78.675" style="fill:none;stroke-width:0.2;stroke:black"/>
<polygon points="9.906,97.725 9.906,83.725 23.906,83.725 23.906,97.725" style="fill:none;stroke-width:0.2;stroke:black"/>
<polygon points="12.288,116.775 12.288,102.775 26.288,102.775 26.288,116.775" style="fill:none;stroke-width:0.2;stroke:black"/>
<polygon points="14.669,135.825 14.669,121.825 28.669,121.825 28.669,135.825" style="fill:none;stroke-width:0.2;stroke:black"/>
<polygon points="44.038,34.075 44.038,40.345 42.413,40.345 42.413,41.545 39.112,41.545 39.112,40.345 37.388,40.345 37.388,39.545 35.812,39.545 35.812,40.575 21.812,40.575 21.812,39.545 20.238,39.545 20.238,40.345 18.512,40.345 18.512,41.545 15.213,41.545 15.213,40.345 13.588,40.345 13.588,34.075 12.712,34.075 12.712,31.275 13.588,31.275 13.588,28.045 20.238,28.045 20.238,28.845 21.812,28.845 21.812,26.575 35.812,26.575 35.812,28.845 37.388,28.845 37.388,28.045 44.038,28.045 44.038,31.275 44.913,31.275 44.913,34.075" style="fill:none;stroke-width:0.2;stroke:black"/>
<polygon points="31.337,21.525 31.337,7.525 45.337,7.525 45.337,21.525" style="fill:none;stroke-width:0.2;stroke:black"/>
<polygon points="46.419,53.125 46.419,59.395 44.794,59.395 44.794,60.595 41.494,60.595 41.494,59.395 39.769,59.395 39.769,58.595 38.194,58.595 38.194,59.625 24.194,59.625 24.194,58.595 22.619,58.595 22.619,59.395 20.894,59.395 20.894,60.595 17.594,60.595 17.594,59.395 15.969,59.395 15.969,53.125 15.094,53.125 15.094,50.325 15.969,50.325 15.969,47.095 22.619,47.095 22.619,47.895 24.194,47.895 24.194,45.625 38.194,45.625 38.194,47.895 39.769,47.895 39.769,47.095 46.419,47.095 46.419,50.325 47.294,50.325 47.294,53.125" style="fill:none;stroke-width:0.2;stroke:black"/>
<polygon points="36.100,97.725 36.100,83.725 50.100,83.725 50.100,97.725" style="fill:none;stroke-width:0.2;stroke:black"/>
<polygon points="36.100,116.775 36.100,102.775 50.100,102.775 50.100,116.775" style="fill:none;stroke-width:0.2;stroke:black"/>
<polygon points="38.481,78.675 38.481,64.675 52.481,64.675 52.481,78.675" style="fill:none;stroke-width:0.2;stroke:black"/>
<polygon points="50.388,21.525 50.388,7.525 64.388,7.525 64.388,21.525" style="fill:none;stroke-width:0.2;stroke:black"/>
<polygon points="55.150,116.775 55.150,102.775 69.150,102.775 69.150,116.775" style="fill:none;stroke-width:0.2;stroke:black"/>
<polygon points="62.294,59.625 62.294,45.625 76.294,45.625 76.294,59.625" style="fill:none;stroke-width:0.2;stroke:black"/>
<polygon points="67.056,78.675 67.056,64.675 81.056,64.675 81.056,78.675" style="fill:none;stroke-width:0.2;stroke:black"/>
<polygon points="71.819,21.525 71.819,7.525 85.819,7.525 85.819,21.525" style="fill:none;stroke-width:0.2;stroke:black"/>
<polygon points="86.900,34.075 86.900,40.345 85.275,40.345 85.275,41.545 81.975,41.545 81.975,40.345 80.250,40.345 80.250,39.545 78.675,39.545 78.675,40.575 64.675,40.575 64.675,39.545 63.100,39.545 63.100,40.345 61.375,40.345 61.375,41.545 58.075,41.545 58.075,40.345 56.450,40.345 56.450,34.075 55.575,34.075 55.575,31.275 56.450,31.275 56.450,28.045 63.100,28.045 63.100,28.845 64.675,28.845 64.675,26.575 78.675,26.575 78.675,28.845 80.250,28.845 80.250,28.045 86.900,28.045 86.900,31.275 87.775,31.275 87.775,34.075" style="fill:none;stroke-width:0.2;stroke:black"/>
<polygon points="76.581,116.775 76.581,102.775 90.581,102.775 90.581,116.775" style="fill:none;stroke-width:0.2;stroke:black"/>
<polygon points="94.044,91.225 94.044,97.495 92.419,97.495 92.419,98.695 89.119,98.695 89.119,97.495 87.394,97.495 87.394,96.695 85.819,96.695 85.819,97.725 71.819,97.725 71.819,96.695 70.244,96.695 70.244,97.495 68.519,97.495 68.519,98.695 65.219,98.695 65.219,97.495 63.594,97.495 63.594,91.225 62.719,91.225 62.719,88.425 63.594,88.425 63.594,85.195 70.244,85.195 70.244,85.995 71.819,85.995 71.819,83.725 85.819,83.725 85.819,85.995 87.394,85.995 87.394,85.195 94.044,85.195 94.044,88.425 94.919,88.425 94.919,91.225" style="fill:none;stroke-width:0.2;stroke:black"/>
<polygon points="88.488,59.625 88.488,45.625 102.488,45.625 102.488,59.625" style="fill:none;stroke-width:0.2;stroke:black"/>
<polygon points="98.012,21.525 98.012,7.525 112.012,7.525 112.012,21.525" style="fill:none;stroke-width:0.2;stroke:black"/>
<polygon points="102.775,116.775 102.775,102.775 116.775,102.775 116.775,116.775" style="fill:none;stroke-width:0.2;stroke:black"/>
<polygon points="120.237,72.175 120.237,78.445 118.612,78.445 118.612,79.645 115.312,79.645 115.312,78.445 113.588,78.445 113.588,77.645 112.013,77.645 112.013,78.675 98.013,78.675 98.013,77.645 96.438,77.645 96.438,78.445 94.713,78.445 94.713,79.645 91.413,79.645 91.413,78.445 89.788,78.445 89.788,72.175 88.912,72.175 88.912,69.375 89.788,69.375 89.788,66.145 96.438,66.145 96.438,66.945 98.013,66.945 98.013,64.675 112.013,64.675 112.013,66.945 113.588,66.945 113.588,66.145 120.237,66.145 120.237,69.375 121.113,69.375 121.113,72.175" style="fill:none;stroke-width:0.2;stroke:black"/>
<polygon points="125.000,34.075 125.000,40.345 123.375,40.345 123.375,41.545 120.075,41.545 120.075,40.345 118.350,40.345 118.350,39.545 116.775,39.545 116.775,40.575 102.775,40.575 102.775,39.545 101.200,39.545 101.200,40.345 99.475,40.345 99.475,41.545 96.175,41.545 96.175,40.345 94.550,40.345 94.550,34.075 93.675,34.075 93.675,31.275 94.550,31.275 94.550,28.045 101.200,28.045 101.200,28.845 102.775,28.845 102.775,26.575 116.775,26.575 116.775,28.845 118.350,28.845 118.350,28.045 125.000,28.045 125.000,31.275 125.875,31.275 125.875,34.075" style="fill:none;stroke-width:0.2;stroke:black"/>
<polygon points="136.906,91.225 136.906,97.495 135.281,97.495 135.281,98.695 131.981,98.695 131.981,97.495 130.256,97.495 130.256,96.695 128.681,96.695 128.681,97.725 114.681,97.725 114.681,96.695 113.106,96.695 113.106,97.495 111.381,97.495 111.381,98.695 108.081,98.695 108.081,97.495 106.456,97.495 106.456,91.225 105.581,91.225 105.581,88.425 106.456,88.425 106.456,85.195 113.106,85.195 113.106,85.995 114.681,85.995 114.681,83.725 128.681,83.725 128.681,85.995 130.256,85.995 130.256,85.195 136.906,85.195 136.906,88.425 137.781,88.425 137.781,91.225" style="fill:none;stroke-width:0.2;stroke:black"/>
<polygon points="126.587,21.525 126.587,7.525 140.587,7.525 140.587,21.525" style="fill:none;stroke-width:0.2;stroke:black"/>
<polygon points="128.969,78.675 128.969,64.675 142.969,64.675 142.969,78.675" style="fill:none;stroke-width:0.2;stroke:black"/>
<polygon points="131.350,116.775 131.350,102.775 145.350,102.775 145.350,116.775" style="fill:none;stroke-width:0.2;stroke:black"/>
<polygon points="146.431,53.125 146.431,59.395 144.806,59.395 144.806,60.595 141.506,60.595 141.506,59.395 139.781,59.395 139.781,58.595 138.206,58.595 138.206,59.625 124.206,59.625 124.206,58.595 122.631,58.595 122.631,59.395 120.906,59.395 120.906,60.595 117.606,60.595 117.606,59.395 115.981,59.395 115.981,53.125 115.106,53.125 115.106,50.325 115.981,50.325 115.981,47.095 122.631,47.095 122.631,47.895 124.206,47.895 124.206,45.625 138.206,45.625 138.206,47.895 139.781,47.895 139.781,47.095 146.431,47.095 146.431,50.325 147.306,50.325 147.306,53.125" style="fill:none;stroke-width:0.2;stroke:black"/>
<polygon points="133.731,40.575 133.731,26.575 147.731,26.575 147.731,40.575" style="fill:none;stroke-width:0.2;stroke:black"/>
<polygon points="151.194,129.325 151.194,135.595 149.519,135.595 149.519,136.795 146.219,136.795 146.219,135.595 144.544,135.595 144.544,131.125 104.869,131.125 104.869,135.825 90.869,135.825 90.869,131.125 51.194,131.125 51.194,135.595 49.519,135.595 49.519,136.795 46.219,136.795 46.219,135.595 44.544,135.595 44.544,129.325 43.669,129.325 43.669,126.525 44.544,126.525 44.544,123.295 51.194,123.295 51.194,126.525 90.869,126.525 90.869,121.825 104.869,121.825 104.869,126.525 144.544,126.525 144.544,123.295 151.194,123.295 151.194,126.525 152.069,126.525 152.069,129.325" style="fill:none;stroke-width:0.2;stroke:black"/>
<polygon points="155.162,78.675 155.162,64.675 169.162,64.675 169.162,78.675" style="fill:none;stroke-width:0.2;stroke:black"/>
<polygon points="157.544,21.525 157.544,7.525 171.544,7.525 171.544,21.525" style="fill:none;stroke-width:0.2;stroke:black"/>
<polygon points="157.544,40.575 157.544,26.575 171.544,26.575 171.544,40.575" style="fill:none;stroke-width:0.2;stroke:black"/>
<polygon points="157.544,59.625 157.544,45.625 171.544,45.625 171.544,59.625" style="fill:none;stroke-width:0.2;stroke:black"/>
<polygon points="157.544,116.775 157.544,102.775 171.544,102.775 171.544,116.775" style="fill:none;stroke-width:0.2;stroke:black"/>
<polygon points="162.306,135.825 162.306,121.825 176.306,121.825 176.306,135.825" style="fill:none;stroke-width:0.2;stroke:black"/>
<polygon points="182.150,91.225 182.150,97.495 180.525,97.495 180.525,98.695 177.225,98.695 177.225,97.495 175.500,97.495 175.500,96.695 173.925,96.695 173.925,97.725 159.925,97.725 159.925,96.695 158.350,96.695 158.350,97.495 156.625,97.495 156.625,98.695 153.325,98.695 153.325,97.495 151.700,97.495 151.700,91.225 150.825,91.225 150.825,88.425 151.700,88.425 151.700,85.195 158.350,85.195 158.350,85.995 159.925,85.995 159.925,83.725 173.925,83.725 173.925,85.995 175.500,85.995 175.500,85.195 182.150,85.195 182.150,88.425 183.025,88.425 183.025,91.225" style="fill:none;stroke-width:0.2;stroke:black"/>
<polygon points="178.975,78.675 178.975,64.675 192.975,64.675 192.975,78.675" style="fill:none;stroke-width:0.2;stroke:black"/>
<polygon points="178.975,40.575 178.975,26.575 192.975,26.575 192.975,40.575" style="fill:none;stroke-width:0.2;stroke:black"/>
<polygon points="178.975,59.625 178.975,45.625 192.975,45.625 192.975,59.625" style="fill:none;stroke-width:0.2;stroke:black"/>
<polygon points="178.975,116.775 178.975,102.775 192.975,102.775 192.975,116.775" style="fill:none;stroke-width:0.2;stroke:black"/>
<polygon points="198.025,97.725 198.025,83.725 212.025,83.725 212.025,97.725" style="fill:none;stroke-width:0.2;stroke:black"/>
<polygon points="200.406,78.675 200.406,64.675 214.406,64.675 214.406,78.675" style="fill:none;stroke-width:0.2;stroke:black"/>
<polygon points="200.406,40.575 200.406,26.575 214.406,26.575 214.406,40.575" style="fill:none;stroke-width:0.2;stroke:black"/>
<polygon points="200.406,59.625 200.406,45.625 214.406,45.625 214.406,59.625" style="fill:none;stroke-width:0.2;stroke:black"/>
<polygon points="200.406,116.775 200.406,102.775 214.406,102.775 214.406,116.775" style="fill:none;stroke-width:0.2;stroke:black"/>
<polygon points="215.487,15.025 215.487,21.295 213.862,21.295 213.862,22.495 210.562,22.495 210.562,21.295 208.837,21.295 208.837,20.495 207.262,20.495 207.262,21.525 193.262,21.525 193.262,20.495 191.688,20.495 191.688,21.295 189.962,21.295 189.962,22.495 186.662,22.495 186.662,21.295 185.037,21.295 185.037,15.025 184.162,15.025 184.162,12.225 185.037,12.225 185.037,8.995 191.688,8.995 191.688,9.795 193.262,9.795 193.262,7.525 207.262,7.525 207.262,9.795 208.837,9.795 208.837,8.995 215.487,8.995 215.487,12.225 216.362,12.225 216.362,15.025" style="fill:none;stroke-width:0.2;stroke:black"/>
<polygon points="215.488,129.325 215.488,135.595 213.863,135.595 213.863,136.795 210.563,136.795 210.563,135.595 208.838,135.595 208.838,134.795 207.263,134.795 207.263,135.825 193.263,135.825 193.263,134.795 191.688,134.795 191.688,135.595 189.963,135.595 189.963,136.795 186.663,136.795 186.663,135.595 185.038,135.595 185.038,129.325 184.163,129.325 184.163,126.525 185.038,126.525 185.038,123.295 191.688,123.295 191.688,124.095 193.263,124.095 193.263,121.825 207.263,121.825 207.263,124.095 208.838,124.095 208.838,123.295 215.488,123.295 215.488,126.525 216.363,126.525 216.363,129.325" style="fill:none;stroke-width:0.2;stroke:black"/>
</svg>
