<?xml version="1.0"?>
<!-- Generated by SVGo -->
<svg width="244.313mm" height="163.350mm"
     viewBox="0.000 0.000 244.313 163.350"
     xmlns="http://www.w3.org/2000/svg" 
     xmlns:xlink="http://www.w3.org/1999/xlink">
<polygon points="234.313,5.000 234.705,5.015 235.095,5.062 235.480,5.138 235.858,5.245 236.226,5.381 236.582,5.545 236.925,5.737 237.251,5.955 237.560,6.198 237.848,6.464 238.115,6.753 238.358,7.061 238.576,7.388 238.768,7.730 238.932,8.087 239.068,8.455 239.174,8.833 239.251,9.218 239.297,9.608 239.313,10.000 239.313,153.350 239.297,153.742 239.251,154.132 239.174,154.517 239.068,154.895 238.932,155.263 238.768,155.620 238.576,155.962 238.358,156.289 238.115,156.597 237.848,156.886 237.560,157.152 237.251,157.395 236.925,157.613 236.582,157.805 236.226,157.969 235.858,158.105 235.480,158.212 235.095,158.288 234.705,158.335 234.312,158.350 10.000,158.350 9.608,158.335 9.218,158.288 8.833,158.212 8.455,158.105 8.087,157.969 7.730,157.805 7.388,157.613 7.061,157.395 6.753,157.152 6.464,156.886 6.198,156.597 5.955,156.289 5.737,155.962 5.545,155.620 5.381,155.263 5.245,154.895 5.138,154.517 5.062,154.132 5.015,153.742 5.000,153.350 5.000,10.000 5.015,9.608 5.062,9.218 5.138,8.833 5.245,8.455 5.381,8.087 5.545,7.730 5.737,7.388 5.955,7.061 6.198,6.753 6.464,6.464 6.753,6.198 7.061,5.955 7.388,5.737 7.730,5.545 8.087,5.381 8.455,5.245 8.833,5.138 9.218,5.062 9.608,5.015 10.000,5.000" style="fill:none;stroke-width:0.2;stroke:black"/>
<polygon points="33.906,30.525 33.906,31.525 19.906,31.525 19.906,30.525 19.106,30.525 19.106,27.425 19.906,27.425 19.906,21.625 19.106,21.625 19.106,18.525 19.906,18.525 19.906,17.525 33.906,17.525 33.906,18.525 34.706,18.525 34.706,21.625 33.906,21.625 33.906,27.425 34.706,27.425 34.706,30.525" style="fill:none;stroke-width:0.2;stroke:black"/>
<polygon points="33.906,87.675 33.906,88.675 19.906,88.675 19.906,87.675 19.106,87.675 19.106,84.575 19.906,84.575 19.906,78.775 19.106,78.775 19.106,75.675 19.906,75.675 19.906,74.675 33.906,74.675 33.906,75.675 34.706,75.675 34.706,78.775 33.906,78.775 33.906,84.575 34.706,84.575 34.706,87.675" style="fill:none;stroke-width:0.2;stroke:black"/>
<polygon points="33.906,106.725 33.906,107.725 19.906,107.725 19.906,106.725 19.106,106.725 19.106,103.625 19.906,103.625 19.906,97.825 19.106,97.825 19.106,94.725 19.906,94.725 19.906,93.725 33.906,93.725 33.906,94.725 34.706,94.725 34.706,97.825 33.906,97.825 33.906,103.625 34.706,103.625 34.706,106.725" style="fill:none;stroke-width:0.2;stroke:black"/>
<polygon points="36.288,125.775 36.288,126.775 22.288,126.775 22.288,125.775 21.488,125.775 21.488,122.675 22.288,122.675 22.288,116.875 21.488,116.875 21.488,113.775 22.288,113.775 22.288,112.775 36.288,112.775 36.288,113.775 37.087,113.775 37.087,116.875 36.288,116.875 36.288,122.675 37.087,122.675 37.087,125.775" style="fill:none;stroke-width:0.2;stroke:black"/>
<polygon points="38.669,144.825 38.669,145.825 24.669,145.825 24.669,144.825 23.869,144.825 23.869,141.725 24.669,141.725 24.669,135.925 23.869,135.925 23.869,132.825 24.669,132.825 24.669,131.825 38.669,131.825 38.669,132.825 39.469,132.825 39.469,135.925 38.669,135.925 38.669,141.725 39.469,141.725 39.469,144.825" style="fill:none;stroke-width:0.2;stroke:black"/>
<polygon points="54.038,44.075 54.038,50.345 52.413,50.345 52.413,51.545 49.112,51.545 49.112,50.345 47.388,50.345 47.388,49.545 46.612,49.545 46.612,49.575 45.812,49.575 45.812,50.575 31.812,50.575 31.812,49.575 31.012,49.575 31.012,49.545 30.238,49.545 30.238,50.345 28.512,50.345 28.512,51.545 25.212,51.545 25.212,50.345 23.587,50.345 23.587,44.075 22.712,44.075 22.712,41.275 23.587,41.275 23.587,38.045 30.238,38.045 30.238,38.845 31.012,38.845 31.012,37.575 31.812,37.575 31.812,36.575 45.812,36.575 45.812,37.575 46.612,37.575 46.612,38.845 47.388,38.845 47.388,38.045 54.038,38.045 54.038,41.275 54.913,41.275 54.913,44.075" style="fill:none;stroke-width:0.2;stroke:black"/>
<polygon points="55.337,30.525 55.337,31.525 41.337,31.525 41.337,30.525 40.538,30.525 40.538,27.425 41.337,27.425 41.337,21.625 40.538,21.625 40.538,18.525 41.337,18.525 41.337,17.525 55.337,17.525 55.337,18.525 56.137,18.525 56.137,21.625 55.337,21.625 55.337,27.425 56.137,27.425 56.137,30.525" style="fill:none;stroke-width:0.2;stroke:black"/>
<polygon points="56.419,63.125 56.419,69.395 54.794,69.395 54.794,70.595 51.494,70.595 51.494,69.395 49.769,69.395 49.769,68.595 48.994,68.595 48.994,68.625 48.194,68.625 48.194,69.625 34.194,69.625 34.194,68.625 33.394,68.625 33.394,68.595 32.619,68.595 32.619,69.395 30.894,69.395 30.894,70.595 27.594,70.595 27.594,69.395 25.969,69.395 25.969,63.125 25.094,63.125 25.094,60.325 25.969,60.325 25.969,57.095 32.619,57.095 32.619,57.895 33.394,57.895 33.394,56.625 34.194,56.625 34.194,55.625 48.194,55.625 48.194,56.625 48.994,56.625 48.994,57.895 49.769,57.895 49.769,57.095 56.419,57.095 56.419,60.325 57.294,60.325 57.294,63.125" style="fill:none;stroke-width:0.2;stroke:black"/>
<polygon points="60.100,106.725 60.100,107.725 46.100,107.725 46.100,106.725 45.300,106.725 45.300,103.625 46.100,103.625 46.100,97.825 45.300,97.825 45.300,94.725 46.100,94.725 46.100,93.725 60.100,93.725 60.100,94.725 60.900,94.725 60.900,97.825 60.100,97.825 60.100,103.625 60.900,103.625 60.900,106.725" style="fill:none;stroke-width:0.2;stroke:black"/>
<polygon points="60.100,125.775 60.100,126.775 46.100,126.775 46.100,125.775 45.300,125.775 45.300,122.675 46.100,122.675 46.100,116.875 45.300,116.875 45.300,113.775 46.100,113.775 46.100,112.775 60.100,112.775 60.100,113.775 60.900,113.775 60.900,116.875 60.100,116.875 60.100,122.675 60.900,122.675 60.900,125.775" style="fill:none;stroke-width:0.2;stroke:black"/>
<polygon points="62.481,87.675 62.481,88.675 48.481,88.675 48.481,87.675 47.681,87.675 47.681,84.575 48.481,84.575 48.481,78.775 47.681,78.775 47.681,75.675 48.481,75.675 48.481,74.675 62.481,74.675 62.481,75.675 63.281,75.675 63.281,78.775 62.481,78.775 62.481,84.575 63.281,84.575 63.281,87.675" style="fill:none;stroke-width:0.2;stroke:black"/>
<polygon points="74.388,30.525 74.388,31.525 60.388,31.525 60.388,30.525 59.588,30.525 59.588,27.425 60.388,27.425 60.388,21.625 59.588,21.625 59.588,18.525 60.388,18.525 60.388,17.525 74.388,17.525 74.388,18.525 75.188,18.525 75.188,21.625 74.388,21.625 74.388,27.425 75.188,27.425 75.188,30.525" style="fill:none;stroke-width:0.2;stroke:black"/>
<polygon points="79.150,125.775 79.150,126.775 65.150,126.775 65.150,125.775 64.350,125.775 64.350,122.675 65.150,122.675 65.150,116.875 64.350,116.875 64.350,113.775 65.150,113.775 65.150,112.775 79.150,112.775 79.150,113.775 79.950,113.775 79.950,116.875 79.150,116.875 79.150,122.675 79.950,122.675 79.950,125.775" style="fill:none;stroke-width:0.2;stroke:black"/>
<polygon points="86.294,68.625 86.294,69.625 72.294,69.625 72.294,68.625 71.494,68.625 71.494,65.525 72.294,65.525 72.294,59.725 71.494,59.725 71.494,56.625 72.294,56.625 72.294,55.625 86.294,55.625 86.294,56.625 87.094,56.625 87.094,59.725 86.294,59.725 86.294,65.525 87.094,65.525 87.094,68.625" style="fill:none;stroke-width:0.2;stroke:black"/>
<polygon points="91.056,87.675 91.056,88.675 77.056,88.675 77.056,87.675 76.256,87.675 76.256,84.575 77.056,84.575 77.056,78.775 76.256,78.775 76.256,75.675 77.056,75.675 77.056,74.675 91.056,74.675 91.056,75.675 91.856,75.675 91.856,78.775 91.056,78.775 91.056,84.575 91.856,84.575 91.856,87.675" style="fill:none;stroke-width:0.2;stroke:black"/>
<polygon points="95.819,30.525 95.819,31.525 81.819,31.525 81.819,30.525 81.019,30.525 81.019,27.425 81.819,27.425 81.819,21.625 81.019,21.625 81.019,18.525 81.819,18.525 81.819,17.525 95.819,17.525 95.819,18.525 96.619,18.525 96.619,21.625 95.819,21.625 95.819,27.425 96.619,27.425 96.619,30.525" style="fill:none;stroke-width:0.2;stroke:black"/>
<polygon points="96.900,44.075 96.900,50.345 95.275,50.345 95.275,51.545 91.975,51.545 91.975,50.345 90.250,50.345 90.250,49.545 89.475,49.545 89.475,49.575 88.675,49.575 88.675,50.575 74.675,50.575 74.675,49.575 73.875,49.575 73.875,49.545 73.100,49.545 73.100,50.345 71.375,50.345 71.375,51.545 68.075,51.545 68.075,50.345 66.450,50.345 66.450,44.075 65.575,44.075 65.575,41.275 66.450,41.275 66.450,38.045 73.100,38.045 73.100,38.845 73.875,38.845 73.875,37.575 74.675,37.575 74.675,36.575 88.675,36.575 88.675,37.575 89.475,37.575 89.475,38.845 90.250,38.845 90.250,38.045 96.900,38.045 96.900,41.275 97.775,41.275 97.775,44.075" style="fill:none;stroke-width:0.2;stroke:black"/>
<polygon points="100.581,125.775 100.581,126.775 86.581,126.775 86.581,125.775 85.781,125.775 85.781,122.675 86.581,122.675 86.581,116.875 85.781,116.875 85.781,113.775 86.581,113.775 86.581,112.775 100.581,112.775 100.581,113.775 101.381,113.775 101.381,116.875 100.581,116.875 100.581,122.675 101.381,122.675 101.381,125.775" style="fill:none;stroke-width:0.2;stroke:black"/>
<polygon points="104.044,101.225 104.044,107.495 102.419,107.495 102.419,108.695 99.119,108.695 99.119,107.495 97.394,107.495 97.394,106.695 96.619,106.695 96.619,106.725 95.819,106.725 95.819,107.725 81.819,107.725 81.819,106.725 81.019,106.725 81.019,106.695 80.244,106.695 80.244,107.495 78.519,107.495 78.519,108.695 75.219,108.695 75.219,107.495 73.594,107.495 73.594,101.225 72.719,101.225 72.719,98.425 73.594,98.425 73.594,95.195 80.244,95.195 80.244,95.995 81.019,95.995 81.019,94.725 81.819,94.725 81.819,93.725 95.819,93.725 95.819,94.725 96.619,94.725 96.619,95.995 97.394,95.995 97.394,95.195 104.044,95.195 104.044,98.425 104.919,98.425 104.919,101.225" style="fill:none;stroke-width:0.2;stroke:black"/>
<polygon points="112.488,68.625 112.488,69.625 98.488,69.625 98.488,68.625 97.688,68.625 97.688,65.525 98.488,65.525 98.488,59.725 97.688,59.725 97.688,56.625 98.488,56.625 98.488,55.625 112.488,55.625 112.488,56.625 113.288,56.625 113.288,59.725 112.488,59.725 112.488,65.525 113.288,65.525 113.288,68.625" style="fill:none;stroke-width:0.2;stroke:black"/>
<polygon points="122.012,30.525 122.012,31.525 108.012,31.525 108.012,30.525 107.212,30.525 107.212,27.425 108.012,27.425 108.012,21.625 107.212,21.625 107.212,18.525 108.012,18.525 108.012,17.525 122.012,17.525 122.012,18.525 122.812,18.525 122.812,21.625 122.012,21.625 122.012,27.425 122.812,27.425 122.812,30.525" style="fill:none;stroke-width:0.2;stroke:black"/>
<polygon points="126.775,125.775 126.775,126.775 112.775,126.775 112.775,125.775 111.975,125.775 111.975,122.675 112.775,122.675 112.775,116.875 111.975,116.875 111.975,113.775 112.775,113.775 112.775,112.775 126.775,112.775 126.775,113.775 127.575,113.775 127.575,116.875 126.775,116.875 126.775,122.675 127.575,122.675 127.575,125.775" style="fill:none;stroke-width:0.2;stroke:black"/>
<polygon points="130.238,82.175 130.238,88.445 128.613,88.445 128.613,89.645 125.312,89.645 125.312,88.445 123.588,88.445 123.588,87.645 122.812,87.645 122.812,87.675 122.013,87.675 122.013,88.675 108.013,88.675 108.013,87.675 107.213,87.675 107.213,87.645 106.438,87.645 106.438,88.445 104.713,88.445 104.713,89.645 101.413,89.645 101.413,88.445 99.788,88.445 99.788,82.175 98.912,82.175 98.912,79.375 99.788,79.375 99.788,76.145 106.438,76.145 106.438,76.945 107.213,76.945 107.213,75.675 108.013,75.675 108.013,74.675 122.013,74.675 122.013,75.675 122.812,75.675 122.812,76.945 123.588,76.945 123.588,76.145 130.238,76.145 130.238,79.375 131.113,79.375 131.113,82.175" style="fill:none;stroke-width:0.2;stroke:black"/>
<polygon points="135.000,44.075 135.000,50.345 133.375,50.345 133.375,51.545 130.075,51.545 130.075,50.345 128.350,50.345 128.350,49.545 127.575,49.545 127.575,49.575 126.775,49.575 126.775,50.575 112.775,50.575 112.775,49.575 111.975,49.575 111.975,49.545 111.200,49.545 111.200,50.345 109.475,50.345 109.475,51.545 106.175,51.545 106.175,50.345 104.550,50.345 104.550,44.075 103.675,44.075 103.675,41.275 104.550,41.275 104.550,38.045 111.200,38.045 111.200,38.845 111.975,38.845 111.975,37.575 112.775,37.575 112.775,36.575 126.775,36.575 126.775,37.575 127.575,37.575 127.575,38.845 128.350,38.845 128.350,38.045 135.000,38.045 135.000,41.275 135.875,41.275 135.875,44.075" style="fill:none;stroke-width:0.2;stroke:black"/>
<polygon points="146.906,101.225 146.906,107.495 145.281,107.495 145.281,108.695 141.981,108.695 141.981,107.495 140.256,107.495 140.256,106.695 139.481,106.695 139.481,106.725 138.681,106.725 138.681,107.725 124.681,107.725 124.681,106.725 123.881,106.725 123.881,106.695 123.106,106.695 123.106,107.495 121.381,107.495 121.381,108.695 118.081,108.695 118.081,107.495 116.456,107.495 116.456,101.225 115.581,101.225 115.581,98.425 116.456,98.425 116.456,95.195 123.106,95.195 123.106,95.995 123.881,95.995 123.881,94.725 124.681,94.725 124.681,93.725 138.681,93.725 138.681,94.725 139.481,94.725 139.481,95.995 140.256,95.995 140.256,95.195 146.906,95.195 146.906,98.425 147.781,98.425 147.781,101.225" style="fill:none;stroke-width:0.2;stroke:black"/>
<polygon points="150.587,30.525 150.587,31.525 136.587,31.525 136.587,30.525 135.787,30.525 135.787,27.425 136.587,27.425 136.587,21.625 135.787,21.625 135.787,18.525 136.587,18.525 136.587,17.525 150.587,17.525 150.587,18.525 151.387,18.525 151.387,21.625 150.587,21.625 150.587,27.425 151.387,27.425 151.387,30.525" style="fill:none;stroke-width:0.2;stroke:black"/>
<polygon points="152.969,87.675 152.969,88.675 138.969,88.675 138.969,87.675 138.169,87.675 138.169,84.575 138.969,84.575 138.969,78.775 138.169,78.775 138.169,75.675 138.969,75.675 138.969,74.675 152.969,74.675 152.969,75.675 153.769,75.675 153.769,78.775 152.969,78.775 152.969,84.575 153.769,84.575 153.769,87.675" style="fill:none;stroke-width:0.2;stroke:black"/>
<polygon points="155.350,125.775 155.350,126.775 141.350,126.775 141.350,125.775 140.550,125.775 140.550,122.675 141.350,122.675 141.350,116.875 140.550,116.875 140.550,113.775 141.350,113.775 141.350,112.775 155.350,112.775 155.350,113.775 156.150,113.775 156.150,116.875 155.350,116.875 155.350,122.675 156.150,122.675 156.150,125.775" style="fill:none;stroke-width:0.2;stroke:black"/>
<polygon points="156.431,63.125 156.431,69.395 154.806,69.395 154.806,70.595 151.506,70.595 151.506,69.395 149.781,69.395 149.781,68.595 149.006,68.595 149.006,68.625 148.206,68.625 148.206,69.625 134.206,69.625 134.206,68.625 133.406,68.625 133.406,68.595 132.631,68.595 132.631,69.395 130.906,69.395 130.906,70.595 127.606,70.595 127.606,69.395 125.981,69.395 125.981,63.125 125.106,63.125 125.106,60.325 125.981,60.325 125.981,57.095 132.631,57.095 132.631,57.895 133.406,57.895 133.406,56.625 134.206,56.625 134.206,55.625 148.206,55.625 148.206,56.625 149.006,56.625 149.006,57.895 149.781,57.895 149.781,57.095 156.431,57.095 156.431,60.325 157.306,60.325 157.306,63.125" style="fill:none;stroke-width:0.2;stroke:black"/>
<polygon points="157.731,49.575 157.731,50.575 143.731,50.575 143.731,49.575 142.931,49.575 142.931,46.475 143.731,46.475 143.731,40.675 142.931,40.675 142.931,37.575 143.731,37.575 143.731,36.575 157.731,36.575 157.731,37.575 158.531,37.575 158.531,40.675 157.731,40.675 157.731,46.475 158.531,46.475 158.531,49.575" style="fill:none;stroke-width:0.2;stroke:black"/>
<polygon points="161.194,139.325 161.194,145.595 159.519,145.595 159.519,146.795 156.219,146.795 156.219,145.595 154.544,145.595 154.544,141.125 114.869,141.125 114.869,141.725 115.669,141.725 115.669,144.825 114.869,144.825 114.869,145.825 100.869,145.825 100.869,144.825 100.069,144.825 100.069,141.725 100.869,141.725 100.869,141.125 61.194,141.125 61.194,145.595 59.519,145.595 59.519,146.795 56.219,146.795 56.219,145.595 54.544,145.595 54.544,139.325 53.669,139.325 53.669,136.525 54.544,136.525 54.544,133.295 61.194,133.295 61.194,136.525 100.869,136.525 100.869,135.925 100.069,135.925 100.069,132.825 100.869,132.825 100.869,131.825 114.869,131.825 114.869,132.825 115.669,132.825 115.669,135.925 114.869,135.925 114.869,136.525 154.544,136.525 154.544,133.295 161.194,133.295 161.194,136.525 162.069,136.525 162.069,139.325" style="fill:none;stroke-width:0.2;stroke:black"/>
<polygon points="179.162,87.675 179.162,88.675 165.162,88.675 165.162,87.675 164.362,87.675 164.362,84.575 165.162,84.575 165.162,78.775 164.362,78.775 164.362,75.675 165.162,75.675 165.162,74.675 179.162,74.675 179.162,75.675 179.963,75.675 179.963,78.775 179.162,78.775 179.162,84.575 179.963,84.575 179.963,87.675" style="fill:none;stroke-width:0.2;stroke:black"/>
<polygon points="181.544,30.525 181.544,31.525 167.544,31.525 167.544,30.525 166.744,30.525 166.744,27.425 167.544,27.425 167.544,21.625 166.744,21.625 166.744,18.525 167.544,18.525 167.544,17.525 181.544,17.525 181.544,18.525 182.344,18.525 182.344,21.625 181.544,21.625 181.544,27.425 182.344,27.425 182.344,30.525" style="fill:none;stroke-width:0.2;stroke:black"/>
<polygon points="181.544,49.575 181.544,50.575 167.544,50.575 167.544,49.575 166.744,49.575 166.744,46.475 167.544,46.475 167.544,40.675 166.744,40.675 166.744,37.575 167.544,37.575 167.544,36.575 181.544,36.575 181.544,37.575 182.344,37.575 182.344,40.675 181.544,40.675 181.544,46.475 182.344,46.475 182.344,49.575" style="fill:none;stroke-width:0.2;stroke:black"/>
<polygon points="181.544,68.625 181.544,69.625 167.544,69.625 167.544,68.625 166.744,68.625 166.744,65.525 167.544,65.525 167.544,59.725 166.744,59.725 166.744,56.625 167.544,56.625 167.544,55.625 181.544,55.625 181.544,56.625 182.344,56.625 182.344,59.725 181.544,59.725 181.544,65.525 182.344,65.525 182.344,68.625" style="fill:none;stroke-width:0.2;stroke:black"/>
<polygon points="181.544,125.775 181.544,126.775 167.544,126.775 167.544,125.775 166.744,125.775 166.744,122.675 167.544,122.675 167.544,116.875 166.744,116.875 166.744,113.775 167.544,113.775 167.544,112.775 181.544,112.775 181.544,113.775 182.344,113.775 182.344,116.875 181.544,116.875 181.544,122.675 182.344,122.675 182.344,125.775" style="fill:none;stroke-width:0.2;stroke:black"/>
<polygon points="186.306,144.825 186.306,145.825 172.306,145.825 172.306,144.825 171.506,144.825 171.506,141.725 172.306,141.725 172.306,135.925 171.506,135.925 171.506,132.825 172.306,132.825 172.306,131.825 186.306,131.825 186.306,132.825 187.106,132.825 187.106,135.925 186.306,135.925 186.306,141.725 187.106,141.725 187.106,144.825" style="fill:none;stroke-width:0.2;stroke:black"/>
<polygon points="192.150,101.225 192.150,107.495 190.525,107.495 190.525,108.695 187.225,108.695 187.225,107.495 185.500,107.495 185.500,106.695 184.725,106.695 184.725,106.725 183.925,106.725 183.925,107.725 169.925,107.725 169.925,106.725 169.125,106.725 169.125,106.695 168.350,106.695 168.350,107.495 166.625,107.495 166.625,108.695 163.325,108.695 163.325,107.495 161.700,107.495 161.700,101.225 160.825,101.225 160.825,98.425 161.700,98.425 161.700,95.195 168.350,95.195 168.350,95.995 169.125,95.995 169.125,94.725 169.925,94.725 169.925,93.725 183.925,93.725 183.925,94.725 184.725,94.725 184.725,95.995 185.500,95.995 185.500,95.195 192.150,95.195 192.150,98.425 193.025,98.425 193.025,101.225" style="fill:none;stroke-width:0.2;stroke:black"/>
<polygon points="202.975,87.675 202.975,88.675 188.975,88.675 188.975,87.675 188.175,87.675 188.175,84.575 188.975,84.575 188.975,78.775 188.175,78.775 188.175,75.675 188.975,75.675 188.975,74.675 202.975,74.675 202.975,75.675 203.775,75.675 203.775,78.775 202.975,78.775 202.975,84.575 203.775,84.575 203.775,87.675" style="fill:none;stroke-width:0.2;stroke:black"/>
<polygon points="202.975,49.575 202.975,50.575 188.975,50.575 188.975,49.575 188.175,49.575 188.175,46.475 188.975,46.475 188.975,40.675 188.175,40.675 188.175,37.575 188.975,37.575 188.975,36.575 202.975,36.575 202.975,37.575 203.775,37.575 203.775,40.675 202.975,40.675 202.975,46.475 203.775,46.475 203.775,49.575" style="fill:none;stroke-width:0.2;stroke:black"/>
<polygon points="202.975,68.625 202.975,69.625 188.975,69.625 188.975,68.625 188.175,68.625 188.175,65.525 188.975,65.525 188.975,59.725 188.175,59.725 188.175,56.625 188.975,56.625 188.975,55.625 202.975,55.625 202.975,56.625 203.775,56.625 203.775,59.725 202.975,59.725 202.975,65.525 203.775,65.525 203.775,68.625" style="fill:none;stroke-width:0.2;stroke:black"/>
<polygon points="202.975,125.775 202.975,126.775 188.975,126.775 188.975,125.775 188.175,125.775 188.175,122.675 188.975,122.675 188.975,116.875 188.175,116.875 188.175,113.775 188.975,113.775 188.975,112.775 202.975,112.775 202.975,113.775 203.775,113.775 203.775,116.875 202.975,116.875 202.975,122.675 203.775,122.675 203.775,125.775" style="fill:none;stroke-width:0.2;stroke:black"/>
<polygon points="222.025,106.725 222.025,107.725 208.025,107.725 208.025,106.725 207.225,106.725 207.225,103.625 208.025,103.625 208.025,97.825 207.225,97.825 207.225,94.725 208.025,94.725 208.025,93.725 222.025,93.725 222.025,94.725 222.825,94.725 222.825,97.825 222.025,97.825 222.025,103.625 222.825,103.625 222.825,106.725" style="fill:none;stroke-width:0.2;stroke:black"/>
<polygon points="224.406,87.675 224.406,88.675 210.406,88.675 210.406,87.675 209.606,87.675 209.606,84.575 210.406,84.575 210.406,78.775 209.606,78.775 209.606,75.675 210.406,75.675 210.406,74.675 224.406,74.675 224.406,75.675 225.206,75.675 225.206,78.775 224.406,78.775 224.406,84.575 225.206,84.575 225.206,87.675" style="fill:none;stroke-width:0.2;stroke:black"/>
<polygon points="224.406,49.575 224.406,50.575 210.406,50.575 210.406,49.575 209.606,49.575 209.606,46.475 210.406,46.475 210.406,40.675 209.606,40.675 209.606,37.575 210.406,37.575 210.406,36.575 224.406,36.575 224.406,37.575 225.206,37.575 225.206,40.675 224.406,40.675 224.406,46.475 225.206,46.475 225.206,49.575" style="fill:none;stroke-width:0.2;stroke:black"/>
<polygon points="224.406,68.625 224.406,69.625 210.406,69.625 210.406,68.625 209.606,68.625 209.606,65.525 210.406,65.525 210.406,59.725 209.606,59.725 209.606,56.625 210.406,56.625 210.406,55.625 224.406,55.625 224.406,56.625 225.206,56.625 225.206,59.725 224.406,59.725 224.406,65.525 225.206,65.525 225.206,68.625" style="fill:none;stroke-width:0.2;stroke:black"/>
<polygon points="224.406,125.775 224.406,126.775 210.406,126.775 210.406,125.775 209.606,125.775 209.606,122.675 210.406,122.675 210.406,116.875 209.606,116.875 209.606,113.775 210.406,113.775 210.406,112.775 224.406,112.775 224.406,113.775 225.206,113.775 225.206,116.875 224.406,116.875 224.406,122.675 225.206,122.675 225.206,125.775" style="fill:none;stroke-width:0.2;stroke:black"/>
<polygon points="225.487,25.025 225.487,31.295 223.862,31.295 223.862,32.495 220.562,32.495 220.562,31.295 218.837,31.295 218.837,30.495 218.062,30.495 218.062,30.525 217.262,30.525 217.262,31.525 203.262,31.525 203.262,30.525 202.462,30.525 202.462,30.495 201.688,30.495 201.688,31.295 199.962,31.295 199.962,32.495 196.662,32.495 196.662,31.295 195.037,31.295 195.037,25.025 194.162,25.025 194.162,22.225 195.037,22.225 195.037,18.995 201.688,18.995 201.688,19.795 202.462,19.795 202.462,18.525 203.262,18.525 203.262,17.525 217.262,17.525 217.262,18.525 218.062,18.525 218.062,19.795 218.837,19.795 218.837,18.995 225.487,18.995 225.487,22.225 226.362,22.225 226.362,25.025" style="fill:none;stroke-width:0.2;stroke:black"/>
<polygon points="225.488,139.325 225.488,145.595 223.863,145.595 223.863,146.795 220.563,146.795 220.563,145.595 218.838,145.595 218.838,144.795 218.063,144.795 218.063,144.825 217.263,144.825 217.263,145.825 203.263,145.825 203.263,144.825 202.463,144.825 202.463,144.795 201.688,144.795 201.688,145.595 199.963,145.595 199.963,146.795 196.663,146.795 196.663,145.595 195.038,145.595 195.038,139.325 194.163,139.325 194.163,136.525 195.038,136.525 195.038,133.295 201.688,133.295 201.688,134.095 202.463,134.095 202.463,132.825 203.263,132.825 203.263,131.825 217.263,131.825 217.263,132.825 218.063,132.825 218.063,134.095 218.838,134.095 218.838,133.295 225.488,133.295 225.488,136.525 226.363,136.525 226.363,139.325" style="fill:none;stroke-width:0.2;stroke:black"/>
</svg>
